<?xml version="1.0" standalone="no"?>
<!DOCTYPE svg PUBLIC "-//W3C//DTD SVG 1.1//EN" "http://www.w3.org/Graphics/SVG/1.1/DTD/svg11.dtd" >
<svg xmlns="http://www.w3.org/2000/svg">
<metadata>Generated by IcoMoon</metadata>
<defs>
<font id="f5" horiz-adv-x="1024">
<font-face units-per-em="1024" ascent="960" descent="-64" />
<missing-glyph horiz-adv-x="1024" />
<glyph unicode="&#x20;" horiz-adv-x="512" d="" />
<glyph unicode="&#xe002;" glyph-name="chat-bubble" d="M512 922.494c-264.275 0-480.5-186.194-480.5-414.431 0-120.125 60.063-222.231 150.156-300.313 48.050-42.044 18.019-168.175-30.031-210.219-12.012-12.013-6.006-24.025 12.012-24.025 66.069 6.006 174.181 60.063 222.231 120.125 12.013 12.012 24.025 12.012 30.031 12.012 354.369-42.044 570.594 180.188 570.594 408.425 6.006 222.231-210.219 408.425-474.494 408.425zM289.769 441.994c-42.044 0-72.075 36.037-72.075 72.075s36.038 72.075 72.075 72.075c42.044 0 72.075-36.037 72.075-72.075s-30.031-72.075-72.075-72.075zM512 441.994c-42.044 0-72.075 36.037-72.075 72.075s30.031 72.075 72.075 72.075 72.075-36.037 72.075-72.075-30.031-72.075-72.075-72.075zM734.231 441.994c-42.044 0-72.075 36.037-72.075 72.075s36.038 72.075 72.075 72.075 72.075-36.037 72.075-72.075-30.031-72.075-72.075-72.075z" />
<glyph unicode="&#xe005;" glyph-name="share" horiz-adv-x="992" d="M796.332 284.182c-38.533 0-73.308-15.987-98.131-41.663l-367.738 183.87c1.121 7.040 1.721 14.253 1.721 21.609s-0.599 14.57-1.721 21.608l367.738 183.87c24.822-25.673 59.599-41.66 98.131-41.66 75.395 0 136.514 61.118 136.514 136.514s-61.118 136.514-136.514 136.514-136.514-61.118-136.514-136.514c0-7.357 0.601-14.57 1.72-21.608l-367.738-183.872c-24.822 25.673-59.599 41.663-98.13 41.663-75.395 0-136.514-61.121-136.514-136.514 0-75.397 61.118-136.514 136.514-136.514 38.533 0 73.308 15.987 98.13 41.66l367.738-183.87c-1.12-7.038-1.72-14.251-1.72-21.608 0-75.396 61.118-136.514 136.514-136.514s136.514 61.117 136.514 136.514c0 75.394-61.118 136.514-136.514 136.514z" />
<glyph unicode="&#xe008;" glyph-name="f5" horiz-adv-x="1079" d="M514.176 391.568c278.24-22.971 385.451-99.552 380.347-204.215-5.104-56.158-58.713-109.767-127.634-114.871-81.685-5.104-119.975 28.082-142.946 63.817-20.423 33.186-43.394 66.37-66.37 102.107-5.104 10.208-15.319 2.555-22.971-2.555-17.867-15.319-33.186-33.186-48.498-48.498-10.208-10.208-7.659-17.867-5.104-25.527 15.319-35.735 30.631-71.477 45.95-104.658 25.527-15.319 140.398-35.735 224.633-28.082 58.713 5.104 130.183 28.082 191.451 71.477 58.713 45.95 102.107 107.211 109.767 206.763 2.555 61.262-7.659 125.079-61.262 183.792-53.607 58.713-145.502 107.211-331.847 119.975 7.643 28.087 17.854 56.165 25.513 84.242 112.315-5.104 211.87-12.763 296.107-22.971 7.659 33.186 10.208 63.817 17.867 94.448l-22.971 30.631c-43.394 5.104-84.24 15.319-130.183 20.423-58.713 7.659-119.975 12.763-186.345 15.319-38.29-122.528-91.902-278.245-145.504-441.616zM440.149 868.919c-20.423 0-48.498-5.104-94.448-15.319-99.557-25.527-219.531-97.001-232.295-211.867-2.555-17.867-2.555-38.29-5.104-56.158-28.078-2.555-53.602-5.111-76.581-7.657-2.549-20.423-5.104-40.846-5.104-63.817 25.527 2.555 51.054 2.555 79.131 5.104-5.104-119.975 0-239.95 10.208-352.265 2.555-17.867 2.555-33.186 2.555-43.394-2.555-10.208-20.423-15.319-45.95-15.319l33.186-40.843c97.003-17.867 219.527-30.631 349.717-33.186 0 12.763 0 25.527 0 38.29-76.581 5.104-112.315 15.319-117.419 30.631-5.104 12.763-5.104 30.631-7.659 48.498-5.104 117.419-7.659 245.054-5.104 375.243 43.394 0 86.789 0 130.183 2.555 22.971 10.208 43.394 20.423 63.817 30.631 0 15.319 0 30.631 0 43.394-66.37 0-130.183-2.555-194-2.555 2.555 53.607 5.104 104.658 7.659 153.161 2.555 33.186 25.527 56.158 45.95 56.158 35.735 2.555 68.921-12.763 102.107-28.082 17.867-7.659 35.735-17.867 53.607-25.527 7.659-2.555 17.867-5.104 25.527 2.555 10.208 12.763 20.423 25.527 30.631 35.735 5.104 7.659 2.555 12.763 0 15.319-22.971 17.867-43.394 33.186-66.37 51.054-12.763 10.208-35.735 10.208-56.158 10.208-10.217 0.002-20.432-2.546-28.087-2.546z" />
<glyph unicode="&#xe009;" glyph-name="call" d="M692.199 437.079c0 54.606-21.842 103.751-60.066 136.514v0c-38.224 32.763-87.37 54.606-141.975 54.606v0c-21.842 0-43.684 21.842-43.684 43.684v0c0 21.842 21.842 43.684 43.684 43.684v0c76.448 0 152.897-32.764 202.041-81.91v0c49.146-49.146 81.91-120.133 81.91-202.041v0c0-21.842-21.842-43.684-43.684-43.684v0c-16.383 5.46-38.224 21.842-38.224 49.146v0zM861.478 458.921v0c0 92.829-38.224 174.738-98.29 234.805v0c-60.066 60.066-147.436 98.29-240.265 98.29v0c-21.842 0-43.684 21.842-43.684 43.684v0c-5.46 27.303 16.383 49.146 38.224 49.146v0c120.134 0 223.884-49.146 305.793-125.594v0c76.447-76.448 125.594-180.199 125.594-300.332v0c0 0 0-43.684-43.684-43.684s-43.684 43.684-43.684 43.684zM299.037 240.499c147.436-147.436 267.568-191.121 349.478-218.423 103.751-32.764 185.659 16.382 202.041 54.606 10.921 16.383 38.224 103.751 38.224 120.133 10.921 65.527-223.883 158.357-256.647 92.829-10.922-16.383-21.842-70.987-76.447-38.224-38.224 21.842-223.883 207.502-245.726 245.726-32.763 54.606 21.842 65.527 38.224 76.447 65.527 27.303-27.303 267.568-92.829 256.647-16.383 0-103.751-27.303-120.134-38.224-32.763-16.382-81.91-98.289-49.146-207.501 21.842-76.448 70.987-202.041 212.963-344.017z" />
<glyph unicode="&#xe00a;" glyph-name="tags" horiz-adv-x="1040" d="M919.299 855.298h-203.65c-48.004 0-115.049-27.77-148.993-61.714l-342.057-342.057c-33.943-33.943-33.943-89.484 0-123.43l254.775-254.774c33.943-33.943 89.484-33.943 123.43 0l342.052 342.052c33.947 33.945 61.719 100.991 61.719 148.995v203.65c0 48.004-39.275 87.279-87.279 87.279zM802.928 564.371c-48.202 0-87.279 39.076-87.279 87.279s39.076 87.279 87.279 87.279 87.279-39.076 87.279-87.279-39.076-87.279-87.279-87.279zM96.179 369.244l311.272-311.272c-32.969-17.42-74.971-12.308-102.629 15.353l-254.778 254.775c-33.941 33.943-33.941 89.487 0 123.427l342.057 342.057c33.943 33.943 100.989 61.714 148.993 61.714l-444.914-444.911c-11.312-11.315-11.312-29.829 0-41.144z" />
<glyph unicode="&#xe00b;" glyph-name="file" horiz-adv-x="960" d="M397.195 834.509v-162.641c0-115.064 93.612-208.653 208.653-208.653h155.092v-391.227h-578.336v762.522h214.592zM489.265 926.579h-328.781c-38.623 0-69.95-31.304-69.95-69.95v-806.761c0-38.623 31.327-69.95 69.95-69.95h622.599c38.623 0 69.95 31.327 69.95 69.95v505.394h-247.161c-64.38 0-116.583 52.204-116.583 116.583v254.734h-0.023zM855.38 647.354h-244.837c-12.913 0-23.34 10.427-23.34 23.317v254.182l268.176-277.498z" />
<glyph unicode="&#xe00c;" glyph-name="image" d="M884 758h-744v-620h744v620zM1008 882v0-868h-992v868h992zM822 200h-620v124l186 310 254.782-310 179.218 124v-62zM636 603c0-51.362 41.638-93 93-93s93 41.638 93 93c0 51.362-41.638 93-93 93s-93-41.638-93-93z" />
<glyph unicode="&#xe00f;" glyph-name="linkedin" d="M259.89 803.84c0-54.425-40.192-98.51-106.29-98.51-62.208 0-102.4 44.082-102.4 98.51 0 55.705 41.522 98.51 105.010 98.51s102.4-42.805 103.68-98.51zM56.423-6.35v633.856h197.017v-633.856h-197.017zM371.353 425.319c0 79.054-2.61 145.152-5.223 202.19h171.111l9.113-88.167h3.89c25.906 41.522 89.447 102.4 195.737 102.4 129.586 0 226.816-86.834 226.816-273.511v-374.631h-197.017v351.282c0 81.664-28.569 137.422-99.84 137.422-54.425 0-86.784-37.582-101.070-73.881-5.223-12.953-6.503-31.079-6.503-49.255v-365.568h-197.015v431.719z" />
<glyph unicode="&#xe010;" glyph-name="play" d="M822.937 474.265l-438.322 271.566c-31.95 20.942-58.062 5.479-58.062-34.304v-527.154c0-39.783 26.162-55.193 58.062-34.254l438.375 271.566c0 0 15.566 10.958 15.566 26.318-0.053 15.307-15.618 26.263-15.618 26.263z" />
<glyph unicode="&#xe011;" glyph-name="pause" d="M691.2 806.4c-50.894 0-92.16-15.666-92.16-66.56v-583.68c0-50.894 41.266-66.56 92.16-66.56s92.16 15.666 92.16 66.56v583.68c0 50.894-41.266 66.56-92.16 66.56zM332.8 806.4c-50.894 0-92.16-15.666-92.16-66.56v-583.68c0-50.894 41.266-66.56 92.16-66.56s92.16 15.666 92.16 66.56v583.68c0 50.894-41.266 66.56-92.16 66.56z" />
<glyph unicode="&#xe012;" glyph-name="record" d="M512 806.4c-197.938 0-358.4-160.462-358.4-358.4s160.462-358.4 358.4-358.4c197.888 0 358.4 160.462 358.4 358.4s-160.512 358.4-358.4 358.4z" />
<glyph unicode="&#xe013;" glyph-name="stop" d="M742.4 755.2h-460.8c-50.894 0-76.8-15.666-76.8-66.56v-481.28c0-50.894 25.906-66.56 76.8-66.56h460.8c50.894 0 76.8 15.666 76.8 66.56v481.28c0 50.894-25.906 66.56-76.8 66.56z" />
<glyph unicode="&#xe014;" glyph-name="next" d="M938.034 472.526l-382.055 253.44c-29.337 19.557-53.401 5.17-53.401-31.95v-491.982c0-37.17 24.064-51.559 53.401-31.95l382.055 253.39c0 0 14.286 10.24 14.286 24.526s-14.286 24.526-14.286 24.526zM473.394 472.526l-368.843 253.49c-29.287 19.506-53.301 5.12-53.301-32v-491.982c0-37.17 24.014-51.559 53.351-31.95l368.846 253.39c0 0 14.286 10.24 14.286 24.526s-14.338 24.526-14.338 24.526z" />
<glyph unicode="&#xe015;" glyph-name="previous" d="M71.63 448c0-14.286 14.286-24.526 14.286-24.526l382.105-253.39c29.287-19.609 53.351-5.223 53.351 31.95l-0.002 491.982c0 37.17-24.064 51.506-53.351 32l-382.105-253.44c0.053-0.050-14.283-10.29-14.283-24.576zM536.32 448c0-14.286 14.286-24.526 14.286-24.526l368.793-253.39c29.337-19.609 53.351-5.223 53.351 31.95v491.982c0 37.17-24.014 51.506-53.351 32l-368.793-253.44c0-0.050-14.286-10.29-14.286-24.576z" />
<glyph unicode="&#xe016;" glyph-name="first" d="M383.232 448c0-13.209 13.415-22.631 13.415-22.631l372.48-233.934c27.595-18.073 50.073-4.761 50.073 29.442v454.245c0 34.254-22.478 47.566-50.073 29.49l-372.48-233.984c0-0.050-13.415-9.419-13.415-22.629zM204.8 685.721v-475.442c0-45.465 31.335-59.392 76.8-59.392s76.8 13.927 76.8 59.339v475.495c0 45.518-31.335 59.442-76.8 59.442s-76.8-13.977-76.8-59.442z" />
<glyph unicode="&#xe017;" glyph-name="last" d="M627.353 470.631l-372.48 233.984c-27.545 18.023-50.073 4.761-50.073-29.543v-454.194c0-34.304 22.528-47.513 50.073-29.49l372.48 233.934c0 0 13.465 9.472 13.465 22.631s-13.465 22.679-13.465 22.679zM742.4 745.166c-45.465 0-76.8-13.977-76.8-59.442v-475.442c0-45.518 31.335-59.495 76.8-59.495s76.8 13.977 76.8 59.495v475.44c0 45.465-31.335 59.445-76.8 59.445z" />
<glyph unicode="&#xe24f;" glyph-name="bin" d="M248.053 25.685h527.893l52.789 580.682h-633.471zM617.578 764.736v105.578h-211.157v-105.578h-263.947v-158.368l52.789 52.789h633.471l52.789-52.789v158.368h-263.947zM564.789 764.736h-105.578v52.789h105.578v-52.789z" />
<glyph unicode="&#xe4ba;" glyph-name="github" d="M512 944c-273.933 0-496-222.067-496-496s222.067-496 496-496 496 222.067 496 496-222.067 496-496 496zM806.554 153.446c-38.283-38.281-82.84-68.328-132.436-89.305-12.6-5.328-25.395-10.005-38.362-14.039v74.336c0 39.074-13.402 67.813-40.203 86.219 16.792 1.614 32.211 3.875 46.258 6.781s28.902 7.105 44.563 12.594 29.708 12.028 42.141 19.617 24.38 17.438 35.844 29.547 21.070 25.833 28.82 41.172 13.886 33.745 18.406 55.219 6.781 45.128 6.781 70.961c0 50.051-16.308 92.676-48.922 127.875 14.855 38.75 13.239 80.891-4.844 126.422l-12.109 1.453c-8.395 0.969-23.492-2.583-45.289-10.656s-46.258-21.313-73.383-39.719c-38.426 10.656-78.308 15.984-119.641 15.984-41.656 0-81.375-5.328-119.156-15.984-17.114 11.625-33.341 21.231-48.68 28.82s-27.609 12.755-36.813 15.5-17.761 4.441-25.672 5.086-12.997 0.808-15.258 0.484-3.875-0.645-4.844-0.969c-18.083-45.855-19.699-87.995-4.844-126.422-32.614-35.199-48.922-77.824-48.922-127.875 0-25.833 2.261-49.488 6.781-70.961s10.656-39.88 18.406-55.219 17.356-29.063 28.82-41.172 23.411-21.958 35.844-29.547 26.48-14.128 42.141-19.617 30.516-9.688 44.563-12.594 29.465-5.167 46.258-6.781c-26.48-18.083-39.719-46.824-39.719-86.219v-75.785c-14.626 4.354-29.043 9.498-43.206 15.488-49.594 20.977-94.151 51.024-132.434 89.305-38.281 38.283-68.33 82.84-89.305 132.436-21.698 51.303-32.701 105.848-32.701 162.118s11.003 110.815 32.703 162.12c20.977 49.594 51.024 94.151 89.305 132.434s82.84 68.33 132.434 89.305c51.305 21.7 105.849 32.703 162.12 32.703s110.815-11.003 162.12-32.703c49.596-20.977 94.153-51.024 132.436-89.305 38.281-38.281 68.328-82.84 89.305-132.434 21.698-51.305 32.701-105.849 32.701-162.12s-11.003-110.815-32.703-162.12c-20.977-49.594-51.024-94.153-89.305-132.434z" />
<glyph unicode="&#xe600;" glyph-name="print" horiz-adv-x="1108" d="M755.396 853.52h-441.116c-6.906 0-12.576-5.688-12.576-12.613v-247.669h466.267v247.669c0 6.924-5.631 12.613-12.576 12.613zM708.367 223.352v-115.825h-347.057v115.825h347.057zM754.046 280.428h-438.395c-6.298 0-11.415-5.137-11.415-11.454v-207.069c0-6.335 5.119-11.473 11.415-11.473h438.395c6.278 0 11.396 5.137 11.396 11.473v207.088c0 6.317-5.119 11.433-11.396 11.433v0zM908.015 537.209h-746.355c-22.792 0-41.474-18.701-41.474-41.569 0 0 0-265.838 0-266.884 0-28.005 46.744-53.346 122.255-71.668v121.039c0 29.737 24.142 53.936 53.765 53.936h477.265c29.66 0 53.765-24.181 53.765-53.936v-121.039c75.491 18.321 122.255 43.663 122.255 71.668 0 1.066 0 266.884 0 266.884 0 22.868-18.683 41.569-41.474 41.569z" />
<glyph unicode="&#xe601;" glyph-name="home" d="M893.988 503.749v0c-2.067 0-2.067 0 0 0l-326.238 324.173c-28.907 28.907-78.462 28.907-107.369 0l-322.108-322.108c-6.195-6.195-12.388-12.388-16.517-20.649-14.455-18.583-24.778-39.233-24.778-64.010v-264.294c0-57.816 53.684-111.499 111.499-111.499h97.046v243.647c0 10.324 12.388 22.713 24.778 22.713h138.342c10.324 0 10.324-10.324 10.324-22.713v-243.647h351.015c57.816 0 105.305 53.684 105.305 111.499v264.294c-4.129 33.037-18.583 61.945-41.295 82.592zM759.777 158.927c0-10.324-8.259-18.583-18.583-18.583h-132.148c-10.324 0-18.583 8.259-18.583 18.583v134.211c0 10.324 8.259 18.583 18.583 18.583h132.148c10.324 0 18.583-8.259 18.583-18.583v-134.211z" />
<glyph unicode="&#xe602;" glyph-name="calendar" d="M341.333 645.973c18.773 0 35.84 15.36 35.84 35.84v114.347c0 18.773-15.36 35.84-35.84 35.84-18.773 0-35.84-15.36-35.84-35.84v-114.347c0-20.48 15.36-35.84 35.84-35.84zM680.96 645.973c18.773 0 35.84 15.36 35.84 35.84v114.347c0 18.773-15.36 35.84-35.84 35.84-18.773 0-35.84-15.36-35.84-35.84v-114.347c1.707-20.48 17.067-35.84 35.84-35.84zM866.987 738.133c-5.12 5.12-11.947 8.533-20.48 8.533h-92.16v-64.853c0-40.96-34.133-75.093-75.093-75.093s-75.093 34.133-75.093 75.093v64.853h-189.44v-66.56c0-40.96-34.133-75.093-75.093-75.093s-75.093 32.427-75.093 75.093v66.56h-88.747c-6.827 0-13.653-3.413-18.773-8.533s-8.533-11.947-8.533-20.48v-626.347c0-6.827 3.413-13.653 8.533-18.773s11.947-8.533 18.773-8.533h670.72c6.827 0 13.653 3.413 20.48 8.533 5.12 5.12 8.533 11.947 8.533 18.773v628.053c0 6.827-3.413 13.653-8.533 18.773zM819.2 120.32h-614.4v409.6h614.4v-409.6zM399.36 301.227c0-5.12-3.413-8.533-8.533-8.533h-107.52c-5.12 0-8.533 3.413-8.533 8.533v47.787c0 5.12 3.413 8.533 8.533 8.533h107.52c5.12 0 8.533-3.413 8.533-8.533v-47.787zM575.147 301.227c0-5.12-3.413-8.533-8.533-8.533h-107.52c-5.12 0-8.533 3.413-8.533 8.533v47.787c0 5.12 3.413 8.533 8.533 8.533h107.52c5.12 0 8.533-3.413 8.533-8.533v-47.787zM750.933 301.227c0-5.12-3.413-8.533-8.533-8.533h-107.52c-5.12 0-8.533 3.413-8.533 8.533v47.787c0 5.12 3.413 8.533 8.533 8.533h107.52c5.12 0 8.533-3.413 8.533-8.533v-47.787zM399.36 193.707c0-5.12-3.413-8.533-8.533-8.533h-107.52c-5.12 0-8.533 3.413-8.533 8.533v49.493c0 5.12 3.413 8.533 8.533 8.533h107.52c5.12 0 8.533-3.413 8.533-8.533v-49.493zM575.147 193.707c0-5.12-3.413-8.533-8.533-8.533h-107.52c-5.12 0-8.533 3.413-8.533 8.533v49.493c0 5.12 3.413 8.533 8.533 8.533h107.52c5.12 0 8.533-3.413 8.533-8.533v-49.493zM750.933 193.707c0-5.12-3.413-8.533-8.533-8.533h-107.52c-5.12 0-8.533 3.413-8.533 8.533v49.493c0 5.12 3.413 8.533 8.533 8.533h107.52c5.12 0 8.533-3.413 8.533-8.533v-49.493zM399.36 407.040c0-5.12-3.413-8.533-8.533-8.533h-107.52c-5.12 0-8.533 3.413-8.533 8.533v47.787c0 5.12 3.413 8.533 8.533 8.533h107.52c5.12 0 8.533-3.413 8.533-8.533v-47.787zM575.147 407.040c0-5.12-3.413-8.533-8.533-8.533h-107.52c-5.12 0-8.533 3.413-8.533 8.533v47.787c0 5.12 3.413 8.533 8.533 8.533h107.52c5.12 0 8.533-3.413 8.533-8.533v-47.787zM750.933 407.040c0-5.12-3.413-8.533-8.533-8.533h-107.52c-5.12 0-8.533 3.413-8.533 8.533v47.787c0 5.12 3.413 8.533 8.533 8.533h107.52c5.12 0 8.533-3.413 8.533-8.533v-47.787z" />
<glyph unicode="&#xe603;" glyph-name="edit, pencil" horiz-adv-x="1348" d="M1145.647 693.826c11.186-11.186 11.186-29.324 0.023-40.511l-40.534-40.511c-11.14-11.186-29.301-11.186-40.511 0l-211.76 211.76c-11.163 11.186-11.163 29.324 0 40.511l40.534 40.511c11.186 11.163 29.301 11.163 40.511 0l211.737-211.76zM1039.652 572.709l-226.077 226.1c-7.435 7.458-19.542 7.458-26.976 0 0 0-490.755-490.732-494.645-494.668-3.959-3.913-4.857-6.491-5.846-10.542-9.805-40.741-35.171-238-38.853-266.703-0.299-2.279 0.829-19.91 18.782-17.769 40.856 4.857 232.545 27.207 269.534 36.414 5.708 1.45 9.967 6.077 9.967 6.077l494.115 494.138c7.458 7.412 7.458 19.496 0 26.953zM925.508 527.433l-370.88-370.88c-11.163-11.186-29.301-11.163-40.511-0.023l-110.898 110.944c-11.186 11.186-11.186 29.324 0 40.511l370.88 370.88c11.163 11.186 29.301 11.186 40.511 0.023l110.898-110.921c11.186-11.209 11.186-29.347 0-40.534z" />
<glyph unicode="&#xe604;" glyph-name="archive" d="M850.203-2.938h-676.407c-62.23 0-112.734 50.505-112.734 112.734v676.407c0 62.23 50.505 112.734 112.734 112.734h676.407c62.23 0 112.734-50.505 112.734-112.734v-676.407c0-62.23-50.505-112.734-112.734-112.734zM850.203 729.836c0 31.114-25.196 56.368-56.368 56.368h-563.672c-31.171 0-56.368-25.252-56.368-56.368v-394.571c0-31.171 25.196-56.368 56.368-56.368h56.368c56.029 0 56.368-56.368 56.368-56.368v-56.368c0-31.171 25.196-56.368 56.368-56.368h225.469c31.171 0 56.368 25.196 56.368 56.368v56.368c0 0 7.666 56.368 56.368 56.368h56.368c31.171 0 56.368 25.196 56.368 56.368v394.571zM286.531 448h169.102v225.469h112.734v-225.469h169.102l-225.469-225.469-225.469 225.469z" />
<glyph unicode="&#xe605;" glyph-name="cart" d="M430.614 234.846c-36.819 0-65.885-29.066-65.885-65.885s29.066-65.885 65.885-65.885c36.819 0 65.885 29.066 65.885 65.885s-29.066 65.885-65.885 65.885zM738.719 234.846c-36.819 0-65.885-29.066-65.885-65.885s29.066-65.885 65.885-65.885c36.819 0 65.885 29.066 65.885 65.885s-29.066 65.885-65.885 65.885zM918.931 630.15c5.813 17.439 7.751 27.129 7.751 36.819 0 21.315-19.379 38.755-40.693 38.755h-569.704l-7.751 32.941c-7.751 31.005-40.693 56.195-73.635 56.195h-94.952c-21.315 0-40.693-17.439-40.693-40.693 0-21.315 17.439-40.693 40.693-40.693h91.075l108.514-410.807c7.751-31.005 40.693-56.195 73.635-56.195h342.985c32.941 0 63.946 23.254 73.635 56.195l89.137 327.483z" />
<glyph unicode="&#xe606;" glyph-name="nav" horiz-adv-x="878" d="M877.714 192v-73.143q0-14.857-10.857-25.714t-25.714-10.857h-804.571q-14.857 0-25.714 10.857t-10.857 25.714v73.143q0 14.857 10.857 25.714t25.714 10.857h804.571q14.857 0 25.714-10.857t10.857-25.714zM877.714 484.571v-73.143q0-14.857-10.857-25.714t-25.714-10.857h-804.571q-14.857 0-25.714 10.857t-10.857 25.714v73.143q0 14.857 10.857 25.714t25.714 10.857h804.571q14.857 0 25.714-10.857t10.857-25.714zM877.714 777.143v-73.143q0-14.857-10.857-25.714t-25.714-10.857h-804.571q-14.857 0-25.714 10.857t-10.857 25.714v73.143q0 14.857 10.857 25.714t25.714 10.857h804.571q14.857 0 25.714-10.857t10.857-25.714z" />
<glyph unicode="&#xe607;" glyph-name="subscribe, rss" horiz-adv-x="1113" d="M389.695 183.41c0-54.578-44.245-98.824-98.824-98.824s-98.824 44.245-98.824 98.824c0 54.579 44.245 98.824 98.824 98.824s98.824-44.245 98.824-98.824zM639.165 53.033c-35.147 0-64.75 27.259-67.161 62.822-12.075 177.445-154.919 320.028-332.407 331.75-37.141 2.433-65.254 34.533-62.801 71.674 2.433 37.12 34.49 65.275 71.674 62.801 244.475-16.105 441.311-212.636 457.987-457.090 2.521-37.141-25.529-69.286-62.646-71.807-1.556-0.109-3.089-0.175-4.645-0.175zM900.798 68.854c-35.453 0-65.167 27.698-67.204 63.545-17.903 313.718-268.030 562.223-581.878 578.066-37.164 1.883-65.736 33.526-63.896 70.71 1.863 37.164 33.373 65.736 70.71 63.896 184.524-9.291 358.462-86.291 489.803-216.821 131.254-130.465 209.349-303.813 219.78-488.182 2.125-37.141-26.295-68.98-63.458-71.084-1.315-0.088-2.63-0.131-3.922-0.131z" />
<glyph unicode="&#xe608;" glyph-name="doc" d="M648.142 556.113c-64.067 0-116.12 52.055-116.12 116.12v256.267h-336.35c-36.037 0-68.070-32.033-68.070-68.070v-820.855c0-36.038 32.033-68.070 68.070-68.070h632.658c36.038 0 68.070 32.033 68.070 68.070v516.538h-248.258zM223.7 752.317c0 12.012 12.013 24.025 24.025 24.025h192.2c12.012 0 24.025-12.012 24.025-24.025v-20.020c0-12.012-12.012-24.025-24.025-24.025h-192.2c-12.012 0-24.025 12.012-24.025 24.025v20.020zM223.7 600.158c0 12.012 12.013 24.025 24.025 24.025h216.225c12.012 0 24.025-12.012 24.025-24.025v-20.020c0-12.012-12.012-24.025-24.025-24.025h-216.225c-12.012 0-24.025 12.012-24.025 24.025v20.020zM800.3 119.658c0-12.013-12.012-24.025-24.025-24.025h-528.55c-12.012 0-24.025 12.012-24.025 24.025v20.020c0 12.013 12.013 24.025 24.025 24.025h528.55c12.012 0 24.025-12.012 24.025-24.025v-20.020zM800.3 271.817c0-12.013-12.012-24.025-24.025-24.025h-528.55c-12.012 0-24.025 12.012-24.025 24.025v20.020c0 12.012 12.013 24.025 24.025 24.025h528.55c12.012 0 24.025-12.012 24.025-24.025v-20.020zM800.3 423.975c0-12.012-12.012-24.025-24.025-24.025h-528.55c-12.012 0-24.025 12.013-24.025 24.025v24.025c0 12.012 12.013 24.025 24.025 24.025h528.55c12.012 0 24.025-12.012 24.025-24.025v-24.025zM648.142 644.205h248.258l-268.28 280.292v-260.27c-4.005-8.008 8.008-20.020 20.020-20.020z" />
<glyph unicode="&#xe609;" glyph-name="pdf" horiz-adv-x="964" d="M865.925 657.185h-244.837c-12.913 0-23.34 10.427-23.34 23.317v254.182l268.176-277.498zM287.128 399.643h-26.608v-72.965h19.45c28.219 0 43.779 10.059 43.779 38.278 0.023 21.084-8.401 34.687-36.621 34.687zM477.621 398.354h-12.66v-152.744h12.66c41.846 0 63.873 19.473 63.873 77.822 0 56.117-20.117 74.922-63.873 74.922zM616.416 565.093c-64.38 0-116.583 52.204-116.583 116.583v254.734h-328.804c-38.623 0-69.95-31.304-69.95-69.95v-806.784c0-38.623 31.327-69.95 69.95-69.95h622.599c38.623 0 69.95 31.327 69.95 69.95v505.417h-247.161zM286.806 287.111h-26.263v-84.336h-52.227v238.069h89.193c58.372 0 79.456-29.209 79.456-71.676 0-33.398-11.348-82.057-90.159-82.057zM470.14 202.775h-57.728v238.069h58.372c90.159 0 124.87-39.567 124.87-114.167 0.023-82.725-34.687-123.903-125.514-123.903zM775.443 398.354h-87.881v-59.661h76.533v-41.201h-76.533v-94.717h-52.549v238.069h140.429v-42.49z" />
<glyph unicode="&#xe60a;" glyph-name="mvp" horiz-adv-x="1348" d="M671.787 919.627c14.432 0 26.171-11.739 26.171-26.217 0-7.573-3.291-14.363-8.401-19.127l74.346-187.799c1.128-4.627 2.808-9.115 4.719-13.419l37.265 56.922c-4.673 4.742-7.573 11.209-7.573 18.368 0 14.501 11.762 26.24 26.286 26.24 14.478 0 26.171-11.739 26.171-26.24 0-8.609-4.189-16.181-10.611-20.946l31.856-86.73c5.939 3.614 11.394 8.033 16.158 13.212l119.414 95.776c-0.806 2.532-1.381 5.202-1.381 7.987 0 14.478 11.762 26.217 26.24 26.217s26.263-11.739 26.263-26.217c0-13.557-10.358-24.56-23.547-25.941-19.381-67.901-73.057-271.744-73.057-271.744h-580.914l-77.661 271.537c-14.087 0.437-25.457 11.923-25.457 26.148 0 14.478 11.785 26.217 26.263 26.217 14.432 0 26.194-11.739 26.194-26.217 0-4.028-0.967-7.78-2.578-11.186l126.688-99.435c1.404-1.496 2.923-2.762 4.488-4.12l31.166 84.934c-6.1 4.811-10.082 12.153-10.082 20.509 0 14.501 11.762 26.24 26.194 26.24 14.501 0 26.217-11.739 26.217-26.24 0-7.527-3.245-14.294-8.309-19.058l43.526-71.883c4.627 7.089 8.148 14.915 10.151 23.271l75.912 193.692c-5.087 4.788-8.309 11.532-8.309 19.058-0.092 14.455 11.693 26.194 26.194 26.194zM1096.574 324.88c-0.322 1.358-1.22 2.509-2.463 3.176-15.33 8.102-68.086 10.91-125.399 13.235-4.442 0.184-8.747 0.345-12.683 0.506-9.276 0.414-18.897 0.575-28.45 0.575-100.609 0-191.919-14.179-219.034-25.503-20.255-8.424-58.579-9.345-81.090 0-27.138 11.325-118.448 25.503-219.057 25.503-9.552 0-19.151-0.184-28.519-0.575-3.936-0.184-8.148-0.345-12.614-0.506-57.382-2.348-110.115-5.156-125.422-13.235-1.243-0.644-2.164-1.818-2.44-3.176-4.327-18.184-4.419-42.766-0.115-65.853 0.253-1.358 1.059-2.532 2.256-3.338 1.772-1.036 3.591-2.026 5.317-3.015 9.759-5.363 16.78-9.253 18.414-25.043 1.726-15.859 21.821-92.668 30.866-111.496 14.11-29.554 40.603-48.981 80.975-59.362 21.452-5.478 41.247-8.148 60.628-8.148 19.104 0 38.209 2.417 62.055 7.941 29.646 6.882 56.001 21.268 74.231 40.534 25.434 27.092 49.626 93.221 56.715 115.018 0.437 1.312 6.836 25.204 17.263 29.877 14.57 6.629 30.015 5.363 40.649 0 10.358-5.248 16.273-28.565 16.711-29.877 7.089-21.798 31.189-87.927 56.715-115.018 18.207-19.266 44.539-33.652 74.185-40.534 23.823-5.501 42.951-7.941 62.009-7.941 19.45 0 39.222 2.67 60.651 8.148 40.35 10.381 66.82 29.808 81.044 59.362 8.931 18.805 29.117 95.637 30.797 111.496 1.657 15.79 8.701 19.657 18.414 25.043 1.795 0.99 3.522 1.98 5.317 3.015 1.243 0.783 2.049 1.98 2.279 3.338 4.212 23.086 4.143 47.669-0.207 65.853zM601.17 219.138c-5.777-26.654-28.749-76.74-36.552-89.676-13.672-22.603-46.495-41.823-69.098-48.544-41.662-9.368-91.218-6.33-125.376 4.995-16.573 6.33-33.951 17.954-49.418 44.539-14.133 30.314-18.253 68.132-18.69 113.108-0.184 18.138 3.867 53.377 42.559 60.789 54.39 10.45 142.754 18.437 224.512-11.578 17.654-6.514 44.355-17.493 32.063-73.633zM1015.184 130.451c-15.514-26.562-32.892-38.186-49.395-44.539-34.158-11.325-83.807-14.363-125.445-4.995-22.534 6.721-55.38 25.941-69.052 48.544-7.849 12.936-30.774 62.999-36.575 89.676-12.222 56.117 14.432 67.096 32.132 73.61 81.735 30.015 170.099 22.028 224.535 11.578 38.6-7.389 42.674-42.651 42.513-60.789-0.437-44.953-4.534-82.771-18.713-113.085zM596.129 220.219c-5.616-25.734-28.127-75.106-35.953-88.065-12.245-20.278-43.135-39.406-65.968-46.219-15.744-3.522-33.582-5.409-51.628-5.409-25.595 0-50.707 3.66-70.71 10.243-12.153 4.673-30.199 14.11-46.587 42.076-11.831 25.503-21.936 75.658-22.672 124.685l-49.050-9.069c2.095-2.831 5.985-15.652 6.56-21.406 1.795-16.642 21.959-93.635 31.327-113.131 14.823-31.074 42.421-51.375 84.336-62.17 21.844-5.593 42.099-8.286 61.894-8.286 19.634 0 39.13 2.486 63.229 8.056 30.59 7.112 57.912 22.028 76.809 42.030 30.176 32.063 56.738 113.499 57.843 116.929 0.046 0.115 0.115 0.345 0.23 0.668 4.926 16.757 11.9 28.311 15.606 29.992 1.887 0.852 6.33 3.706 8.309 4.327l-56.853 12.936c-0.368-5.685-5.133-30.981-6.721-38.186zM1033.874 254.953c-0.783-49.027-11.394-96.581-23.248-122.085-16.411-27.966-34.411-37.403-46.541-42.099-20.002-6.583-45.137-10.243-70.756-10.243-18.069 0-35.907 1.887-51.628 5.409-22.833 6.836-53.7 25.964-65.945 46.219-7.803 12.867-30.268 62.078-35.953 88.065-1.565 7.181-5.041 39.383-5.386 45.068l-53.262-20.693c1.795-0.552 6.1-3.821 7.711-4.627 4.719-2.394 7.504-15.007 11.302-28.749 0.115-0.322 0.161-0.529 0.207-0.691 1.128-3.453 27.897-85.119 57.912-116.952 18.851-20.002 46.127-34.94 76.74-42.030 24.099-5.547 43.618-8.056 63.206-8.056 19.841 0 40.096 2.693 61.94 8.286 41.846 10.772 69.467 31.12 84.405 62.17 9.115 19.174 28.242 97.111 29.946 113.154 0.598 5.731 3.222 17.217 5.294 20.071l-45.943 7.78z" />
<glyph unicode="&#xe60b;" glyph-name="clear, clear-left" horiz-adv-x="1348" d="M812.233 99.116h-478.805c-10.427 0-20.395 4.279-27.567 11.834-25.302 26.596-247.765 260.719-269.016 288.498-30.079 39.324-14.993 77.167 3.481 94.573l265.285 284.236c7.193 7.705 17.275 12.081 27.815 12.081h478.805c73.437 0 133.175-59.738 133.175-133.175v-424.87c0-73.437-59.74-133.175-133.175-133.175zM349.752 175.217h462.479c31.467 0 57.075 25.607 57.075 57.075v424.87c0 31.466-25.607 57.075-57.075 57.075h-462.273l-251.74-269.737c18.093-22.374 158.309-171.149 251.53-269.281zM699.073 287.771c-9.741 0-19.462 3.708-26.901 11.147l-257.809 257.79c-14.859 14.859-14.859 38.945 0 53.802 14.839 14.859 38.945 14.859 53.802 0l257.809-257.772c14.859-14.859 14.859-38.945 0-53.802-7.42-7.439-17.179-11.168-26.901-11.168zM446.952 287.771c-9.741 0-19.481 3.708-26.901 11.147-14.859 14.859-14.859 38.945 0 53.802l257.809 257.772c14.859 14.859 38.964 14.859 53.802 0 14.859-14.859 14.859-38.945 0-53.802l-257.809-257.772c-7.439-7.42-17.161-11.149-26.901-11.149z" />
<glyph unicode="&#xe60c;" glyph-name="close" horiz-adv-x="996" d="M673.741 228.093c-12.962 0-25.9 4.936-35.8 14.836l-343.078 343.052c-19.774 19.774-19.774 51.826 0 71.598 19.748 19.774 51.826 19.774 71.598 0l343.078-343.052c19.774-19.774 19.774-51.826 0-71.598-9.875-9.899-22.861-14.836-35.8-14.836zM338.232 228.093c-12.962 0-25.9 4.936-35.8 14.836-19.774 19.774-19.774 51.826 0 71.598l343.078 343.052c19.748 19.774 51.826 19.774 71.598 0s19.774-51.826 0-71.598l-343.078-343.052c-9.875-9.899-22.837-14.836-35.8-14.836z" />
<glyph unicode="&#xe60d;" glyph-name="refresh" horiz-adv-x="964" d="M451.354 645.020l-0.443-1.413-16.539-49.788c-7.995-23.859 5.211-37.362 29.176-30.147l233.538 69.998c23.902 7.215 31.37 29.345 16.371 49.449l-145.587 195.564c-14.958 20.083-33.564 16.982-41.37-6.73l-16.561-49.851-58.648-177.084zM490.932 24.022c-203.076 0-368.302 165.228-368.302 368.282 0 203.097 165.228 368.302 368.302 368.302 33.416 0 66.497-4.451 98.331-13.27 22.447-6.202 35.61-29.451 29.43-51.918-6.223-22.468-29.43-35.633-51.918-29.43-24.514 6.772-50.019 10.211-75.842 10.211-156.558 0-283.916-127.423-283.916-283.916 0-156.536 127.423-283.896 283.916-283.896s283.916 127.423 283.916 283.916c0 29.746-4.579 59.028-13.607 87.045-7.131 22.194 5.063 45.949 27.257 53.1 22.194 7.194 45.949-5.063 53.1-27.236 11.709-36.412 17.637-74.386 17.637-112.909 0-203.054-165.228-368.282-368.302-368.282z" />
<glyph unicode="&#xe60e;" glyph-name="dc-pos" d="M489.953 812.38v-707.328h-132.987l-11.54 61.686h-1.925c-20.265-40.448-70.328-73.216-134.021-73.216-115.589 0-196.588 67.461-196.588 249.61 0 174.387 78.981 269.793 204.349 269.793 63.601 0 98.294-25.078 120.484-57.846h0.963v257.3h151.265zM256.778 514.57c-53.985 0-86.753-43.336-86.753-170.629 0-112.65 28.918-154.132 83.876-154.132 62.638 0 89.631 60.652 89.631 163.82-0.010 118.559-30.843 160.942-86.753 160.942v0zM881.408 407.624c-4.803 72.264-39.496 96.369-80.988 96.369-50.145 0-91.566-34.693-91.566-149.391 0-110.95 31.887-152.279 90.665-152.279 42.383 0 70.328 19.231 80.988 84.756l132.987-9.687c-17.306-139.715-116.562-184.003-219.73-184.003-170.629 0-240.957 107.909-240.957 255.386 0 166.707 96.369 264.028 252.498 264.028 140.667 0 204.349-84.756 210.125-194.652l-134.021-10.527z" />
<glyph unicode="&#xe60f;" glyph-name="dc" horiz-adv-x="1000" d="M303.88 542.78c-39.13 0-67.090-33.54-67.090-128.58 0-83.86 22.36-117.4 61.5-117.4 44.72 0 67.090 44.72 67.090 122.99 5.58 89.45-16.78 122.99-61.5 122.99v0zM499.54 939.7c-268.34 0-491.96-218.030-491.96-491.96s218.020-491.96 491.96-491.96c268.34 0 491.96 218.020 491.96 491.96 0 273.93-223.62 491.96-491.96 491.96v0zM482.77 235.31h-100.63l-11.18 44.72c-16.77-27.95-55.9-55.9-100.63-55.9-89.45 0-150.94 50.31-150.94 190.080 0 134.17 61.5 201.25 156.53 201.25 50.31 0 72.67-16.77 89.45-44.72v0 195.66h111.81l5.59-531.090zM711.97 224.13c-128.58 0-184.48 83.86-184.48 195.66 0 128.58 72.67 201.25 190.070 201.25 106.22 0 156.53-61.5 156.53-145.35l-100.63-5.59c-5.59 55.9-27.95 72.67-61.5 72.67-39.13 0-67.080-27.95-67.080-111.81s22.36-117.4 67.080-117.4c33.54 0 55.9 16.77 61.5 61.5l100.63-5.59c-11.18-111.8-83.85-145.34-162.12-145.34v0z" />
<glyph unicode="&#xe610;" glyph-name="blogger" d="M917.295 564.371h-52.19c-31.971 0-59.993 27.041-62.177 58.186v0c0.004 166.073-133.879 290.928-301.101 290.928h-152.577c-167.112 0-302.615-134.555-302.733-300.625v-329.838c0-166.059 135.621-300.507 302.731-300.507h325.857c167.236 0 302.379 134.447 302.379 300.507v213.088c0 33.185-26.766 68.261-60.189 68.261zM337.444 680.742h174.557c32.002 0 58.186-26.183 58.186-58.186s-26.183-58.186-58.186-58.186h-174.557c-32.002 0-58.186 26.183-58.186 58.186s26.183 58.186 58.186 58.186zM686.557 215.258h-349.113c-32.002 0-58.186 26.183-58.186 58.186s26.183 58.186 58.186 58.186h349.113c32.002 0 58.186-26.183 58.186-58.186s-26.183-58.186-58.186-58.186z" />
<glyph unicode="&#xe611;" glyph-name="blog, message" horiz-adv-x="1022" d="M834.49 884.846h-646.915c-40.582 0-71.613-31.033-71.613-71.613v-608.721c0-40.582 31.033-71.613 71.613-71.613h186.197v-105.034c0-19.098 19.098-21.485 26.258-14.323 31.033 28.646 105.035 119.357 105.035 119.357h329.425c38.194 0 71.613 31.033 71.613 71.613v608.721c0 40.582-31.033 71.613-71.613 71.613zM302.158 746.392h434.458c26.258 0 47.742-21.485 47.742-47.742s-21.485-47.742-47.742-47.742h-434.458c-26.258 0-47.742 21.485-47.742 47.742s21.485 47.742 47.742 47.742zM302.158 555.423h434.458c26.258 0 47.742-21.485 47.742-47.742s-21.485-47.742-47.742-47.742h-434.458c-26.258 0-47.742 21.485-47.742 47.742s21.485 47.742 47.742 47.742zM736.617 268.964h-432.071c-26.258 0-47.742 21.485-47.742 47.742s21.485 47.742 47.742 47.742h432.071c26.258 0 47.742-21.485 47.742-47.742s-21.485-47.742-47.742-47.742z" />
<glyph unicode="&#xe612;" glyph-name="cloud" d="M907.947 664.747h-73.387v17.067c0 51.2-40.96 92.16-92.16 92.16h-368.64c-51.2 0-92.16-40.96-92.16-92.16v-8.533h-42.667c-51.2 0-92.16-40.96-92.16-92.16v-23.893h-29.013c-51.2 0-92.16-40.96-92.16-92.16v-141.653c0-51.2 40.96-92.16 92.16-92.16h73.387v-17.067c0-51.2 40.96-92.16 92.16-92.16h368.64c51.2 0 92.16 40.96 92.16 92.16v8.533h42.667c51.2 0 92.16 40.96 92.16 92.16v23.893h29.013c51.2 0 92.16 40.96 92.16 92.16v141.653c0 51.2-40.96 92.16-92.16 92.16zM955.733 430.933c0-25.6-20.48-47.787-47.787-47.787h-54.613c-6.827 0-13.653-3.413-17.067-8.533s-5.12-11.947-3.413-18.773c1.707-5.12 1.707-8.533 1.707-11.947v-29.013c0-25.6-20.48-47.787-47.787-47.787h-64.853c-11.947 0-22.187-10.24-22.187-22.187v-30.72c0-25.6-20.48-47.787-47.787-47.787h-368.64c-25.6 0-47.787 20.48-47.787 47.787v39.253c0 11.947-10.24 22.187-22.187 22.187h-95.573c-25.6 0-47.787 20.48-47.787 47.787v141.653c0 25.6 20.48 47.787 47.787 47.787h54.613c6.827 0 13.653 3.413 17.067 8.533s5.12 11.947 3.413 18.773c-1.707 5.12-1.707 8.533-1.707 11.947v29.013c0 25.6 20.48 47.787 47.787 47.787h64.853c11.947 0 22.187 10.24 22.187 22.187v30.72c0 25.6 20.48 47.787 47.787 47.787h368.64c25.6 0 47.787-20.48 47.787-47.787v-39.253c0-11.947 10.24-22.187 22.187-22.187h95.573c25.6 0 47.787-20.48 47.787-47.787v-141.653z" />
<glyph unicode="&#xe613;" glyph-name="cloud-full" d="M906.24 698.88h-73.387v17.067c0 51.2-40.96 92.16-92.16 92.16h-368.64c-51.2 0-92.16-40.96-92.16-92.16v-8.533h-42.667c-51.2 0-92.16-40.96-92.16-92.16v-23.893h-29.013c-51.2 0-92.16-40.96-92.16-92.16v-141.653c0-51.2 40.96-92.16 92.16-92.16h73.387v-17.067c0-51.2 40.96-92.16 92.16-92.16h368.64c51.2 0 92.16 40.96 92.16 92.16v8.533h42.667c51.2 0 92.16 40.96 92.16 92.16v23.893h29.013c51.2 0 92.16 40.96 92.16 92.16v141.653c0 51.2-40.96 92.16-92.16 92.16z" />
<glyph unicode="&#xe614;" glyph-name="globe" d="M513.707 826.88c-209.92 0-378.88-170.667-378.88-378.88 0-209.92 168.96-378.88 378.88-378.88s378.88 168.96 378.88 378.88c0 208.213-170.667 378.88-378.88 378.88zM715.093 702.293c3.413-3.413 32.427-27.307 25.6-30.72s25.6-18.773 25.6-18.773c46.080-22.187 75.093-126.293 75.093-146.773 0-18.773-5.12-18.773-11.947-10.24s-1.707 22.187-5.12 30.72c-1.707 8.533-5.12 13.653-11.947 15.36-5.12 1.707-18.773 15.36-22.187 27.307s-6.827-5.12-10.24-10.24c-3.413-5.12-8.533 0-10.24 11.947s-22.187 32.427-32.427 30.72c-10.24-1.707-20.48-30.72-25.6-29.013s-30.72 5.12-32.427 22.187c-1.707 18.773 13.653 18.773 23.893 22.187s-5.12 15.36-3.413 29.013c1.707 11.947 10.24 8.533 20.48 17.067s-3.413 27.307-3.413 27.307c-3.413 6.827-5.12 15.36-1.707 11.947zM672.427 717.653c5.12 8.533 25.6-15.36 29.013-22.187s5.12-25.6-8.533-23.893c-11.947 1.707-6.827 11.947-10.24 15.36s-15.36-15.36-20.48-5.12c-5.12 10.24 10.24 35.84 10.24 35.84zM609.28 693.76c-5.12-3.413-30.72-20.48-34.133-3.413-5.12 18.773-29.013 23.893-46.080 22.187-18.773-1.707-80.213-6.827-81.92-30.72s37.547-15.36 39.253-39.253c1.707-23.893 17.067-15.36 20.48 8.533s22.187 54.613 51.2 35.84c29.013-18.773 35.84-44.373 37.547-68.267s6.827-37.547 6.827-51.2c0-11.947-10.24-30.72-18.773-11.947s-13.653 51.2-23.893 39.253c-10.24-11.947 6.827-37.547-11.947-40.96s-30.72 13.653-49.493 3.413c-18.773-11.947-54.613-54.613-63.147-68.267-8.533-11.947-30.72 3.413-35.84-8.533s1.707-32.427-6.827-32.427c-8.533 0-17.067 17.067-13.653 27.307 3.413 11.947-22.187 17.067-40.96 15.36s-42.667-49.493-29.013-54.613c11.947-5.12 54.613 29.013 46.080 1.707s-32.427-27.307-18.773-37.547c13.653-10.24 23.893-10.24 18.773-22.187-3.413-11.947-17.067-22.187-3.413-29.013 11.947-6.827 66.56-13.653 88.747-27.307 22.187-11.947 47.787-20.48 68.267-22.187 20.48-3.413 18.773-18.773 11.947-35.84s-11.947-54.613-40.96-61.44c-27.307-6.827-10.24-29.013-32.427-46.080s6.827-35.84 25.6-39.253c18.773-3.413 30.72 0 27.307-11.947s-52.907-1.707-93.867 11.947c-40.96 13.653-49.493 58.027-56.32 78.507s-49.493 27.307-63.147 30.72c-13.653 3.413-46.080 68.267-27.307 75.093 20.48 5.12 13.653 11.947 20.48 22.187s35.84 25.6 44.373 27.307c8.533 1.707 8.533 27.307-5.12 32.427s-44.373 27.307-47.787 46.080c-3.413 20.48-11.947 83.627-10.24 88.747 1.707 3.413-13.653-10.24-13.653-29.013 0-20.48-6.827-42.667-6.827-20.48 0 20.48 1.707 68.267 3.413 75.093 1.707 8.533 5.12 52.907 23.893 59.733s11.947 25.6 10.24 39.253c-3.413 13.653-6.827 30.72 10.24 44.373 0 0 59.733 49.493 145.067 71.68 0 0 17.067 0 15.36-17.067-1.707-15.36 20.48-3.413 23.893 1.707 3.413 3.413 10.24 5.12 11.947-1.707 3.413-6.827 15.36 0 20.48 5.12s27.307 20.48 56.32 0c30.72-13.653 54.613-49.493 47.787-52.907zM747.52 209.067c0 0-11.947-11.947-18.773-5.12s13.653 23.893 22.187 40.96c8.533 17.067 22.187 80.213 20.48 97.28s-29.013 22.187-51.2 11.947c-22.187-10.24-71.68 25.6-78.507 51.2s-1.707 46.080-1.707 54.613c1.707 8.533 11.947 34.133 25.6 35.84 0 0 23.893 15.36 23.893 32.427s18.773 29.013 35.84 29.013c15.36 0 39.253-5.12 42.667-23.893 1.707-18.773 15.36-25.6 25.6-27.307 11.947-1.707 29.013-17.067 30.72-25.6s15.36-11.947 18.773-11.947c3.413-1.707 8.533-10.24 1.707-58.027s-37.547-145.067-97.28-201.387z" />
<glyph unicode="&#xe615;" glyph-name="graduate" d="M145.067 454.827c0 11.947-10.24 22.187-22.187 22.187s-22.187-10.24-22.187-22.187c0-10.24-23.893-273.067-23.893-295.253 0-27.307 22.187-47.787 47.787-47.787 27.307 0 47.787 22.187 47.787 47.787 1.707 22.187-27.307 288.427-27.307 295.253zM988.16 642.56l-465.92 141.653c-5.12 1.707-11.947 1.707-17.067 0l-467.627-141.653c-11.947-5.12-20.48-17.067-20.48-29.013 0-13.653 8.533-25.6 20.48-29.013l98.987-32.427c191.147 51.2 382.293 102.4 387.413 102.4 13.653 3.413 27.307-5.12 30.72-18.773s-5.12-27.307-18.773-30.72c-5.12-1.707-160.427-37.547-331.093-76.8l302.080-95.573c3.413-1.707 6.827-1.707 8.533-1.707 3.413 0 6.827 0 8.533 1.707l465.92 150.187c11.947 3.413 20.48 15.36 20.48 29.013s-8.533 25.6-22.187 30.72zM221.867 256.853c49.493-29.013 146.773-71.68 293.547-71.68 148.48 0 242.347 42.667 290.133 71.68v201.387l-266.24-85.333c-6.827-1.707-15.36-3.413-22.187-3.413s-15.36 1.707-22.187 3.413l-273.067 87.040v-203.093z" />
<glyph unicode="&#xe616;" glyph-name="infrastructure" d="M823.981 312.356c-9.688 0-19.379-1.939-29.066-3.875l-184.088 317.794c23.254 23.254 36.819 56.195 36.819 91.075 0 75.573-60.072 135.644-135.644 135.644s-135.644-60.072-135.644-135.644c0-34.88 13.565-67.821 36.819-91.075l-184.088-317.794c-9.688 1.939-19.379 3.875-31.005 3.875-75.573 0-135.644-60.072-135.644-135.644s60.072-135.644 135.644-135.644c60.072 0 112.39 40.693 127.894 94.952h368.177c17.439-54.259 67.821-94.952 127.894-94.952 75.573 0 135.644 60.072 135.644 135.644 1.939 75.573-58.134 135.644-133.706 135.644zM696.088 217.406h-368.177c-5.813 19.379-15.501 36.819-29.066 52.319l184.088 317.794c9.688-1.939 19.379-3.875 29.066-3.875s19.379 1.939 29.066 3.875l184.088-319.732c-13.565-13.565-23.254-31.005-29.066-50.381z" />
<glyph unicode="&#xe617;" glyph-name="idea" d="M512 832c-133.12 0-244.053-102.4-257.707-232.107-1.707-8.533-1.707-17.067-1.707-25.6s0-17.067 1.707-25.6c0 0 0-1.707 0-1.707 0-6.827 1.707-15.36 3.413-22.187 0 0 0 0 0-1.707 1.707-6.827 3.413-15.36 5.12-22.187 0 0 0-1.707 0-1.707 1.707-6.827 5.12-13.653 6.827-20.48 1.707-3.413 3.413-6.827 5.12-10.24s3.413-8.533 5.12-11.947c10.24-20.48 23.893-40.96 39.253-58.027l73.387-116.053 3.413-13.653h228.693l3.413 13.653 71.68 116.053c15.36 17.067 29.013 35.84 39.253 58.027 1.707 3.413 3.413 8.533 5.12 11.947s3.413 6.827 5.12 10.24 5.12 13.653 6.827 20.48c0 0 0 1.707 0 1.707 5.12 15.36 6.827 30.72 8.533 46.080 0 0 0 1.707 0 1.707 0 8.533 1.707 17.067 1.707 25.6s0 17.067-1.707 25.6c-8.533 129.707-119.467 232.107-252.587 232.107zM401.067 226.133h221.867v-40.96h-221.867zM404.48 142.507c6.827-22.187 22.187-42.667 40.96-56.32s42.667-22.187 66.56-22.187c0 0 0 0 0 0 25.6 0 47.787 8.533 66.56 22.187s32.427 34.133 40.96 56.32h-215.040z" />
<glyph unicode="&#xe618;" glyph-name="pin" d="M513.707 816.64c-151.893 0-274.773-124.587-274.773-274.773 0-49.493 13.653-95.573 35.84-134.827 1.707-3.413 3.413-5.12 5.12-8.533l27.307-37.547 206.507-279.893 206.507 279.893 27.307 37.547c1.707 3.413 3.413 5.12 5.12 8.533 22.187 39.253 35.84 87.040 35.84 134.827 0 150.187-122.88 274.773-274.773 274.773zM513.707 412.16c-71.68 0-128 58.027-128 128 0 71.68 58.027 128 128 128 71.68 0 128-58.027 128-128s-58.027-128-128-128z" />
<glyph unicode="&#xe619;" glyph-name="speedomoter" d="M512 804.693c-196.267 0-356.693-160.427-356.693-356.693s160.427-356.693 356.693-356.693 356.693 160.427 356.693 356.693c0 196.267-160.427 356.693-356.693 356.693zM621.227 681.813l30.72 54.613c5.12 8.533 17.067 11.947 25.6 6.827s11.947-17.067 6.827-25.6l-30.72-54.613c-3.413-6.827-10.24-10.24-17.067-10.24-3.413 0-6.827 0-10.24 3.413-6.827 3.413-10.24 15.36-5.12 25.6zM489.813 767.147c0 10.24 8.533 18.773 18.773 18.773s18.773-8.533 18.773-18.773v-63.147c0-10.24-8.533-18.773-18.773-18.773s-18.773 8.533-18.773 18.773v63.147zM256 425.813h-63.147c-10.24 0-18.773 8.533-18.773 18.773s8.533 18.773 18.773 18.773h63.147c10.24 0 18.773-8.533 18.773-18.773s-8.533-18.773-18.773-18.773zM305.493 564.053c-3.413-6.827-10.24-10.24-17.067-10.24-3.413 0-6.827 0-10.24 3.413l-54.613 30.72c-8.533 5.12-11.947 17.067-6.827 25.6s17.067 11.947 25.6 6.827l54.613-30.72c10.24-5.12 13.653-17.067 8.533-25.6zM390.827 651.093c-3.413-1.707-6.827-3.413-10.24-3.413-6.827 0-13.653 3.413-17.067 10.24l-30.72 54.613c-5.12 8.533-1.707 20.48 6.827 25.6s20.48 1.707 25.6-6.827l30.72-54.613c6.827-8.533 3.413-20.48-5.12-25.6zM750.933 477.013l-179.2-300.373c-1.707-5.12-5.12-8.533-6.827-11.947-22.187-29.013-64.853-34.133-93.867-11.947s-34.133 64.853-11.947 93.867l261.12 254.293c6.827 8.533 18.773 10.24 29.013 3.413 6.827-5.12 8.533-17.067 1.707-27.307zM742.4 562.347c-3.413-1.707-6.827-3.413-10.24-3.413-6.827 0-13.653 3.413-17.067 10.24-5.12 8.533-1.707 20.48 6.827 25.6l54.613 30.72c8.533 5.12 20.48 1.707 25.6-6.827s1.707-20.48-6.827-25.6l-52.907-30.72zM831.147 432.64h-39.253c-10.24 0-18.773 8.533-18.773 18.773s8.533 18.773 18.773 18.773h39.253c10.24 0 18.773-8.533 18.773-18.773s-8.533-18.773-18.773-18.773z" />
<glyph unicode="&#xe61a;" glyph-name="traffic" d="M645.12 782.507h-262.827c-51.2 0-93.867-42.667-93.867-93.867v-481.28c0-51.2 42.667-93.867 93.867-93.867h262.827c51.2 0 93.867 42.667 93.867 93.867v481.28c0 51.2-42.667 93.867-93.867 93.867zM513.707 171.52c-42.667 0-76.8 34.133-76.8 76.8s34.133 76.8 76.8 76.8c42.667 0 76.8-34.133 76.8-76.8 0-40.96-34.133-76.8-76.8-76.8zM513.707 371.2c-42.667 0-76.8 34.133-76.8 76.8s34.133 76.8 76.8 76.8c42.667 0 76.8-34.133 76.8-76.8s-34.133-76.8-76.8-76.8zM513.707 569.173c-42.667 0-76.8 34.133-76.8 76.8s34.133 76.8 76.8 76.8c42.667 0 76.8-34.133 76.8-76.8s-34.133-76.8-76.8-76.8z" />
<glyph unicode="&#xe61b;" glyph-name="certified-check" d="M877.227 384.853l-17.067 20.48c-20.48 23.893-20.48 63.147 0 87.040l17.067 20.48c20.48 23.893 11.947 52.907-17.067 63.147l-23.893 8.533c-29.013 10.24-49.493 44.373-44.373 75.093l5.12 25.6c5.12 30.72-15.36 51.2-46.080 46.080l-25.6-5.12c-30.72-5.12-64.853 13.653-75.093 44.373l-8.533 23.893c-10.24 29.013-39.253 37.547-63.147 17.067l-20.48-17.067c-23.893-20.48-63.147-20.48-87.040 0l-20.48 17.067c-23.893 20.48-52.907 11.947-63.147-17.067l-8.533-23.893c-10.24-29.013-44.373-49.493-75.093-44.373l-25.6 5.12c-30.72 5.12-51.2-15.36-46.080-46.080l5.12-25.6c5.12-30.72-13.653-64.853-44.373-75.093l-23.893-8.533c-29.013-10.24-37.547-39.253-17.067-63.147l17.067-20.48c20.48-23.893 20.48-63.147 0-87.040l-17.067-20.48c-20.48-23.893-11.947-52.907 17.067-63.147l23.893-8.533c29.013-10.24 49.493-44.373 44.373-75.093l-5.12-25.6c-5.12-30.72 15.36-51.2 46.080-46.080l25.6 5.12c30.72 5.12 64.853-13.653 75.093-44.373l8.533-23.893c10.24-29.013 39.253-37.547 63.147-17.067l20.48 17.067c23.893 20.48 63.147 20.48 87.040 0l20.48-17.067c23.893-20.48 52.907-11.947 63.147 17.067l8.533 23.893c10.24 29.013 44.373 49.493 75.093 44.373l25.6-5.12c30.72-5.12 51.2 15.36 46.080 46.080l-5.12 25.6c-5.12 30.72 13.653 64.853 44.373 75.093l23.893 8.533c30.72 10.24 37.547 39.253 17.067 63.147zM682.667 548.693l-153.6-254.293c-8.533-13.653-20.48-22.187-35.84-23.893-3.413 0-5.12 0-8.533 0-11.947 0-23.893 3.413-32.427 11.947l-131.413 109.227c-22.187 18.773-23.893 51.2-6.827 71.68 18.773 22.187 51.2 23.893 71.68 6.827l85.333-71.68 122.88 204.8c15.36 23.893 46.080 32.427 69.973 17.067 25.6-15.36 34.133-47.787 18.773-71.68z" />
<glyph unicode="&#xe61c;" glyph-name="headset" d="M843.358 539.075h-31.005c0 1.939 0 1.939 0 3.875 0 191.839-139.52 346.861-310.044 346.861s-310.044-155.020-310.044-346.861c0-1.939 0-1.939 0-3.875h-31.005c-27.129 0-46.506-21.315-42.631-48.445l27.129-187.963c3.875-27.129 29.066-48.445 56.195-48.445h60.072c27.129 0 50.381 23.254 50.381 50.381v186.026c0 27.129-23.254 50.381-50.381 50.381h-3.875c0 1.939 0 1.939 0 3.875 0 155.020 108.514 280.977 244.16 280.977 133.706 0 244.16-125.954 244.16-280.977 0-1.939 0-1.939 0-3.875h-3.875c-27.129 0-50.381-23.254-50.381-50.381v-186.026c0-17.439 7.751-31.005 21.315-40.693-34.88-71.699-94.952-120.14-162.774-135.644-11.626 15.501-29.066 25.192-50.381 25.192-34.88 0-63.946-29.066-63.946-63.946s29.066-63.946 63.946-63.946c25.192 0 48.445 15.501 58.134 36.819 96.888 19.379 180.213 91.075 222.843 193.777h19.379c27.129 0 52.319 21.315 56.195 48.445l27.129 187.963c5.813 25.192-13.565 46.506-40.693 46.506z" />
<glyph unicode="&#xe61d;" glyph-name="megaphone" d="M964.267 821.76c-10.24 3.413-20.48 1.707-27.307-5.12-1.707-1.707-129.707-121.173-476.16-121.173h-105.813c-1.707 0-1.707 0-3.413 0h-163.84c-1.707 0-1.707 0-3.413 0h-10.24c-3.413 0-6.827 0-10.24-1.707-66.56-11.947-116.053-68.267-116.053-138.24v-128c0-68.267 49.493-126.293 114.347-136.533 3.413-1.707 6.827-3.413 11.947-3.413h10.24c1.707-104.107 20.48-136.533 83.627-208.213 5.12-5.12 13.653-8.533 20.48-8.533h100.693c10.24 0 20.48 6.827 25.6 17.067s1.707 22.187-5.12 29.013c-51.2 56.32-54.613 66.56-54.613 170.667 1.707 0 1.707 0 3.413 0h102.4c344.747 0 476.16-119.467 476.16-121.173 5.12-5.12 11.947-6.827 17.067-6.827 3.413 0 6.827 0 10.24 1.707 10.24 3.413 15.36 13.653 15.36 23.893v614.4c0 10.24-5.12 18.773-15.36 22.187zM928.427 238.080c-64.853 40.96-211.627 104.107-469.333 104.107h-1.707c20.48 23.893 32.427 54.613 32.427 87.040v128c0 34.133-11.947 64.853-32.427 88.747h1.707c257.707 0 402.773 63.147 469.333 104.107v-512z" />
<glyph unicode="&#xe61e;" glyph-name="wifi" d="M954.060 498.008c0-12.001-4-24.004-14.003-34.004-18.002-18.002-48.006-18.002-66.009 0-98.015 96.014-226.031 150.021-362.051 150.021s-266.037-54.007-362.051-150.021c-18.002-18.002-48.006-18.002-66.009 0s-18.002 48.006 0 66.009c114.016 114.016 268.036 176.025 428.061 176.025 162.022 0 314.043-62.010 428.061-176.025 10.001-8.001 14.003-20.004 14.003-32.005zM818.042 409.993c-82.011 82.011-190.026 126.017-306.042 126.017s-224.031-44.006-306.042-126.017c-18.002-18.002-18.002-48.006 0-66.009s48.006-18.002 66.009 0c64.009 64.009 150.021 98.015 240.034 98.015s176.025-36.005 240.034-98.015c18.002-18.002 48.006-18.002 66.009 0 10.001 10.001 14.003 22.003 14.003 34.004 0 10.001-4 22.003-14.003 32.005zM696.025 287.979c-50.008 48.006-114.016 76.010-184.025 76.010s-134.019-26.005-184.025-76.010c-18.002-18.002-18.002-48.006 0-66.009s48.006-18.002 66.009 0c32.005 32.005 74.012 48.006 118.016 48.006s86.013-18.002 118.016-48.006c18.002-18.002 48.006-18.002 66.009 0 10.001 10.001 14.003 22.003 14.003 34.004 0 10.001-4 22.003-14.003 32.005z" />
<glyph unicode="&#xe61f;" glyph-name="signal" d="M595.627 558.933c0 51.2-40.96 92.16-92.16 92.16s-92.16-40.96-92.16-92.16c0-37.547 22.187-69.973 54.613-83.627-25.6-153.6-110.933-319.147-170.667-392.533h121.173c6.827 42.667 44.373 75.093 88.747 75.093s80.213-32.427 88.747-75.093h121.173c-59.733 73.387-145.067 238.933-170.667 392.533 29.013 13.653 51.2 46.080 51.2 83.627zM556.373 246.613c0-29.013-23.893-52.907-52.907-52.907s-52.907 23.893-52.907 52.907c0 29.013 23.893 52.907 52.907 52.907s52.907-23.893 52.907-52.907zM325.973 422.4c13.653-13.653 37.547-15.36 51.2 0 13.653 13.653 15.36 37.547 0 51.2-23.893 23.893-37.547 56.32-37.547 92.16 0 34.133 13.653 66.56 37.547 92.16 13.653 13.653 13.653 37.547 0 51.2-6.827 6.827-17.067 10.24-25.6 10.24-10.24 0-18.773-3.413-25.6-10.24-37.547-37.547-58.027-88.747-58.027-143.36-1.707-54.613 18.773-105.813 58.027-143.36zM206.507 564.053c0 69.973 27.307 136.533 76.8 186.027 13.653 13.653 13.653 37.547 0 51.2-6.827 6.827-17.067 10.24-25.6 10.24-10.24 0-18.773-3.413-25.6-10.24-64.853-63.147-98.987-146.773-98.987-237.227 0-88.747 34.133-174.080 97.28-237.227 13.653-13.653 37.547-13.653 51.2 0s13.653 37.547 0 51.2c-47.787 51.2-75.093 116.053-75.093 186.027zM667.307 564.053c0-34.133-13.653-66.56-37.547-92.16-13.653-13.653-13.653-37.547 0-51.2s37.547-13.653 51.2 0c37.547 37.547 58.027 88.747 58.027 143.36s-20.48 104.107-58.027 143.36c-6.827 6.827-17.067 10.24-25.6 10.24s-18.773-3.413-25.6-10.24c-13.653-13.653-15.36-37.547 0-51.2 23.893-23.893 37.547-56.32 37.547-92.16zM776.533 802.987c-6.827 6.827-17.067 10.24-25.6 10.24s-18.773-3.413-25.6-10.24c-13.653-13.653-13.653-37.547 0-51.2 49.493-49.493 76.8-116.053 76.8-186.027s-27.307-136.533-76.8-186.027c-13.653-13.653-13.653-37.547 0-51.2s37.547-13.653 51.2 0c63.147 63.147 97.28 148.48 97.28 237.227s-34.133 172.373-97.28 237.227z" />
<glyph unicode="&#xe620;" glyph-name="datacenter" d="M839.68 755.2h-655.36c-39.253 0-71.68-32.427-71.68-71.68v-471.040c0-39.253 32.427-71.68 71.68-71.68h256v186.027c0 8.533 6.827 13.653 13.653 13.653h114.347c8.533 0 13.653-6.827 13.653-13.653v-186.027h256c39.253 0 71.68 32.427 71.68 71.68v471.040c1.707 39.253-30.72 71.68-69.973 71.68zM354.987 241.493c0-8.533-6.827-13.653-13.653-13.653h-114.347c-8.533 0-13.653 6.827-13.653 13.653v85.333c0 8.533 6.827 13.653 13.653 13.653h114.347c8.533 0 13.653-6.827 13.653-13.653v-85.333zM354.987 412.16c0-8.533-6.827-13.653-13.653-13.653h-114.347c-8.533 0-13.653 6.827-13.653 13.653v85.333c0 8.533 6.827 13.653 13.653 13.653h114.347c8.533 0 13.653-6.827 13.653-13.653v-85.333zM354.987 582.827c0-8.533-6.827-13.653-13.653-13.653h-114.347c-8.533 0-13.653 6.827-13.653 13.653v85.333c0 8.533 6.827 13.653 13.653 13.653h114.347c8.533 0 13.653-6.827 13.653-13.653v-85.333zM583.68 412.16c0-8.533-6.827-13.653-13.653-13.653h-114.347c-8.533 0-13.653 6.827-13.653 13.653v85.333c0 8.533 6.827 13.653 13.653 13.653h114.347c8.533 0 13.653-6.827 13.653-13.653v-85.333zM583.68 582.827c0-8.533-6.827-13.653-13.653-13.653h-114.347c-8.533 0-13.653 6.827-13.653 13.653v85.333c0 8.533 6.827 13.653 13.653 13.653h114.347c8.533 0 13.653-6.827 13.653-13.653v-85.333zM810.667 241.493c0-8.533-6.827-13.653-13.653-13.653h-114.347c-8.533 0-13.653 6.827-13.653 13.653v85.333c0 8.533 6.827 13.653 13.653 13.653h114.347c8.533 0 13.653-6.827 13.653-13.653v-85.333zM810.667 412.16c0-8.533-6.827-13.653-13.653-13.653h-114.347c-8.533 0-13.653 6.827-13.653 13.653v85.333c0 8.533 6.827 13.653 13.653 13.653h114.347c8.533 0 13.653-6.827 13.653-13.653v-85.333zM810.667 582.827c0-8.533-6.827-13.653-13.653-13.653h-114.347c-8.533 0-13.653 6.827-13.653 13.653v85.333c0 8.533 6.827 13.653 13.653 13.653h114.347c8.533 0 13.653-6.827 13.653-13.653v-85.333z" />
<glyph unicode="&#xe621;" glyph-name="server" d="M558.080 828.587h-87.040c-23.893 0-44.373-20.48-44.373-44.373v-672.427c0-23.893 20.48-44.373 44.373-44.373h87.040c23.893 0 44.373 20.48 44.373 44.373v672.427c-1.707 23.893-20.48 44.373-44.373 44.373zM513.707 389.973c-32.427 0-58.027 25.6-58.027 58.027s25.6 58.027 58.027 58.027c32.427 0 58.027-25.6 58.027-58.027s-25.6-58.027-58.027-58.027z" />
<glyph unicode="&#xe622;" glyph-name="servers" d="M339.627 825.173h-87.040c-23.893 0-42.667-18.773-42.667-42.667v-665.6c0-23.893 18.773-42.667 42.667-42.667h87.040c23.893 0 42.667 18.773 42.667 42.667v665.6c0 22.187-18.773 42.667-42.667 42.667zM296.96 389.973c-32.427 0-58.027 25.6-58.027 58.027s25.6 58.027 58.027 58.027 58.027-25.6 58.027-58.027c0-32.427-27.307-58.027-58.027-58.027zM556.373 825.173h-87.040c-23.893 0-42.667-18.773-42.667-42.667v-665.6c0-23.893 18.773-42.667 42.667-42.667h87.040c23.893 0 42.667 18.773 42.667 42.667v665.6c1.707 22.187-18.773 42.667-42.667 42.667zM513.707 389.973c-32.427 0-58.027 25.6-58.027 58.027s25.6 58.027 58.027 58.027c32.427 0 58.027-25.6 58.027-58.027s-25.6-58.027-58.027-58.027zM774.827 825.173h-87.040c-23.893 0-42.667-18.773-42.667-42.667v-665.6c0-23.893 18.773-42.667 42.667-42.667h87.040c23.893 0 42.667 18.773 42.667 42.667v665.6c0 22.187-18.773 42.667-42.667 42.667zM730.453 389.973c-32.427 0-58.027 25.6-58.027 58.027s25.6 58.027 58.027 58.027c32.427 0 58.027-25.6 58.027-58.027s-25.6-58.027-58.027-58.027z" />
<glyph unicode="&#xe623;" glyph-name="computer" d="M250.88 287.573h513.707c52.907 0 97.28 44.373 97.28 97.28v305.493c0 52.907-44.373 97.28-97.28 97.28h-513.707c-52.907 0-97.28-44.373-97.28-97.28v-305.493c0-52.907 44.373-97.28 97.28-97.28zM223.573 663.040c0 30.72 25.6 56.32 56.32 56.32h453.973c30.72 0 58.027-25.6 58.027-56.32v-250.88c0-30.72-27.307-54.613-56.32-54.613h-459.093c-30.72 0-54.613 23.893-54.613 54.613l1.707 250.88zM907.947 128.853l-85.333 97.28c-6.827 8.533-15.36 8.533-20.48 8.533h-588.8c-5.12 0-13.653 0-20.48-8.533l-85.333-97.28c-11.947-15.36-3.413-20.48 11.947-20.48h776.533c15.36 0 23.893 5.12 11.947 20.48z" />
<glyph unicode="&#xe624;" glyph-name="computer-on" d="M919.893 133.973l-87.040 97.28c-6.827 8.533-15.36 8.533-20.48 8.533h-597.333c-5.12 0-13.653 0-20.48-8.533l-87.040-97.28c-11.947-15.36-5.12-22.187 11.947-22.187h790.187c13.653 0 22.187 6.827 10.24 22.187zM252.587 275.627h522.24c54.613 0 98.987 44.373 98.987 98.987v310.613c0 54.613-44.373 98.987-98.987 98.987h-522.24c-54.613 0-98.987-44.373-98.987-98.987v-310.613c0-54.613 44.373-98.987 98.987-98.987zM223.573 656.213c0 30.72 25.6 56.32 56.32 56.32h464.213c30.72 0 58.027-25.6 58.027-56.32v-256c0-30.72-27.307-54.613-58.027-54.613h-464.213c-30.72 0-54.613 23.893-54.613 54.613v256zM319.147 465.067h249.173c11.947 0 20.48-15.36 20.48-27.307s-8.533-27.307-20.48-27.307h-249.173c-11.947 0-20.48 15.36-20.48 27.307s8.533 27.307 20.48 27.307zM319.147 553.813h401.067c11.947 0 20.48-15.36 20.48-27.307s-8.533-27.307-20.48-27.307h-401.067c-11.947 0-20.48 15.36-20.48 27.307s8.533 27.307 20.48 27.307zM319.147 644.267h401.067c11.947 0 20.48-15.36 20.48-27.307s-8.533-27.307-20.48-27.307h-401.067c-11.947 0-20.48 15.36-20.48 27.307s8.533 27.307 20.48 27.307z" />
<glyph unicode="&#xe625;" glyph-name="laptop" d="M993.28 180.053l-160.427 121.173c3.413 8.533 6.827 17.067 6.827 25.6v348.16c0-1.707 3.413 68.267-66.56 68.267h-522.24c-37.547 0-64.853-27.307-64.853-64.853v-349.867c0-8.533 1.707-17.067 6.827-25.6l-158.72-121.173c-10.24-15.36-3.413-25.6 13.653-25.6h931.84c18.773-1.707 23.893 8.533 13.653 23.893zM252.587 637.44c0 27.307 11.947 39.253 39.253 39.253h443.733c27.307 0 39.253-11.947 39.253-39.253v-274.773c0-27.307-11.947-39.253-39.253-39.253h-445.44c-27.307 0-39.253 11.947-39.253 39.253v274.773z" />
<glyph unicode="&#xe626;" glyph-name="mobile" d="M662.187 789.333h-300.373c-40.96 0-75.093-34.133-75.093-75.093v-534.187c0-40.96 34.133-75.093 75.093-75.093h298.667c40.96 0 75.093 34.133 75.093 75.093v535.893c0 40.96-32.427 73.387-73.387 73.387zM512 156.16c-20.48 0-37.547 17.067-37.547 37.547s17.067 37.547 37.547 37.547c20.48 0 37.547-17.067 37.547-37.547s-17.067-37.547-37.547-37.547zM674.133 294.4c0-13.653-11.947-25.6-25.6-25.6h-273.067c-13.653 0-25.6 11.947-25.6 25.6v409.6c0 13.653 11.947 25.6 25.6 25.6h273.067c13.653 0 25.6-11.947 25.6-25.6v-409.6z" />
<glyph unicode="&#xe627;" glyph-name="tablet" d="M853.333 750.080h-682.667c-29.013 0-52.907-23.893-52.907-52.907v-500.053c0-29.013 23.893-52.907 52.907-52.907h682.667c29.013 0 52.907 23.893 52.907 52.907v500.053c0 29.013-23.893 52.907-52.907 52.907zM774.827 250.027c0-22.187-17.067-39.253-39.253-39.253h-460.8c-22.187 0-39.253 17.067-39.253 39.253v395.947c0 22.187 17.067 39.253 39.253 39.253h460.8c22.187 0 39.253-17.067 39.253-39.253v-395.947zM841.387 420.693c-15.36 0-25.6 11.947-25.6 25.6 0 15.36 11.947 25.6 25.6 25.6 15.36 0 25.6-11.947 25.6-25.6s-11.947-25.6-25.6-25.6z" />
<glyph unicode="&#xe628;" glyph-name="Renminbi" d="M706.56 688.64c6.827 11.947 1.707 22.187-11.947 22.187h-46.080c-13.653 0-30.72-10.24-35.84-22.187l-95.573-187.733-90.453 187.733c-6.827 11.947-22.187 22.187-35.84 22.187h-54.613c-13.653 0-18.773-10.24-11.947-22.187l117.76-208.213h-35.84c-13.653 0-25.6-11.947-25.6-25.6v-10.24c0-13.653 11.947-25.6 25.6-25.6h66.56v-216.747c0-13.653 11.947-25.6 25.6-25.6h42.667c13.653 0 25.6 11.947 25.6 25.6v218.453h58.027c13.653 0 25.6 11.947 25.6 25.6v10.24c0 13.653-11.947 25.6-25.6 25.6h-29.013l110.933 206.507z" />
<glyph unicode="&#xe629;" glyph-name="Euro" d="M544.427 248.32c-51.2 0-81.92 35.84-90.453 112.64h81.92c13.653 0 27.307 10.24 29.013 23.893l1.707 8.533c3.413 13.653-6.827 23.893-20.48 23.893h-98.987v47.787h102.4c13.653 0 27.307 11.947 29.013 25.6v6.827c1.707 13.653-6.827 25.6-20.48 25.6h-107.52c13.653 92.16 54.613 126.293 100.693 126.293 44.373 0 73.387-22.187 80.213-97.28 6.827-6.827 17.067-11.947 25.6-11.947l58.027 5.12c0 107.52-56.32 179.2-158.72 179.2-93.867 0-168.96-59.733-192.853-191.147 0-3.413-1.707-6.827-1.707-10.24h-15.36c-8.533 0-17.067-11.947-18.773-25.6v-6.827c-3.413-15.36 1.707-25.6 11.947-25.6h17.067v-47.787h-18.773c-10.24 0-20.48-11.947-23.893-25.6l-1.707-8.533c-1.707-13.653 6.827-25.6 20.48-25.6h29.013c13.653-119.467 81.92-187.733 179.2-187.733 92.16 0 155.307 49.493 170.667 165.547l-80.213 10.24c-8.533-59.733-32.427-97.28-87.040-97.28z" />
<glyph unicode="&#xe62a;" glyph-name="Rupee" d="M670.72 639.147c13.653 0 25.6 11.947 25.6 25.6v10.24c0 13.653-11.947 25.6-25.6 25.6h-150.187c-18.773 8.533-40.96 13.653-63.147 13.653h-80.213c-25.6 0-46.080-20.48-46.080-46.080s20.48-46.080 46.080-46.080h80.213c25.6 0 49.493-15.36 59.733-37.547h-162.133c-13.653 0-25.6-11.947-25.6-25.6v-10.24c0-13.653 11.947-25.6 25.6-25.6h160.427c-11.947-20.48-32.427-35.84-58.027-35.84-3.413 0-80.213 0-80.213 0-25.6 0-46.080-20.48-46.080-46.080 0-15.36 6.827-29.013 18.773-37.547l167.253-211.627c5.12-6.827 11.947-8.533 18.773-8.533 5.12 0 51.2 0 68.267 0 3.413 0 6.827 0 10.24 5.12 1.707 1.707 3.413 5.12 3.413 6.827 1.707 8.533 1.707 17.067-5.12 23.893l-139.947 175.787c68.267 8.533 124.587 59.733 138.24 128h56.32c13.653 0 25.6 11.947 25.6 25.6v10.24c0 13.653-11.947 25.6-25.6 25.6h-52.907c-3.413 20.48-11.947 40.96-22.187 58.027h78.507z" />
<glyph unicode="&#xe62b;" glyph-name="Yen" d="M706.56 692.053c6.827 11.947 1.707 22.187-11.947 22.187h-46.080c-13.653 0-30.72-10.24-35.84-22.187l-95.573-187.733-90.453 187.733c-6.827 11.947-22.187 22.187-35.84 22.187h-54.613c-13.653 0-18.773-10.24-11.947-22.187l117.76-208.213h-35.84c-13.653 0-25.6-11.947-25.6-25.6v-10.24c0-13.653 11.947-25.6 25.6-25.6h66.56v-54.613h-66.56c-13.653 0-25.6-11.947-25.6-25.6v-10.24c0-13.653 11.947-25.6 25.6-25.6h66.56v-100.693c0-13.653 11.947-25.6 25.6-25.6h42.667c13.653 0 25.6 11.947 25.6 25.6v100.693h58.027c13.653 0 25.6 11.947 25.6 25.6v10.24c0 13.653-11.947 25.6-25.6 25.6h-58.027v54.613h58.027c13.653 0 25.6 11.947 25.6 25.6v10.24c0 13.653-11.947 25.6-25.6 25.6h-29.013l110.933 208.213z" />
<glyph unicode="&#xe62c;" glyph-name="Ruble" d="M638.293 355.84h-157.013v35.84c44.373 0 44.373 0 44.373 0 87.040 1.707 158.72 73.387 158.72 160.427s-71.68 158.72-158.72 160.427h-110.933c-13.653 0-25.6-11.947-25.6-25.6v-331.093h-22.187c-13.653 0-25.6-11.947-25.6-25.6v-10.24c0-13.653 11.947-25.6 25.6-25.6h22.187v-85.333c0-13.653 11.947-25.6 25.6-25.6h42.667c13.653 0 25.6 11.947 25.6 25.6v87.040h157.013c13.653 0 25.6 11.947 25.6 25.6v10.24c-3.413 13.653-13.653 23.893-27.307 23.893zM479.573 620.373h44.373c37.547 0 66.56-30.72 66.56-66.56 0-37.547-29.013-66.56-66.56-66.56-1.707 0-23.893 0-44.373 0v133.12z" />
<glyph unicode="&#xe62d;" glyph-name="Won" d="M889.173 497.493h-107.52l15.36 51.2h90.453c13.653 0 25.6 11.947 25.6 25.6s-11.947 25.6-25.6 25.6h-75.093l25.6 83.627c6.827 11.947 1.707 22.187-11.947 22.187h-46.080c-13.653 0-30.72-10.24-35.84-22.187l-27.307-83.627h-133.12l-25.6 81.92c-6.827 11.947-22.187 22.187-35.84 22.187h-29.013c-13.653-1.707-27.307-10.24-32.427-22.187l-27.307-81.92h-133.12l-25.6 81.92c-6.827 11.947-22.187 22.187-35.84 22.187h-54.613c-13.653 0-18.773-10.24-11.947-22.187l25.6-83.627h-63.147c-13.653 0-25.6-11.947-25.6-25.6s11.947-25.6 25.6-25.6h80.213l15.36-51.2h-95.573c-13.653 0-25.6-11.947-25.6-25.6s11.947-25.6 25.6-25.6h112.64l73.387-230.4c0 0 11.947-25.6 25.6-25.6h42.667c13.653 0 25.6 25.6 25.6 25.6l71.68 230.4h47.787l73.387-230.4c0 0 11.947-25.6 25.6-25.6h42.667c13.653 0 25.6 25.6 25.6 25.6l71.68 230.4h122.88c13.653 0 25.6 11.947 25.6 25.6s-17.067 27.307-32.427 27.307zM699.733 548.693l-17.067-51.2h-66.56l-15.36 51.2h98.987zM315.733 548.693h100.693l-17.067-51.2h-66.56l-17.067 51.2zM363.52 393.387l-17.067 52.907h34.133l-17.067-52.907zM498.347 497.493l8.533 25.6 8.533-25.6h-17.067zM648.533 393.387l-17.067 52.907h34.133l-17.067-52.907z" />
<glyph unicode="&#xe62e;" glyph-name="Dollar" d="M549.547 488.96v141.653c27.307-10.24 44.373-32.427 51.2-68.267 0-1.707 1.707-5.12 1.707-8.533 1.707-5.12 6.827-6.827 11.947-6.827l6.827 1.707 54.613 10.24 6.827 1.707c3.413 1.707 6.827 6.827 6.827 10.24s-1.707 5.12-1.707 8.533c-15.36 73.387-59.733 119.467-138.24 128v42.667c0 5.12-3.413 10.24-8.533 11.947h-37.547c-5.12-3.413-8.533-6.827-8.533-11.947v-42.667c-90.453-8.533-151.893-61.44-151.893-145.067 0-105.813 80.213-128 151.893-145.067v-153.6c-54.613 8.533-69.973 42.667-76.8 93.867l-17.067-3.413-56.32-8.533h-8.533c-3.413-1.707-6.827-5.12-6.827-10.24 0-3.413 1.707-6.827 1.707-10.24 15.36-88.747 69.973-129.707 163.84-136.533v-42.667c1.707-6.827 6.827-10.24 13.653-10.24h29.013c6.827 0 11.947 5.12 13.653 11.947v44.373c85.333 10.24 146.773 66.56 146.773 157.013 0 100.693-78.507 122.88-148.48 139.947zM494.933 504.32c-34.133 11.947-56.32 29.013-56.32 66.56 0 35.84 18.773 58.027 56.32 64.853v-131.413zM549.547 263.68v138.24c32.427-11.947 56.32-30.72 56.32-68.267 0-35.84-18.773-61.44-56.32-69.973z" />
<glyph unicode="&#xe62f;" glyph-name="Pound" d="M532.48 717.653c-114.347 0-170.667-66.56-170.667-148.48 0-6.827 0-15.36 1.707-22.187 3.413-29.013 13.653-49.493 13.653-49.493 0-1.707 0-1.707 0-3.413 3.413-6.827 6.827-13.653 10.24-18.773h-27.307c-13.653 0-25.6-11.947-25.6-25.6v-17.067c0-13.653 11.947-25.6 25.6-25.6h66.56c5.12-11.947 8.533-23.893 8.533-37.547 0-32.427-20.48-66.56-66.56-109.227-6.827-10.24-10.24-23.893-10.24-34.133v-25.6c0-13.653 11.947-25.6 25.6-25.6h269.653c13.653 0 25.6 11.947 25.6 25.6v25.6c0 13.653-11.947 25.6-25.6 25.6h-204.8c49.493 46.080 76.8 83.627 76.8 126.293 0 10.24-1.707 18.773-3.413 29.013h73.387c13.653 0 25.6 11.947 25.6 25.6v17.067c0 13.653-11.947 25.6-25.6 25.6h-105.813c-18.773 29.013-37.547 56.32-37.547 95.573 0 47.787 30.72 75.093 76.8 75.093 42.667 0 71.68-17.067 71.68-76.8 0-10.24 0-10.24 0-10.24-1.707-11.947 8.533-22.187 22.187-23.893l61.44-3.413c1.707 13.653 3.413 25.6 3.413 37.547 1.707 100.693-63.147 148.48-155.307 148.48z" />
<glyph unicode="&#xe630;" glyph-name="youku" horiz-adv-x="1129" d="M258.734 552.979c8.2 18.182 0.067 39.572-18.093 47.771-18.182 8.2-39.549 0.089-47.794-18.048l-50.423-111.853-69.674 115.173c-10.316 17.045-32.553 22.549-49.644 12.188-17.068-10.316-22.505-32.532-12.21-49.644l95.521-157.731-39.237-86.942c-8.199-18.182-0.111-39.617 18.093-47.817 4.813-2.206 9.894-3.231 14.839-3.231 13.77 0 26.917 7.954 32.955 21.323l44.786 99.487c1.805 2.852 3.209 5.949 4.144 9.114l76.648 170.119zM358.064 596.183c-64.192 0-116.175-55.881-116.175-124.687 0-68.895 51.982-124.732 116.175-124.732 64.17 0 116.175 55.815 116.175 124.732 0.022 68.805-52.004 124.687-116.176 124.687zM357.887 402.98c-29.099 0-52.606 29.68-52.606 66.242 0 36.63 23.507 66.264 52.606 66.264 29.056 0 52.629-29.634 52.629-66.264 0-36.564-23.574-66.242-52.629-66.242zM581.972 348.68c-76.515 0-103.453 44.786-103.453 79.344v128.252c0 17.647 14.26 31.908 31.884 31.908 17.602 0 31.93-14.282 31.93-31.908v-127.228c0.223-1.448 7.999-30.748 39.638-30.748 31.684 0 41.488 25.959 42.536 30.37 0.045 16.622 0.668 122.882 0.668 127.784 0.111 17.535 14.394 31.728 31.93 31.728 0.022 0 0.111 0 0.178 0 17.624-0.067 31.795-14.461 31.684-32.086 0-1.225-0.735-121.546-0.735-129.144 0-36.319-29.701-78.275-106.26-78.275zM902.513 405.297l-67.289 62.946 60.471 61.185c13.012 12.99 11.029 32.107-2.005 45.097-12.99 13.012-32.063 14.995-45.008 1.983l-85.426-83.556v63.568c0 18.382-14.951 30.459-33.333 30.459-18.404 0-33.311-12.076-33.311-30.459v-181.884c0-18.382 14.884-27.629 33.311-27.629 18.382 0 33.333 9.269 33.333 27.629v67.068l93.939-85.115c13.458-12.5 32.419-9.759 45.008 3.699 12.5 13.413 13.792 32.532 0.334 45.075zM1012.806 347.344c-76.559 0-103.475 44.786-103.475 79.345v128.296c0 17.624 14.327 31.862 31.908 31.862 17.602 0 31.841-14.238 31.841-31.862v-127.25c0.29-1.448 8.11-30.77 39.727-30.77s41.465 25.98 42.513 30.392c0.089 16.644 0.691 122.882 0.735 127.852 0.067 17.492 14.305 31.639 31.884 31.639 0.045 0 0.111 0 0.201 0 17.602-0.067 31.752-14.461 31.639-32.040 0-1.27-0.691-121.523-0.691-129.144 0-36.363-29.723-78.32-106.283-78.32z" />
<glyph unicode="&#xe631;" glyph-name="wechat" horiz-adv-x="1113" d="M1089.802 299.159c0 157.29-148.787 284.838-332.346 284.838-183.517 0-332.326-127.548-332.326-284.838 0-157.335 148.787-284.86 332.326-284.86 49.473 0 96.421 9.26 138.554 25.88 4.705 1.986 97.953-64.756 107.256-56.985 9.324 7.728-33.177 98.039-27.543 101.169 69.915 52.172 114.077 129.058 114.077 214.794zM638.002 366.591c-23.614 0-42.695 19.103-42.695 42.673 0 23.528 19.081 42.653 42.695 42.653 23.528 0 42.631-19.103 42.631-42.653 0-23.571-19.103-42.673-42.631-42.673zM877.381 366.591c-23.571 0-42.673 19.103-42.673 42.673 0 23.528 19.103 42.653 42.673 42.653 23.528 0 42.673-19.103 42.673-42.653 0-23.571-19.145-42.673-42.673-42.673zM395.319 898.689c-213.779 0-387.13-151.312-387.13-338.089 0-106.437 56.315-201.368 144.341-263.339 1.877-1.749-28.514-96.96-31.039-106.35-2.504-9.433-3.777-17.656 0.453-19.729 10.317-6.432 124.094 76.606 134.928 73.606 42.955-14.375 89.687-22.233 138.427-22.233 5.375 0 10.75 0.108 16.059 0.324-7.166 24.413-11.009 49.927-11.009 76.282 0 170.717 160.204 309.639 357.084 309.639 7.123 0 14.16-0.216 21.132-0.561-26.42 164.177-187.921 290.45-383.244 290.45zM246.706 619.808c-26.852 0-48.589 21.802-48.589 48.631s21.802 48.589 48.589 48.589c26.873 0 48.609-21.802 48.609-48.589 0-26.852-21.802-48.631-48.609-48.631zM548.553 620.736c-26.873 0-48.654 21.802-48.654 48.631s21.802 48.567 48.654 48.567c26.831 0 48.609-21.802 48.609-48.567 0-26.852-21.802-48.631-48.609-48.631z" />
<glyph unicode="&#xe632;" glyph-name="weibo" horiz-adv-x="1129" d="M930.736 534.783c-20.743 0-37.58 16.836-37.58 37.557 0 80.038-21.931 101.946-101.946 101.946-20.743 0-37.557 16.836-37.557 37.557 0 20.765 16.815 37.602 37.557 37.602 62.273 0 104.883-13.642 134.173-42.911 29.335-29.291 42.955-71.943 42.955-134.217 0-20.7-16.836-37.537-37.602-37.537zM1065.536 492.131c-20.765 0-37.557 16.836-37.557 37.557 0 114.164-15.994 183.345-51.826 224.334-36.587 41.832-99.637 60.461-204.52 60.461-20.765 0-37.602 16.836-37.602 37.602s16.836 37.557 37.602 37.557c128.475 0 208.987-26.55 260.965-86.168 48.717-55.646 70.433-140.109 70.433-273.786 0-20.722-16.836-37.557-37.602-37.557zM470.496 412.654c-104.299 0-203.181-59.597-203.181-165.256 0-55.539 39.263-135.447 153.061-135.447 113.775 0 190.964 78.548 190.964 166.595 0 66.375-62.64 134.108-140.844 134.108zM377.421 179.621c-28.794 0-52.149 19.491-52.149 46.041 0 26.528 24.37 62.295 70.411 62.295 28.794 0 50.12-21.499 50.12-48.093 0.021-35.184-32.485-60.244-68.382-60.244zM472.051 272.911c-10.771 0-19.426 7.274-19.426 17.138 0 9.907 9.044 23.247 26.204 23.247 10.771 0 18.671-8.030 18.671-17.959 0-13.102-12.087-22.427-25.449-22.427zM810.183 480.863c-15.951 15.908 35.53 66.611 3.367 125.993-61.626 92.773-245.854-11.548-261.397-1.338-15.584 10.145 7.425 21.585 5.396 83.276-2.007 61.647-51.589 82.629-85.369 81.959-136.763-2.698-453.721-243.805-448.303-473.406 3.821-161.911 199.211-293.235 444.958-293.235 274.283 0 489.66 170.673 489.66 318.317 0.021 125.302-129.36 139.506-148.311 158.435zM434.299 66.429c-176.912 0-302.063 91.090-302.063 198.455 0 128.022 171.861 237.027 348.817 237.027 176.933 0 308.171-91.090 308.171-198.411s-124.936-237.070-354.882-237.070z" />
<glyph unicode="&#xe633;" glyph-name="mute" d="M928.090 348.484v-78.808h-78.808l-99.516 99.516-99.516-99.516h-78.808v78.808l99.516 99.516-99.516 99.516v78.808h78.808l99.516-99.516 99.516 99.516h78.808v-78.808l-99.516-99.516 99.516-99.516zM422.844 31.91c-7.734 0-15.336 3.018-21.022 8.706l-229.060 229.060h-106.572c-16.414 0-29.72 13.306-29.72 29.72v297.206c0 16.414 13.308 29.72 29.72 29.72h106.572l229.060 229.062c8.502 8.502 21.284 11.044 32.39 6.442 11.106-4.6 18.346-15.438 18.346-27.458v-772.738c0-12.022-7.24-22.858-18.346-27.458-3.676-1.524-7.54-2.262-11.368-2.262z" />
<glyph unicode="&#xe634;" glyph-name="unmute" d="M689.966 173.99c-10.536 0-21.066 4.018-29.106 12.054-16.074 16.074-16.074 42.136 0 58.212 112.344 112.344 112.344 295.14 0 407.484-16.074 16.076-16.074 42.138 0 58.212 16.074 16.072 42.138 16.074 58.212 0 69.97-69.967 108.505-162.996 108.505-261.95 0-98.952-38.534-191.984-108.505-261.954-8.036-8.038-18.571-12.057-29.105-12.057v0zM543.746 251.606c-10.536 0-21.066 4.018-29.106 12.056-16.076 16.076-16.076 42.134 0 58.21 69.546 69.546 69.546 182.706 0 252.252-16.076 16.076-16.076 42.138 0 58.212s42.136 16.074 58.212 0c101.644-101.644 101.644-267.032 0-368.676-8.036-8.034-18.571-12.052-29.105-12.052zM429.681 63.82c-7.142 0-14.16 2.787-19.41 8.038l-211.492 211.492h-98.4c-15.154 0-27.442 12.286-27.442 27.442v274.414c0 15.154 12.286 27.442 27.442 27.442h98.4l211.492 211.494c7.85 7.85 19.652 10.196 29.906 5.948 10.254-4.246 16.94-14.254 16.94-25.352v-713.476c0-11.1-6.686-21.106-16.94-25.352-3.394-1.406-6.962-2.089-10.496-2.089z" />
<glyph unicode="&#xe635;" glyph-name="enlarge" d="M960 896h-364l140-140-168-168 84-84 168 168 140-140zM960 0v364l-140-140-168 168-84-84 168-168-140-140zM64 0h364l-140 140 168 168-84 84-168-168-140 140zM64 896v-364l140 140 168-168 84 84-168 168 140 140z" />
<glyph unicode="&#xf002;" glyph-name="search" horiz-adv-x="951" d="M658.286 484.571q0 105.714-75.143 180.857t-180.857 75.143-180.857-75.143-75.143-180.857 75.143-180.857 180.857-75.143 180.857 75.143 75.143 180.857zM950.857 9.143q0-29.714-21.714-51.429t-51.429-21.714q-30.857 0-51.429 21.714l-196 195.429q-102.286-70.857-228-70.857-81.714 0-156.286 31.714t-128.571 85.714-85.714 128.571-31.714 156.286 31.714 156.286 85.714 128.571 128.571 85.714 156.286 31.714 156.286-31.714 128.571-85.714 85.714-128.571 31.714-156.286q0-125.714-70.857-228l196-196q21.143-21.143 21.143-51.429z" />
<glyph unicode="&#xf005;" glyph-name="star-full, favorited" horiz-adv-x="951" d="M950.857 590.286q0-12.571-14.857-27.429l-207.429-202.286 49.143-285.714q0.571-4 0.571-11.429 0-12-6-20.286t-17.429-8.286q-10.857 0-22.857 6.857l-256.571 134.857-256.571-134.857q-12.571-6.857-22.857-6.857-12 0-18 8.286t-6 20.286q0 3.429 1.143 11.429l49.143 285.714-208 202.286q-14.286 15.429-14.286 27.429 0 21.143 32 26.286l286.857 41.714 128.571 260q10.857 23.429 28 23.429t28-23.429l128.571-260 286.857-41.714q32-5.143 32-26.286z" />
<glyph unicode="&#xf006;" glyph-name="star, favorite, star-empty" horiz-adv-x="951" d="M649.714 386.286l174.857 169.714-241.143 35.429-108 218.286-108-218.286-241.143-35.429 174.857-169.714-41.714-240.571 216 113.714 215.429-113.714zM950.857 590.286q0-12.571-14.857-27.429l-207.429-202.286 49.143-285.714q0.571-4 0.571-11.429 0-28.571-23.429-28.571-10.857 0-22.857 6.857l-256.571 134.857-256.571-134.857q-12.571-6.857-22.857-6.857-12 0-18 8.286t-6 20.286q0 3.429 1.143 11.429l49.143 285.714-208 202.286q-14.286 15.429-14.286 27.429 0 21.143 32 26.286l286.857 41.714 128.571 260q10.857 23.429 28 23.429t28-23.429l128.571-260 286.857-41.714q32-5.143 32-26.286z" />
<glyph unicode="&#xf007;" glyph-name="person" horiz-adv-x="805" d="M804.571 157.143q0-68.571-41.714-108.286t-110.857-39.714h-499.429q-69.143 0-110.857 39.714t-41.714 108.286q0 30.286 2 59.143t8 62.286 15.143 62 24.571 55.714 35.429 46.286 48.857 30.571 63.714 11.429q5.143 0 24-12.286t42.571-27.429 61.714-27.429 76.286-12.286 76.286 12.286 61.714 27.429 42.571 27.429 24 12.286q34.857 0 63.714-11.429t48.857-30.571 35.429-46.286 24.571-55.714 15.143-62 8-62.286 2-59.143zM621.714 667.429q0-90.857-64.286-155.143t-155.143-64.286-155.143 64.286-64.286 155.143 64.286 155.143 155.143 64.286 155.143-64.286 64.286-155.143z" />
<glyph unicode="&#xf00c;" glyph-name="check" d="M954.857 636.571q0-22.857-16-38.857l-491.429-491.429q-16-16-38.857-16t-38.857 16l-284.571 284.571q-16 16-16 38.857t16 38.857l77.714 77.714q16 16 38.857 16t38.857-16l168-168.571 374.857 375.429q16 16 38.857 16t38.857-16l77.714-77.714q16-16 16-38.857z" />
<glyph unicode="&#xf00d;" glyph-name="wrong" horiz-adv-x="805" d="M741.714 204.571q0-22.857-16-38.857l-77.714-77.714q-16-16-38.857-16t-38.857 16l-168 168-168-168q-16-16-38.857-16t-38.857 16l-77.714 77.714q-16 16-16 38.857t16 38.857l168 168-168 168q-16 16-16 38.857t16 38.857l77.714 77.714q16 16 38.857 16t38.857-16l168-168 168 168q16 16 38.857 16t38.857-16l77.714-77.714q16-16 16-38.857t-16-38.857l-168-168 168-168q16-16 16-38.857z" />
<glyph unicode="&#xf00e;" glyph-name="zoom-in" horiz-adv-x="951" d="M585.143 502.857v-36.571q0-7.429-5.429-12.857t-12.857-5.429h-128v-128q0-7.429-5.429-12.857t-12.857-5.429h-36.571q-7.429 0-12.857 5.429t-5.429 12.857v128h-128q-7.429 0-12.857 5.429t-5.429 12.857v36.571q0 7.429 5.429 12.857t12.857 5.429h128v128q0 7.429 5.429 12.857t12.857 5.429h36.571q7.429 0 12.857-5.429t5.429-12.857v-128h128q7.429 0 12.857-5.429t5.429-12.857zM658.286 484.571q0 105.714-75.143 180.857t-180.857 75.143-180.857-75.143-75.143-180.857 75.143-180.857 180.857-75.143 180.857 75.143 75.143 180.857zM950.857 9.143q0-30.286-21.429-51.714t-51.714-21.429q-30.857 0-51.429 21.714l-196 195.429q-102.286-70.857-228-70.857-81.714 0-156.286 31.714t-128.571 85.714-85.714 128.571-31.714 156.286 31.714 156.286 85.714 128.571 128.571 85.714 156.286 31.714 156.286-31.714 128.571-85.714 85.714-128.571 31.714-156.286q0-125.714-70.857-228l196-196q21.143-21.143 21.143-51.429z" />
<glyph unicode="&#xf010;" glyph-name="zoom-out" horiz-adv-x="951" d="M585.143 502.857v-36.571q0-7.429-5.429-12.857t-12.857-5.429h-329.143q-7.429 0-12.857 5.429t-5.429 12.857v36.571q0 7.429 5.429 12.857t12.857 5.429h329.143q7.429 0 12.857-5.429t5.429-12.857zM658.286 484.571q0 105.714-75.143 180.857t-180.857 75.143-180.857-75.143-75.143-180.857 75.143-180.857 180.857-75.143 180.857 75.143 75.143 180.857zM950.857 9.143q0-30.286-21.429-51.714t-51.714-21.429q-30.857 0-51.429 21.714l-196 195.429q-102.286-70.857-228-70.857-81.714 0-156.286 31.714t-128.571 85.714-85.714 128.571-31.714 156.286 31.714 156.286 85.714 128.571 128.571 85.714 156.286 31.714 156.286-31.714 128.571-85.714 85.714-128.571 31.714-156.286q0-125.714-70.857-228l196-196q21.143-21.143 21.143-51.429z" />
<glyph unicode="&#xf013;" glyph-name="settings" horiz-adv-x="878" d="M585.143 448q0 60.571-42.857 103.429t-103.429 42.857-103.429-42.857-42.857-103.429 42.857-103.429 103.429-42.857 103.429 42.857 42.857 103.429zM877.714 510.286v-126.857q0-6.857-4.571-13.143t-11.429-7.429l-105.714-16q-10.857-30.857-22.286-52 20-28.571 61.143-78.857 5.714-6.857 5.714-14.286t-5.143-13.143q-15.429-21.143-56.571-61.714t-53.714-40.571q-6.857 0-14.857 5.143l-78.857 61.714q-25.143-13.143-52-21.714-9.143-77.714-16.571-106.286-4-16-20.571-16h-126.857q-8 0-14 4.857t-6.571 12.286l-16 105.143q-28 9.143-51.429 21.143l-80.571-61.143q-5.714-5.143-14.286-5.143-8 0-14.286 6.286-72 65.143-94.286 96-4 5.714-4 13.143 0 6.857 4.571 13.143 8.571 12 29.143 38t30.857 40.286q-15.429 28.571-23.429 56.571l-104.571 15.429q-7.429 1.143-12 7.143t-4.571 13.429v126.857q0 6.857 4.571 13.143t10.857 7.429l106.286 16q8 26.286 22.286 52.571-22.857 32.571-61.143 78.857-5.714 6.857-5.714 13.714 0 5.714 5.143 13.143 14.857 20.571 56.286 61.429t54 40.857q7.429 0 14.857-5.714l78.857-61.143q25.143 13.143 52 21.714 9.143 77.714 16.571 106.286 4 16 20.571 16h126.857q8 0 14-4.857t6.571-12.286l16-105.143q28-9.143 51.429-21.143l81.143 61.143q5.143 5.143 13.714 5.143 7.429 0 14.286-5.714 73.714-68 94.286-97.143 4-4.571 4-12.571 0-6.857-4.571-13.143-8.571-12-29.143-38t-30.857-40.286q14.857-28.571 23.429-56l104.571-16q7.429-1.143 12-7.143t4.571-13.429z" />
<glyph unicode="&#xf017;" glyph-name="clock" horiz-adv-x="878" d="M512 649.143v-256q0-8-5.143-13.143t-13.143-5.143h-182.857q-8 0-13.143 5.143t-5.143 13.143v36.571q0 8 5.143 13.143t13.143 5.143h128v201.143q0 8 5.143 13.143t13.143 5.143h36.571q8 0 13.143-5.143t5.143-13.143zM749.714 448q0 84.571-41.714 156t-113.143 113.143-156 41.714-156-41.714-113.143-113.143-41.714-156 41.714-156 113.143-113.143 156-41.714 156 41.714 113.143 113.143 41.714 156zM877.714 448q0-119.429-58.857-220.286t-159.714-159.714-220.286-58.857-220.286 58.857-159.714 159.714-58.857 220.286 58.857 220.286 159.714 159.714 220.286 58.857 220.286-58.857 159.714-159.714 58.857-220.286z" />
<glyph unicode="&#xf023;" glyph-name="locked" horiz-adv-x="658" d="M182.857 521.143h292.571v109.714q0 60.571-42.857 103.429t-103.429 42.857-103.429-42.857-42.857-103.429v-109.714zM658.286 466.286v-329.143q0-22.857-16-38.857t-38.857-16h-548.571q-22.857 0-38.857 16t-16 38.857v329.143q0 22.857 16 38.857t38.857 16h18.286v109.714q0 105.143 75.429 180.571t180.571 75.429 180.571-75.429 75.429-180.571v-109.714h18.286q22.857 0 38.857-16t16-38.857z" />
<glyph unicode="&#xf024;" glyph-name="flag" d="M182.857 813.714q0-41.143-36.571-62.857v-723.429q0-7.429-5.429-12.857t-12.857-5.429h-36.571q-7.429 0-12.857 5.429t-5.429 12.857v723.429q-36.571 21.714-36.571 62.857 0 30.286 21.429 51.714t51.714 21.429 51.714-21.429 21.429-51.714zM1024 777.143v-436q0-14.286-7.143-22t-22.571-15.714q-122.857-66.286-210.857-66.286-34.857 0-70.571 12.571t-62 27.429-66 27.429-81.429 12.571q-109.714 0-265.143-83.429-9.714-5.143-18.857-5.143-14.857 0-25.714 10.857t-10.857 25.714v424q0 18.286 17.714 31.429 12 8 45.143 24.571 134.857 68.571 240.571 68.571 61.143 0 114.286-16.571t125.143-50.286q21.714-10.857 50.286-10.857 30.857 0 67.143 12t62.857 26.857 50.286 26.857 31.143 12q14.857 0 25.714-10.857t10.857-25.714z" />
<glyph unicode="&#xf030;" glyph-name="pictures" horiz-adv-x="1097" d="M548.563 530.703q59.89 0 102.418-42.527t42.527-102.418-42.527-102.418-102.418-42.527-102.418 42.527-42.527 102.418 42.527 102.418 102.418 42.527zM902.871 740.067q53.347 0 91.094-37.746t37.746-91.094v-450.938q0-53.347-37.746-91.094t-91.094-37.746h-708.616q-53.347 0-91.094 37.746t-37.746 91.094v450.938q0 53.347 37.746 91.094t91.094 37.746h112.734l25.667 68.445q9.563 24.661 34.978 42.527t52.090 17.867h257.679q26.675 0 52.090-17.867t34.978-42.527l25.667-68.445h112.734zM548.563 160.29q93.107 0 159.288 66.181t66.181 159.288-66.181 159.288-159.288 66.181-159.288-66.181-66.181-159.288 66.181-159.288 159.288-66.181z" />
<glyph unicode="&#xf03d;" glyph-name="movie" d="M992.5 739.732v-583.464q0-22.523-20.915-31.639-6.972-2.682-13.408-2.682-14.48 0-24.132 10.189l-216.118 216.118v-89.021q0-63.816-45.315-109.132t-109.132-45.315h-377.536q-63.816 0-109.132 45.315t-45.315 109.132v377.536q0 63.816 45.315 109.132t109.132 45.315h377.536q63.816 0 109.132-45.315t45.315-109.132v-88.486l216.118 215.581q9.654 10.189 24.132 10.189 6.435 0 13.408-2.682 20.915-9.116 20.915-31.639z" />
<glyph unicode="&#xf047;" glyph-name="expand" d="M1024 448q0-14.857-10.857-25.714l-146.286-146.286q-10.857-10.857-25.714-10.857t-25.714 10.857-10.857 25.714v73.143h-219.429v-219.429h73.143q14.857 0 25.714-10.857t10.857-25.714-10.857-25.714l-146.286-146.286q-10.857-10.857-25.714-10.857t-25.714 10.857l-146.286 146.286q-10.857 10.857-10.857 25.714t10.857 25.714 25.714 10.857h73.143v219.429h-219.429v-73.143q0-14.857-10.857-25.714t-25.714-10.857-25.714 10.857l-146.286 146.286q-10.857 10.857-10.857 25.714t10.857 25.714l146.286 146.286q10.857 10.857 25.714 10.857t25.714-10.857 10.857-25.714v-73.143h219.429v219.429h-73.143q-14.857 0-25.714 10.857t-10.857 25.714 10.857 25.714l146.286 146.286q10.857 10.857 25.714 10.857t25.714-10.857l146.286-146.286q10.857-10.857 10.857-25.714t-10.857-25.714-25.714-10.857h-73.143v-219.429h219.429v73.143q0 14.857 10.857 25.714t25.714 10.857 25.714-10.857l146.286-146.286q10.857-10.857 10.857-25.714z" />
<glyph unicode="&#xf086;" glyph-name="chat" d="M804.571 521.143q0-79.429-53.714-146.857t-146.571-106.571-202-39.143q-49.143 0-100.571 9.143-70.857-50.286-158.857-73.143-20.571-5.143-49.143-9.143h-1.714q-6.286 0-11.714 4.571t-6.571 12q-0.571 1.714-0.571 3.714t0.286 3.714 1.143 3.429l1.429 2.857t2 3.143 2.286 2.857 2.571 2.857 2.286 2.571q2.857 3.429 13.143 14.286t14.857 16.857 12.857 16.571 14.286 22 11.714 25.143q-70.857 41.143-111.429 101.143t-40.571 128q0 79.429 53.714 146.857t146.571 106.571 202 39.143 202-39.143 146.571-106.571 53.714-146.857zM1024 374.857q0-68.571-40.571-128.286t-111.429-100.857q5.714-13.714 11.714-25.143t14.286-22 12.857-16.571 14.857-16.857 13.143-14.286q0.571-0.571 2.286-2.571t2.571-2.857 2.286-2.857 2-3.143l1.429-2.857t1.143-3.429 0.286-3.714-0.571-3.714q-1.714-8-7.429-12.571t-12.571-4q-28.571 4-49.143 9.143-88 22.857-158.857 73.143-51.429-9.143-100.571-9.143-154.857 0-269.714 75.429 33.143-2.286 50.286-2.286 92 0 176.571 25.714t150.857 73.714q71.429 52.571 109.714 121.143t38.286 145.143q0 44-13.143 86.857 73.714-40.571 116.571-101.714t42.857-131.429z" />
<glyph unicode="&#xf08e;" glyph-name="new-window" d="M795.428 352.785v-177.143q0-65.875-46.777-112.652t-112.652-46.777h-460.572q-65.875 0-112.652 46.777t-46.777 112.652v460.572q0 65.875 46.777 112.652t112.652 46.777h389.715q7.75 0 12.732-4.982t4.982-12.732v-35.428q0-7.75-4.982-12.732t-12.732-4.982h-389.715q-36.535 0-62.553-26.018t-26.018-62.553v-460.572q0-36.535 26.018-62.553t62.553-26.018h460.572q36.535 0 62.553 26.018t26.018 62.553v177.143q0 7.75 4.982 12.732t12.732 4.982h35.428q7.75 0 12.732-4.982t4.982-12.732zM1008 831.072v-283.428q0-14.393-10.518-24.91t-24.91-10.518-24.91 10.518l-97.428 97.428-360.928-360.928q-5.535-5.535-12.732-5.535t-12.732 5.535l-63.107 63.107q-5.535 5.535-5.535 12.732t5.535 12.732l360.928 360.928-97.428 97.428q-10.518 10.518-10.518 24.91t10.518 24.91 24.91 10.518h283.428q14.393 0 24.91-10.518t10.518-24.91z" />
<glyph unicode="&#xf095;" glyph-name="phone" horiz-adv-x="805" d="M804.571 219.429q0-15.429-5.714-40.286t-12-39.143q-12-28.571-69.714-60.571-53.714-29.143-106.286-29.143-15.429 0-30 2t-32.857 7.143-27.143 8.286-31.714 11.714-28 10.286q-56 20-100 47.429-73.143 45.143-151.143 123.143t-123.143 151.143q-27.429 44-47.429 100-1.714 5.143-10.286 28t-11.714 31.714-8.286 27.143-7.143 32.857-2 30q0 52.571 29.143 106.286 32 57.714 60.571 69.714 14.286 6.286 39.143 12t40.286 5.714q8 0 12-1.714 10.286-3.429 30.286-43.429 6.286-10.857 17.143-30.857t20-36.286 17.714-30.571q1.714-2.286 10-14.286t12.286-20.286 4-16.286q0-11.429-16.286-28.571t-35.429-31.429-35.429-30.286-16.286-26.286q0-5.143 2.857-12.857t4.857-11.714 8-13.714 6.571-10.857q43.429-78.286 99.429-134.286t134.286-99.429q1.143-0.571 10.857-6.571t13.714-8 11.714-4.857 12.857-2.857q10.286 0 26.286 16.286t30.286 35.429 31.429 35.429 28.571 16.286q8 0 16.286-4t20.286-12.286 14.286-10q14.286-8.571 30.571-17.714t36.286-20 30.857-17.143q40-20 43.429-30.286 1.714-4 1.714-12z" />
<glyph unicode="&#xf099;" glyph-name="twitter" horiz-adv-x="951" d="M925.714 726.857q-38.286-56-92.571-95.429 0.571-8 0.571-24 0-74.286-21.714-148.286t-66-142-105.429-120.286-147.429-83.429-184.571-31.143q-154.857 0-283.429 82.857 20-2.286 44.571-2.286 128.571 0 229.143 78.857-60 1.143-107.429 36.857t-65.143 91.143q18.857-2.857 34.857-2.857 24.571 0 48.571 6.286-64 13.143-106 63.714t-42 117.429v2.286q38.857-21.714 83.429-23.429-37.714 25.143-60 65.714t-22.286 88q0 50.286 25.143 93.143 69.143-85.143 168.286-136.286t212.286-56.857q-4.571 21.714-4.571 42.286 0 76.571 54 130.571t130.571 54q80 0 134.857-58.286 62.286 12 117.143 44.571-21.143-65.714-81.143-101.714 53.143 5.714 106.286 28.571z" />
<glyph unicode="&#xf09a;" glyph-name="facebook" horiz-adv-x="439" d="M292 642.286h146.857l-17.143-162.286h-129.714v-470.857h-194.857v470.857h-97.143v162.286h97.143v97.714q0 104 49.143 157.429t161.714 53.429h129.714v-162.286h-81.143q-22.286 0-35.714-3.714t-19.429-13.429-7.714-19.714-1.714-28.286v-81.143z" />
<glyph unicode="&#xf0c0;" glyph-name="people" horiz-adv-x="1097" d="M369.629 448q-78.983-2.438-129.202-62.407h-65.332q-39.979 0-67.283 19.745t-27.303 57.774q0 172.104 60.457 172.104 2.926 0 21.208-10.239t47.536-20.722 58.018-10.483q32.666 0 64.844 11.214-2.438-18.039-2.438-32.178 0-67.77 39.493-124.814zM891.797 137.43q0-58.506-35.591-92.391t-94.585-33.885h-426.121q-58.994 0-94.585 33.885t-35.591 92.391q0 25.841 1.706 50.462t6.826 53.143 12.921 52.901 20.964 47.536 30.228 39.493 41.685 26.083 54.361 9.751q4.875 0 20.964-10.483t35.591-23.404 52.168-23.404 65.82-10.483 65.82 10.483 52.168 23.404 35.591 23.404 20.964 10.483q29.742 0 54.361-9.751t41.685-26.083 30.228-39.493 20.964-47.536 12.921-52.901 6.826-53.143 1.706-50.462zM392.545 760.033q0-51.68-36.566-88.247t-88.247-36.566-88.247 36.566-36.566 88.247 36.566 88.247 88.247 36.566 88.247-36.566 36.566-88.247zM735.782 572.814q0-77.52-54.851-132.37t-132.37-54.851-132.37 54.851-54.851 132.37 54.851 132.37 132.37 54.851 132.37-54.851 54.851-132.37zM1016.612 463.114q0-38.029-27.303-57.774t-67.283-19.745h-65.332q-50.218 59.969-129.202 62.407 39.493 57.044 39.493 124.814 0 14.138-2.438 32.178 32.178-11.214 64.844-11.214 28.764 0 58.018 10.483t47.536 20.722 21.208 10.239q60.457 0 60.457-172.104zM954.205 760.033q0-51.68-36.566-88.247t-88.247-36.566-88.247 36.566-36.566 88.247 36.566 88.247 88.247 36.566 88.247-36.566 36.566-88.247z" />
<glyph unicode="&#xf0d5;" glyph-name="google-plus" horiz-adv-x="951" d="M500.571 122.857q0 12-2.571 23.143t-5.429 20.571-10 19.714-12 17.429-15.143 16.857-15.714 14.571-18.286 14.571-17.714 13.143-18.857 13.143-17.429 12q-9.714 1.143-28.571 1.143-30.857 0-60.571-4t-61.714-14.286-56-26.286-39.429-42.857-15.429-61.143q0-38.857 20.286-69.429t53.143-48 68.857-26 72.571-8.571q33.714 0 64.286 7.143t57.429 22.286 42.571 42 15.714 62.857zM432 615.429q0 34.286-9.429 72.857t-26.857 74.571-48 59.429-68.286 23.429q-53.143 0-82.286-39.429t-29.143-94.286q0-26.857 6.571-56.571t20.286-59.429 32-53.429 44.571-38.571 55.429-14.857q55.429 0 80.286 34.571t24.857 91.714zM357.143 886.857h249.714l-77.143-45.143h-77.143q40.571-25.714 62.857-72t22.286-96.571q0-42.286-13.143-75.143t-32-52.857-37.714-36.857-32-34.857-13.143-38.571q0-14.857 9.429-29.143t24.571-27.429 33.429-27.429 36.571-31.714 33.429-37.714 24.571-48.571 9.429-60.857q0-91.429-80-161.143-86.857-74.857-240-74.857-33.714 0-68.286 5.714t-69.714 19.143-62 33.143-44 50.857-17.143 69.429q0 34.857 21.143 77.143 18.286 36.571 54.857 63.143t82.857 40.571 88.571 20.571 85.714 7.714q-36.571 47.429-36.571 85.143 0 6.857 1.143 13.429t2.857 11.143 4.571 12.286 4 12.286q-22.857-2.857-40-2.857-85.143 0-146 56t-60.857 140.571q0 80 54.286 143.143t133.714 80.857q53.714 11.429 106.857 11.429zM950.857 740.571v-73.143h-146.286v-146.286h-73.143v146.286h-146.286v73.143h146.286v146.286h73.143v-146.286h146.286z" />
<glyph unicode="&#xf0e0;" glyph-name="mail, envelope" d="M948.846 538.685v-387.116q0-32.178-22.915-55.093t-55.092-22.915h-717.675q-32.178 0-55.093 22.915t-22.915 55.093v387.116q21.453-23.889 49.242-42.417 176.494-119.936 242.312-168.205 27.791-20.476 45.098-31.935t46.074-23.404 53.631-11.945h0.975q24.865 0 53.631 11.945t46.074 23.404 45.098 31.935q82.883 59.969 242.8 168.205 27.791 19.015 48.755 42.417zM948.846 682.025q0-38.516-23.889-73.621t-59.48-59.97q-183.32-127.251-228.175-158.455-4.875-3.413-20.722-14.87t-26.328-18.526-25.352-15.845-28.034-13.165-24.377-4.387h-0.975q-11.214 0-24.377 4.387t-28.034 13.165-25.352 15.845-26.328 18.526-20.722 14.87q-44.368 31.202-127.738 88.979t-99.948 69.477q-30.228 20.476-57.044 56.312t-26.816 66.551q0 38.029 20.233 63.381t57.774 25.352h717.675q31.692 0 54.851-22.915t23.159-55.093z" />
<glyph unicode="&#xf0e5;" glyph-name="speech" d="M512 740.571q-116.571 0-218-39.714t-161.143-107.143-59.714-145.714q0-64 40.857-122t115.143-100.286l49.714-28.571-15.429-54.857q-13.714-52-40-98.286 86.857 36 157.143 97.714l24.571 21.714 32.571-3.429q39.429-4.571 74.286-4.571 116.571 0 218 39.714t161.143 107.143 59.714 145.714-59.714 145.714-161.143 107.143-218 39.714zM1024 448q0-99.429-68.571-183.714t-186.286-133.143-257.143-48.857q-40 0-82.857 4.571-113.143-100-262.857-138.286-28-8-65.143-12.571h-2.857q-8.571 0-15.429 6t-9.143 15.714v0.571q-1.714 2.286-0.286 6.857t1.143 5.714 2.571 5.429l3.429 5.143t4 4.857 4.571 5.143q4 4.571 17.714 19.714t19.714 21.714 17.714 22.571 18.571 29.143 15.429 33.714 14.857 43.429q-89.714 50.857-141.429 125.714t-51.714 160.571q0 99.429 68.571 183.714t186.286 133.143 257.143 48.857 257.143-48.857 186.286-133.143 68.571-183.714z" />
<glyph unicode="&#xf0e7;" glyph-name="power, bolt" horiz-adv-x="512" d="M497.91 630.678q9.965-11.072 3.875-24.357l-298.928-640.482q-7.197-13.84-23.25-13.84-2.215 0-7.75 1.107-9.41 2.768-14.116 10.518t-2.491 16.607l109.053 447.285-224.75-55.91q-2.215-0.553-6.643-0.553-9.965 0-17.16 6.090-9.965 8.303-7.197 21.59l111.268 456.697q2.215 7.75 8.857 12.732t15.5 4.982h181.572q10.518 0 17.715-6.92t7.197-16.33q0-4.428-2.768-9.965l-94.66-256.303 219.215 54.25q4.428 1.107 6.643 1.107 10.518 0 18.822-8.303z" />
<glyph unicode="&#xf0e8;" glyph-name="sitemap" d="M1024 246.857v-182.857q0-22.857-16-38.857t-38.857-16h-182.857q-22.857 0-38.857 16t-16 38.857v182.857q0 22.857 16 38.857t38.857 16h54.857v109.714h-292.571v-109.714h54.857q22.857 0 38.857-16t16-38.857v-182.857q0-22.857-16-38.857t-38.857-16h-182.857q-22.857 0-38.857 16t-16 38.857v182.857q0 22.857 16 38.857t38.857 16h54.857v109.714h-292.571v-109.714h54.857q22.857 0 38.857-16t16-38.857v-182.857q0-22.857-16-38.857t-38.857-16h-182.857q-22.857 0-38.857 16t-16 38.857v182.857q0 22.857 16 38.857t38.857 16h54.857v109.714q0 29.714 21.714 51.429t51.429 21.714h292.571v109.714h-54.857q-22.857 0-38.857 16t-16 38.857v182.857q0 22.857 16 38.857t38.857 16h182.857q22.857 0 38.857-16t16-38.857v-182.857q0-22.857-16-38.857t-38.857-16h-54.857v-109.714h292.571q29.714 0 51.429-21.714t21.714-51.429v-109.714h54.857q22.857 0 38.857-16t16-38.857z" />
<glyph unicode="&#xf0ed;" glyph-name="download" horiz-adv-x="1097" d="M731.429 429.714q0 8-5.143 13.143t-13.143 5.143h-128v201.143q0 7.429-5.429 12.857t-12.857 5.429h-109.714q-7.429 0-12.857-5.429t-5.429-12.857v-201.143h-128q-7.429 0-12.857-5.429t-5.429-12.857q0-8 5.143-13.143l201.143-201.143q5.143-5.143 13.143-5.143t13.143 5.143l200.571 200.571q5.714 6.857 5.714 13.714zM1097.143 301.714q0-90.857-64.286-155.143t-155.143-64.286h-621.714q-105.714 0-180.857 75.143t-75.143 180.857q0 74.286 40 137.143t107.429 94.286q-1.143 17.143-1.143 24.571 0 121.143 85.714 206.857t206.857 85.714q89.143 0 163.143-49.714t107.714-132q40.571 35.429 94.857 35.429 60.571 0 103.429-42.857t42.857-103.429q0-43.429-23.429-78.857 74.286-17.714 122-77.429t47.714-136.286z" />
<glyph unicode="&#xf0ee;" glyph-name="upload" horiz-adv-x="1097" d="M731.429 466.286q0 8-5.143 13.143l-201.143 201.143q-5.143 5.143-13.143 5.143t-13.143-5.143l-200.571-200.571q-5.714-6.857-5.714-13.714 0-8 5.143-13.143t13.143-5.143h128v-201.143q0-7.429 5.429-12.857t12.857-5.429h109.714q7.429 0 12.857 5.429t5.429 12.857v201.143h128q7.429 0 12.857 5.429t5.429 12.857zM1097.143 301.714q0-90.857-64.286-155.143t-155.143-64.286h-621.714q-105.714 0-180.857 75.143t-75.143 180.857q0 74.286 40 137.143t107.429 94.286q-1.143 17.143-1.143 24.571 0 121.143 85.714 206.857t206.857 85.714q89.143 0 163.143-49.714t107.714-132q40.571 35.429 94.857 35.429 60.571 0 103.429-42.857t42.857-103.429q0-43.429-23.429-78.857 74.286-17.714 122-77.429t47.714-136.286z" />
<glyph unicode="&#xf104;" glyph-name="left" horiz-adv-x="366" d="M358.286 649.143q0-7.429-5.714-13.143l-224.571-224.571 224.571-224.571q5.714-5.714 5.714-13.143t-5.714-13.143l-28.571-28.571q-5.714-5.714-13.143-5.714t-13.143 5.714l-266.286 266.286q-5.714 5.714-5.714 13.143t5.714 13.143l266.286 266.286q5.714 5.714 13.143 5.714t13.143-5.714l28.571-28.571q5.714-5.714 5.714-13.143z" />
<glyph unicode="&#xf105;" glyph-name="right" horiz-adv-x="366" d="M340 411.429q0-7.429-5.714-13.143l-266.286-266.286q-5.714-5.714-13.143-5.714t-13.143 5.714l-28.571 28.571q-5.714 5.714-5.714 13.143t5.714 13.143l224.571 224.571-224.571 224.571q-5.714 5.714-5.714 13.143t5.714 13.143l28.571 28.571q5.714 5.714 13.143 5.714t13.143-5.714l266.286-266.286q5.714-5.714 5.714-13.143z" />
<glyph unicode="&#xf106;" glyph-name="up, chevron-up" horiz-adv-x="658" d="M614.286 283.429q0-7.429-5.714-13.143l-28.571-28.571q-5.714-5.714-13.143-5.714t-13.143 5.714l-224.571 224.571-224.571-224.571q-5.714-5.714-13.143-5.714t-13.143 5.714l-28.571 28.571q-5.714 5.714-5.714 13.143t5.714 13.143l266.286 266.286q5.714 5.714 13.143 5.714t13.143-5.714l266.286-266.286q5.714-5.714 5.714-13.143z" />
<glyph unicode="&#xf107;" glyph-name="down, chevron-down" horiz-adv-x="658" d="M614.286 539.429q0-7.429-5.714-13.143l-266.286-266.286q-5.714-5.714-13.143-5.714t-13.143 5.714l-266.286 266.286q-5.714 5.714-5.714 13.143t5.714 13.143l28.571 28.571q5.714 5.714 13.143 5.714t13.143-5.714l224.571-224.571 224.571 224.571q5.714 5.714 13.143 5.714t13.143-5.714l28.571-28.571q5.714-5.714 5.714-13.143z" />
<glyph unicode="&#xf116;" glyph-name="plus" horiz-adv-x="962" d="M672 461.714v-36.571q0-8-5.143-13.143t-13.143-5.143h-128v-128q0-8-5.143-13.143t-13.143-5.143h-36.571q-8 0-13.143 5.143t-5.143 13.143v128h-128q-8 0-13.143 5.143t-5.143 13.143v36.571q0 8 5.143 13.143t13.143 5.143h128v128q0 8 5.143 13.143t13.143 5.143h36.571q8 0 13.143-5.143t5.143-13.143v-128h128q8 0 13.143-5.143t5.143-13.143zM745.143 242.286v402.286q0 22.857-16 38.857t-38.857 16h-402.286q-22.857 0-38.857-16t-16-38.857v-402.286q0-22.857 16-38.857t38.857-16h402.286q22.857 0 38.857 16t16 38.857zM818.286 644.571v-402.286q0-52.571-37.429-90.286t-90.571-37.714h-402.286q-53.143 0-90.571 37.714t-37.429 90.286v402.286q0 53.143 37.429 90.571t90.571 37.429h402.286q53.143 0 90.571-37.429t37.429-90.571z" />
<glyph unicode="&#xf117;" glyph-name="minus" horiz-adv-x="946" d="M674.286 772.571q53.143 0 90.571-37.429t37.429-90.571v-402.286q0-52.571-37.429-90.286t-90.571-37.714h-402.286q-53.143 0-90.571 37.714t-37.429 90.286v402.286q0 53.143 37.429 90.571t90.571 37.429h402.286zM729.143 242.286v402.286q0 22.857-16 38.857t-38.857 16h-402.286q-22.857 0-38.857-16t-16-38.857v-402.286q0-22.857 16-38.857t38.857-16h402.286q22.857 0 38.857 16t16 38.857zM637.714 480q8 0 13.143-5.143t5.143-13.143v-36.571q0-8-5.143-13.143t-13.143-5.143h-329.143q-8 0-13.143 5.143t-5.143 13.143v36.571q0 8 5.143 13.143t13.143 5.143h329.143z" />
<glyph unicode="&#xf126;" glyph-name="connect" horiz-adv-x="585" d="M164.571 118.857q0 22.857-16 38.857t-38.857 16-38.857-16-16-38.857 16-38.857 38.857-16 38.857 16 16 38.857zM164.571 777.143q0 22.857-16 38.857t-38.857 16-38.857-16-16-38.857 16-38.857 38.857-16 38.857 16 16 38.857zM530.286 704q0 22.857-16 38.857t-38.857 16-38.857-16-16-38.857 16-38.857 38.857-16 38.857 16 16 38.857zM585.143 704q0-29.714-14.857-55.143t-40-39.714q-1.143-164-129.143-236.571-38.857-21.714-116-46.286-73.143-22.857-96.857-40.571t-23.714-57.143v-14.857q25.143-14.286 40-39.714t14.857-55.143q0-45.714-32-77.714t-77.714-32-77.714 32-32 77.714q0 29.714 14.857 55.143t40 39.714v468.571q-25.143 14.286-40 39.714t-14.857 55.143q0 45.714 32 77.714t77.714 32 77.714-32 32-77.714q0-29.714-14.857-55.143t-40-39.714v-284q30.857 14.857 88 32.571 31.429 9.714 50 16.857t40.286 17.714 33.714 22.571 23.143 29.143 16 39.714 4.857 52.286q-25.143 14.286-40 39.714t-14.857 55.143q0 45.714 32 77.714t77.714 32 77.714-32 32-77.714z" />
<glyph unicode="&#xf128;" glyph-name="question" horiz-adv-x="585" d="M402.286 242.286v-137.143q0-9.143-6.857-16t-16-6.857h-137.143q-9.143 0-16 6.857t-6.857 16v137.143q0 9.143 6.857 16t16 6.857h137.143q9.143 0 16-6.857t6.857-16zM582.857 585.143q0-30.857-8.857-57.714t-20-43.714-31.429-34-32.857-24.857-34.857-20.286q-23.429-13.143-39.143-37.143t-15.714-38.286q0-9.714-6.857-18.571t-16-8.857h-137.143q-8.571 0-14.571 10.571t-6 21.429v25.714q0 47.429 37.143 89.429t81.714 62q33.714 15.429 48 32t14.286 43.429q0 24-26.571 42.286t-61.429 18.286q-37.143 0-61.714-16.571-20-14.286-61.143-65.714-7.429-9.143-17.714-9.143-6.857 0-14.286 4.571l-93.714 71.429q-7.429 5.714-8.857 14.286t3.143 16q91.429 152 265.143 152 45.714 0 92-17.714t83.429-47.429 60.571-72.857 23.429-90.571z" />
<glyph unicode="&#xf129;" glyph-name="info" horiz-adv-x="366" d="M365.714 192v-73.143q0-14.857-10.857-25.714t-25.714-10.857h-292.571q-14.857 0-25.714 10.857t-10.857 25.714v73.143q0 14.857 10.857 25.714t25.714 10.857h36.571v219.429h-36.571q-14.857 0-25.714 10.857t-10.857 25.714v73.143q0 14.857 10.857 25.714t25.714 10.857h219.429q14.857 0 25.714-10.857t10.857-25.714v-329.143h36.571q14.857 0 25.714-10.857t10.857-25.714zM292.571 850.286v-109.714q0-14.857-10.857-25.714t-25.714-10.857h-146.286q-14.857 0-25.714 10.857t-10.857 25.714v109.714q0 14.857 10.857 25.714t25.714 10.857h146.286q14.857 0 25.714-10.857t10.857-25.714z" />
<glyph unicode="&#xf12a;" glyph-name="exclamation" horiz-adv-x="366" d="M292.571 246.857v-128q0-14.857-10.857-25.714t-25.714-10.857h-146.286q-14.857 0-25.714 10.857t-10.857 25.714v128q0 14.857 10.857 25.714t25.714 10.857h146.286q14.857 0 25.714-10.857t10.857-25.714zM309.714 850.286l-16-438.857q-0.571-14.857-11.714-25.714t-26-10.857h-146.286q-14.857 0-26 10.857t-11.714 25.714l-16 438.857q-0.571 14.857 10 25.714t25.429 10.857h182.857q14.857 0 25.429-10.857t10-25.714z" />
<glyph unicode="&#xf13e;" glyph-name="unlocked" horiz-adv-x="658" d="M603.429 521.143q22.857 0 38.857-16t16-38.857v-329.143q0-22.857-16-38.857t-38.857-16h-548.571q-22.857 0-38.857 16t-16 38.857v329.143q0 22.857 16 38.857t38.857 16h18.286v182.857q0 105.714 75.143 180.857t180.857 75.143 180.857-75.143 75.143-180.857q0-14.857-10.857-25.714t-25.714-10.857h-36.571q-14.857 0-25.714 10.857t-10.857 25.714q0 60.571-42.857 103.429t-103.429 42.857-103.429-42.857-42.857-103.429v-182.857h420.571z" />
<glyph unicode="&#xf141;" glyph-name="horizontal" horiz-adv-x="805" d="M219.429 539.429v-109.714q0-22.857-16-38.857t-38.857-16h-109.714q-22.857 0-38.857 16t-16 38.857v109.714q0 22.857 16 38.857t38.857 16h109.714q22.857 0 38.857-16t16-38.857zM512 539.429v-109.714q0-22.857-16-38.857t-38.857-16h-109.714q-22.857 0-38.857 16t-16 38.857v109.714q0 22.857 16 38.857t38.857 16h109.714q22.857 0 38.857-16t16-38.857zM804.571 539.429v-109.714q0-22.857-16-38.857t-38.857-16h-109.714q-22.857 0-38.857 16t-16 38.857v109.714q0 22.857 16 38.857t38.857 16h109.714q22.857 0 38.857-16t16-38.857z" />
<glyph unicode="&#xf142;" glyph-name="vertical" horiz-adv-x="219" d="M219.429 246.857v-109.714q0-22.857-16-38.857t-38.857-16h-109.714q-22.857 0-38.857 16t-16 38.857v109.714q0 22.857 16 38.857t38.857 16h109.714q22.857 0 38.857-16t16-38.857zM219.429 539.429v-109.714q0-22.857-16-38.857t-38.857-16h-109.714q-22.857 0-38.857 16t-16 38.857v109.714q0 22.857 16 38.857t38.857 16h109.714q22.857 0 38.857-16t16-38.857zM219.429 832v-109.714q0-22.857-16-38.857t-38.857-16h-109.714q-22.857 0-38.857 16t-16 38.857v109.714q0 22.857 16 38.857t38.857 16h109.714q22.857 0 38.857-16t16-38.857z" />
</font>
</defs>
</svg>
