<?xml version="1.0" standalone="no"?>
<!DOCTYPE svg PUBLIC "-//W3C//DTD SVG 1.1//EN" "http://www.w3.org/Graphics/SVG/1.1/DTD/svg11.dtd" >
<svg>
<metadata>
Created by FontForge 20120731 at Thu Oct 17 19:42:12 2013

Copyright (c) 2012 by TypeTogether. All rights reserved.
</metadata>
<defs>
<font id="TabletGothic-SemiBold" horiz-adv-x="500" >
  <font-face 
    font-family="Tablet Gothic Sb"
    font-weight="600"
    font-stretch="normal"
    units-per-em="1000"
    panose-1="2 0 5 3 0 0 0 2 0 4"
    ascent="755"
    descent="-245"
    x-height="513"
    cap-height="734"
    bbox="-162 -254 1028 1068"
    underline-thickness="50"
    underline-position="-50"
    unicode-range="U+0020-FB04"
  />
<missing-glyph horiz-adv-x="190" 
 />
    <glyph glyph-name="ij" unicode="ij" horiz-adv-x="491" 
d="M61 734h125v-117h-125v117zM61 513h125v-513h-125v513zM309 734h124v-117h-124v117zM180 -96q28 -7 59 -7q38 0 54 23t16 77v516h124v-504q0 -57 -12 -96t-34.5 -63t-55.5 -34.5t-76 -10.5q-24 0 -49 3.5t-39 7.5z" />
    <glyph glyph-name="ff" unicode="ff" horiz-adv-x="648" 
d="M205 0h-124v425h-62v88h62v24q0 104 42 154.5t136 50.5q27 0 52 -4t39 -8l-13 -92q-16 5 -30.5 7.5t-31.5 2.5q-38 0 -54 -24.5t-16 -77.5v-33h190v29q0 104 42 154t136 50q30 0 55.5 -4t39.5 -8l-14 -92q-15 5 -31.5 7.5t-33.5 2.5q-38 0 -54 -24.5t-16 -77.5v-37h117
v-88h-117v-425h-124v425h-190v-425z" />
    <glyph glyph-name="fi" unicode="fi" horiz-adv-x="580" 
d="M332 643q-12 3 -26 5.5t-31 2.5q-39 0 -54.5 -23.5t-15.5 -71.5v-43h315v-513h-125v425h-190v-425h-124v425h-62v88h62v29q0 104 41 154t135 50q23 0 42 -3t33 -7v-93zM395 734h125v-117h-125v117z" />
    <glyph glyph-name="fl" unicode="fl" horiz-adv-x="580" 
d="M332 643q-12 3 -26 5.5t-31 2.5q-39 0 -54.5 -23.5t-15.5 -71.5v-43h113v-88h-113v-425h-124v425h-62v88h62v29q0 104 41 154t135 50q23 0 42 -3t33 -7v-93zM520 0h-125v734h125v-734z" />
    <glyph glyph-name="ffi" unicode="ffi" horiz-adv-x="895" 
d="M646 643q-12 3 -26 5.5t-31 2.5q-39 0 -54.5 -23.5t-15.5 -71.5v-43h315v-513h-125v425h-190v-425h-124v425h-190v-425h-124v425h-62v88h62v24q0 104 42 154t136 50q27 0 52 -4t39 -8l-13 -91q-16 5 -30.5 7t-31.5 2q-38 0 -54 -24.5t-16 -77.5v-32h190v29q0 104 41 154
t135 50q23 0 42 -3t33 -7v-93zM709 734h125v-117h-125v117z" />
    <glyph glyph-name="ffl" unicode="ffl" horiz-adv-x="895" 
d="M646 643q-12 3 -26 5.5t-31 2.5q-39 0 -54.5 -23.5t-15.5 -71.5v-43h113v-88h-113v-425h-124v425h-190v-425h-124v425h-62v88h62v24q0 104 42 154t136 50q27 0 52 -4t39 -8l-13 -91q-16 5 -30.5 7t-31.5 2q-38 0 -54 -24.5t-16 -77.5v-32h190v29q0 104 41 154t135 50
q23 0 42 -3t33 -7v-93zM834 0h-125v734h125v-734z" />
    <glyph glyph-name="t_t" unicode="tt" horiz-adv-x="669" 
d="M205 181q0 -54 13.5 -77t53.5 -23q17 0 29.5 2t27.5 7l12 -87q-17 -6 -43.5 -10.5t-56.5 -4.5q-83 0 -121.5 43t-38.5 135v260h-62v87h62v108l124 37v-145h189v108l124 37v-145h118v-87h-118v-245q0 -54 14.5 -77t55.5 -23q17 0 30.5 2t29.5 7l11 -86q-16 -7 -42.5 -11.5
t-59.5 -4.5q-85 0 -124 43t-39 135v260h-189v-245z" />
    <glyph glyph-name=".notdef" horiz-adv-x="190" 
 />
    <glyph glyph-name=".null" horiz-adv-x="0" 
 />
    <glyph glyph-name="nonmarkingreturn" horiz-adv-x="190" 
 />
    <glyph glyph-name="space" unicode=" " horiz-adv-x="190" 
 />
    <glyph glyph-name="numbersign" unicode="#" horiz-adv-x="655" 
d="M348 0l19 125h-127l-18 -125h-102l18 125h-91l14 86h90l21 145h-95l13 88h95l17 111h102l-17 -111h127l16 111h103l-16 -111h91l-14 -88h-90l-21 -145h97l-14 -86h-96l-19 -125h-103zM401 356h-127l-21 -145h127z" />
    <glyph glyph-name="ampersand" unicode="&#x26;" horiz-adv-x="723" 
d="M267 343q-43 -27 -69 -62t-26 -83q0 -27 9.5 -47t26 -33t38 -19.5t46.5 -6.5q46 0 82.5 16.5t69.5 47.5zM398 543q4 10 5 22.5t1 20.5q0 32 -19.5 50.5t-57.5 18.5q-37 0 -55 -19t-18 -53q0 -29 16 -59t47 -63l198 -214q21 38 30.5 80.5t13.5 95.5l113 -12
q-4 -38 -9.5 -70.5t-14 -63t-20.5 -59t-28 -58.5l92 -98l-87 -77l-88 92q-51 -42 -113 -65.5t-133 -23.5q-60 0 -104 15t-72 40.5t-41.5 60t-13.5 74.5q0 74 37.5 131t123.5 105q-39 43 -55.5 82t-16.5 77q0 36 13 68t38.5 55t63.5 36.5t87 13.5q88 0 138 -41.5t50 -110.5
q0 -15 -2 -32.5t-7 -32.5z" />
    <glyph glyph-name="asterisk" unicode="*" horiz-adv-x="388" 
d="M234 734l-22 -131l118 61l25 -77l-131 -16l93 -96l-65 -47l-59 115l-60 -114l-65 47l94 95l-129 18l24 76l118 -61l-21 130h80z" />
    <glyph glyph-name="comma" unicode="," horiz-adv-x="235" 
d="M57 129h132v-109l-69 -158l-52 16l27 122h-38v129z" />
    <glyph glyph-name="hyphen" unicode="-" horiz-adv-x="331" 
d="M30 224v100h271v-100h-271z" />
    <glyph glyph-name="period" unicode="." horiz-adv-x="251" 
d="M61 129h129v-129h-129v129z" />
    <glyph glyph-name="colon" unicode=":" horiz-adv-x="251" 
d="M61 129h128v-129h-128v129zM61 516h128v-129h-128v129z" />
    <glyph glyph-name="semicolon" unicode=";" horiz-adv-x="235" 
d="M60 516h129v-129h-129v129zM57 129h132v-109l-69 -158l-52 16l27 122h-38v129z" />
    <glyph glyph-name="question" unicode="?" horiz-adv-x="510" 
d="M344 522q0 68 -26.5 97t-71.5 29q-51 0 -71 -35t-22 -95l-117 8q1 46 12.5 86t37 70t66 47.5t99.5 17.5q106 0 163.5 -59t57.5 -165q0 -57 -14 -98t-39 -69.5t-58.5 -45.5t-72.5 -25l-6 -90h-116l-7 168q52 1 87.5 12t57 30.5t31 48.5t9.5 68zM157 129h129v-129h-129v129
z" />
    <glyph glyph-name="exclam" unicode="!" horiz-adv-x="312" 
d="M98 207l-10 527h137l-10 -527h-117zM92 129h129v-129h-129v129z" />
    <glyph glyph-name="exclamdown" unicode="&#xa1;" horiz-adv-x="312" 
d="M98 317.013l-10 -526.968h137l-10 526.968h-117zM92 395.008h129v128.992h-129v-128.992z" />
    <glyph glyph-name="questiondown" unicode="&#xbf;" horiz-adv-x="510" 
d="M166.021 2.03223q0 -67.9961 26.498 -96.9941q26.498 -28.999 71.4951 -28.999q50.9971 0 70.9961 34.998t21.999 94.9941l116.992 -7.99902q-1 -45.9971 -12.499 -85.9951q-11.499 -39.9971 -36.998 -69.9951q-25.498 -29.999 -65.9961 -47.4971
q-40.4971 -17.499 -99.4932 -17.499q-105.994 0 -163.49 58.9961t-57.4961 164.99q0 56.9961 13.999 97.9941q13.999 40.9971 38.9971 69.4951q24.999 28.498 58.4971 45.4971q33.4971 16.999 72.4951 24.999l6 89.9941h115.992l7 -167.989q-51.9971 -1 -87.4951 -12
q-35.4971 -10.999 -56.9961 -30.498q-21.499 -19.498 -30.998 -48.4971q-9.49902 -28.998 -9.49902 -67.9951zM353.01 395.008h-128.992v128.992h128.992v-128.992z" />
    <glyph glyph-name="at" unicode="@" horiz-adv-x="827" 
d="M672 -86q-45 -45 -112.5 -65t-142.5 -20q-84 0 -153 22.5t-117.5 67.5t-75 112t-26.5 157q0 85 28 155.5t79 120t122 77t157 27.5q74 0 138 -19.5t111.5 -59t74.5 -99.5t27 -140q0 -131 -47.5 -191.5t-125.5 -60.5q-46 0 -74 16t-41 42q-18 -27 -50.5 -45.5t-80.5 -18.5
q-72 0 -106 45.5t-34 114.5q0 46 11 90.5t34 78.5t58 55t84 21q37 0 60.5 -15t36.5 -37l12 46h80l-28 -239q-3 -21 -3 -38t5.5 -29t16.5 -19t31 -7q38 0 59.5 43t21.5 133q0 140 -73 202t-206 62q-69 0 -123.5 -23t-92 -64.5t-57.5 -98.5t-20 -125q0 -77 22 -131.5t61 -89.5
t92.5 -51t116.5 -16q69 0 121 19t86 51zM494 249q5 42 -15 62.5t-55 20.5q-31 0 -52 -16t-33.5 -41t-18 -57t-5.5 -63q0 -44 15 -69.5t57 -25.5q37 0 64 24t32 69z" />
    <glyph glyph-name="at.case" horiz-adv-x="827" 
d="M672 76q-45 -45 -112.5 -65t-142.5 -20q-84 0 -153 22.5t-117.5 67.5t-75 112t-26.5 157q0 85 28 155.5t79 120t122 77t157 27.5q74 0 138 -19.5t111.5 -59t74.5 -99.5t27 -140q0 -131 -47.5 -191.5t-125.5 -60.5q-46 0 -74 16t-41 42q-18 -27 -50.5 -45.5t-80.5 -18.5
q-72 0 -106 45.5t-34 114.5q0 46 11 90.5t34 78.5t58 55t84 21q37 0 60.5 -15t36.5 -37l12 46h80l-28 -239q-3 -21 -3 -38t5.5 -29t16.5 -19t31 -7q38 0 59.5 43t21.5 133q0 140 -73 202t-206 62q-69 0 -123.5 -23t-92 -64.5t-57.5 -98.5t-20 -125q0 -77 22 -131.5t61 -89.5
t92.5 -51t116.5 -16q69 0 121 19t86 51zM494 411q5 42 -15 62.5t-55 20.5q-31 0 -52 -16t-33.5 -41t-18 -57t-5.5 -63q0 -44 15 -69.5t57 -25.5q37 0 64 24t32 69z" />
    <glyph glyph-name="A" unicode="A" horiz-adv-x="667" 
d="M414 734l250 -734h-133l-63 185h-275l-61 -185h-129l246 734h165zM330 615h-2l-107 -329h217z" />
    <glyph glyph-name="B" unicode="B" horiz-adv-x="633" 
d="M85 0v734h253q64 0 108 -12.5t71 -36t38.5 -57t11.5 -75.5q0 -37 -12.5 -66t-32.5 -50t-46 -34t-54 -19v-3q89 -8 129.5 -53.5t40.5 -120.5q0 -56 -18.5 -95t-53.5 -64t-85 -36.5t-113 -11.5h-237zM307 104q35 0 63.5 4.5t49 17t31.5 34t11 55.5q0 57 -34 83t-99 26h-114
v-220h92zM280 423q28 0 56 5t50 17.5t35.5 35t13.5 57.5q0 49 -27 71t-93 22h-100v-208h65z" />
    <glyph glyph-name="C" unicode="C" horiz-adv-x="648" 
d="M343 93q63 0 97 41t39 115l125 -9q-6 -67 -27 -114.5t-55.5 -78t-81.5 -45t-104 -14.5q-141 0 -215 92t-74 278q0 99 23 172t64 121t98.5 71.5t125.5 23.5q61 0 108 -19t78.5 -53.5t48 -83.5t15.5 -110l-126 -10q0 49 -10 82t-28 53t-42.5 28.5t-52.5 8.5
q-34 0 -63.5 -14.5t-52 -47.5t-35.5 -86.5t-13 -131.5q0 -141 40.5 -205t117.5 -64z" />
    <glyph glyph-name="D" unicode="D" horiz-adv-x="670" 
d="M85 0v734h155q106 0 179 -22t118.5 -66.5t66 -112t20.5 -157.5q0 -96 -20.5 -167t-66.5 -117.5t-119.5 -69t-179.5 -22.5h-153zM257 106q60 0 104 13.5t72.5 44.5t42.5 82t14 125q0 69 -12.5 118t-40 80t-71 45.5t-106.5 14.5h-45v-523h42z" />
    <glyph glyph-name="E" unicode="E" horiz-adv-x="565" 
d="M468 325h-253v-219h306v-106h-436v734h416v-105h-286v-201h253v-103z" />
    <glyph glyph-name="F" unicode="F" horiz-adv-x="532" 
d="M463 310h-248v-310h-130v734h415v-105h-285v-217h248v-102z" />
    <glyph glyph-name="G" unicode="G" horiz-adv-x="686" 
d="M357 368h259v-380h-87l-12 93q-30 -45 -78 -69t-108 -24q-136 0 -210 91t-74 271q0 104 23.5 179t65 123t99 71t126.5 23q118 0 182 -69t63 -197l-126 -10q0 50 -10.5 83t-28 53t-40.5 28t-50 8q-35 0 -65 -14.5t-52 -48t-35 -87.5t-13 -133q0 -142 43.5 -204.5
t120.5 -62.5q63 0 106 42.5t45 126.5v10h-144v97z" />
    <glyph glyph-name="H" unicode="H" horiz-adv-x="716" 
d="M631 0h-131v312h-284v-312h-131v734h131v-314h284v314h131v-734z" />
    <glyph glyph-name="I" unicode="I" horiz-adv-x="386" 
d="M256 87h77v-87h-280v87h75v560h-75v87h280v-87h-77v-560z" />
    <glyph glyph-name="J" unicode="J" horiz-adv-x="550" 
d="M146 234q2 -26 5.5 -51.5t14 -45t30 -31.5t52.5 -12q51 0 72.5 31t21.5 101v508h130v-516q0 -111 -57 -170.5t-170 -59.5q-219 0 -222 237z" />
    <glyph glyph-name="K" unicode="K" horiz-adv-x="662" 
d="M216 403l276 331h145l-258 -305l278 -429h-151l-214 327l-76 -91v-236h-131v734h131v-331z" />
    <glyph glyph-name="L" unicode="L" horiz-adv-x="527" 
d="M216 106h273v-106h-404v734h131v-628z" />
    <glyph glyph-name="M" unicode="M" horiz-adv-x="886" 
d="M383 0l-173 580h-3v-580h-122v734h194l167 -600h3l164 600h188v-734h-122v580h-3l-168 -580h-125z" />
    <glyph glyph-name="N" unicode="N" horiz-adv-x="723" 
d="M491 0l-285 550v-550h-121v734h158l275 -550v550h120v-734h-147z" />
    <glyph glyph-name="O" unicode="O" horiz-adv-x="697" 
d="M345 -12q-152 0 -225 98t-73 279q0 91 22 162t63 120t99 74.5t131 25.5q147 0 217.5 -97t70.5 -272q0 -187 -76 -288.5t-229 -101.5zM350 92q87 0 126.5 69.5t39.5 211.5q0 134 -37.5 201t-121.5 67t-129.5 -67.5t-45.5 -204.5t39.5 -207t128.5 -70z" />
    <glyph glyph-name="P" unicode="P" horiz-adv-x="617" 
d="M215 0h-130v734h255q69 0 115 -16.5t74 -45t40 -68.5t12 -86q0 -26 -4 -54.5t-14.5 -56t-29.5 -52.5t-49.5 -44t-74.5 -30t-103 -11h-91v-270zM293 369q78 0 116.5 33t38.5 107q0 60 -29.5 91t-104.5 31h-99v-262h78z" />
    <glyph glyph-name="Q" unicode="Q" horiz-adv-x="697" 
d="M345 -12q-152 0 -225 98t-73 279q0 91 22 162t63 120t99 74.5t131 25.5q147 0 217.5 -97t70.5 -272q0 -132 -37 -221t-112 -132l77 -139l-95 -45l-103 149q-8 -1 -17 -1.5t-18 -0.5zM350 92q87 0 126.5 69.5t39.5 211.5q0 134 -37.5 201t-121.5 67t-129.5 -67.5
t-45.5 -204.5t39.5 -207t128.5 -70z" />
    <glyph glyph-name="R" unicode="R" horiz-adv-x="631" 
d="M309 305h-3h-91v-305h-130v734h255q67 0 113.5 -15.5t74.5 -43t40.5 -64.5t12.5 -80q0 -30 -5.5 -61.5t-21 -59.5t-43.5 -51t-73 -37l158 -322h-140zM295 404q38 0 66.5 5.5t48 19t29 36.5t9.5 58q0 55 -31.5 81.5t-102.5 26.5h-99v-227h80z" />
    <glyph glyph-name="S" unicode="S" horiz-adv-x="604" 
d="M430 511q-8 66 -39 99.5t-90 33.5q-54 0 -83 -24.5t-29 -72.5q0 -27 10.5 -45t28 -30.5t41 -20.5t50.5 -15q40 -10 83.5 -21.5t79.5 -34t59 -60t23 -99.5q0 -56 -19.5 -99.5t-54.5 -73t-82.5 -45t-103.5 -15.5q-125 0 -194 53.5t-82 173.5l132 19q4 -32 12.5 -58t25 -44
t43 -28t66.5 -10q63 0 93.5 29t30.5 77q0 29 -12 48.5t-32 33t-46 22t-55 15.5q-40 10 -81.5 22t-75.5 34.5t-55.5 60t-21.5 98.5q0 50 18.5 89.5t52.5 67.5t80.5 42.5t102.5 14.5q112 0 175 -55t76 -160z" />
    <glyph glyph-name="T" unicode="T" horiz-adv-x="555" 
d="M212 629h-201v105h534v-105h-202v-629h-131v629z" />
    <glyph glyph-name="U" unicode="U" horiz-adv-x="711" 
d="M505 734h128v-474q0 -131 -70 -201.5t-212 -70.5q-75 0 -127 19t-84.5 54.5t-47 86.5t-14.5 116v470h128v-439q0 -101 33 -151.5t117 -50.5q83 0 116 48.5t33 152.5v440z" />
    <glyph glyph-name="V" unicode="V" horiz-adv-x="647" 
d="M647 734l-240 -734h-163l-244 734h134l193 -617h1l190 617h129z" />
    <glyph glyph-name="W" unicode="W" horiz-adv-x="959" 
d="M609 0l-130 540h-4l-125 -540h-164l-174 734h134l122 -616h3l146 616h123l150 -616h3l124 616h129l-174 -734h-163z" />
    <glyph glyph-name="X" unicode="X" horiz-adv-x="632" 
d="M5 0l218 379l-210 355h148l150 -273h2l153 273h140l-210 -355l231 -379h-149l-171 284h-2l-157 -284h-143z" />
    <glyph glyph-name="Y" unicode="Y" horiz-adv-x="601" 
d="M367 0h-129v275l-245 459h145l164 -333l171 333h136l-242 -454v-280z" />
    <glyph glyph-name="Z" unicode="Z" horiz-adv-x="568" 
d="M38 734h489v-98l-345 -530h347v-106h-500v98l344 531h-335v105z" />
    <glyph glyph-name="a" unicode="a" horiz-adv-x="546" 
d="M521 2q-41 -9 -69 -8.5t-47 9.5t-30 26t-16 40q-22 -38 -62 -59.5t-100 -21.5q-42 0 -72.5 12t-49.5 32t-28 46t-9 54q0 52 24 83t65 48t97 23.5t121 11.5v22q0 68 -24 94.5t-67 26.5q-32 0 -49.5 -8t-25 -22.5t-7.5 -34.5t3 -44l-112 -10q-8 43 -1.5 80.5t30 64.5
t65.5 42.5t104 15.5q63 0 103 -17t63 -48t31.5 -73t8.5 -92v-182q0 -26 10.5 -34.5t41.5 -1.5zM345 223q-57 -2 -92.5 -8.5t-55 -17t-26.5 -25t-7 -33.5q0 -32 20.5 -50.5t56.5 -18.5q45 0 74.5 32t29.5 80v41z" />
    <glyph glyph-name="b" unicode="b" horiz-adv-x="568" 
d="M61 0v734h124v-287h1q8 13 21.5 27t33 25t44.5 18.5t57 7.5q35 0 69 -12.5t61 -42t43.5 -79t16.5 -124.5q0 -140 -57.5 -209.5t-153.5 -69.5q-50 0 -85.5 18t-55.5 51h-3l-15 -57h-101zM181 256q0 -94 27.5 -139t79.5 -45q55 0 85.5 46t30.5 149q0 51 -8 84.5t-22.5 53
t-33.5 27.5t-41 8q-56 0 -87 -43t-31 -141z" />
    <glyph glyph-name="c" unicode="c" horiz-adv-x="520" 
d="M383 322q-5 60 -32.5 86t-69.5 26q-26 0 -47.5 -9.5t-37 -31t-24 -55.5t-8.5 -82q0 -176 115 -176q45 0 69.5 24t32.5 78l109 -8q-6 -53 -25.5 -88.5t-49 -57t-66 -31t-75.5 -9.5q-64 0 -109.5 20t-74 55t-42 83.5t-13.5 104.5q0 131 66.5 202.5t184.5 71.5
q53 0 91.5 -15.5t63.5 -41.5t38 -61.5t15 -75.5z" />
    <glyph glyph-name="d" unicode="d" horiz-adv-x="566" 
d="M508 734v-734h-106l-12 68h-2q-19 -36 -57.5 -58t-88.5 -22q-45 0 -83 14t-65.5 45t-42.5 80t-15 120q0 136 57 207t157 71q51 0 82.5 -18t51.5 -46v273h124zM389 259q0 51 -8 86t-22.5 56.5t-34.5 30.5t-45 9q-54 0 -83.5 -45t-29.5 -149q0 -96 28 -136t79 -40
q56 0 86 45.5t30 142.5z" />
    <glyph glyph-name="e" unicode="e" horiz-adv-x="534" 
d="M492 163q-9 -54 -31.5 -88t-52.5 -53.5t-64.5 -26.5t-67.5 -7q-65 0 -110.5 20t-74.5 55t-42.5 83t-13.5 105q0 63 17 114t49 86.5t79 54.5t106 19q105 0 158.5 -62t53.5 -175q0 -13 -0.5 -28t-2.5 -29h-332q0 -33 6.5 -60.5t20 -48t35.5 -31.5t55 -11q43 0 71 21.5
t36 72.5zM377 315q2 60 -22.5 93t-77.5 33q-29 0 -49.5 -10.5t-34.5 -27.5t-21 -40t-8 -48h213z" />
    <glyph glyph-name="f" unicode="f" horiz-adv-x="334" 
d="M19 513h62v29q0 104 42 154t136 50q30 0 55.5 -4t39.5 -8l-14 -92q-15 5 -31.5 7.5t-33.5 2.5q-38 0 -54 -24.5t-16 -77.5v-37h117v-88h-117v-425h-124v425h-62v88z" />
    <glyph glyph-name="g" unicode="g" horiz-adv-x="566" 
d="M508 513v-471q0 -116 -61.5 -176.5t-182.5 -60.5q-83 0 -137.5 34t-71.5 105l113 24q4 -15 10 -28t17 -22.5t28.5 -15.5t43.5 -6q60 0 88.5 32.5t28.5 105.5v49h-1q-16 -29 -52 -52t-96 -23q-40 0 -76 12.5t-63.5 41t-43.5 75.5t-16 116t16 120t44.5 84.5t67.5 50.5
t86 17q56 0 88.5 -18.5t50.5 -49.5h3l15 56h101zM388 262q0 97 -28.5 138.5t-79.5 41.5q-50 0 -82 -42t-32 -143q0 -47 7.5 -79t21 -51t33 -27t43.5 -8q58 0 87.5 40t29.5 130z" />
    <glyph glyph-name="h" unicode="h" horiz-adv-x="571" 
d="M515 0h-125v302q0 25 -3.5 48.5t-13.5 41t-27.5 28t-45.5 10.5q-33 0 -55 -11.5t-35 -31t-18.5 -45.5t-5.5 -56v-286h-125v734h124v-290h2q10 15 23.5 30t32 26t43 18t56.5 7q81 0 127 -51.5t46 -164.5v-309z" />
    <glyph glyph-name="i" unicode="i" horiz-adv-x="246" 
d="M61 734h125v-117h-125v117zM61 513h125v-513h-125v513z" />
    <glyph glyph-name="j" unicode="j" horiz-adv-x="245" 
d="M63 734h124v-117h-124v117zM-66 -96q28 -7 59 -7q38 0 54 23t16 77v516h124v-504q0 -57 -12 -96t-34.5 -63t-55.5 -34.5t-76 -10.5q-24 0 -49 3.5t-39 7.5z" />
    <glyph glyph-name="k" unicode="k" horiz-adv-x="534" 
d="M186 316l181 197h144l-172 -181l190 -332h-143l-134 243l-66 -68v-175h-125v734h125v-418z" />
    <glyph glyph-name="l" unicode="l" horiz-adv-x="246" 
d="M186 0h-125v734h125v-734z" />
    <glyph glyph-name="m" unicode="m" horiz-adv-x="869" 
d="M327 525q66 0 101.5 -28.5t51.5 -72.5q27 49 64 75t97 26q83 0 127 -53.5t44 -164.5v-307h-125v302q0 70 -21 99t-64 29q-51 0 -77 -38.5t-26 -106.5v-285h-125v302q0 37 -5.5 62t-16.5 39.5t-26.5 20.5t-35.5 6q-50 0 -77 -35t-27 -110v-285h-125v513h114l5 -77h2
q9 16 21 32t29.5 29t40.5 20.5t54 7.5z" />
    <glyph glyph-name="n" unicode="n" horiz-adv-x="571" 
d="M515 0h-125v302q0 70 -22.5 99t-68.5 29q-33 0 -55 -12t-35 -31.5t-18 -46t-5 -54.5v-286h-125v513h114l5 -75h2q8 15 20.5 30t31.5 28t44.5 21t60.5 8q83 0 129.5 -50.5t46.5 -162.5v-312z" />
    <glyph glyph-name="o" unicode="o" horiz-adv-x="562" 
d="M277 -12q-121 0 -181.5 69.5t-60.5 198.5q0 66 20 116.5t54.5 84t80.5 51t99 17.5q112 0 175 -66t63 -193q0 -138 -66.5 -208t-183.5 -70zM282 78q62 0 89.5 50.5t27.5 131.5q0 80 -26.5 126.5t-88.5 46.5t-91 -48t-29 -128q0 -81 26.5 -130t91.5 -49z" />
    <glyph glyph-name="p" unicode="p" horiz-adv-x="568" 
d="M61 -183v696h109l8 -66h2q25 36 63.5 57t95.5 21q39 0 74 -14t61.5 -44t42 -78.5t15.5 -117.5q0 -78 -17.5 -132t-46.5 -87.5t-67.5 -48.5t-81.5 -15q-45 0 -81 17t-53 45h-2v-233h-122zM181 261q0 -52 7.5 -87.5t22 -58t34.5 -32.5t45 -10q114 0 114 197q0 92 -28 131.5
t-76 39.5q-119 0 -119 -180z" />
    <glyph glyph-name="q" unicode="q" horiz-adv-x="565" 
d="M506 513v-696h-121v247h-2q-17 -28 -53 -52t-93 -24q-41 0 -78 12.5t-64.5 42.5t-43.5 80t-16 124q0 76 17.5 129t47.5 86t69.5 48t83.5 15q48 0 80.5 -18t54.5 -50h3l16 56h99zM387 261q0 180 -109 180q-26 0 -47 -10.5t-36 -34t-23 -60.5t-8 -90q0 -92 26.5 -133.5
t79.5 -41.5q57 0 87 45t30 145z" />
    <glyph glyph-name="r" unicode="r" horiz-adv-x="464" 
d="M325 323q7 60 -4.5 83t-43.5 23q-26 0 -43.5 -13t-28 -35.5t-15 -52.5t-4.5 -64v-264h-125v513h114l6 -74h1q8 17 20 32.5t29 27.5t39.5 19t51.5 7q68 0 102.5 -46.5t19.5 -148.5z" />
    <glyph glyph-name="s" unicode="s" horiz-adv-x="487" 
d="M339 357q-6 40 -26.5 61t-63.5 21q-38 0 -60.5 -13.5t-22.5 -43.5q0 -28 21.5 -41t53.5 -21t69 -15t69 -23t53.5 -45t21.5 -81q0 -41 -17.5 -72.5t-47 -52.5t-69 -32t-82.5 -11q-95 0 -146.5 37.5t-64.5 119.5l112 16q3 -20 9.5 -36.5t17.5 -27.5t29 -17t45 -6
q48 0 70 18.5t22 46.5q0 30 -21 44t-53 22t-68.5 15.5t-68.5 22.5t-53 43t-21 79q0 39 16 69t43.5 50.5t64.5 30.5t79 10q90 0 136.5 -36.5t60.5 -108.5z" />
    <glyph glyph-name="t" unicode="t" horiz-adv-x="361" 
d="M19 513h62v108l124 37v-145h117v-87h-117v-245q0 -54 14.5 -77t55.5 -23q29 0 59 9l12 -86q-17 -7 -43.5 -11.5t-58.5 -4.5q-85 0 -124 43t-39 135v260h-62v87z" />
    <glyph glyph-name="u" unicode="u" horiz-adv-x="562" 
d="M56 513h125v-304q0 -66 21 -96t66 -30q32 0 53 13t33.5 34.5t17.5 50t5 59.5v273h125v-513h-113l-6 76h-1q-9 -14 -21 -29.5t-30.5 -28.5t-44 -21.5t-59.5 -8.5q-82 0 -126.5 51.5t-44.5 163.5v310z" />
    <glyph glyph-name="v" unicode="v" 
d="M181 0l-171 513h131l110 -393h1l111 393h128l-172 -513h-138z" />
    <glyph glyph-name="w" unicode="w" horiz-adv-x="811" 
d="M165 0l-152 513h126l97 -389h2l102 389h139l103 -389h2l94 389h120l-148 -513h-139l-104 392h-1l-105 -392h-136z" />
    <glyph glyph-name="x" unicode="x" horiz-adv-x="527" 
d="M12 0l174 264l-168 249h136l105 -166h2l107 166h129l-165 -247l183 -266h-139l-119 176h-1l-114 -176h-130z" />
    <glyph glyph-name="y" unicode="y" horiz-adv-x="495" 
d="M309 3q-20 -56 -38.5 -94t-41 -61t-51.5 -33t-69 -10q-24 0 -49 4t-38 9l13 84q15 -4 27 -6.5t27 -2.5q35 0 56 23.5t40 79.5l3 9l-177 508h132l105 -378h3l109 378h128z" />
    <glyph glyph-name="z" unicode="z" horiz-adv-x="459" 
d="M39 513h390v-90l-248 -324h251v-99h-402v91l249 325h-240v97z" />
    <glyph glyph-name="bracketleft" unicode="[" horiz-adv-x="327" 
d="M298 -132h-233v915h231v-80l-107 -2v-751l109 -2v-80z" />
    <glyph glyph-name="bracketright" unicode="]" horiz-adv-x="327" 
d="M29.0186 -132h232.985v915h-230.986v-80l106.994 -2v-751l-108.993 -2v-80z" />
    <glyph glyph-name="parenleft" unicode="(" horiz-adv-x="311" 
d="M284 770q-56 -108 -83.5 -212t-27.5 -222q0 -123 28 -232.5t81 -218.5l-72 -29q-45 57 -77.5 112t-53.5 112.5t-31 119t-10 129.5t12.5 129.5t35 118.5t54 110.5t69.5 105.5z" />
    <glyph glyph-name="parenright" unicode=")" horiz-adv-x="311" 
d="M27 -119q28 54 48.5 106.5t34.5 105.5t21 108t7 114q0 123 -28 232.5t-82 218.5l72 29q45 -57 77.5 -112.5t53.5 -113t31.5 -118.5t10.5 -129q0 -69 -12.5 -130.5t-35 -118.5t-54 -110.5t-69.5 -105.5z" />
    <glyph glyph-name="braceleft" unicode="{" horiz-adv-x="361" 
d="M118 622q0 46 12 76t36 48t60.5 26t85.5 10l9 -49q-25 -7 -40.5 -14.5t-24.5 -16.5t-12 -21.5t-3 -29.5v-190q0 -26 -4 -48t-15.5 -39.5t-31.5 -30.5t-51 -20v-2q59 -8 81 -41t22 -85v-193q0 -17 3 -29t11.5 -21.5t24 -17t41.5 -14.5l-9 -49q-41 1 -76.5 8t-62 23
t-41.5 43t-15 69v179q0 16 -4.5 32t-15 29t-28 21t-42.5 8v69q51 7 70.5 34t19.5 65v171z" />
    <glyph glyph-name="braceright" unicode="}" horiz-adv-x="361" 
d="M243.007 622q0 46 -11.999 76t-35.998 48q-23.998 18 -60.4961 26t-85.4941 10l-9 -49q24.998 -7 40.498 -14.5q15.499 -7.5 24.498 -16.5t11.999 -21.5t3 -29.5v-190q0 -26 4 -48t15.499 -39.5t31.498 -30.5t50.9971 -20v-2q-58.9971 -8 -80.9951 -41
q-21.999 -33 -21.999 -85v-193q0 -17 -3 -29q-2.99902 -12 -11.499 -21.5q-8.49902 -9.5 -23.998 -17q-15.5 -7.5 -41.498 -14.5l9 -49q40.9971 1 76.4951 8t61.9961 23t41.4971 43t14.999 69v179q0 16 4.5 32t14.999 29q10.5 13 27.998 21q17.499 8 42.498 8v69
q-50.9971 7 -70.4961 34t-19.499 65v171z" />
    <glyph glyph-name="backslash" unicode="\" horiz-adv-x="332" 
d="M367 -82l-101 -32l-284 867l102 31z" />
    <glyph glyph-name="slash" unicode="/" horiz-adv-x="404" 
d="M323 784l99 -38l-355 -847l-99 41z" />
    <glyph glyph-name="brokenbar" unicode="&#xa6;" horiz-adv-x="256" 
d="M71 205h114v-445h-114v445zM185 760v-445h-114v445h114z" />
    <glyph glyph-name="bar" unicode="|" horiz-adv-x="256" 
d="M185 760v-1000h-114v1000h114z" />
    <glyph glyph-name="asciicircum" unicode="^" horiz-adv-x="482" 
d="M295 755l162 -364l-100 -36l-110 265h-2l-123 -265l-98 35l178 365h93z" />
    <glyph glyph-name="underscore" unicode="_" horiz-adv-x="440" 
d="M440 -49v-93h-440v93h440z" />
    <glyph glyph-name="asciitilde" unicode="~" 
d="M48 243q13 53 44 83t74 30q22 0 46.5 -7.5t47.5 -16.5q19 -8 38.5 -14.5t35.5 -6.5q21 0 35.5 14.5t22.5 35.5l60 -27q-6 -22 -16.5 -42t-25 -35t-32 -24t-38.5 -9q-15 0 -37.5 4.5t-58.5 18.5q-30 11 -47 16.5t-28 5.5q-41 0 -60 -54z" />
    <glyph glyph-name="uni00A0" unicode="&#xa0;" horiz-adv-x="190" 
 />
    <glyph glyph-name="zero" unicode="0" horiz-adv-x="651" 
d="M322 -12q-143 0 -209.5 98t-66.5 279q0 91 20 162t57.5 120t91.5 74.5t122 25.5q69 0 119.5 -25t83.5 -72t49 -116t16 -156q0 -187 -70 -288.5t-213 -101.5zM327 86q81 0 115 70.5t34 216.5q0 138 -33 205.5t-111 67.5q-76 0 -116 -68.5t-40 -208.5t35 -211.5t116 -71.5z
" />
    <glyph glyph-name="one" unicode="1" horiz-adv-x="373" 
d="M15 630q21 7 45 18.5t48.5 25.5t47.5 29.5t41 31.5h83v-735h-126v582q-15 -12 -47.5 -27.5t-65.5 -26.5z" />
    <glyph glyph-name="two" unicode="2" horiz-adv-x="548" 
d="M488 106v-106h-431q0 8 -0.5 18.5t-0.5 22.5q0 21 1.5 42t4.5 35q7 48 33 87.5t60.5 74t73.5 66t71.5 63.5t53.5 66t21 74q0 54 -30 77t-72 23q-34 0 -54.5 -12.5t-30 -33.5t-10.5 -49.5t5 -60.5l-119 -9q-12 53 -5 101t33 84t72.5 57t114.5 21q106 0 165 -51.5
t59 -145.5q0 -55 -22.5 -98t-56 -79t-73 -67.5t-73.5 -63t-57.5 -64.5t-24.5 -72h292z" />
    <glyph glyph-name="three" unicode="3" horiz-adv-x="563" 
d="M201 423q84 2 128 29.5t44 96.5q0 54 -29.5 77t-74.5 23q-61 0 -82 -37.5t-9 -118.5l-120 -9q-11 54 -4 101.5t33 83.5t72 57t114 21q52 0 94 -11.5t72 -35t46.5 -58t16.5 -80.5q0 -38 -11 -67t-30.5 -51t-45.5 -36t-56 -22q78 -17 117 -67t39 -115q0 -53 -17 -93
t-47.5 -67.5t-74 -41.5t-96.5 -14q-65 0 -109.5 16t-72 45.5t-40.5 71.5t-16 95l123 8q5 -69 30 -103.5t88 -34.5q21 0 39.5 6.5t33 21t23 36.5t8.5 53q0 73 -45 100t-130 23z" />
    <glyph glyph-name="four" unicode="4" horiz-adv-x="556" 
d="M323 243v338h-3l-182 -338h185zM448 243h83v-107h-83v-136h-125v136h-304v86l280 512h149v-491z" />
    <glyph glyph-name="five" unicode="5" horiz-adv-x="565" 
d="M280 386q-38 0 -66 -21t-44 -50l-103 11l26 408h391v-107h-287l-21 -205q22 27 58.5 45t82.5 18q44 0 81 -15t63.5 -45.5t41.5 -75.5t15 -105q0 -57 -15 -104.5t-45 -81t-76 -52t-107 -18.5q-64 0 -106 18t-67.5 49.5t-37.5 72.5t-16 88l122 8q8 -77 36 -107.5t77 -30.5
q51 0 79 38.5t28 110.5q0 42 -8.5 71t-23 47t-34.5 25.5t-44 7.5z" />
    <glyph glyph-name="six" unicode="6" horiz-adv-x="594" 
d="M328 649q-33 0 -57.5 -14t-41.5 -44.5t-27 -79.5t-14 -119q30 40 74 56.5t84 16.5q39 0 75.5 -13t64 -40.5t44.5 -70t17 -101.5q0 -125 -64 -188.5t-179 -63.5q-65 0 -111.5 19t-76 60.5t-43 106t-13.5 154.5q0 202 67 310.5t206 108.5q60 0 100 -17t62.5 -46t30.5 -68
t5 -83l-118 -9q4 58 -15 91.5t-70 33.5zM305 374q-51 0 -85 -33t-34 -98q0 -33 6 -62t20 -50t37 -33t57 -12q33 0 55.5 12.5t35.5 33t18.5 47t5.5 54.5q0 68 -27 104.5t-89 36.5z" />
    <glyph glyph-name="seven" unicode="7" horiz-adv-x="474" 
d="M125 0q3 99 18 186t41.5 164t63 145.5t82.5 131.5h-296v107h427v-76q-59 -80 -97 -157.5t-60.5 -157.5t-33 -165t-13.5 -178h-132z" />
    <glyph glyph-name="eight" unicode="8" horiz-adv-x="601" 
d="M295 -12q-68 0 -115.5 16t-77.5 44t-43.5 66.5t-13.5 84.5q0 74 33.5 123.5t105.5 75.5q-55 20 -82.5 61.5t-27.5 99.5q0 42 16 77t46 59.5t73.5 38t98.5 13.5q56 0 97 -13.5t68 -37.5t40 -56.5t13 -71.5q0 -59 -29 -102.5t-86 -64.5q75 -21 110 -70t35 -121
q0 -48 -15 -88.5t-46.5 -70.5t-81 -46.5t-118.5 -16.5zM297 86q67 0 100.5 36.5t33.5 98.5q0 27 -7 51.5t-23 42.5t-40.5 28.5t-58.5 10.5q-65 0 -97.5 -37t-32.5 -102q0 -27 6.5 -51t21 -41t38.5 -27t59 -10zM299 444q28 0 47.5 9.5t31 24.5t16.5 34.5t5 40.5t-4.5 40
t-16 33t-30 22.5t-46.5 8.5q-29 0 -48 -8.5t-30.5 -23t-16.5 -34t-5 -40.5q0 -22 5 -41.5t16 -34t30 -23t46 -8.5z" />
    <glyph glyph-name="nine" unicode="9" horiz-adv-x="594" 
d="M280 87q67 0 97.5 64t35.5 192q-28 -40 -71.5 -56.5t-83.5 -16.5q-39 0 -76 12.5t-65.5 39.5t-46 69t-17.5 101q0 121 65.5 188t179.5 67q124 0 182.5 -78t58.5 -253q0 -103 -15 -183t-47 -134.5t-81.5 -82.5t-119.5 -28q-60 0 -101.5 16.5t-67.5 45.5t-37.5 68t-12.5 84
l120 9q4 -66 26.5 -95t76.5 -29zM294 361q51 0 85.5 34t34.5 103q0 32 -6 59.5t-20.5 48t-37.5 32t-57 11.5q-33 0 -55.5 -12.5t-35.5 -33t-18.5 -47t-5.5 -54.5q0 -68 27.5 -104.5t88.5 -36.5z" />
    <glyph glyph-name="dollar" unicode="$" horiz-adv-x="590" 
d="M267 9q-105 6 -162.5 56.5t-68.5 156.5l125 18q3 -27 9.5 -49t18.5 -38.5t31 -27.5t47 -15v213q-37 9 -74.5 21t-67.5 33.5t-48.5 56t-18.5 89.5q0 43 15 78.5t42.5 61.5t66 41.5t85.5 19.5v73h77v-74q87 -10 135.5 -61t59.5 -139l-121 -21q-11 93 -74 117v-196
q36 -9 72.5 -20.5t65.5 -32.5t47.5 -55t18.5 -87q0 -47 -15.5 -85t-42.5 -65.5t-64.5 -44t-81.5 -22.5v-76h-77v74zM421 208q0 38 -22 59.5t-55 34.5v-190q38 9 57.5 34t19.5 62zM189 536q0 -38 21.5 -59t56.5 -33v181q-78 -12 -78 -89z" />
    <glyph glyph-name="Euro" unicode="&#x20ac;" horiz-adv-x="610" 
d="M338 92q62 0 91.5 38.5t37.5 101.5l112 -10q-16 -121 -79.5 -177.5t-169.5 -56.5t-174 67t-81 192h-73l12 79h52v34v31h-46l12 79h41q11 71 36.5 123t62 86.5t83 51.5t98.5 17q55 0 98 -18.5t72 -51.5t44.5 -79.5t15.5 -102.5l-114 -10q-2 45 -11 75.5t-24.5 48.5t-37 26
t-48.5 8q-26 0 -51 -10t-45 -31t-34.5 -54t-19.5 -79h195l-12 -79h-189v-27v-20t1 -18h182l-12 -79h-161q8 -75 42.5 -115t93.5 -40z" />
    <glyph glyph-name="cent" unicode="&#xa2;" horiz-adv-x="525" 
d="M388 413q-4 45 -21 70.5t-43 35.5v-342q26 9 41 32t21 64l109 -8q-5 -45 -20.5 -77.5t-38 -54t-51.5 -34t-61 -17.5v-82h-77v80q-56 5 -95 27t-64 56.5t-36.5 80t-11.5 98.5q0 118 54.5 187.5t152.5 83.5v84h77v-83q44 -5 76.5 -22t53.5 -42.5t32 -58t13 -69.5zM169 347
q0 -146 78 -171v343q-36 -13 -57 -53.5t-21 -118.5z" />
    <glyph glyph-name="sterling" unicode="&#xa3;" horiz-adv-x="541" 
d="M32 413h71q-16 26 -27 57t-11 72q0 42 14.5 79.5t44 65.5t73.5 44t103 16q48 0 88 -12.5t68.5 -37.5t44.5 -63t16 -89q0 -12 -1 -25t-3 -27l-119 7q3 24 3 43q0 31 -7.5 52t-20.5 33t-31 17t-40 5q-48 0 -77.5 -27t-29.5 -77q0 -41 15.5 -72.5t35.5 -60.5h182v-92h-136
q2 -10 3.5 -19.5t1.5 -20.5q0 -45 -27 -86t-79 -89h319v-106h-442v106q57 48 82 87.5t25 75.5q0 14 -3.5 26.5t-8.5 25.5h-127v92z" />
    <glyph glyph-name="yen" unicode="&#xa5;" horiz-adv-x="566" 
d="M349 334v-76h114v-83h-114v-175h-128v175h-127v83h127v76h-127v83h85l-179 317h144l141 -290l147 290h134l-179 -317h76v-83h-114z" />
    <glyph glyph-name="florin" unicode="&#x192;" horiz-adv-x="448" 
d="M63 456h95l18 103q16 94 61.5 140.5t135.5 46.5q35 0 61.5 -6t41.5 -12l-27 -86q-14 5 -30.5 7.5t-32.5 2.5q-39 0 -59.5 -24.5t-29.5 -77.5l-17 -94h120l-15 -89h-120l-56 -324q-16 -92 -62.5 -137.5t-139.5 -45.5q-33 0 -58 5.5t-38 10.5l25 88q15 -5 31 -7.5t33 -2.5
q38 0 58 24t29 76l55 313h-95z" />
    <glyph glyph-name="section" unicode="&#xa7;" horiz-adv-x="643" 
d="M55 260q0 46 25 81t79 67q-27 22 -45.5 54.5t-18.5 80.5q0 46 19.5 81.5t53 60t79 37t96.5 12.5q48 0 89.5 -11t72.5 -34t50.5 -58.5t23.5 -84.5l-120 -13q-5 51 -32.5 79.5t-87.5 28.5q-53 0 -83 -22.5t-30 -59.5q0 -38 27 -59.5t67 -35t87 -24.5t87 -29.5t67 -49
t27 -83.5q0 -48 -26.5 -86.5t-74.5 -67.5q27 -21 44 -53t17 -80q0 -46 -19.5 -81.5t-52.5 -59.5t-77.5 -36.5t-95.5 -12.5q-50 0 -92 11t-74 34t-52 58t-25 83l120 14q5 -51 34.5 -78t90.5 -27q53 0 82.5 21t29.5 62q0 39 -27 59.5t-67 32.5t-87 22t-87 28.5t-67 50
t-27 88.5zM182 285q0 -30 20 -47.5t51 -28.5t69.5 -19.5t76.5 -21.5q28 15 45 35t17 49t-20.5 45.5t-52 27t-71 19t-76.5 22.5q-28 -17 -43.5 -36.5t-15.5 -44.5z" />
    <glyph glyph-name="copyright" unicode="&#xa9;" horiz-adv-x="808" 
d="M760 337q0 -81 -26 -147t-73 -113t-113 -73t-145 -26q-89 0 -155.5 26.5t-111 72.5t-66.5 109t-22 135q0 84 28 150.5t76 112.5t113.5 70.5t140.5 24.5q82 0 148 -24t111.5 -69t70 -108t24.5 -141zM406 53q64 0 114.5 19.5t86 55.5t54.5 88t19 117q0 66 -20 117
t-56.5 85.5t-87 52.5t-110.5 18t-110.5 -19t-87 -55.5t-57 -89t-20.5 -119.5q0 -127 72 -198.5t203 -71.5zM566 270q-6 -40 -22 -67t-38 -43t-47.5 -23t-50.5 -7q-47 0 -80 15t-54.5 41.5t-31.5 63t-10 78.5q0 44 12 81.5t35 64.5t56.5 42t75.5 15q28 0 54 -7t46.5 -23.5
t34 -43.5t16.5 -66l-68 -10q-5 45 -24.5 65.5t-58.5 20.5q-45 0 -73.5 -32t-28.5 -107q0 -27 5 -51t17 -42.5t30.5 -29.5t45.5 -11q45 0 66 23t29 65z" />
    <glyph glyph-name="registered" unicode="&#xae;" horiz-adv-x="445" 
d="M415 548q0 -43 -14 -78t-39.5 -60.5t-61 -39.5t-78.5 -14q-48 0 -84 14t-60 39t-36 59t-12 73q0 45 15 81t41.5 60.5t61.5 38t75 13.5q89 0 140.5 -50.5t51.5 -135.5zM366 545q0 71 -40 107.5t-103 36.5q-30 0 -56.5 -10t-45.5 -28.5t-30 -46t-11 -62.5q0 -66 38 -103.5
t105 -37.5t105 38.5t38 105.5zM310 452h-43l-41 75h-27v-75h-41v191h76q39 0 51.5 -16.5t12.5 -37.5q0 -40 -35 -53zM212 558q19 0 31 4.5t12 24.5q0 17 -9.5 21t-26.5 4h-20v-54h13z" />
    <glyph glyph-name="trademark" unicode="&#x2122;" horiz-adv-x="831" 
d="M121 665h-108v69h304v-69h-108v-315h-88v315zM537 350l-97 294v-294h-77v384h117l95 -296l95 296h113v-384h-80v294l-94 -294h-72z" />
    <glyph glyph-name="ordfeminine" unicode="&#xaa;" horiz-adv-x="384" 
d="M361 420q-56 -12 -84.5 -2.5t-38.5 41.5q-14 -23 -40 -35.5t-67 -12.5q-29 0 -48.5 7.5t-31.5 20.5t-17.5 29.5t-5.5 34.5q0 31 15.5 50t42.5 30.5t64 16.5t79 9v11q0 34 -14 47.5t-38 13.5q-32 0 -40 -13t-3 -38l-90 -8q-5 27 0 50t21.5 39.5t45.5 26t71 9.5
q43 0 71 -10t44 -28t22.5 -43t6.5 -55v-111q0 -14 6.5 -19.5t26.5 -1.5zM229 559q-32 -2 -51.5 -6t-31 -10t-15.5 -14.5t-4 -18.5q0 -20 11 -29.5t31 -9.5q26 0 43 16.5t17 43.5v28z" />
    <glyph glyph-name="ordmasculine" unicode="&#xba;" horiz-adv-x="404" 
d="M198 411q-83 0 -123.5 43.5t-40.5 124.5q0 42 13.5 73.5t36.5 52.5t55 31.5t68 10.5q77 0 120 -41t43 -121q0 -88 -45.5 -131t-126.5 -43zM202 480q35 0 50 25.5t15 75.5q0 47 -14.5 71.5t-48.5 24.5t-51 -25t-17 -73q0 -50 14.5 -74.5t51.5 -24.5z" />
    <glyph glyph-name="guillemotleft" unicode="&#xab;" horiz-adv-x="440" 
d="M334 45l-131 206l130 199l70 -30l-94 -166l95 -177zM164 45l-131 206l130 199l70 -30l-94 -166l95 -177z" />
    <glyph glyph-name="guillemotright" unicode="&#xbb;" horiz-adv-x="440" 
d="M106.021 45l130.992 206l-129.992 199l-69.9961 -30l93.9941 -166l-94.9941 -177zM276.01 45l130.992 206l-129.992 199l-69.9951 -30l93.9941 -166l-94.9941 -177z" />
    <glyph glyph-name="guilsinglleft" unicode="&#x2039;" horiz-adv-x="270" 
d="M164 45l-131 206l130 199l70 -30l-94 -166l95 -177z" />
    <glyph glyph-name="guilsinglright" unicode="&#x203a;" horiz-adv-x="269" 
d="M100.01 45l130.992 206l-129.992 199l-69.9951 -30l93.9941 -166l-94.9941 -177z" />
    <glyph glyph-name="quoteleft" unicode="&#x2018;" horiz-adv-x="209" 
d="M163 474h-123v109l62 171l48 -14l-36 -132h49v-134z" />
    <glyph glyph-name="quoteright" unicode="&#x2019;" horiz-adv-x="209" 
d="M40 734h123v-109l-62 -171l-47 14l36 132h-50v134z" />
    <glyph glyph-name="quotesinglbase" unicode="&#x201a;" horiz-adv-x="209" 
d="M45 135h123v-110l-62 -170l-47 13l36 132h-50v135z" />
    <glyph glyph-name="quotedblleft" unicode="&#x201c;" horiz-adv-x="383" 
d="M343 474h-123v109l62 171l48 -14l-36 -132h49v-134zM163 474h-123v109l62 171l48 -14l-36 -132h49v-134z" />
    <glyph glyph-name="quotedblright" unicode="&#x201d;" horiz-adv-x="388" 
d="M220 734h123v-109l-62 -171l-47 14l36 132h-50v134zM40 734h123v-109l-62 -171l-47 14l36 132h-50v134z" />
    <glyph glyph-name="quotedblbase" unicode="&#x201e;" horiz-adv-x="388" 
d="M220 135h123v-109l-62 -171l-47 14l36 132h-50v134zM40 135h123v-109l-62 -171l-47 14l36 132h-50v134z" />
    <glyph glyph-name="dagger" unicode="&#x2020;" horiz-adv-x="426" 
d="M265 513l-16 -240h-72l-18 240l-138 12v69l142 11l12 129h76l12 -129l144 -11v-69z" />
    <glyph glyph-name="daggerdbl" unicode="&#x2021;" horiz-adv-x="426" 
d="M263 331l-16 -88h-68l-15 88l-144 13v68l143 11l16 58l-16 70l-143 13v68l143 12l12 90h76l12 -90l143 -12v-68l-143 -13l-16 -71l16 -57l143 -11v-68z" />
    <glyph glyph-name="bullet" unicode="&#x2022;" horiz-adv-x="488" 
d="M130 340q0 57 31.5 83t81.5 26t82.5 -26t32.5 -83q0 -55 -32.5 -81.5t-82.5 -26.5t-81.5 26.5t-31.5 81.5z" />
    <glyph glyph-name="ellipsis" unicode="&#x2026;" horiz-adv-x="752" 
d="M61 129h129v-129h-129v129zM311 129h130v-129h-130v129zM562 129h129v-129h-129v129z" />
    <glyph glyph-name="paragraph" unicode="&#xb6;" horiz-adv-x="655" 
d="M302 229h-7q-68 0 -115 20.5t-76.5 55.5t-43 81.5t-13.5 97.5q0 50 13.5 95t44.5 79.5t82 55t126 20.5h89v-875h-100v370zM473 734h100v-874h-100v874z" />
    <glyph glyph-name="periodcentered" unicode="&#xb7;" horiz-adv-x="251" 
d="M61 395h129v-129h-129v129z" />
    <glyph glyph-name="uni00AD" unicode="&#xad;" horiz-adv-x="382" 
d="M334 354v-94h-286v94h286z" />
    <glyph glyph-name="endash" unicode="&#x2013;" horiz-adv-x="440" 
d="M440 354v-94h-440v94h440z" />
    <glyph glyph-name="emdash" unicode="&#x2014;" horiz-adv-x="880" 
d="M880 353v-93h-880v93h880z" />
    <glyph glyph-name="hyphen.case" horiz-adv-x="331" 
d="M30 284v100h271v-100h-271z" />
    <glyph glyph-name="Agrave" unicode="&#xc0;" horiz-adv-x="667" 
d="M414 734l250 -734h-133l-63 185h-275l-61 -185h-129l246 734h165zM330 615h-2l-107 -329h217zM257 931l165 -112l-36 -57l-179 84z" />
    <glyph glyph-name="Aacute" unicode="&#xc1;" horiz-adv-x="667" 
d="M414 734l250 -734h-133l-63 185h-275l-61 -185h-129l246 734h165zM330 615h-2l-107 -329h217zM448 846l-179 -84l-33 57l164 112z" />
    <glyph glyph-name="Acircumflex" unicode="&#xc2;" horiz-adv-x="667" 
d="M414 734l250 -734h-133l-63 185h-275l-61 -185h-129l246 734h165zM330 615h-2l-107 -329h217zM362 920l120 -116l-35 -44l-120 75l-117 -75l-35 44l120 116h67z" />
    <glyph glyph-name="Atilde" unicode="&#xc3;" horiz-adv-x="667" 
d="M414 734l250 -734h-133l-63 185h-275l-61 -185h-129l246 734h165zM330 615h-2l-107 -329h217zM179 788q11 57 34.5 82.5t53.5 25.5q19 0 36.5 -4.5t33 -10.5t30 -10.5t27.5 -4.5q11 0 20.5 8.5t15.5 31.5l53 -8q-11 -60 -34.5 -85t-52.5 -25q-21 0 -39 4.5t-33.5 10.5
t-29.5 10.5t-27 4.5q-25 0 -34 -38z" />
    <glyph glyph-name="Adieresis" unicode="&#xc4;" horiz-adv-x="667" 
d="M414 734l250 -734h-133l-63 185h-275l-61 -185h-129l246 734h165zM330 615h-2l-107 -329h217zM363 888h100v-107h-100v107zM191 888h100v-107h-100v107z" />
    <glyph glyph-name="Aring" unicode="&#xc5;" horiz-adv-x="667" 
d="M414 734l250 -734h-133l-63 185h-275l-61 -185h-129l246 734h165zM330 615h-2l-107 -329h217zM325 761q-57 0 -79.5 26t-22.5 67q0 42 30 68t76 26q52 0 79 -25t27 -66q0 -43 -27.5 -69.5t-82.5 -26.5zM327 810q16 0 25 10t9 35t-9.5 34t-23.5 9q-16 0 -26.5 -9.5
t-10.5 -34.5t9.5 -34.5t26.5 -9.5z" />
    <glyph glyph-name="Aringacute" unicode="&#x1fa;" horiz-adv-x="667" 
d="M3 0l245 732q-20 24 -20 65q0 42 30 68t76 26q52 0 79 -25t27 -66q0 -42 -26 -68l250 -732h-133l-63 185h-275l-61 -185h-129zM330 615h-2l-107 -329h217zM440 983l-179 -84l-33 57l164 112zM332 753q16 0 25 10t9 35t-9.5 34t-23.5 9q-16 0 -26.5 -9.5t-10.5 -34.5
t9.5 -34.5t26.5 -9.5z" />
    <glyph glyph-name="AE" unicode="&#xc6;" horiz-adv-x="926" 
d="M830 315h-253v-209h305v-106h-436v315h-207l-107 -315h-129l261 734h598v-105h-285v-211h253v-103zM269 418h177v211h-104z" />
    <glyph glyph-name="AEacute" unicode="&#x1fc;" horiz-adv-x="926" 
d="M693 846l-179 -84l-33 57l164 112zM830 315h-253v-209h305v-106h-436v315h-207l-107 -315h-129l261 734h598v-105h-285v-211h253v-103zM269 418h177v211h-104z" />
    <glyph glyph-name="Ccedilla" unicode="&#xc7;" horiz-adv-x="648" 
d="M303 -10q-125 10 -190.5 101t-65.5 267q0 99 23 172t64 121t98.5 71.5t125.5 23.5q61 0 108 -19t78.5 -53.5t48 -83.5t15.5 -110l-126 -10q0 49 -10 82t-28 53t-42.5 28.5t-52.5 8.5q-34 0 -63.5 -14.5t-52 -47.5t-35.5 -86.5t-13 -131.5q0 -141 40.5 -205t117.5 -64
q63 0 97 41t39 115l125 -9q-6 -63 -25 -109.5t-50.5 -77t-74.5 -46t-95 -18.5l-17 -37q13 6 29 6q38 0 60 -23.5t22 -61.5q0 -42 -30.5 -69.5t-82.5 -27.5q-29 0 -57 10t-54 38l39 42q30 -28 61 -28q39 0 39 36q0 19 -9.5 27.5t-25.5 8.5q-9 0 -16 -3t-13 -7l-32 15z" />
    <glyph glyph-name="Egrave" unicode="&#xc8;" horiz-adv-x="565" 
d="M222 931l165 -112l-36 -57l-179 84zM468 325h-253v-219h306v-106h-436v734h416v-105h-286v-201h253v-103z" />
    <glyph glyph-name="Eacute" unicode="&#xc9;" horiz-adv-x="565" 
d="M413 846l-179 -84l-33 57l164 112zM468 325h-253v-219h306v-106h-436v734h416v-105h-286v-201h253v-103z" />
    <glyph glyph-name="Ecircumflex" unicode="&#xca;" horiz-adv-x="565" 
d="M468 325h-253v-219h306v-106h-436v734h416v-105h-286v-201h253v-103zM322 920l120 -116l-35 -44l-120 75l-117 -75l-35 44l120 116h67z" />
    <glyph glyph-name="Edieresis" unicode="&#xcb;" horiz-adv-x="565" 
d="M330 888h100v-107h-100v107zM158 888h100v-107h-100v107zM468 325h-253v-219h306v-106h-436v734h416v-105h-286v-201h253v-103z" />
    <glyph glyph-name="Igrave" unicode="&#xcc;" horiz-adv-x="386" 
d="M256 87h77v-87h-280v87h75v560h-75v87h280v-87h-77v-560zM123 931l165 -112l-36 -57l-179 84z" />
    <glyph glyph-name="Iacute" unicode="&#xcd;" horiz-adv-x="386" 
d="M256 87h77v-87h-280v87h75v560h-75v87h280v-87h-77v-560zM311 846l-179 -84l-33 57l164 112z" />
    <glyph glyph-name="Icircumflex" unicode="&#xce;" horiz-adv-x="386" 
d="M256 87h77v-87h-280v87h75v560h-75v87h280v-87h-77v-560zM227 920l120 -116l-35 -44l-120 75l-117 -75l-35 44l120 116h67z" />
    <glyph glyph-name="Idieresis" unicode="&#xcf;" horiz-adv-x="386" 
d="M256 87h77v-87h-280v87h75v560h-75v87h280v-87h-77v-560zM231 888h100v-107h-100v107zM59 888h100v-107h-100v107z" />
    <glyph glyph-name="Eth" unicode="&#xd0;" horiz-adv-x="677" 
d="M91 0v318h-68v100h68v316h155q106 0 179 -22t118.5 -66.5t66 -112t20.5 -157.5q0 -96 -20.5 -167t-66.5 -117.5t-119.5 -69t-179.5 -22.5h-153zM263 106q60 0 104 13.5t72.5 44.5t42.5 82t14 125q0 69 -12.5 118t-40 80t-71 45.5t-106.5 14.5h-45v-211h174v-100h-174
v-212h42z" />
    <glyph glyph-name="Ntilde" unicode="&#xd1;" horiz-adv-x="723" 
d="M208 788q11 57 34.5 82.5t53.5 25.5q19 0 36.5 -4.5t33 -10.5t30 -10.5t27.5 -4.5q11 0 20.5 8.5t15.5 31.5l53 -8q-11 -60 -34.5 -85t-52.5 -25q-21 0 -39 4.5t-33.5 10.5t-29.5 10.5t-27 4.5q-25 0 -34 -38zM491 0l-285 550v-550h-121v734h158l275 -550v550h120v-734
h-147z" />
    <glyph glyph-name="Ograve" unicode="&#xd2;" horiz-adv-x="697" 
d="M287 931l165 -112l-36 -57l-179 84zM345 -12q-152 0 -225 98t-73 279q0 91 22 162t63 120t99 74.5t131 25.5q147 0 217.5 -97t70.5 -272q0 -187 -76 -288.5t-229 -101.5zM350 92q87 0 126.5 69.5t39.5 211.5q0 134 -37.5 201t-121.5 67t-129.5 -67.5t-45.5 -204.5
t39.5 -207t128.5 -70z" />
    <glyph glyph-name="Oacute" unicode="&#xd3;" horiz-adv-x="697" 
d="M478 846l-179 -84l-33 57l164 112zM345 -12q-152 0 -225 98t-73 279q0 91 22 162t63 120t99 74.5t131 25.5q147 0 217.5 -97t70.5 -272q0 -187 -76 -288.5t-229 -101.5zM350 92q87 0 126.5 69.5t39.5 211.5q0 134 -37.5 201t-121.5 67t-129.5 -67.5t-45.5 -204.5
t39.5 -207t128.5 -70z" />
    <glyph glyph-name="Ocircumflex" unicode="&#xd4;" horiz-adv-x="697" 
d="M345 -12q-152 0 -225 98t-73 279q0 91 22 162t63 120t99 74.5t131 25.5q147 0 217.5 -97t70.5 -272q0 -187 -76 -288.5t-229 -101.5zM350 92q87 0 126.5 69.5t39.5 211.5q0 134 -37.5 201t-121.5 67t-129.5 -67.5t-45.5 -204.5t39.5 -207t128.5 -70zM393 920l120 -116
l-35 -44l-120 75l-117 -75l-35 44l120 116h67z" />
    <glyph glyph-name="Otilde" unicode="&#xd5;" horiz-adv-x="697" 
d="M207 788q11 57 34.5 82.5t53.5 25.5q19 0 36.5 -4.5t33 -10.5t30 -10.5t27.5 -4.5q11 0 20.5 8.5t15.5 31.5l53 -8q-11 -60 -34.5 -85t-52.5 -25q-21 0 -39 4.5t-33.5 10.5t-29.5 10.5t-27 4.5q-25 0 -34 -38zM345 -12q-152 0 -225 98t-73 279q0 91 22 162t63 120
t99 74.5t131 25.5q147 0 217.5 -97t70.5 -272q0 -187 -76 -288.5t-229 -101.5zM350 92q87 0 126.5 69.5t39.5 211.5q0 134 -37.5 201t-121.5 67t-129.5 -67.5t-45.5 -204.5t39.5 -207t128.5 -70z" />
    <glyph glyph-name="Odieresis" unicode="&#xd6;" horiz-adv-x="697" 
d="M395 888h100v-107h-100v107zM223 888h100v-107h-100v107zM345 -12q-152 0 -225 98t-73 279q0 91 22 162t63 120t99 74.5t131 25.5q147 0 217.5 -97t70.5 -272q0 -187 -76 -288.5t-229 -101.5zM350 92q87 0 126.5 69.5t39.5 211.5q0 134 -37.5 201t-121.5 67t-129.5 -67.5
t-45.5 -204.5t39.5 -207t128.5 -70z" />
    <glyph glyph-name="Oslash" unicode="&#xd8;" horiz-adv-x="692" 
d="M343 -12q-59 0 -105 15l-35 -73l-99 46l40 83q-50 48 -73.5 124.5t-23.5 181.5q0 91 22 162t62.5 120t98 74.5t129.5 25.5q61 0 109 -18l33 69l100 -43l-42 -87q43 -48 64.5 -120.5t21.5 -169.5q0 -187 -76 -288.5t-226 -101.5zM182 369q0 -113 26 -178l210 436
q-28 14 -64 14q-81 0 -126.5 -67.5t-45.5 -204.5zM348 92q85 0 124 69.5t39 211.5q0 96 -19 156l-205 -426q28 -11 61 -11z" />
    <glyph glyph-name="Oslashacute" unicode="&#x1fe;" horiz-adv-x="692" 
d="M475 855l-179 -84l-33 57l164 112zM343 -12q-59 0 -105 15l-35 -73l-99 46l40 83q-50 48 -73.5 124.5t-23.5 181.5q0 91 22 162t62.5 120t98 74.5t129.5 25.5q61 0 109 -18l33 69l100 -43l-42 -87q43 -48 64.5 -120.5t21.5 -169.5q0 -187 -76 -288.5t-226 -101.5z
M182 369q0 -113 26 -178l210 436q-28 14 -64 14q-81 0 -126.5 -67.5t-45.5 -204.5zM348 92q85 0 124 69.5t39 211.5q0 96 -19 156l-205 -426q28 -11 61 -11z" />
    <glyph glyph-name="Ugrave" unicode="&#xd9;" horiz-adv-x="711" 
d="M280 931l165 -112l-36 -57l-179 84zM505 734h128v-474q0 -131 -70 -201.5t-212 -70.5q-75 0 -127 19t-84.5 54.5t-47 86.5t-14.5 116v470h128v-439q0 -101 33 -151.5t117 -50.5q83 0 116 48.5t33 152.5v440z" />
    <glyph glyph-name="Uacute" unicode="&#xda;" horiz-adv-x="711" 
d="M471 846l-179 -84l-33 57l164 112zM505 734h128v-474q0 -131 -70 -201.5t-212 -70.5q-75 0 -127 19t-84.5 54.5t-47 86.5t-14.5 116v470h128v-439q0 -101 33 -151.5t117 -50.5q83 0 116 48.5t33 152.5v440z" />
    <glyph glyph-name="Ucircumflex" unicode="&#xdb;" horiz-adv-x="711" 
d="M505 734h128v-474q0 -131 -70 -201.5t-212 -70.5q-75 0 -127 19t-84.5 54.5t-47 86.5t-14.5 116v470h128v-439q0 -101 33 -151.5t117 -50.5q83 0 116 48.5t33 152.5v440zM386 920l120 -116l-35 -44l-120 75l-117 -75l-35 44l120 116h67z" />
    <glyph glyph-name="Udieresis" unicode="&#xdc;" horiz-adv-x="711" 
d="M388 888h100v-107h-100v107zM216 888h100v-107h-100v107zM505 734h128v-474q0 -131 -70 -201.5t-212 -70.5q-75 0 -127 19t-84.5 54.5t-47 86.5t-14.5 116v470h128v-439q0 -101 33 -151.5t117 -50.5q83 0 116 48.5t33 152.5v440z" />
    <glyph glyph-name="Yacute" unicode="&#xdd;" horiz-adv-x="601" 
d="M367 0h-129v275l-245 459h145l164 -333l171 333h136l-242 -454v-280zM421 846l-179 -84l-33 57l164 112z" />
    <glyph glyph-name="Thorn" unicode="&#xde;" horiz-adv-x="617" 
d="M215 0h-130v734h130v-126h125q69 0 115 -16.5t74 -45t40 -68.5t12 -86q0 -39 -9.5 -82.5t-39 -80.5t-83.5 -61t-143 -24h-91v-144zM293 243q78 0 116.5 33t38.5 107q0 60 -29.5 91t-104.5 31h-99v-262h78z" />
    <glyph glyph-name="germandbls" unicode="&#xdf;" horiz-adv-x="678" 
d="M190 0h-125v493q0 67 19.5 115t55 79t85 45.5t109.5 14.5q114 0 169.5 -49.5t55.5 -130.5q0 -18 -2.5 -36.5t-6.5 -36t-8.5 -31.5t-7.5 -23q-20 4 -39 4q-27 0 -50 -11t-23 -42q0 -26 18.5 -39.5t46.5 -22.5q27 -9 55 -19t51 -28t37.5 -46t14.5 -71q0 -44 -15 -77
t-41.5 -55.5t-62.5 -33.5t-78 -11q-43 0 -78.5 8t-61.5 26.5t-43 49t-22 74.5l110 17q6 -48 28 -69t65 -21q37 0 58.5 19t21.5 57q0 19 -8 32t-21 22.5t-30 16t-35 13.5q-23 8 -46.5 17.5t-42 25t-30 39.5t-11.5 60q0 32 12 56t31 40.5t43 25.5t48 12q3 8 5 23.5t2 26.5
q0 47 -29 70.5t-80 23.5q-80 0 -112 -43t-32 -127v-483z" />
    <glyph glyph-name="agrave" unicode="&#xe0;" horiz-adv-x="546" 
d="M521 2q-41 -9 -69 -8.5t-47 9.5t-30 26t-16 40q-22 -38 -62 -59.5t-100 -21.5q-42 0 -72.5 12t-49.5 32t-28 46t-9 54q0 52 24 83t65 48t97 23.5t121 11.5v22q0 68 -24 94.5t-67 26.5q-32 0 -49.5 -8t-25 -22.5t-7.5 -34.5t3 -44l-112 -10q-8 43 -1.5 80.5t30 64.5
t65.5 42.5t104 15.5q63 0 103 -17t63 -48t31.5 -73t8.5 -92v-182q0 -26 10.5 -34.5t41.5 -1.5zM345 223q-57 -2 -92.5 -8.5t-55 -17t-26.5 -25t-7 -33.5q0 -32 20.5 -50.5t56.5 -18.5q45 0 74.5 32t29.5 80v41zM213 763l126 -155l-49 -43l-150 130z" />
    <glyph glyph-name="aacute" unicode="&#xe1;" horiz-adv-x="546" 
d="M521 2q-41 -9 -69 -8.5t-47 9.5t-30 26t-16 40q-22 -38 -62 -59.5t-100 -21.5q-42 0 -72.5 12t-49.5 32t-28 46t-9 54q0 52 24 83t65 48t97 23.5t121 11.5v22q0 68 -24 94.5t-67 26.5q-32 0 -49.5 -8t-25 -22.5t-7.5 -34.5t3 -44l-112 -10q-8 43 -1.5 80.5t30 64.5
t65.5 42.5t104 15.5q63 0 103 -17t63 -48t31.5 -73t8.5 -92v-182q0 -26 10.5 -34.5t41.5 -1.5zM345 223q-57 -2 -92.5 -8.5t-55 -17t-26.5 -25t-7 -33.5q0 -32 20.5 -50.5t56.5 -18.5q45 0 74.5 32t29.5 80v41zM380 696l-150 -131l-48 43l126 156z" />
    <glyph glyph-name="acircumflex" unicode="&#xe2;" horiz-adv-x="546" 
d="M521 2q-41 -9 -69 -8.5t-47 9.5t-30 26t-16 40q-22 -38 -62 -59.5t-100 -21.5q-42 0 -72.5 12t-49.5 32t-28 46t-9 54q0 52 24 83t65 48t97 23.5t121 11.5v22q0 68 -24 94.5t-67 26.5q-32 0 -49.5 -8t-25 -22.5t-7.5 -34.5t3 -44l-112 -10q-8 43 -1.5 80.5t30 64.5
t65.5 42.5t104 15.5q63 0 103 -17t63 -48t31.5 -73t8.5 -92v-182q0 -26 10.5 -34.5t41.5 -1.5zM345 223q-57 -2 -92.5 -8.5t-55 -17t-26.5 -25t-7 -33.5q0 -32 20.5 -50.5t56.5 -18.5q45 0 74.5 32t29.5 80v41zM293 747l120 -142l-45 -40l-110 95l-107 -95l-45 40l120 142
h67z" />
    <glyph glyph-name="atilde" unicode="&#xe3;" horiz-adv-x="546" 
d="M521 2q-41 -9 -69 -8.5t-47 9.5t-30 26t-16 40q-22 -38 -62 -59.5t-100 -21.5q-42 0 -72.5 12t-49.5 32t-28 46t-9 54q0 52 24 83t65 48t97 23.5t121 11.5v22q0 68 -24 94.5t-67 26.5q-32 0 -49.5 -8t-25 -22.5t-7.5 -34.5t3 -44l-112 -10q-8 43 -1.5 80.5t30 64.5
t65.5 42.5t104 15.5q63 0 103 -17t63 -48t31.5 -73t8.5 -92v-182q0 -26 10.5 -34.5t41.5 -1.5zM345 223q-57 -2 -92.5 -8.5t-55 -17t-26.5 -25t-7 -33.5q0 -32 20.5 -50.5t56.5 -18.5q45 0 74.5 32t29.5 80v41zM106 613q11 57 34.5 82.5t53.5 25.5q19 0 36.5 -4.5
t33.5 -10.5t30 -10.5t27 -4.5q12 0 21 8.5t16 31.5l53 -8q-12 -60 -35.5 -85t-52.5 -25q-20 0 -38 4.5t-34 10.5t-30 10.5t-26 4.5q-25 0 -35 -38z" />
    <glyph glyph-name="adieresis" unicode="&#xe4;" horiz-adv-x="546" 
d="M521 2q-41 -9 -69 -8.5t-47 9.5t-30 26t-16 40q-22 -38 -62 -59.5t-100 -21.5q-42 0 -72.5 12t-49.5 32t-28 46t-9 54q0 52 24 83t65 48t97 23.5t121 11.5v22q0 68 -24 94.5t-67 26.5q-32 0 -49.5 -8t-25 -22.5t-7.5 -34.5t3 -44l-112 -10q-8 43 -1.5 80.5t30 64.5
t65.5 42.5t104 15.5q63 0 103 -17t63 -48t31.5 -73t8.5 -92v-182q0 -26 10.5 -34.5t41.5 -1.5zM345 223q-57 -2 -92.5 -8.5t-55 -17t-26.5 -25t-7 -33.5q0 -32 20.5 -50.5t56.5 -18.5q45 0 74.5 32t29.5 80v41zM295 715h100v-107h-100v107zM123 715h100v-107h-100v107z" />
    <glyph glyph-name="aring" unicode="&#xe5;" horiz-adv-x="546" 
d="M521 2q-41 -9 -69 -8.5t-47 9.5t-30 26t-16 40q-22 -38 -62 -59.5t-100 -21.5q-42 0 -72.5 12t-49.5 32t-28 46t-9 54q0 52 24 83t65 48t97 23.5t121 11.5v22q0 68 -24 94.5t-67 26.5q-32 0 -49.5 -8t-25 -22.5t-7.5 -34.5t3 -44l-112 -10q-8 43 -1.5 80.5t30 64.5
t65.5 42.5t104 15.5q63 0 103 -17t63 -48t31.5 -73t8.5 -92v-182q0 -26 10.5 -34.5t41.5 -1.5zM345 223q-57 -2 -92.5 -8.5t-55 -17t-26.5 -25t-7 -33.5q0 -32 20.5 -50.5t56.5 -18.5q45 0 74.5 32t29.5 80v41zM257 573q-57 0 -79.5 26t-22.5 67q0 42 30 68t76 26
q52 0 79 -25t27 -66q0 -43 -27.5 -69.5t-82.5 -26.5zM259 622q16 0 25 10t9 35t-9.5 34.5t-23.5 9.5q-16 0 -26.5 -10t-10.5 -35t9.5 -34.5t26.5 -9.5z" />
    <glyph glyph-name="aringacute" unicode="&#x1fb;" horiz-adv-x="546" 
d="M521 2q-41 -9 -69 -8.5t-47 9.5t-30 26t-16 40q-22 -38 -62 -59.5t-100 -21.5q-42 0 -72.5 12t-49.5 32t-28 46t-9 54q0 52 24 83t65 48t97 23.5t121 11.5v22q0 68 -24 94.5t-67 26.5q-32 0 -49.5 -8t-25 -22.5t-7.5 -34.5t3 -44l-112 -10q-8 43 -1.5 80.5t30 64.5
t65.5 42.5t104 15.5q63 0 103 -17t63 -48t31.5 -73t8.5 -92v-182q0 -26 10.5 -34.5t41.5 -1.5zM345 223q-57 -2 -92.5 -8.5t-55 -17t-26.5 -25t-7 -33.5q0 -32 20.5 -50.5t56.5 -18.5q45 0 74.5 32t29.5 80v41zM257 563q-57 0 -79.5 26t-22.5 67q0 42 30 68t76 26
q52 0 79 -25t27 -66q0 -43 -27.5 -69.5t-82.5 -26.5zM259 612q16 0 25 10t9 35t-9.5 34.5t-23.5 9.5q-16 0 -26.5 -10t-10.5 -35t9.5 -34.5t26.5 -9.5zM367 846l-179 -84l-33 57l164 112z" />
    <glyph glyph-name="ae" unicode="&#xe6;" horiz-adv-x="837" 
d="M795 168q-8 -55 -30.5 -90t-53 -55t-65 -27.5t-67.5 -7.5q-74 0 -119 27.5t-68 78.5q-30 -59 -79.5 -82.5t-115.5 -23.5q-42 0 -72.5 12t-49.5 32t-28 46t-9 54q0 52 24 83t65 48t97 23.5t121 11.5v22q0 68 -24 94.5t-67 26.5q-32 0 -49.5 -8t-25.5 -22.5t-8 -34.5t3 -44
l-111 -10q-8 43 -1.5 80.5t30 64.5t65.5 42.5t104 15.5q60 0 96 -21t59 -59q30 40 74 60t99 20q117 0 170 -77t39 -215h-332q0 -33 6.5 -61.5t20 -48.5t36.5 -31.5t56 -11.5q42 0 70 22t36 75zM680 310q3 63 -22 97t-78 34q-29 0 -49.5 -10.5t-34.5 -28t-21 -41.5t-8 -51
h213zM345 223q-58 -3 -93 -9t-54 -16.5t-25.5 -25t-6.5 -33.5q0 -37 22.5 -52.5t53.5 -15.5q24 0 43 9t32.5 24.5t20.5 35.5t7 42v41z" />
    <glyph glyph-name="aeacute" unicode="&#x1fd;" horiz-adv-x="837" 
d="M537 696l-150 -131l-48 43l126 156zM795 168q-8 -55 -30.5 -90t-53 -55t-65 -27.5t-67.5 -7.5q-74 0 -119 27.5t-68 78.5q-30 -59 -79.5 -82.5t-115.5 -23.5q-42 0 -72.5 12t-49.5 32t-28 46t-9 54q0 52 24 83t65 48t97 23.5t121 11.5v22q0 68 -24 94.5t-67 26.5
q-32 0 -49.5 -8t-25.5 -22.5t-8 -34.5t3 -44l-111 -10q-8 43 -1.5 80.5t30 64.5t65.5 42.5t104 15.5q60 0 96 -21t59 -59q30 40 74 60t99 20q117 0 170 -77t39 -215h-332q0 -33 6.5 -61.5t20 -48.5t36.5 -31.5t56 -11.5q42 0 70 22t36 75zM680 310q3 63 -22 97t-78 34
q-29 0 -49.5 -10.5t-34.5 -28t-21 -41.5t-8 -51h213zM345 223q-58 -3 -93 -9t-54 -16.5t-25.5 -25t-6.5 -33.5q0 -37 22.5 -52.5t53.5 -15.5q24 0 43 9t32.5 24.5t20.5 35.5t7 42v41z" />
    <glyph glyph-name="ccedilla" unicode="&#xe7;" horiz-adv-x="520" 
d="M238 -10q-54 5 -92.5 27t-63 56.5t-36 80t-11.5 97.5q0 131 66.5 202.5t184.5 71.5q53 0 91.5 -15.5t63.5 -41.5t38 -61.5t15 -75.5l-111 -9q-5 60 -32.5 86t-69.5 26q-26 0 -47.5 -9.5t-37 -31t-24 -55.5t-8.5 -82q0 -176 115 -176q45 0 69.5 24t32.5 78l109 -8
q-6 -49 -23.5 -83.5t-44 -56t-59.5 -32.5t-69 -13l-17 -37q13 6 29 6q38 0 60 -23.5t22 -61.5q0 -42 -30.5 -69.5t-82.5 -27.5q-29 0 -57 10t-54 38l39 42q30 -28 61 -28q39 0 39 36q0 19 -9.5 27.5t-25.5 8.5q-9 0 -16 -3t-13 -7l-32 15z" />
    <glyph glyph-name="egrave" unicode="&#xe8;" horiz-adv-x="534" 
d="M492 163q-9 -54 -31.5 -88t-52.5 -53.5t-64.5 -26.5t-67.5 -7q-65 0 -110.5 20t-74.5 55t-42.5 83t-13.5 105q0 63 17 114t49 86.5t79 54.5t106 19q105 0 158.5 -62t53.5 -175q0 -13 -0.5 -28t-2.5 -29h-332q0 -33 6.5 -60.5t20 -48t35.5 -31.5t55 -11q43 0 71 21.5
t36 72.5zM377 315q2 60 -22.5 93t-77.5 33q-29 0 -49.5 -10.5t-34.5 -27.5t-21 -40t-8 -48h213zM234 763l126 -155l-49 -43l-150 130z" />
    <glyph glyph-name="eacute" unicode="&#xe9;" horiz-adv-x="534" 
d="M401 696l-150 -131l-48 43l126 156zM492 163q-9 -54 -31.5 -88t-52.5 -53.5t-64.5 -26.5t-67.5 -7q-65 0 -110.5 20t-74.5 55t-42.5 83t-13.5 105q0 63 17 114t49 86.5t79 54.5t106 19q105 0 158.5 -62t53.5 -175q0 -13 -0.5 -28t-2.5 -29h-332q0 -33 6.5 -60.5t20 -48
t35.5 -31.5t55 -11q43 0 71 21.5t36 72.5zM377 315q2 60 -22.5 93t-77.5 33q-29 0 -49.5 -10.5t-34.5 -27.5t-21 -40t-8 -48h213z" />
    <glyph glyph-name="ecircumflex" unicode="&#xea;" horiz-adv-x="534" 
d="M314 747l120 -142l-45 -40l-110 95l-107 -95l-45 40l120 142h67zM492 163q-9 -54 -31.5 -88t-52.5 -53.5t-64.5 -26.5t-67.5 -7q-65 0 -110.5 20t-74.5 55t-42.5 83t-13.5 105q0 63 17 114t49 86.5t79 54.5t106 19q105 0 158.5 -62t53.5 -175q0 -13 -0.5 -28t-2.5 -29
h-332q0 -33 6.5 -60.5t20 -48t35.5 -31.5t55 -11q43 0 71 21.5t36 72.5zM377 315q2 60 -22.5 93t-77.5 33q-29 0 -49.5 -10.5t-34.5 -27.5t-21 -40t-8 -48h213z" />
    <glyph glyph-name="edieresis" unicode="&#xeb;" horiz-adv-x="534" 
d="M316 715h100v-107h-100v107zM144 715h100v-107h-100v107zM492 163q-9 -54 -31.5 -88t-52.5 -53.5t-64.5 -26.5t-67.5 -7q-65 0 -110.5 20t-74.5 55t-42.5 83t-13.5 105q0 63 17 114t49 86.5t79 54.5t106 19q105 0 158.5 -62t53.5 -175q0 -13 -0.5 -28t-2.5 -29h-332
q0 -33 6.5 -60.5t20 -48t35.5 -31.5t55 -11q43 0 71 21.5t36 72.5zM377 315q2 60 -22.5 93t-77.5 33q-29 0 -49.5 -10.5t-34.5 -27.5t-21 -40t-8 -48h213z" />
    <glyph glyph-name="igrave" unicode="&#xec;" horiz-adv-x="246" 
d="M61 513h125v-513h-125v513zM78 763l126 -155l-49 -43l-150 130z" />
    <glyph glyph-name="iacute" unicode="&#xed;" horiz-adv-x="246" 
d="M245 696l-150 -131l-48 43l126 156zM61 513h125v-513h-125v513z" />
    <glyph glyph-name="icircumflex" unicode="&#xee;" horiz-adv-x="246" 
d="M158 747l120 -142l-45 -40l-110 95l-107 -95l-45 40l120 142h67zM61 513h125v-513h-125v513z" />
    <glyph glyph-name="idieresis" unicode="&#xef;" horiz-adv-x="246" 
d="M160 715h100v-107h-100v107zM-12 715h100v-107h-100v107zM61 513h125v-513h-125v513z" />
    <glyph glyph-name="eth" unicode="&#xf0;" horiz-adv-x="563" 
d="M390 646q66 -71 101.5 -165t35.5 -201q0 -148 -67 -220t-183 -72q-121 0 -181.5 69.5t-60.5 198.5q0 61 17 110.5t47 84.5t71 54t89 19q37 0 63.5 -10.5t51.5 -33.5l2 3q-14 34 -35 64t-46 56l-112 -49l-25 61l86 37q-18 15 -36 28.5t-35 24.5l108 29q30 -18 57 -39
l109 48l25 -62zM282 78q62 0 89.5 50.5t27.5 131.5q0 80 -26.5 126.5t-88.5 46.5t-91 -48t-29 -128q0 -81 26.5 -130t91.5 -49z" />
    <glyph glyph-name="ntilde" unicode="&#xf1;" horiz-adv-x="571" 
d="M515 0h-125v302q0 70 -22.5 99t-68.5 29q-33 0 -55 -12t-35 -31.5t-18 -46t-5 -54.5v-286h-125v513h114l5 -75h2q8 15 20.5 30t31.5 28t44.5 21t60.5 8q83 0 129.5 -50.5t46.5 -162.5v-312zM139 613q11 57 34.5 82.5t53.5 25.5q19 0 36.5 -4.5t33.5 -10.5t30 -10.5
t27 -4.5q12 0 21 8.5t16 31.5l53 -8q-12 -60 -35.5 -85t-52.5 -25q-20 0 -38 4.5t-34 10.5t-30 10.5t-26 4.5q-25 0 -35 -38z" />
    <glyph glyph-name="ograve" unicode="&#xf2;" horiz-adv-x="562" 
d="M277 -12q-121 0 -181.5 69.5t-60.5 198.5q0 66 20 116.5t54.5 84t80.5 51t99 17.5q112 0 175 -66t63 -193q0 -138 -66.5 -208t-183.5 -70zM282 78q62 0 89.5 50.5t27.5 131.5q0 80 -26.5 126.5t-88.5 46.5t-91 -48t-29 -128q0 -81 26.5 -130t91.5 -49zM237 763l126 -155
l-49 -43l-150 130z" />
    <glyph glyph-name="oacute" unicode="&#xf3;" horiz-adv-x="562" 
d="M404 696l-150 -131l-48 43l126 156zM277 -12q-121 0 -181.5 69.5t-60.5 198.5q0 66 20 116.5t54.5 84t80.5 51t99 17.5q112 0 175 -66t63 -193q0 -138 -66.5 -208t-183.5 -70zM282 78q62 0 89.5 50.5t27.5 131.5q0 80 -26.5 126.5t-88.5 46.5t-91 -48t-29 -128
q0 -81 26.5 -130t91.5 -49z" />
    <glyph glyph-name="ocircumflex" unicode="&#xf4;" horiz-adv-x="562" 
d="M317 747l120 -142l-45 -40l-110 95l-107 -95l-45 40l120 142h67zM277 -12q-121 0 -181.5 69.5t-60.5 198.5q0 66 20 116.5t54.5 84t80.5 51t99 17.5q112 0 175 -66t63 -193q0 -138 -66.5 -208t-183.5 -70zM282 78q62 0 89.5 50.5t27.5 131.5q0 80 -26.5 126.5t-88.5 46.5
t-91 -48t-29 -128q0 -81 26.5 -130t91.5 -49z" />
    <glyph glyph-name="otilde" unicode="&#xf5;" horiz-adv-x="562" 
d="M277 -12q-121 0 -181.5 69.5t-60.5 198.5q0 66 20 116.5t54.5 84t80.5 51t99 17.5q112 0 175 -66t63 -193q0 -138 -66.5 -208t-183.5 -70zM282 78q62 0 89.5 50.5t27.5 131.5q0 80 -26.5 126.5t-88.5 46.5t-91 -48t-29 -128q0 -81 26.5 -130t91.5 -49zM130 613
q11 57 34.5 82.5t53.5 25.5q19 0 36.5 -4.5t33.5 -10.5t30 -10.5t27 -4.5q12 0 21 8.5t16 31.5l53 -8q-12 -60 -35.5 -85t-52.5 -25q-20 0 -38 4.5t-34 10.5t-30 10.5t-26 4.5q-25 0 -35 -38z" />
    <glyph glyph-name="odieresis" unicode="&#xf6;" horiz-adv-x="562" 
d="M319 715h100v-107h-100v107zM147 715h100v-107h-100v107zM277 -12q-121 0 -181.5 69.5t-60.5 198.5q0 66 20 116.5t54.5 84t80.5 51t99 17.5q112 0 175 -66t63 -193q0 -138 -66.5 -208t-183.5 -70zM282 78q62 0 89.5 50.5t27.5 131.5q0 80 -26.5 126.5t-88.5 46.5
t-91 -48t-29 -128q0 -81 26.5 -130t91.5 -49z" />
    <glyph glyph-name="oslash" unicode="&#xf8;" horiz-adv-x="562" 
d="M277 -12q-51 0 -90 12l-46 -77l-83 49l46 77q-69 69 -69 207q0 66 20 116.5t54.5 84t80.5 51t99 17.5q50 0 89 -13l40 67l84 -46l-42 -71q32 -33 49.5 -82t17.5 -114q0 -138 -66.5 -208t-183.5 -70zM164 257q0 -26 2.5 -48.5t7.5 -41.5l153 258q-21 8 -43 8
q-62 0 -91 -48t-29 -128zM282 78q62 0 89.5 50.5t27.5 131.5q0 23 -2.5 44t-7.5 39l-152 -258q18 -7 45 -7z" />
    <glyph glyph-name="oslashacute" unicode="&#x1ff;" horiz-adv-x="562" 
d="M404 696l-150 -131l-48 43l126 156zM277 -12q-51 0 -90 12l-46 -77l-83 49l46 77q-69 69 -69 207q0 66 20 116.5t54.5 84t80.5 51t99 17.5q50 0 89 -13l40 67l84 -46l-42 -71q32 -33 49.5 -82t17.5 -114q0 -138 -66.5 -208t-183.5 -70zM164 257q0 -26 2.5 -48.5
t7.5 -41.5l153 258q-21 8 -43 8q-62 0 -91 -48t-29 -128zM282 78q62 0 89.5 50.5t27.5 131.5q0 23 -2.5 44t-7.5 39l-152 -258q18 -7 45 -7z" />
    <glyph glyph-name="ugrave" unicode="&#xf9;" horiz-adv-x="562" 
d="M56 513h125v-304q0 -66 21 -96t66 -30q32 0 53 13t33.5 34.5t17.5 50t5 59.5v273h125v-513h-113l-6 76h-1q-9 -14 -21 -29.5t-30.5 -28.5t-44 -21.5t-59.5 -8.5q-82 0 -126.5 51.5t-44.5 163.5v310zM232 763l126 -155l-49 -43l-150 130z" />
    <glyph glyph-name="uacute" unicode="&#xfa;" horiz-adv-x="562" 
d="M399 696l-150 -131l-48 43l126 156zM56 513h125v-304q0 -66 21 -96t66 -30q32 0 53 13t33.5 34.5t17.5 50t5 59.5v273h125v-513h-113l-6 76h-1q-9 -14 -21 -29.5t-30.5 -28.5t-44 -21.5t-59.5 -8.5q-82 0 -126.5 51.5t-44.5 163.5v310z" />
    <glyph glyph-name="ucircumflex" unicode="&#xfb;" horiz-adv-x="562" 
d="M312 747l120 -142l-45 -40l-110 95l-107 -95l-45 40l120 142h67zM56 513h125v-304q0 -66 21 -96t66 -30q32 0 53 13t33.5 34.5t17.5 50t5 59.5v273h125v-513h-113l-6 76h-1q-9 -14 -21 -29.5t-30.5 -28.5t-44 -21.5t-59.5 -8.5q-82 0 -126.5 51.5t-44.5 163.5v310z" />
    <glyph glyph-name="udieresis" unicode="&#xfc;" horiz-adv-x="562" 
d="M314 715h100v-107h-100v107zM142 715h100v-107h-100v107zM56 513h125v-304q0 -66 21 -96t66 -30q32 0 53 13t33.5 34.5t17.5 50t5 59.5v273h125v-513h-113l-6 76h-1q-9 -14 -21 -29.5t-30.5 -28.5t-44 -21.5t-59.5 -8.5q-82 0 -126.5 51.5t-44.5 163.5v310z" />
    <glyph glyph-name="yacute" unicode="&#xfd;" horiz-adv-x="495" 
d="M309 3q-20 -56 -38.5 -94t-41 -61t-51.5 -33t-69 -10q-24 0 -49 4t-38 9l13 84q15 -4 27 -6.5t27 -2.5q35 0 56 23.5t40 79.5l3 9l-177 508h132l105 -378h3l109 378h128zM372 696l-150 -131l-48 43l126 156z" />
    <glyph glyph-name="thorn" unicode="&#xfe;" horiz-adv-x="568" 
d="M340 525q38 0 72.5 -14t61 -44t42.5 -78.5t16 -117.5q0 -78 -17.5 -132t-47.5 -87.5t-70.5 -48.5t-86.5 -15q-39 0 -72 17t-53 44h-2v-232h-122v917h124v-288h1q9 14 23 28t33 25.5t43.5 18.5t54.5 7zM298 441q-56 0 -86 -43t-30 -141q0 -100 28 -142t80 -42
q114 0 114 197q0 92 -27.5 131.5t-78.5 39.5z" />
    <glyph glyph-name="ydieresis" unicode="&#xff;" horiz-adv-x="495" 
d="M309 3q-20 -56 -38.5 -94t-41 -61t-51.5 -33t-69 -10q-24 0 -49 4t-38 9l13 84q15 -4 27 -6.5t27 -2.5q35 0 56 23.5t40 79.5l3 9l-177 508h132l105 -378h3l109 378h128zM287 715h100v-107h-100v107zM115 715h100v-107h-100v107z" />
    <glyph glyph-name="Amacron" unicode="&#x100;" horiz-adv-x="667" 
d="M414 734l250 -734h-133l-63 185h-275l-61 -185h-129l246 734h165zM330 615h-2l-107 -329h217zM191 878h276v-83h-276v83z" />
    <glyph glyph-name="amacron" unicode="&#x101;" horiz-adv-x="546" 
d="M521 2q-41 -9 -69 -8.5t-47 9.5t-30 26t-16 40q-22 -38 -62 -59.5t-100 -21.5q-42 0 -72.5 12t-49.5 32t-28 46t-9 54q0 52 24 83t65 48t97 23.5t121 11.5v22q0 68 -24 94.5t-67 26.5q-32 0 -49.5 -8t-25 -22.5t-7.5 -34.5t3 -44l-112 -10q-8 43 -1.5 80.5t30 64.5
t65.5 42.5t104 15.5q63 0 103 -17t63 -48t31.5 -73t8.5 -92v-182q0 -26 10.5 -34.5t41.5 -1.5zM345 223q-57 -2 -92.5 -8.5t-55 -17t-26.5 -25t-7 -33.5q0 -32 20.5 -50.5t56.5 -18.5q45 0 74.5 32t29.5 80v41zM121 696h276v-81h-276v81z" />
    <glyph glyph-name="Abreve" unicode="&#x102;" horiz-adv-x="667" 
d="M414 734l250 -734h-133l-63 185h-275l-61 -185h-129l246 734h165zM330 615h-2l-107 -329h217zM244 919q13 -38 32.5 -55t52.5 -17q36 0 56.5 16t36.5 56l62 -13q-29 -140 -156 -140q-61 0 -99 33.5t-50 106.5z" />
    <glyph glyph-name="abreve" unicode="&#x103;" horiz-adv-x="546" 
d="M521 2q-41 -9 -69 -8.5t-47 9.5t-30 26t-16 40q-22 -38 -62 -59.5t-100 -21.5q-42 0 -72.5 12t-49.5 32t-28 46t-9 54q0 52 24 83t65 48t97 23.5t121 11.5v22q0 68 -24 94.5t-67 26.5q-32 0 -49.5 -8t-25 -22.5t-7.5 -34.5t3 -44l-112 -10q-8 43 -1.5 80.5t30 64.5
t65.5 42.5t104 15.5q63 0 103 -17t63 -48t31.5 -73t8.5 -92v-182q0 -26 10.5 -34.5t41.5 -1.5zM345 223q-57 -2 -92.5 -8.5t-55 -17t-26.5 -25t-7 -33.5q0 -32 20.5 -50.5t56.5 -18.5q45 0 74.5 32t29.5 80v41zM177 738q14 -81 82 -81q37 0 58 19.5t32 61.5l62 -8
q-23 -153 -153 -153q-64 0 -101 38t-45 115z" />
    <glyph glyph-name="Aogonek" unicode="&#x104;" horiz-adv-x="667" 
d="M414 734l250 -734h-49q-28 -25 -43 -48.5t-15 -46.5q0 -14 7.5 -19.5t18.5 -5.5q15 0 25.5 9.5t20.5 24.5l46 -30q-20 -37 -54 -58t-76 -21q-36 0 -59 16t-23 51q0 31 16.5 61t51.5 67l-63 185h-275l-61 -185h-129l246 734h165zM330 615h-2l-107 -329h217z" />
    <glyph glyph-name="aogonek" unicode="&#x105;" horiz-adv-x="546" 
d="M521 2q-16 -3 -26 -6.5t-23 -11.5q-23 -15 -38.5 -34t-15.5 -42q0 -17 7.5 -22.5t18.5 -5.5q15 0 25.5 9.5t20.5 24.5l46 -30q-20 -37 -54 -58t-76 -21q-36 0 -59 16t-23 51q0 38 23.5 70.5t58.5 59.5q-20 9 -31 26t-16 41q-22 -38 -62 -59.5t-100 -21.5q-42 0 -72.5 12
t-49.5 32t-28 46t-9 54q0 52 24 83t65 48t97 23.5t121 11.5v22q0 68 -24 94.5t-67 26.5q-32 0 -49.5 -8t-25 -22.5t-7.5 -34.5t3 -44l-112 -10q-8 43 -1.5 80.5t30 64.5t65.5 42.5t104 15.5q63 0 103 -17t63 -48t31.5 -73t8.5 -92v-182q0 -26 10.5 -34.5t41.5 -1.5zM345 223
q-57 -2 -92.5 -8.5t-55 -17t-26.5 -25t-7 -33.5q0 -32 20.5 -50.5t56.5 -18.5q45 0 74.5 32t29.5 80v41z" />
    <glyph glyph-name="Cacute" unicode="&#x106;" horiz-adv-x="648" 
d="M343 93q63 0 97 41t39 115l125 -9q-6 -67 -27 -114.5t-55.5 -78t-81.5 -45t-104 -14.5q-141 0 -215 92t-74 278q0 99 23 172t64 121t98.5 71.5t125.5 23.5q61 0 108 -19t78.5 -53.5t48 -83.5t15.5 -110l-126 -10q0 49 -10 82t-28 53t-42.5 28.5t-52.5 8.5
q-34 0 -63.5 -14.5t-52 -47.5t-35.5 -86.5t-13 -131.5q0 -141 40.5 -205t117.5 -64zM474 846l-179 -84l-33 57l164 112z" />
    <glyph glyph-name="cacute" unicode="&#x107;" horiz-adv-x="520" 
d="M397 696l-150 -131l-48 43l126 156zM383 322q-5 60 -32.5 86t-69.5 26q-26 0 -47.5 -9.5t-37 -31t-24 -55.5t-8.5 -82q0 -176 115 -176q45 0 69.5 24t32.5 78l109 -8q-6 -53 -25.5 -88.5t-49 -57t-66 -31t-75.5 -9.5q-64 0 -109.5 20t-74 55t-42 83.5t-13.5 104.5
q0 131 66.5 202.5t184.5 71.5q53 0 91.5 -15.5t63.5 -41.5t38 -61.5t15 -75.5z" />
    <glyph glyph-name="Ccircumflex" unicode="&#x108;" horiz-adv-x="648" 
d="M343 93q63 0 97 41t39 115l125 -9q-6 -67 -27 -114.5t-55.5 -78t-81.5 -45t-104 -14.5q-141 0 -215 92t-74 278q0 99 23 172t64 121t98.5 71.5t125.5 23.5q61 0 108 -19t78.5 -53.5t48 -83.5t15.5 -110l-126 -10q0 49 -10 82t-28 53t-42.5 28.5t-52.5 8.5
q-34 0 -63.5 -14.5t-52 -47.5t-35.5 -86.5t-13 -131.5q0 -141 40.5 -205t117.5 -64zM389 920l120 -116l-35 -44l-120 75l-117 -75l-35 44l120 116h67z" />
    <glyph glyph-name="ccircumflex" unicode="&#x109;" horiz-adv-x="520" 
d="M311 747l120 -142l-45 -40l-110 95l-107 -95l-45 40l120 142h67zM383 322q-5 60 -32.5 86t-69.5 26q-26 0 -47.5 -9.5t-37 -31t-24 -55.5t-8.5 -82q0 -176 115 -176q45 0 69.5 24t32.5 78l109 -8q-6 -53 -25.5 -88.5t-49 -57t-66 -31t-75.5 -9.5q-64 0 -109.5 20t-74 55
t-42 83.5t-13.5 104.5q0 131 66.5 202.5t184.5 71.5q53 0 91.5 -15.5t63.5 -41.5t38 -61.5t15 -75.5z" />
    <glyph glyph-name="Cdotaccent" unicode="&#x10a;" horiz-adv-x="648" 
d="M293 903h124v-117h-124v117zM343 93q63 0 97 41t39 115l125 -9q-6 -67 -27 -114.5t-55.5 -78t-81.5 -45t-104 -14.5q-141 0 -215 92t-74 278q0 99 23 172t64 121t98.5 71.5t125.5 23.5q61 0 108 -19t78.5 -53.5t48 -83.5t15.5 -110l-126 -10q0 49 -10 82t-28 53
t-42.5 28.5t-52.5 8.5q-34 0 -63.5 -14.5t-52 -47.5t-35.5 -86.5t-13 -131.5q0 -141 40.5 -205t117.5 -64z" />
    <glyph glyph-name="cdotaccent" unicode="&#x10b;" horiz-adv-x="520" 
d="M383 322q-5 60 -32.5 86t-69.5 26q-26 0 -47.5 -9.5t-37 -31t-24 -55.5t-8.5 -82q0 -176 115 -176q45 0 69.5 24t32.5 78l109 -8q-6 -53 -25.5 -88.5t-49 -57t-66 -31t-75.5 -9.5q-64 0 -109.5 20t-74 55t-42 83.5t-13.5 104.5q0 131 66.5 202.5t184.5 71.5
q53 0 91.5 -15.5t63.5 -41.5t38 -61.5t15 -75.5zM216 734h124v-117h-124v117z" />
    <glyph glyph-name="Ccaron" unicode="&#x10c;" horiz-adv-x="648" 
d="M343 93q63 0 97 41t39 115l125 -9q-6 -67 -27 -114.5t-55.5 -78t-81.5 -45t-104 -14.5q-141 0 -215 92t-74 278q0 99 23 172t64 121t98.5 71.5t125.5 23.5q61 0 108 -19t78.5 -53.5t48 -83.5t15.5 -110l-126 -10q0 49 -10 82t-28 53t-42.5 28.5t-52.5 8.5
q-34 0 -63.5 -14.5t-52 -47.5t-35.5 -86.5t-13 -131.5q0 -141 40.5 -205t117.5 -64zM318 774l-120 113l36 46l119 -75l118 75l36 -46l-121 -113h-68z" />
    <glyph glyph-name="ccaron" unicode="&#x10d;" horiz-adv-x="520" 
d="M243 576l-119 142l45 40l108 -96l108 96l45 -40l-119 -142h-68zM383 322q-5 60 -32.5 86t-69.5 26q-26 0 -47.5 -9.5t-37 -31t-24 -55.5t-8.5 -82q0 -176 115 -176q45 0 69.5 24t32.5 78l109 -8q-6 -53 -25.5 -88.5t-49 -57t-66 -31t-75.5 -9.5q-64 0 -109.5 20t-74 55
t-42 83.5t-13.5 104.5q0 131 66.5 202.5t184.5 71.5q53 0 91.5 -15.5t63.5 -41.5t38 -61.5t15 -75.5z" />
    <glyph glyph-name="Dcaron" unicode="&#x10e;" horiz-adv-x="670" 
d="M279 767l-120 113l36 46l119 -75l118 75l36 -46l-121 -113h-68zM85 0v734h155q106 0 179 -22t118.5 -66.5t66 -112t20.5 -157.5q0 -96 -20.5 -167t-66.5 -117.5t-119.5 -69t-179.5 -22.5h-153zM257 106q60 0 104 13.5t72.5 44.5t42.5 82t14 125q0 69 -12.5 118t-40 80
t-71 45.5t-106.5 14.5h-45v-523h42z" />
    <glyph glyph-name="dcaron" unicode="&#x10f;" horiz-adv-x="625" 
d="M650 734l-32 -197l-61 3l-3 194h96zM508 734v-734h-106l-12 68h-2q-19 -36 -57.5 -58t-88.5 -22q-45 0 -83 14t-65.5 45t-42.5 80t-15 120q0 136 57 207t157 71q51 0 82.5 -18t51.5 -46v273h124zM389 259q0 51 -8 86t-22.5 56.5t-34.5 30.5t-45 9q-54 0 -83.5 -45
t-29.5 -149q0 -96 28 -136t79 -40q56 0 86 45.5t30 142.5z" />
    <glyph glyph-name="Dcroat" unicode="&#x110;" horiz-adv-x="677" 
d="M91 0v318h-68v100h68v316h155q106 0 179 -22t118.5 -66.5t66 -112t20.5 -157.5q0 -96 -20.5 -167t-66.5 -117.5t-119.5 -69t-179.5 -22.5h-153zM263 106q60 0 104 13.5t72.5 44.5t42.5 82t14 125q0 69 -12.5 118t-40 80t-71 45.5t-106.5 14.5h-45v-211h174v-100h-174
v-212h42z" />
    <glyph glyph-name="dcroat" unicode="&#x111;" horiz-adv-x="566" 
d="M508 734v-67h56v-82h-56v-585h-106l-12 68h-2q-19 -36 -57.5 -58t-88.5 -22q-45 0 -83 14t-65.5 45t-42.5 80t-15 120q0 136 57 207t157 71q51 0 82.5 -18t51.5 -46v124h-187v82h187v67h124zM389 259q0 51 -8 86t-22.5 56.5t-34.5 30.5t-45 9q-54 0 -83.5 -45t-29.5 -149
q0 -96 28 -136t79 -40q56 0 86 45.5t30 142.5z" />
    <glyph glyph-name="Emacron" unicode="&#x112;" horiz-adv-x="565" 
d="M154 878h276v-83h-276v83zM468 325h-253v-219h306v-106h-436v734h416v-105h-286v-201h253v-103z" />
    <glyph glyph-name="emacron" unicode="&#x113;" horiz-adv-x="534" 
d="M492 163q-9 -54 -31.5 -88t-52.5 -53.5t-64.5 -26.5t-67.5 -7q-65 0 -110.5 20t-74.5 55t-42.5 83t-13.5 105q0 63 17 114t49 86.5t79 54.5t106 19q105 0 158.5 -62t53.5 -175q0 -13 -0.5 -28t-2.5 -29h-332q0 -33 6.5 -60.5t20 -48t35.5 -31.5t55 -11q43 0 71 21.5
t36 72.5zM377 315q2 60 -22.5 93t-77.5 33q-29 0 -49.5 -10.5t-34.5 -27.5t-21 -40t-8 -48h213zM137 696h276v-81h-276v81z" />
    <glyph glyph-name="Ebreve" unicode="&#x114;" horiz-adv-x="565" 
d="M206 919q13 -38 32.5 -55t52.5 -17q36 0 56.5 16t36.5 56l62 -13q-29 -140 -156 -140q-61 0 -99 33.5t-50 106.5zM468 325h-253v-219h306v-106h-436v734h416v-105h-286v-201h253v-103z" />
    <glyph glyph-name="ebreve" unicode="&#x115;" horiz-adv-x="534" 
d="M492 163q-9 -54 -31.5 -88t-52.5 -53.5t-64.5 -26.5t-67.5 -7q-65 0 -110.5 20t-74.5 55t-42.5 83t-13.5 105q0 63 17 114t49 86.5t79 54.5t106 19q105 0 158.5 -62t53.5 -175q0 -13 -0.5 -28t-2.5 -29h-332q0 -33 6.5 -60.5t20 -48t35.5 -31.5t55 -11q43 0 71 21.5
t36 72.5zM377 315q2 60 -22.5 93t-77.5 33q-29 0 -49.5 -10.5t-34.5 -27.5t-21 -40t-8 -48h213zM193 738q14 -81 82 -81q37 0 58 19.5t32 61.5l62 -8q-23 -153 -153 -153q-64 0 -101 38t-45 115z" />
    <glyph glyph-name="Edotaccent" unicode="&#x116;" horiz-adv-x="565" 
d="M234 903h124v-117h-124v117zM468 325h-253v-219h306v-106h-436v734h416v-105h-286v-201h253v-103z" />
    <glyph glyph-name="edotaccent" unicode="&#x117;" horiz-adv-x="534" 
d="M492 163q-9 -54 -31.5 -88t-52.5 -53.5t-64.5 -26.5t-67.5 -7q-65 0 -110.5 20t-74.5 55t-42.5 83t-13.5 105q0 63 17 114t49 86.5t79 54.5t106 19q105 0 158.5 -62t53.5 -175q0 -13 -0.5 -28t-2.5 -29h-332q0 -33 6.5 -60.5t20 -48t35.5 -31.5t55 -11q43 0 71 21.5
t36 72.5zM377 315q2 60 -22.5 93t-77.5 33q-29 0 -49.5 -10.5t-34.5 -27.5t-21 -40t-8 -48h213zM215 734h124v-117h-124v117z" />
    <glyph glyph-name="Eogonek" unicode="&#x118;" horiz-adv-x="565" 
d="M468 325h-253v-219h306v-106h-53q-27 -21 -46.5 -46.5t-19.5 -48.5q0 -14 8 -19.5t19 -5.5q15 0 25.5 10t19.5 24l47 -30q-21 -37 -54 -58t-76 -21q-36 0 -59 16t-23 50q0 35 25 68.5t60 60.5h-309v734h416v-105h-286v-201h253v-103z" />
    <glyph glyph-name="eogonek" unicode="&#x119;" horiz-adv-x="534" 
d="M492 163q-4 -26 -11.5 -46.5t-17.5 -37t-21.5 -30t-23.5 -25.5q-36 -35 -57 -65.5t-21 -53.5q0 -14 7.5 -19.5t18.5 -5.5q15 0 26 9.5t20 24.5l47 -30q-21 -37 -55 -58t-76 -21q-36 0 -58.5 16t-22.5 51q0 56 73 119q-23 -3 -44 -3q-65 0 -110.5 20t-74.5 55t-42.5 83
t-13.5 105q0 63 17 114t49 86.5t79 54.5t106 19q105 0 158.5 -62t53.5 -175q0 -13 -0.5 -28t-2.5 -29h-332q0 -33 6.5 -60.5t20 -48t35.5 -31.5t55 -11q43 0 71 21.5t36 72.5zM377 315q2 60 -22.5 93t-77.5 33q-29 0 -49.5 -10.5t-34.5 -27.5t-21 -40t-8 -48h213z" />
    <glyph glyph-name="Ecaron" unicode="&#x11a;" horiz-adv-x="565" 
d="M255 767l-120 113l36 46l119 -75l118 75l36 -46l-121 -113h-68zM468 325h-253v-219h306v-106h-436v734h416v-105h-286v-201h253v-103z" />
    <glyph glyph-name="ecaron" unicode="&#x11b;" horiz-adv-x="534" 
d="M243 576l-119 142l45 40l108 -96l108 96l45 -40l-119 -142h-68zM492 163q-9 -54 -31.5 -88t-52.5 -53.5t-64.5 -26.5t-67.5 -7q-65 0 -110.5 20t-74.5 55t-42.5 83t-13.5 105q0 63 17 114t49 86.5t79 54.5t106 19q105 0 158.5 -62t53.5 -175q0 -13 -0.5 -28t-2.5 -29
h-332q0 -33 6.5 -60.5t20 -48t35.5 -31.5t55 -11q43 0 71 21.5t36 72.5zM377 315q2 60 -22.5 93t-77.5 33q-29 0 -49.5 -10.5t-34.5 -27.5t-21 -40t-8 -48h213z" />
    <glyph glyph-name="Gcircumflex" unicode="&#x11c;" horiz-adv-x="686" 
d="M357 368h259v-380h-87l-12 93q-30 -45 -78 -69t-108 -24q-136 0 -210 91t-74 271q0 104 23.5 179t65 123t99 71t126.5 23q118 0 182 -69t63 -197l-126 -10q0 50 -10.5 83t-28 53t-40.5 28t-50 8q-35 0 -65 -14.5t-52 -48t-35 -87.5t-13 -133q0 -142 43.5 -204.5
t120.5 -62.5q63 0 106 42.5t45 126.5v10h-144v97zM389 920l120 -116l-35 -44l-120 75l-117 -75l-35 44l120 116h67z" />
    <glyph glyph-name="gcircumflex" unicode="&#x11d;" horiz-adv-x="566" 
d="M314 747l120 -142l-45 -40l-110 95l-107 -95l-45 40l120 142h67zM508 513v-471q0 -116 -61.5 -176.5t-182.5 -60.5q-83 0 -137.5 34t-71.5 105l113 24q4 -15 10 -28t17 -22.5t28.5 -15.5t43.5 -6q60 0 88.5 32.5t28.5 105.5v49h-1q-16 -29 -52 -52t-96 -23
q-40 0 -76 12.5t-63.5 41t-43.5 75.5t-16 116t16 120t44.5 84.5t67.5 50.5t86 17q56 0 88.5 -18.5t50.5 -49.5h3l15 56h101zM388 262q0 97 -28.5 138.5t-79.5 41.5q-50 0 -82 -42t-32 -143q0 -47 7.5 -79t21 -51t33 -27t43.5 -8q58 0 87.5 40t29.5 130z" />
    <glyph glyph-name="Gbreve" unicode="&#x11e;" horiz-adv-x="686" 
d="M270 927q13 -38 32.5 -55t52.5 -17q36 0 56.5 16t36.5 56l62 -13q-29 -140 -156 -140q-61 0 -99 33.5t-50 106.5zM357 368h259v-380h-87l-12 93q-30 -45 -78 -69t-108 -24q-136 0 -210 91t-74 271q0 104 23.5 179t65 123t99 71t126.5 23q118 0 182 -69t63 -197l-126 -10
q0 50 -10.5 83t-28 53t-40.5 28t-50 8q-35 0 -65 -14.5t-52 -48t-35 -87.5t-13 -133q0 -142 43.5 -204.5t120.5 -62.5q63 0 106 42.5t45 126.5v10h-144v97z" />
    <glyph glyph-name="gbreve" unicode="&#x11f;" horiz-adv-x="566" 
d="M508 513v-471q0 -116 -61.5 -176.5t-182.5 -60.5q-83 0 -137.5 34t-71.5 105l113 24q4 -15 10 -28t17 -22.5t28.5 -15.5t43.5 -6q60 0 88.5 32.5t28.5 105.5v49h-1q-16 -29 -52 -52t-96 -23q-40 0 -76 12.5t-63.5 41t-43.5 75.5t-16 116t16 120t44.5 84.5t67.5 50.5
t86 17q56 0 88.5 -18.5t50.5 -49.5h3l15 56h101zM388 262q0 97 -28.5 138.5t-79.5 41.5q-50 0 -82 -42t-32 -143q0 -47 7.5 -79t21 -51t33 -27t43.5 -8q58 0 87.5 40t29.5 130zM196 738q14 -81 82 -81q37 0 58 19.5t32 61.5l62 -8q-23 -153 -153 -153q-64 0 -101 38t-45 115
z" />
    <glyph glyph-name="Gdotaccent" unicode="&#x120;" horiz-adv-x="686" 
d="M292 903h124v-117h-124v117zM357 368h259v-380h-87l-12 93q-30 -45 -78 -69t-108 -24q-136 0 -210 91t-74 271q0 104 23.5 179t65 123t99 71t126.5 23q118 0 182 -69t63 -197l-126 -10q0 50 -10.5 83t-28 53t-40.5 28t-50 8q-35 0 -65 -14.5t-52 -48t-35 -87.5t-13 -133
q0 -142 43.5 -204.5t120.5 -62.5q63 0 106 42.5t45 126.5v10h-144v97z" />
    <glyph glyph-name="gdotaccent" unicode="&#x121;" horiz-adv-x="566" 
d="M508 513v-471q0 -116 -61.5 -176.5t-182.5 -60.5q-83 0 -137.5 34t-71.5 105l113 24q4 -15 10 -28t17 -22.5t28.5 -15.5t43.5 -6q60 0 88.5 32.5t28.5 105.5v49h-1q-16 -29 -52 -52t-96 -23q-40 0 -76 12.5t-63.5 41t-43.5 75.5t-16 116t16 120t44.5 84.5t67.5 50.5
t86 17q56 0 88.5 -18.5t50.5 -49.5h3l15 56h101zM388 262q0 97 -28.5 138.5t-79.5 41.5q-50 0 -82 -42t-32 -143q0 -47 7.5 -79t21 -51t33 -27t43.5 -8q58 0 87.5 40t29.5 130zM217 734h124v-117h-124v117z" />
    <glyph glyph-name="Gcommaaccent" unicode="&#x122;" horiz-adv-x="686" 
d="M357 368h259v-380h-87l-12 93q-30 -45 -78 -69t-108 -24q-136 0 -210 91t-74 271q0 104 23.5 179t65 123t99 71t126.5 23q118 0 182 -69t63 -197l-126 -10q0 50 -10.5 83t-28 53t-40.5 28t-50 8q-35 0 -65 -14.5t-52 -48t-35 -87.5t-13 -133q0 -142 43.5 -204.5
t120.5 -62.5q63 0 106 42.5t45 126.5v10h-144v97zM283 -44h110v-90l-46 -120l-52 13l22 88h-34v109z" />
    <glyph glyph-name="gcommaaccent" unicode="&#x123;" horiz-adv-x="566" 
d="M335 577h-110v90l47 120l51 -13l-21 -88h33v-109zM508 513v-471q0 -116 -61.5 -176.5t-182.5 -60.5q-83 0 -137.5 34t-71.5 105l113 24q4 -15 10 -28t17 -22.5t28.5 -15.5t43.5 -6q60 0 88.5 32.5t28.5 105.5v49h-1q-16 -29 -52 -52t-96 -23q-40 0 -76 12.5t-63.5 41
t-43.5 75.5t-16 116t16 120t44.5 84.5t67.5 50.5t86 17q56 0 88.5 -18.5t50.5 -49.5h3l15 56h101zM388 262q0 97 -28.5 138.5t-79.5 41.5q-50 0 -82 -42t-32 -143q0 -47 7.5 -79t21 -51t33 -27t43.5 -8q58 0 87.5 40t29.5 130z" />
    <glyph glyph-name="Hcircumflex" unicode="&#x124;" horiz-adv-x="716" 
d="M631 0h-131v312h-284v-312h-131v734h131v-314h284v314h131v-734zM390 920l120 -116l-35 -44l-120 75l-117 -75l-35 44l120 116h67z" />
    <glyph glyph-name="hcircumflex" unicode="&#x125;" horiz-adv-x="571" 
d="M515 0h-125v302q0 25 -3.5 48.5t-13.5 41t-27.5 28t-45.5 10.5q-33 0 -55 -11.5t-35 -31t-18.5 -45.5t-5.5 -56v-286h-125v734h124v-290h2q10 15 23.5 30t32 26t43 18t56.5 7q81 0 127 -51.5t46 -164.5v-309zM163 915l120 -116l-35 -44l-120 75l-117 -75l-35 44l120 116
h67z" />
    <glyph glyph-name="Hbar" unicode="&#x126;" horiz-adv-x="736" 
d="M641 620h63v-93h-63v-527h-131v312h-284v-312h-131v527h-63v93h63v114h131v-114h284v114h131v-114zM510 420v107h-284v-107h284z" />
    <glyph glyph-name="hbar" unicode="&#x127;" horiz-adv-x="571" 
d="M515 0h-125v302q0 25 -3.5 48.5t-13.5 41t-27.5 28t-45.5 10.5q-33 0 -55 -11.5t-35 -31t-18.5 -45.5t-5.5 -56v-286h-125v585h-58v82h58v67h124v-67h191v-82h-191v-141h2q10 15 23.5 30t32 26t43 18t56.5 7q81 0 127 -51.5t46 -164.5v-309z" />
    <glyph glyph-name="Itilde" unicode="&#x128;" horiz-adv-x="386" 
d="M256 87h77v-87h-280v87h75v560h-75v87h280v-87h-77v-560zM43 788q11 57 34.5 82.5t53.5 25.5q19 0 36.5 -4.5t33 -10.5t30 -10.5t27.5 -4.5q11 0 20.5 8.5t15.5 31.5l53 -8q-11 -60 -34.5 -85t-52.5 -25q-21 0 -39 4.5t-33.5 10.5t-29.5 10.5t-27 4.5q-25 0 -34 -38z" />
    <glyph glyph-name="itilde" unicode="&#x129;" horiz-adv-x="246" 
d="M61 513h125v-513h-125v513zM-29 613q11 57 34.5 82.5t53.5 25.5q19 0 36.5 -4.5t33.5 -10.5t30 -10.5t27 -4.5q12 0 21 8.5t16 31.5l53 -8q-12 -60 -35.5 -85t-52.5 -25q-20 0 -38 4.5t-34 10.5t-30 10.5t-26 4.5q-25 0 -35 -38z" />
    <glyph glyph-name="Imacron" unicode="&#x12a;" horiz-adv-x="386" 
d="M256 87h77v-87h-280v87h75v560h-75v87h280v-87h-77v-560zM57 878h276v-83h-276v83z" />
    <glyph glyph-name="imacron" unicode="&#x12b;" horiz-adv-x="246" 
d="M61 513h125v-513h-125v513zM-14 696h276v-81h-276v81z" />
    <glyph glyph-name="Ibreve" unicode="&#x12c;" horiz-adv-x="386" 
d="M256 87h77v-87h-280v87h75v560h-75v87h280v-87h-77v-560zM110 919q13 -38 32.5 -55t52.5 -17q36 0 56.5 16t36.5 56l62 -13q-29 -140 -156 -140q-61 0 -99 33.5t-50 106.5z" />
    <glyph glyph-name="ibreve" unicode="&#x12d;" horiz-adv-x="246" 
d="M61 513h125v-513h-125v513zM42 738q14 -81 82 -81q37 0 58 19.5t32 61.5l62 -8q-23 -153 -153 -153q-64 0 -101 38t-45 115z" />
    <glyph glyph-name="Iogonek" unicode="&#x12e;" horiz-adv-x="386" 
d="M256 87h77v-87h-100q-23 -24 -38 -48t-15 -47q0 -14 7.5 -19.5t18.5 -5.5q15 0 25.5 9.5t20.5 24.5l46 -30q-20 -37 -54 -58t-76 -21q-36 0 -59 16t-23 51q0 31 21 63t59 65h-113v87h75v560h-75v87h280v-87h-77v-560z" />
    <glyph glyph-name="iogonek" unicode="&#x12f;" horiz-adv-x="246" 
d="M61 513h125v-513h-23q-23 -24 -38 -48t-15 -47q0 -14 7.5 -19.5t18.5 -5.5q15 0 25.5 9.5t20.5 24.5l46 -30q-20 -37 -54 -58t-76 -21q-36 0 -59 16t-23 51q0 31 21 63t59 65h-35v513zM61 734h125v-117h-125v117z" />
    <glyph glyph-name="Idotaccent" unicode="&#x130;" horiz-adv-x="386" 
d="M256 87h77v-87h-280v87h75v560h-75v87h280v-87h-77v-560zM133 903h124v-117h-124v117z" />
    <glyph glyph-name="idotaccent" horiz-adv-x="246" 
d="M61 734h125v-117h-125v117zM61 513h125v-513h-125v513z" />
    <glyph glyph-name="dotlessi" unicode="&#x131;" horiz-adv-x="246" 
d="M61 513h125v-513h-125v513z" />
    <glyph glyph-name="IJ" unicode="&#x132;" horiz-adv-x="936" 
d="M256 87h77v-87h-280v87h75v560h-75v87h280v-87h-77v-560zM532 234q2 -26 5.5 -51.5t14 -45t30 -31.5t52.5 -12q51 0 72.5 31t21.5 101v508h130v-516q0 -111 -57 -170.5t-170 -59.5q-219 0 -222 237z" />
    <glyph glyph-name="Jcircumflex" unicode="&#x134;" horiz-adv-x="550" 
d="M146 234q2 -26 5.5 -51.5t14 -45t30 -31.5t52.5 -12q51 0 72.5 31t21.5 101v508h130v-516q0 -111 -57 -170.5t-170 -59.5q-219 0 -222 237zM441 920l120 -116l-35 -44l-120 75l-117 -75l-35 44l120 116h67z" />
    <glyph glyph-name="jcircumflex" unicode="&#x135;" horiz-adv-x="245" 
d="M-66 -96q28 -7 59 -7q38 0 54 23t16 77v516h124v-504q0 -57 -12 -96t-34.5 -63t-55.5 -34.5t-76 -10.5q-24 0 -49 3.5t-39 7.5zM160 747l120 -142l-45 -40l-110 95l-107 -95l-45 40l120 142h67z" />
    <glyph glyph-name="Kcommaaccent" unicode="&#x136;" horiz-adv-x="662" 
d="M289 -44h110v-90l-46 -120l-52 13l22 88h-34v109zM216 403l276 331h145l-258 -305l278 -429h-151l-214 327l-76 -91v-236h-131v734h131v-331z" />
    <glyph glyph-name="kcommaaccent" unicode="&#x137;" horiz-adv-x="534" 
d="M216 -44h110v-90l-46 -120l-52 13l22 88h-34v109zM186 316l181 197h144l-172 -181l190 -332h-143l-134 243l-66 -68v-175h-125v734h125v-418z" />
    <glyph glyph-name="kgreenlandic" unicode="&#x138;" horiz-adv-x="534" 
d="M186 323l181 190h144l-172 -181l190 -332h-143l-134 241l-66 -70v-171h-125v513h125v-190z" />
    <glyph glyph-name="Lacute" unicode="&#x139;" horiz-adv-x="527" 
d="M273 846l-179 -84l-33 57l164 112zM216 106h273v-106h-404v734h131v-628z" />
    <glyph glyph-name="lacute" unicode="&#x13a;" horiz-adv-x="246" 
d="M244 846l-179 -84l-33 57l164 112zM186 0h-125v734h125v-734z" />
    <glyph glyph-name="Lcommaaccent" unicode="&#x13b;" horiz-adv-x="527" 
d="M232 -44h110v-90l-46 -120l-52 13l22 88h-34v109zM216 106h273v-106h-404v734h131v-628z" />
    <glyph glyph-name="lcommaaccent" unicode="&#x13c;" horiz-adv-x="246" 
d="M70 -44h110v-90l-46 -120l-52 13l22 88h-34v109zM186 0h-125v734h125v-734z" />
    <glyph glyph-name="Lcaron" unicode="&#x13d;" horiz-adv-x="527" 
d="M396 734l-32 -197l-61 3l-3 194h96zM216 106h273v-106h-404v734h131v-628z" />
    <glyph glyph-name="lcaron" unicode="&#x13e;" horiz-adv-x="303" 
d="M328 734l-32 -197l-61 3l-3 194h96zM186 0h-125v734h125v-734z" />
    <glyph glyph-name="Ldot" unicode="&#x13f;" horiz-adv-x="527" 
d="M324 480h124v-117h-124v117zM216 106h273v-106h-404v734h131v-628z" />
    <glyph glyph-name="ldot" unicode="&#x140;" horiz-adv-x="342" 
d="M186 0h-125v734h125v-734zM233 447h124v-117h-124v117z" />
    <glyph glyph-name="Lslash" unicode="&#x141;" horiz-adv-x="527" 
d="M216 449l144 65l22 -91l-166 -77v-240h273v-106h-404v295l-75 -33l-21 91l96 44v337h131v-285z" />
    <glyph glyph-name="lslash" unicode="&#x142;" horiz-adv-x="315" 
d="M222 464l68 32l25 -92l-93 -42v-362h-125v314l-68 -30l-23 91l91 42v317h125v-270z" />
    <glyph glyph-name="Nacute" unicode="&#x143;" horiz-adv-x="723" 
d="M495 846l-179 -84l-33 57l164 112zM491 0l-285 550v-550h-121v734h158l275 -550v550h120v-734h-147z" />
    <glyph glyph-name="nacute" unicode="&#x144;" horiz-adv-x="571" 
d="M415 696l-150 -131l-48 43l126 156zM515 0h-125v302q0 70 -22.5 99t-68.5 29q-33 0 -55 -12t-35 -31.5t-18 -46t-5 -54.5v-286h-125v513h114l5 -75h2q8 15 20.5 30t31.5 28t44.5 21t60.5 8q83 0 129.5 -50.5t46.5 -162.5v-312z" />
    <glyph glyph-name="Ncommaaccent" unicode="&#x145;" horiz-adv-x="723" 
d="M317 -44h110v-90l-46 -120l-52 13l22 88h-34v109zM492 0l-285 550v-550h-121v734h158l275 -550v550h120v-734h-147z" />
    <glyph glyph-name="ncommaaccent" unicode="&#x146;" horiz-adv-x="571" 
d="M231 -44h110v-90l-46 -120l-52 13l22 88h-34v109zM515 0h-125v302q0 70 -22.5 99t-68.5 29q-33 0 -55 -12t-35 -31.5t-18 -46t-5 -54.5v-286h-125v513h114l5 -75h2q8 15 20.5 30t31.5 28t44.5 21t60.5 8q83 0 129.5 -50.5t46.5 -162.5v-312z" />
    <glyph glyph-name="Ncaron" unicode="&#x147;" horiz-adv-x="723" 
d="M341 767l-120 113l36 46l119 -75l118 75l36 -46l-121 -113h-68zM491 0l-285 550v-550h-121v734h158l275 -550v550h120v-734h-147z" />
    <glyph glyph-name="ncaron" unicode="&#x148;" horiz-adv-x="571" 
d="M259 576l-119 142l45 40l108 -96l108 96l45 -40l-119 -142h-68zM515 0h-125v302q0 70 -22.5 99t-68.5 29q-33 0 -55 -12t-35 -31.5t-18 -46t-5 -54.5v-286h-125v513h114l5 -75h2q8 15 20.5 30t31.5 28t44.5 21t60.5 8q83 0 129.5 -50.5t46.5 -162.5v-312z" />
    <glyph glyph-name="napostrophe" unicode="&#x149;" horiz-adv-x="636" 
d="M99 613h-33l21 -88l-51 -12l-47 119v91h110v-110zM580 0h-125v302q0 70 -22.5 99t-68.5 29q-33 0 -55 -12t-35 -31.5t-18 -46t-5 -54.5v-286h-125v513h114l5 -75h2q8 15 20.5 30t31.5 28t44.5 21t60.5 8q83 0 129.5 -50.5t46.5 -162.5v-312z" />
    <glyph glyph-name="Eng" unicode="&#x14a;" horiz-adv-x="723" 
d="M304 -75q14 -5 39.5 -11.5t62.5 -6.5q59 0 80.5 29.5t22.5 86.5l-303 527v-550h-121v734h149l284 -500v500h120v-718q0 -101 -54 -156t-163 -55q-20 0 -40.5 2.5t-39 6t-33.5 8t-24 8.5z" />
    <glyph glyph-name="eng" unicode="&#x14b;" horiz-adv-x="571" 
d="M262 -96q28 -7 59 -7q38 0 53.5 23t15.5 77v305q0 70 -22.5 99t-68.5 29q-33 0 -55 -12t-35 -31.5t-18 -46t-5 -54.5v-286h-125v513h114l5 -75h2q8 15 20.5 30t31.5 28t44.5 21t60.5 8q83 0 129.5 -50.5t46.5 -162.5v-303q0 -57 -12 -96t-34.5 -63t-55.5 -34.5t-76 -10.5
q-24 0 -49 3.5t-39 7.5z" />
    <glyph glyph-name="Omacron" unicode="&#x14c;" horiz-adv-x="697" 
d="M221 878h276v-83h-276v83zM345 -12q-152 0 -225 98t-73 279q0 91 22 162t63 120t99 74.5t131 25.5q147 0 217.5 -97t70.5 -272q0 -187 -76 -288.5t-229 -101.5zM350 92q87 0 126.5 69.5t39.5 211.5q0 134 -37.5 201t-121.5 67t-129.5 -67.5t-45.5 -204.5t39.5 -207
t128.5 -70z" />
    <glyph glyph-name="omacron" unicode="&#x14d;" horiz-adv-x="562" 
d="M145 696h276v-81h-276v81zM277 -12q-121 0 -181.5 69.5t-60.5 198.5q0 66 20 116.5t54.5 84t80.5 51t99 17.5q112 0 175 -66t63 -193q0 -138 -66.5 -208t-183.5 -70zM282 78q62 0 89.5 50.5t27.5 131.5q0 80 -26.5 126.5t-88.5 46.5t-91 -48t-29 -128q0 -81 26.5 -130
t91.5 -49z" />
    <glyph glyph-name="Obreve" unicode="&#x14e;" horiz-adv-x="697" 
d="M274 927q13 -38 32.5 -55t52.5 -17q36 0 56.5 16t36.5 56l62 -13q-29 -140 -156 -140q-61 0 -99 33.5t-50 106.5zM345 -12q-152 0 -225 98t-73 279q0 91 22 162t63 120t99 74.5t131 25.5q147 0 217.5 -97t70.5 -272q0 -187 -76 -288.5t-229 -101.5zM350 92
q87 0 126.5 69.5t39.5 211.5q0 134 -37.5 201t-121.5 67t-129.5 -67.5t-45.5 -204.5t39.5 -207t128.5 -70z" />
    <glyph glyph-name="obreve" unicode="&#x14f;" horiz-adv-x="562" 
d="M277 -12q-121 0 -181.5 69.5t-60.5 198.5q0 66 20 116.5t54.5 84t80.5 51t99 17.5q112 0 175 -66t63 -193q0 -138 -66.5 -208t-183.5 -70zM282 78q62 0 89.5 50.5t27.5 131.5q0 80 -26.5 126.5t-88.5 46.5t-91 -48t-29 -128q0 -81 26.5 -130t91.5 -49zM201 738
q14 -81 82 -81q37 0 58 19.5t32 61.5l62 -8q-23 -153 -153 -153q-64 0 -101 38t-45 115z" />
    <glyph glyph-name="Ohungarumlaut" unicode="&#x150;" horiz-adv-x="697" 
d="M345 -12q-152 0 -225 98t-73 279q0 91 22 162t63 120t99 74.5t131 25.5q147 0 217.5 -97t70.5 -272q0 -187 -76 -288.5t-229 -101.5zM350 92q87 0 126.5 69.5t39.5 211.5q0 134 -37.5 201t-121.5 67t-129.5 -67.5t-45.5 -204.5t39.5 -207t128.5 -70zM577 857l-166 -93
l-33 46l149 115zM404 867l-154 -101l-35 44l133 125z" />
    <glyph glyph-name="ohungarumlaut" unicode="&#x151;" horiz-adv-x="562" 
d="M499 700l-146 -133l-42 37l123 151zM351 708l-132 -138l-44 33l106 158zM277 -12q-121 0 -181.5 69.5t-60.5 198.5q0 66 20 116.5t54.5 84t80.5 51t99 17.5q112 0 175 -66t63 -193q0 -138 -66.5 -208t-183.5 -70zM282 78q62 0 89.5 50.5t27.5 131.5q0 80 -26.5 126.5
t-88.5 46.5t-91 -48t-29 -128q0 -81 26.5 -130t91.5 -49z" />
    <glyph glyph-name="OE" unicode="&#x152;" horiz-adv-x="931" 
d="M834 325h-253v-219h306v-106h-461q-21 -5 -44 -8.5t-46 -3.5q-142 0 -215.5 97.5t-73.5 276.5q0 92 22 163.5t62 121t97 75t126 25.5q25 0 48.5 -3.5t44.5 -9.5h419v-105h-285v-201h253v-103zM350 92q24 0 51.5 4.5t49.5 13.5v510q-20 10 -45.5 15.5t-49.5 5.5
q-85 0 -129.5 -68t-44.5 -208q0 -134 40 -203.5t128 -69.5z" />
    <glyph glyph-name="oe" unicode="&#x153;" horiz-adv-x="893" 
d="M851 168q-8 -55 -30.5 -90t-52.5 -55t-65 -27.5t-68 -7.5q-62 0 -105.5 22t-72.5 66q-63 -88 -184 -88q-58 0 -102.5 18.5t-74.5 52.5t-45.5 82t-15.5 107q0 70 20 122t54 86.5t79.5 51.5t96.5 17q63 0 107 -23t73 -65q32 42 76.5 65t105.5 23q113 0 167 -77t39 -215
h-332q0 -33 6.5 -61.5t20.5 -48.5t36.5 -31.5t54.5 -11.5q43 0 71 22t36 75zM280 78q64 0 91.5 50t27.5 131t-26.5 127.5t-88.5 46.5q-63 0 -91.5 -48t-28.5 -132q0 -38 6 -70.5t20 -55.5t36 -36t54 -13zM735 310q3 63 -22 97t-77 34q-29 0 -50 -10.5t-35 -28t-21 -41.5
t-8 -51h213z" />
    <glyph glyph-name="Racute" unicode="&#x154;" horiz-adv-x="631" 
d="M309 305h-3h-91v-305h-130v734h255q67 0 113.5 -15.5t74.5 -43t40.5 -64.5t12.5 -80q0 -30 -5.5 -61.5t-21 -59.5t-43.5 -51t-73 -37l158 -322h-140zM295 404q38 0 66.5 5.5t48 19t29 36.5t9.5 58q0 55 -31.5 81.5t-102.5 26.5h-99v-227h80zM426 846l-179 -84l-33 57
l164 112z" />
    <glyph glyph-name="racute" unicode="&#x155;" horiz-adv-x="464" 
d="M377 696l-150 -131l-48 43l126 156zM325 323q7 60 -4.5 83t-43.5 23q-26 0 -43.5 -13t-28 -35.5t-15 -52.5t-4.5 -64v-264h-125v513h114l6 -74h1q8 17 20 32.5t29 27.5t39.5 19t51.5 7q68 0 102.5 -46.5t19.5 -148.5z" />
    <glyph glyph-name="Rcommaaccent" unicode="&#x156;" horiz-adv-x="631" 
d="M309 305h-3h-91v-305h-130v734h255q67 0 113.5 -15.5t74.5 -43t40.5 -64.5t12.5 -80q0 -30 -5.5 -61.5t-21 -59.5t-43.5 -51t-73 -37l158 -322h-140zM295 404q38 0 66.5 5.5t48 19t29 36.5t9.5 58q0 55 -31.5 81.5t-102.5 26.5h-99v-227h80zM269 -44h110v-90l-46 -120
l-52 13l22 88h-34v109z" />
    <glyph glyph-name="rcommaaccent" unicode="&#x157;" horiz-adv-x="464" 
d="M68 -44h110v-90l-46 -120l-52 13l22 88h-34v109zM325 323q7 60 -4.5 83t-43.5 23q-26 0 -43.5 -13t-28 -35.5t-15 -52.5t-4.5 -64v-264h-125v513h114l6 -74h1q8 17 20 32.5t29 27.5t39.5 19t51.5 7q68 0 102.5 -46.5t19.5 -148.5z" />
    <glyph glyph-name="Rcaron" unicode="&#x158;" horiz-adv-x="631" 
d="M272 767l-120 113l36 46l119 -75l118 75l36 -46l-121 -113h-68zM309 305h-3h-91v-305h-130v734h255q67 0 113.5 -15.5t74.5 -43t40.5 -64.5t12.5 -80q0 -30 -5.5 -61.5t-21 -59.5t-43.5 -51t-73 -37l158 -322h-140zM295 404q38 0 66.5 5.5t48 19t29 36.5t9.5 58
q0 55 -31.5 81.5t-102.5 26.5h-99v-227h80z" />
    <glyph glyph-name="rcaron" unicode="&#x159;" horiz-adv-x="464" 
d="M221 576l-119 142l45 40l108 -96l108 96l45 -40l-119 -142h-68zM325 323q7 60 -4.5 83t-43.5 23q-26 0 -43.5 -13t-28 -35.5t-15 -52.5t-4.5 -64v-264h-125v513h114l6 -74h1q8 17 20 32.5t29 27.5t39.5 19t51.5 7q68 0 102.5 -46.5t19.5 -148.5z" />
    <glyph glyph-name="Sacute" unicode="&#x15a;" horiz-adv-x="604" 
d="M430 511q-8 66 -39 99.5t-90 33.5q-54 0 -83 -24.5t-29 -72.5q0 -27 10.5 -45t28 -30.5t41 -20.5t50.5 -15q40 -10 83.5 -21.5t79.5 -34t59 -60t23 -99.5q0 -56 -19.5 -99.5t-54.5 -73t-82.5 -45t-103.5 -15.5q-125 0 -194 53.5t-82 173.5l132 19q4 -32 12.5 -58t25 -44
t43 -28t66.5 -10q63 0 93.5 29t30.5 77q0 29 -12 48.5t-32 33t-46 22t-55 15.5q-40 10 -81.5 22t-75.5 34.5t-55.5 60t-21.5 98.5q0 50 18.5 89.5t52.5 67.5t80.5 42.5t102.5 14.5q112 0 175 -55t76 -160zM437 846l-179 -84l-33 57l164 112z" />
    <glyph glyph-name="sacute" unicode="&#x15b;" horiz-adv-x="487" 
d="M371 696l-150 -131l-48 43l126 156zM339 357q-6 40 -26.5 61t-63.5 21q-38 0 -60.5 -13.5t-22.5 -43.5q0 -28 21.5 -41t53.5 -21t69 -15t69 -23t53.5 -45t21.5 -81q0 -41 -17.5 -72.5t-47 -52.5t-69 -32t-82.5 -11q-95 0 -146.5 37.5t-64.5 119.5l112 16q3 -20 9.5 -36.5
t17.5 -27.5t29 -17t45 -6q48 0 70 18.5t22 46.5q0 30 -21 44t-53 22t-68.5 15.5t-68.5 22.5t-53 43t-21 79q0 39 16 69t43.5 50.5t64.5 30.5t79 10q90 0 136.5 -36.5t60.5 -108.5z" />
    <glyph glyph-name="Scircumflex" unicode="&#x15c;" horiz-adv-x="604" 
d="M430 511q-8 66 -39 99.5t-90 33.5q-54 0 -83 -24.5t-29 -72.5q0 -27 10.5 -45t28 -30.5t41 -20.5t50.5 -15q40 -10 83.5 -21.5t79.5 -34t59 -60t23 -99.5q0 -56 -19.5 -99.5t-54.5 -73t-82.5 -45t-103.5 -15.5q-125 0 -194 53.5t-82 173.5l132 19q4 -32 12.5 -58t25 -44
t43 -28t66.5 -10q63 0 93.5 29t30.5 77q0 29 -12 48.5t-32 33t-46 22t-55 15.5q-40 10 -81.5 22t-75.5 34.5t-55.5 60t-21.5 98.5q0 50 18.5 89.5t52.5 67.5t80.5 42.5t102.5 14.5q112 0 175 -55t76 -160zM352 920l120 -116l-35 -44l-120 75l-117 -75l-35 44l120 116h67z
" />
    <glyph glyph-name="scircumflex" unicode="&#x15d;" horiz-adv-x="487" 
d="M283 747l120 -142l-45 -40l-110 95l-107 -95l-45 40l120 142h67zM339 357q-6 40 -26.5 61t-63.5 21q-38 0 -60.5 -13.5t-22.5 -43.5q0 -28 21.5 -41t53.5 -21t69 -15t69 -23t53.5 -45t21.5 -81q0 -41 -17.5 -72.5t-47 -52.5t-69 -32t-82.5 -11q-95 0 -146.5 37.5
t-64.5 119.5l112 16q3 -20 9.5 -36.5t17.5 -27.5t29 -17t45 -6q48 0 70 18.5t22 46.5q0 30 -21 44t-53 22t-68.5 15.5t-68.5 22.5t-53 43t-21 79q0 39 16 69t43.5 50.5t64.5 30.5t79 10q90 0 136.5 -36.5t60.5 -108.5z" />
    <glyph glyph-name="Scedilla" unicode="&#x15e;" horiz-adv-x="604" 
d="M275 -11q-112 5 -173.5 59t-73.5 167l132 19q4 -32 12.5 -58t25 -44t43 -28t66.5 -10q63 0 93.5 29t30.5 77q0 29 -12 48.5t-32 33t-46 22t-55 15.5q-40 10 -81.5 22t-75.5 34.5t-55.5 60t-21.5 98.5q0 50 18.5 89.5t52.5 67.5t80.5 42.5t102.5 14.5q112 0 175 -55
t76 -160l-127 -22q-8 66 -39 99.5t-90 33.5q-54 0 -83 -24.5t-29 -72.5q0 -27 10.5 -45t28 -30.5t41 -20.5t50.5 -15q40 -10 83.5 -21.5t79.5 -34t59 -60t23 -99.5q0 -53 -17.5 -94t-48.5 -70.5t-73.5 -46.5t-93.5 -21l-17 -37q13 6 29 6q38 0 60 -23.5t22 -61.5
q0 -42 -30.5 -69.5t-82.5 -27.5q-29 0 -57 10t-54 38l39 42q30 -28 61 -28q39 0 39 36q0 19 -9.5 27.5t-25.5 8.5q-9 0 -16 -3t-13 -7l-32 15z" />
    <glyph glyph-name="scedilla" unicode="&#x15f;" horiz-adv-x="487" 
d="M207 -11q-80 6 -124.5 43.5t-55.5 112.5l112 16q3 -20 9.5 -36.5t17.5 -27.5t29 -17t45 -6q48 0 70 18.5t22 46.5q0 30 -21 44t-53 22t-68.5 15.5t-68.5 22.5t-53 43t-21 79q0 39 16 69t43.5 50.5t64.5 30.5t79 10q90 0 136.5 -36.5t60.5 -108.5l-108 -23q-6 40 -26.5 61
t-63.5 21q-38 0 -60.5 -13.5t-22.5 -43.5q0 -28 21.5 -41t53.5 -21t69 -15t69 -23t53.5 -45t21.5 -81q0 -38 -15 -67.5t-41 -50.5t-61 -33.5t-74 -15.5l-17 -37q13 6 29 6q38 0 60 -23.5t22 -61.5q0 -42 -30.5 -69.5t-82.5 -27.5q-29 0 -57 10t-54 38l39 42q30 -28 61 -28
q39 0 39 36q0 19 -9.5 27.5t-25.5 8.5q-9 0 -16 -3t-13 -7l-32 15z" />
    <glyph glyph-name="Scaron" unicode="&#x160;" horiz-adv-x="604" 
d="M430 511q-8 66 -39 99.5t-90 33.5q-54 0 -83 -24.5t-29 -72.5q0 -27 10.5 -45t28 -30.5t41 -20.5t50.5 -15q40 -10 83.5 -21.5t79.5 -34t59 -60t23 -99.5q0 -56 -19.5 -99.5t-54.5 -73t-82.5 -45t-103.5 -15.5q-125 0 -194 53.5t-82 173.5l132 19q4 -32 12.5 -58t25 -44
t43 -28t66.5 -10q63 0 93.5 29t30.5 77q0 29 -12 48.5t-32 33t-46 22t-55 15.5q-40 10 -81.5 22t-75.5 34.5t-55.5 60t-21.5 98.5q0 50 18.5 89.5t52.5 67.5t80.5 42.5t102.5 14.5q112 0 175 -55t76 -160zM281 774l-120 113l36 46l119 -75l118 75l36 -46l-121 -113h-68z" />
    <glyph glyph-name="scaron" unicode="&#x161;" horiz-adv-x="487" 
d="M215 576l-119 142l45 40l108 -96l108 96l45 -40l-119 -142h-68zM339 357q-6 40 -26.5 61t-63.5 21q-38 0 -60.5 -13.5t-22.5 -43.5q0 -28 21.5 -41t53.5 -21t69 -15t69 -23t53.5 -45t21.5 -81q0 -41 -17.5 -72.5t-47 -52.5t-69 -32t-82.5 -11q-95 0 -146.5 37.5
t-64.5 119.5l112 16q3 -20 9.5 -36.5t17.5 -27.5t29 -17t45 -6q48 0 70 18.5t22 46.5q0 30 -21 44t-53 22t-68.5 15.5t-68.5 22.5t-53 43t-21 79q0 39 16 69t43.5 50.5t64.5 30.5t79 10q90 0 136.5 -36.5t60.5 -108.5z" />
    <glyph glyph-name="Scommaaccent" unicode="&#x218;" horiz-adv-x="604" 
d="M430 511q-8 66 -39 99.5t-90 33.5q-54 0 -83 -24.5t-29 -72.5q0 -27 10.5 -45t28 -30.5t41 -20.5t50.5 -15q40 -10 83.5 -21.5t79.5 -34t59 -60t23 -99.5q0 -56 -19.5 -99.5t-54.5 -73t-82.5 -45t-103.5 -15.5q-125 0 -194 53.5t-82 173.5l132 19q4 -32 12.5 -58t25 -44
t43 -28t66.5 -10q63 0 93.5 29t30.5 77q0 29 -12 48.5t-32 33t-46 22t-55 15.5q-40 10 -81.5 22t-75.5 34.5t-55.5 60t-21.5 98.5q0 50 18.5 89.5t52.5 67.5t80.5 42.5t102.5 14.5q112 0 175 -55t76 -160zM256 -44h110v-90l-46 -120l-52 13l22 88h-34v109z" />
    <glyph glyph-name="scommaaccent" unicode="&#x219;" horiz-adv-x="487" 
d="M189 -44h110v-90l-46 -120l-52 13l22 88h-34v109zM339 357q-6 40 -26.5 61t-63.5 21q-38 0 -60.5 -13.5t-22.5 -43.5q0 -28 21.5 -41t53.5 -21t69 -15t69 -23t53.5 -45t21.5 -81q0 -41 -17.5 -72.5t-47 -52.5t-69 -32t-82.5 -11q-95 0 -146.5 37.5t-64.5 119.5l112 16
q3 -20 9.5 -36.5t17.5 -27.5t29 -17t45 -6q48 0 70 18.5t22 46.5q0 30 -21 44t-53 22t-68.5 15.5t-68.5 22.5t-53 43t-21 79q0 39 16 69t43.5 50.5t64.5 30.5t79 10q90 0 136.5 -36.5t60.5 -108.5z" />
    <glyph glyph-name="uni0162" unicode="&#x162;" horiz-adv-x="555" 
d="M212 629h-201v105h534v-105h-202v-629h-41l-23 -48q13 6 29 6q38 0 60 -23.5t22 -61.5q0 -42 -30.5 -69.5t-82.5 -27.5q-29 0 -57 10t-54 38l39 42q30 -28 61 -28q39 0 39 36q0 19 -9.5 27.5t-25.5 8.5q-9 0 -16 -3t-13 -7l-32 15l36 85h-33v629z" />
    <glyph glyph-name="uni0163" unicode="&#x163;" horiz-adv-x="361" 
d="M179 -4q-51 14 -74.5 56t-23.5 114v260h-62v87h62v108l124 37v-145h117v-87h-117v-245q0 -54 14.5 -77t55.5 -23q29 0 59 9l12 -86q-17 -7 -43.5 -11.5t-58.5 -4.5h-12l-17 -36q13 6 29 6q38 0 60 -23.5t22 -61.5q0 -42 -30.5 -69.5t-82.5 -27.5q-29 0 -57 10t-54 38
l39 42q30 -28 61 -28q39 0 39 36q0 19 -9.5 27.5t-25.5 8.5q-9 0 -16 -3t-13 -7l-32 15z" />
    <glyph glyph-name="Tcaron" unicode="&#x164;" horiz-adv-x="555" 
d="M242 767l-120 113l36 46l119 -75l118 75l36 -46l-121 -113h-68zM212 629h-201v105h534v-105h-202v-629h-131v629z" />
    <glyph glyph-name="tcaron" unicode="&#x165;" horiz-adv-x="361" 
d="M343 757l-32 -197l-61 3l-3 194h96zM19 513h62v108l124 37v-145h117v-87h-117v-245q0 -54 14.5 -77t55.5 -23q29 0 59 9l12 -86q-17 -7 -43.5 -11.5t-58.5 -4.5q-85 0 -124 43t-39 135v260h-62v87z" />
    <glyph glyph-name="Tbar" unicode="&#x166;" horiz-adv-x="555" 
d="M212 331h-154v95h154v203h-201v105h534v-105h-202v-203h154v-95h-154v-331h-131v331z" />
    <glyph glyph-name="tbar" unicode="&#x167;" horiz-adv-x="361" 
d="M19 513h62v108l124 37v-145h117v-87h-117v-75h117v-81h-117v-89q0 -54 14.5 -77t55.5 -23q29 0 59 9l12 -86q-17 -7 -43.5 -11.5t-58.5 -4.5q-85 0 -124 43t-39 135v104h-62v81h62v75h-62v87z" />
    <glyph glyph-name="uni021A" unicode="&#x21a;" horiz-adv-x="555" 
d="M212 629h-201v105h534v-105h-202v-629h-131v629zM220 -44h110v-90l-46 -120l-52 13l22 88h-34v109z" />
    <glyph glyph-name="uni021B" unicode="&#x21b;" horiz-adv-x="361" 
d="M162 -44h110v-90l-46 -120l-52 13l22 88h-34v109zM19 513h62v108l124 37v-145h117v-87h-117v-245q0 -54 14.5 -77t55.5 -23q29 0 59 9l12 -86q-17 -7 -43.5 -11.5t-58.5 -4.5q-85 0 -124 43t-39 135v260h-62v87z" />
    <glyph glyph-name="Utilde" unicode="&#x168;" horiz-adv-x="711" 
d="M200 788q11 57 34.5 82.5t53.5 25.5q19 0 36.5 -4.5t33 -10.5t30 -10.5t27.5 -4.5q11 0 20.5 8.5t15.5 31.5l53 -8q-11 -60 -34.5 -85t-52.5 -25q-21 0 -39 4.5t-33.5 10.5t-29.5 10.5t-27 4.5q-25 0 -34 -38zM505 734h128v-474q0 -131 -70 -201.5t-212 -70.5
q-75 0 -127 19t-84.5 54.5t-47 86.5t-14.5 116v470h128v-439q0 -101 33 -151.5t117 -50.5q83 0 116 48.5t33 152.5v440z" />
    <glyph glyph-name="utilde" unicode="&#x169;" horiz-adv-x="562" 
d="M56 513h125v-304q0 -66 21 -96t66 -30q32 0 53 13t33.5 34.5t17.5 50t5 59.5v273h125v-513h-113l-6 76h-1q-9 -14 -21 -29.5t-30.5 -28.5t-44 -21.5t-59.5 -8.5q-82 0 -126.5 51.5t-44.5 163.5v310zM125 613q11 57 34.5 82.5t53.5 25.5q19 0 36.5 -4.5t33.5 -10.5
t30 -10.5t27 -4.5q12 0 21 8.5t16 31.5l53 -8q-12 -60 -35.5 -85t-52.5 -25q-20 0 -38 4.5t-34 10.5t-30 10.5t-26 4.5q-25 0 -35 -38z" />
    <glyph glyph-name="Umacron" unicode="&#x16a;" horiz-adv-x="711" 
d="M214 878h276v-83h-276v83zM505 734h128v-474q0 -131 -70 -201.5t-212 -70.5q-75 0 -127 19t-84.5 54.5t-47 86.5t-14.5 116v470h128v-439q0 -101 33 -151.5t117 -50.5q83 0 116 48.5t33 152.5v440z" />
    <glyph glyph-name="umacron" unicode="&#x16b;" horiz-adv-x="562" 
d="M56 513h125v-304q0 -66 21 -96t66 -30q32 0 53 13t33.5 34.5t17.5 50t5 59.5v273h125v-513h-113l-6 76h-1q-9 -14 -21 -29.5t-30.5 -28.5t-44 -21.5t-59.5 -8.5q-82 0 -126.5 51.5t-44.5 163.5v310zM140 696h276v-81h-276v81z" />
    <glyph glyph-name="Ubreve" unicode="&#x16c;" horiz-adv-x="711" 
d="M267 919q13 -38 32.5 -55t52.5 -17q36 0 56.5 16t36.5 56l62 -13q-29 -140 -156 -140q-61 0 -99 33.5t-50 106.5zM505 734h128v-474q0 -131 -70 -201.5t-212 -70.5q-75 0 -127 19t-84.5 54.5t-47 86.5t-14.5 116v470h128v-439q0 -101 33 -151.5t117 -50.5q83 0 116 48.5
t33 152.5v440z" />
    <glyph glyph-name="ubreve" unicode="&#x16d;" horiz-adv-x="562" 
d="M56 513h125v-304q0 -66 21 -96t66 -30q32 0 53 13t33.5 34.5t17.5 50t5 59.5v273h125v-513h-113l-6 76h-1q-9 -14 -21 -29.5t-30.5 -28.5t-44 -21.5t-59.5 -8.5q-82 0 -126.5 51.5t-44.5 163.5v310zM196 738q14 -81 82 -81q37 0 58 19.5t32 61.5l62 -8
q-23 -153 -153 -153q-64 0 -101 38t-45 115z" />
    <glyph glyph-name="Uring" unicode="&#x16e;" horiz-adv-x="711" 
d="M505 734h128v-474q0 -131 -70 -201.5t-212 -70.5q-75 0 -127 19t-84.5 54.5t-47 86.5t-14.5 116v470h128v-439q0 -101 33 -151.5t117 -50.5q83 0 116 48.5t33 152.5v440zM350 761q-57 0 -79.5 26t-22.5 67q0 42 30 68t76 26q52 0 79 -25t27 -66q0 -43 -27.5 -69.5
t-82.5 -26.5zM352 810q16 0 25 10t9 35t-9.5 34t-23.5 9q-16 0 -26.5 -9.5t-10.5 -34.5t9.5 -34.5t26.5 -9.5z" />
    <glyph glyph-name="uring" unicode="&#x16f;" horiz-adv-x="562" 
d="M276 573q-57 0 -79.5 26t-22.5 67q0 42 30 68t76 26q52 0 79 -25t27 -66q0 -43 -27.5 -69.5t-82.5 -26.5zM278 622q16 0 25 10t9 35t-9.5 34.5t-23.5 9.5q-16 0 -26.5 -10t-10.5 -35t9.5 -34.5t26.5 -9.5zM56 513h125v-304q0 -66 21 -96t66 -30q32 0 53 13t33.5 34.5
t17.5 50t5 59.5v273h125v-513h-113l-6 76h-1q-9 -14 -21 -29.5t-30.5 -28.5t-44 -21.5t-59.5 -8.5q-82 0 -126.5 51.5t-44.5 163.5v310z" />
    <glyph glyph-name="Uhungarumlaut" unicode="&#x170;" horiz-adv-x="711" 
d="M505 734h128v-474q0 -131 -70 -201.5t-212 -70.5q-75 0 -127 19t-84.5 54.5t-47 86.5t-14.5 116v470h128v-439q0 -101 33 -151.5t117 -50.5q83 0 116 48.5t33 152.5v440zM581 857l-166 -93l-33 46l149 115zM408 867l-154 -101l-35 44l133 125z" />
    <glyph glyph-name="uhungarumlaut" unicode="&#x171;" horiz-adv-x="562" 
d="M56 513h125v-304q0 -66 21 -96t66 -30q32 0 53 13t33.5 34.5t17.5 50t5 59.5v273h125v-513h-113l-6 76h-1q-9 -14 -21 -29.5t-30.5 -28.5t-44 -21.5t-59.5 -8.5q-82 0 -126.5 51.5t-44.5 163.5v310zM486 700l-146 -133l-42 37l123 151zM338 708l-132 -138l-44 33l106 158
z" />
    <glyph glyph-name="Uogonek" unicode="&#x172;" horiz-adv-x="711" 
d="M505 734h128v-474q0 -93 -34.5 -151t-99.5 -98q-36 -22 -57 -52t-21 -54q0 -15 7.5 -20t17.5 -5q16 0 27 9t20 25l46 -30q-21 -38 -54.5 -58.5t-75.5 -20.5q-36 0 -59 16t-23 51q0 59 76 119q-24 -3 -52 -3q-75 0 -127 19t-84.5 54.5t-47 86.5t-14.5 116v470h128v-439
q0 -101 33 -151.5t117 -50.5q83 0 116 48.5t33 152.5v440z" />
    <glyph glyph-name="uogonek" unicode="&#x173;" horiz-adv-x="562" 
d="M56 513h125v-304q0 -66 21 -96t66 -30q32 0 53 13t33.5 34.5t17.5 50t5 59.5v273h125v-513h-39q-23 -24 -38 -48t-15 -47q0 -14 7.5 -19.5t18.5 -5.5q15 0 25.5 9.5t20.5 24.5l46 -30q-20 -37 -54 -58t-76 -21q-36 0 -59 16t-23 51q0 32 17 63t56 65l-6 76h-1
q-9 -14 -21 -29.5t-30.5 -28.5t-44 -21.5t-59.5 -8.5q-82 0 -126.5 51.5t-44.5 163.5v310z" />
    <glyph glyph-name="Wcircumflex" unicode="&#x174;" horiz-adv-x="959" 
d="M609 0l-130 540h-4l-125 -540h-164l-174 734h134l122 -616h3l146 616h123l150 -616h3l124 616h129l-174 -734h-163zM514 920l120 -116l-35 -44l-120 75l-117 -75l-35 44l120 116h67z" />
    <glyph glyph-name="wcircumflex" unicode="&#x175;" horiz-adv-x="811" 
d="M443 747l120 -142l-45 -40l-110 95l-107 -95l-45 40l120 142h67zM165 0l-152 513h126l97 -389h2l102 389h139l103 -389h2l94 389h120l-148 -513h-139l-104 392h-1l-105 -392h-136z" />
    <glyph glyph-name="Wgrave" unicode="&#x1e80;" horiz-adv-x="959" 
d="M408 931l165 -112l-36 -57l-179 84zM609 0l-130 540h-4l-125 -540h-164l-174 734h134l122 -616h3l146 616h123l150 -616h3l124 616h129l-174 -734h-163z" />
    <glyph glyph-name="wgrave" unicode="&#x1e81;" horiz-adv-x="811" 
d="M165 0l-152 513h126l97 -389h2l102 389h139l103 -389h2l94 389h120l-148 -513h-139l-104 392h-1l-105 -392h-136zM366 763l126 -155l-49 -43l-150 130z" />
    <glyph glyph-name="Wacute" unicode="&#x1e82;" horiz-adv-x="959" 
d="M599 846l-179 -84l-33 57l164 112zM609 0l-130 540h-4l-125 -540h-164l-174 734h134l122 -616h3l146 616h123l150 -616h3l124 616h129l-174 -734h-163z" />
    <glyph glyph-name="wacute" unicode="&#x1e83;" horiz-adv-x="811" 
d="M521 696l-150 -131l-48 43l126 156zM165 0l-152 513h126l97 -389h2l102 389h139l103 -389h2l94 389h120l-148 -513h-139l-104 392h-1l-105 -392h-136z" />
    <glyph glyph-name="Wdieresis" unicode="&#x1e84;" horiz-adv-x="959" 
d="M516 888h100v-107h-100v107zM344 888h100v-107h-100v107zM609 0l-130 540h-4l-125 -540h-164l-174 734h134l122 -616h3l146 616h123l150 -616h3l124 616h129l-174 -734h-163z" />
    <glyph glyph-name="wdieresis" unicode="&#x1e85;" horiz-adv-x="811" 
d="M445 715h100v-107h-100v107zM273 715h100v-107h-100v107zM165 0l-152 513h126l97 -389h2l102 389h139l103 -389h2l94 389h120l-148 -513h-139l-104 392h-1l-105 -392h-136z" />
    <glyph glyph-name="Ygrave" unicode="&#x1ef2;" horiz-adv-x="601" 
d="M367 0h-129v275l-245 459h145l164 -333l171 333h136l-242 -454v-280zM229 931l165 -112l-36 -57l-179 84z" />
    <glyph glyph-name="ygrave" unicode="&#x1ef3;" horiz-adv-x="495" 
d="M309 3q-20 -56 -38.5 -94t-41 -61t-51.5 -33t-69 -10q-24 0 -49 4t-38 9l13 84q15 -4 27 -6.5t27 -2.5q35 0 56 23.5t40 79.5l3 9l-177 508h132l105 -378h3l109 378h128zM205 763l126 -155l-49 -43l-150 130z" />
    <glyph glyph-name="Ycircumflex" unicode="&#x176;" horiz-adv-x="601" 
d="M367 0h-129v275l-245 459h145l164 -333l171 333h136l-242 -454v-280zM336 920l120 -116l-35 -44l-120 75l-117 -75l-35 44l120 116h67z" />
    <glyph glyph-name="ycircumflex" unicode="&#x177;" horiz-adv-x="495" 
d="M309 3q-20 -56 -38.5 -94t-41 -61t-51.5 -33t-69 -10q-24 0 -49 4t-38 9l13 84q15 -4 27 -6.5t27 -2.5q35 0 56 23.5t40 79.5l3 9l-177 508h132l105 -378h3l109 378h128zM285 747l120 -142l-45 -40l-110 95l-107 -95l-45 40l120 142h67z" />
    <glyph glyph-name="Ydieresis" unicode="&#x178;" horiz-adv-x="601" 
d="M367 0h-129v275l-245 459h145l164 -333l171 333h136l-242 -454v-280zM338 888h100v-107h-100v107zM166 888h100v-107h-100v107z" />
    <glyph glyph-name="Zacute" unicode="&#x179;" horiz-adv-x="568" 
d="M38 734h489v-98l-345 -530h347v-106h-500v98l344 531h-335v105zM400 846l-179 -84l-33 57l164 112z" />
    <glyph glyph-name="zacute" unicode="&#x17a;" horiz-adv-x="459" 
d="M354 696l-150 -131l-48 43l126 156zM39 513h390v-90l-248 -324h251v-99h-402v91l249 325h-240v97z" />
    <glyph glyph-name="Zdotaccent" unicode="&#x17b;" horiz-adv-x="568" 
d="M219 903h124v-117h-124v117zM38 734h489v-98l-345 -530h347v-106h-500v98l344 531h-335v105z" />
    <glyph glyph-name="zdotaccent" unicode="&#x17c;" horiz-adv-x="459" 
d="M39 513h390v-90l-248 -324h251v-99h-402v91l249 325h-240v97zM173 734h124v-117h-124v117z" />
    <glyph glyph-name="Zcaron" unicode="&#x17d;" horiz-adv-x="568" 
d="M246 767l-120 113l36 46l119 -75l118 75l36 -46l-121 -113h-68zM38 734h489v-98l-345 -530h347v-106h-500v98l344 531h-335v105z" />
    <glyph glyph-name="zcaron" unicode="&#x17e;" horiz-adv-x="459" 
d="M199 576l-119 142l45 40l108 -96l108 96l45 -40l-119 -142h-68zM39 513h390v-90l-248 -324h251v-99h-402v91l249 325h-240v97z" />
    <glyph glyph-name="longs" unicode="&#x17f;" horiz-adv-x="298" 
d="M329 642q-16 5 -32.5 7.5t-32.5 2.5q-38 0 -54 -24.5t-16 -77.5v-550h-125v542q0 104 42 154t136 50q30 0 55.5 -4t39.5 -8z" />
    <glyph glyph-name="dotlessj" unicode="&#x237;" horiz-adv-x="245" 
d="M-66 -96q28 -7 59 -7q38 0 54 23t16 77v516h124v-504q0 -57 -12 -96t-34.5 -63t-55.5 -34.5t-76 -10.5q-24 0 -49 3.5t-39 7.5z" />
    <glyph glyph-name="circumflex" unicode="&#x2c6;" 
d="M284 747l120 -142l-45 -40l-110 95l-107 -95l-45 40l120 142h67z" />
    <glyph glyph-name="caron" unicode="&#x2c7;" 
d="M215 576l-119 142l45 40l108 -96l108 96l45 -40l-119 -142h-68z" />
    <glyph glyph-name="uni02C9" unicode="&#x2c9;" 
d="M112 696h276v-81h-276v81z" />
    <glyph glyph-name="breve" unicode="&#x2d8;" 
d="M168 738q14 -81 82 -81q37 0 58 19.5t32 61.5l62 -8q-23 -153 -153 -153q-64 0 -101 38t-45 115z" />
    <glyph glyph-name="dieresis" unicode="&#xa8;" 
d="M286 715h100v-107h-100v107zM114 715h100v-107h-100v107z" />
    <glyph glyph-name="macron" unicode="&#xaf;" 
d="M112 696h276v-81h-276v81z" />
    <glyph glyph-name="degree" unicode="&#xb0;" horiz-adv-x="308" 
d="M152 527q-53 0 -82.5 28.5t-29.5 79.5q0 27 9.5 47.5t25.5 34.5t37.5 21.5t44.5 7.5q50 0 80.5 -27.5t30.5 -78.5q0 -54 -32 -83.5t-84 -29.5zM154 577q22 0 37 14t15 46q0 33 -15.5 46t-35.5 13t-37.5 -13t-17.5 -47q0 -32 15.5 -45.5t38.5 -13.5z" />
    <glyph glyph-name="acute" unicode="&#xb4;" 
d="M371 696l-150 -131l-48 43l126 156z" />
    <glyph glyph-name="grave" unicode="`" 
d="M204 763l126 -155l-49 -43l-150 130z" />
    <glyph glyph-name="cedilla" unicode="&#xb8;" 
d="M234 0h57l-23 -48q13 6 29 6q38 0 60 -23.5t22 -61.5q0 -42 -30.5 -69.5t-82.5 -27.5q-29 0 -57 10t-54 38l39 42q30 -28 61 -28q39 0 39 36q0 19 -9.5 27.5t-25.5 8.5q-9 0 -16 -3t-13 -7l-32 15z" />
    <glyph glyph-name="dotaccent" unicode="&#x2d9;" 
d="M188 734h124v-117h-124v117z" />
    <glyph glyph-name="ring" unicode="&#x2da;" 
d="M248 573q-57 0 -79.5 26t-22.5 67q0 42 30 68t76 26q52 0 79 -25t27 -66q0 -43 -27.5 -69.5t-82.5 -26.5zM250 622q16 0 25 10t9 35t-9.5 34.5t-23.5 9.5q-16 0 -26.5 -10t-10.5 -35t9.5 -34.5t26.5 -9.5z" />
    <glyph glyph-name="ogonek" unicode="&#x2db;" 
d="M294 5q-24 -26 -41 -51.5t-17 -48.5q0 -14 7.5 -19.5t18.5 -5.5q15 0 25.5 9.5t20.5 24.5l46 -30q-20 -37 -54 -58t-76 -21q-36 0 -59 16t-23 51q0 33 24 67.5t68 70.5z" />
    <glyph glyph-name="tilde" unicode="&#x2dc;" 
d="M97 613q11 57 34.5 82.5t53.5 25.5q19 0 36.5 -4.5t33.5 -10.5t30 -10.5t27 -4.5q12 0 21 8.5t16 31.5l53 -8q-12 -60 -35.5 -85t-52.5 -25q-20 0 -38 4.5t-34 10.5t-30 10.5t-26 4.5q-25 0 -35 -38z" />
    <glyph glyph-name="hungarumlaut" unicode="&#x2dd;" 
d="M466 700l-146 -133l-42 37l123 151zM318 708l-132 -138l-44 33l106 158z" />
    <glyph glyph-name="perthousand" unicode="&#x2030;" horiz-adv-x="1046" 
d="M18 559q0 79 45 127t125 48q81 0 119 -46t38 -124q0 -82 -40.5 -129.5t-124.5 -47.5t-123 46t-39 126zM862 -10q-84 0 -122.5 46t-38.5 126t45 128t125 48q81 0 119 -46t38 -124q0 -82 -40.5 -130t-125.5 -48zM865 59q38 0 56.5 25.5t18.5 82.5q0 52 -17 77.5t-56 25.5
q-36 0 -57 -25t-21 -80q0 -106 76 -106zM182 455q38 0 56.5 25.5t18.5 82.5q0 52 -17 77.5t-55 25.5q-37 0 -57.5 -25t-20.5 -80q0 -52 18 -79t57 -27zM506 -10q-84 0 -122.5 46t-38.5 126t45 128t125 48q81 0 119 -46t38 -124q0 -82 -40.5 -130t-125.5 -48zM509 59
q38 0 56.5 25.5t18.5 82.5q0 52 -17 77.5t-55 25.5q-37 0 -57.5 -25t-20.5 -80q0 -52 18 -79t57 -27zM64 205l558 424l60 -69l-560 -426z" />
    <glyph glyph-name="percent" unicode="%" horiz-adv-x="871" 
d="M620 755l80 -45l-441 -728l-79 48zM668 -10q-93 0 -136 52.5t-43 144.5q0 45 13 82.5t37 64t59 41t79 14.5q89 0 131.5 -52.5t42.5 -142.5q0 -94 -45 -149t-138 -55zM671 60q44 0 64 31.5t20 100.5q0 65 -18.5 95t-63.5 30q-42 0 -65 -30.5t-23 -96.5q0 -65 20.5 -97.5
t65.5 -32.5zM199 336q-93 0 -136 52.5t-43 144.5q0 91 50 146t138 55q90 0 132.5 -52.5t42.5 -142.5q0 -94 -45.5 -148.5t-138.5 -54.5zM202 405q45 0 65 31.5t20 101.5q0 65 -19 94.5t-64 29.5q-42 0 -65 -30t-23 -96t20.5 -98.5t65.5 -32.5z" />
    <glyph glyph-name="fraction" unicode="&#x2044;" horiz-adv-x="195" 
d="M278 755l80 -45l-441 -728l-79 48z" />
    <glyph glyph-name="zerosuperior" unicode="&#x2070;" horiz-adv-x="473" 
d="M234 383q-97 0 -142.5 60.5t-45.5 172.5q0 114 52.5 175.5t145.5 61.5q95 0 139.5 -60t44.5 -169q0 -116 -48 -178.5t-146 -62.5zM237 460q47 0 68 37t21 124q0 81 -19.5 117.5t-65.5 36.5q-45 0 -69.5 -36.5t-24.5 -119.5q0 -81 20.5 -120t69.5 -39z" />
    <glyph glyph-name="onesuperior" unicode="&#xb9;" horiz-adv-x="279" 
d="M16 776q12 4 29.5 11.5t36 17.5t36 20.5t29.5 20.5h64v-456h-99v346q-11 -7 -32.5 -16.5t-42.5 -17.5z" />
    <glyph glyph-name="twosuperior" unicode="&#xb2;" horiz-adv-x="398" 
d="M346 467v-77h-295q-2 26 -1.5 44.5t4.5 38.5q5 28 22 51.5t39.5 44.5t47.5 40.5t46 39t34.5 39.5t13.5 43q0 26 -16.5 39t-41.5 13q-39 0 -48.5 -26t-2.5 -63l-92 -6q-8 34 -3.5 64t22.5 52.5t49.5 35.5t78.5 13q72 0 113 -32t41 -90q0 -34 -14 -60t-35.5 -48t-46.5 -41
t-47 -37t-37 -37t-17 -41h186z" />
    <glyph glyph-name="threesuperior" unicode="&#xb3;" horiz-adv-x="395" 
d="M137 656q56 2 83.5 17.5t27.5 55.5q0 29 -16.5 41.5t-42.5 12.5q-35 0 -47.5 -19.5t-4.5 -69.5l-92 -6q-8 34 -3 64t22.5 52.5t49 35.5t78.5 13q72 0 114 -28.5t42 -85.5q0 -48 -28 -73.5t-67 -36.5q52 -11 78 -40.5t26 -71.5q0 -66 -43.5 -100t-117.5 -34
q-87 0 -122.5 36.5t-38.5 104.5l95 5q4 -39 18 -57.5t50 -18.5q26 0 43 16t17 47q0 42 -29 56.5t-83 12.5z" />
    <glyph glyph-name="foursuperior" unicode="&#x2074;" horiz-adv-x="386" 
d="M212 543v200h-2l-111 -200h113zM309 543h54v-75h-54v-78h-97v78h-200v60l179 317h118v-302z" />
    <glyph glyph-name="fivesuperior" unicode="&#x2075;" horiz-adv-x="396" 
d="M197 619q-22 0 -38.5 -11t-26.5 -28l-81 8l18 257h267v-78h-188l-12 -113q14 17 38 27t53 10q57 0 94.5 -36.5t37.5 -111.5q0 -74 -40.5 -117t-126.5 -43q-44 0 -72.5 11t-45.5 30.5t-25 45t-11 54.5l96 5q4 -44 20.5 -60t45.5 -16q27 0 43.5 20t16.5 63q0 48 -18 65.5
t-45 17.5z" />
    <glyph glyph-name="sixsuperior" unicode="&#x2076;" horiz-adv-x="414" 
d="M225 783q-37 0 -57 -32t-24 -112q17 23 45 32.5t54 9.5q25 0 49 -8t43 -25t30 -43t11 -63q0 -82 -45 -120.5t-122 -38.5q-89 0 -127 49.5t-38 160.5q0 125 45.5 192.5t139.5 67.5q41 0 68.5 -10t43 -28t21.5 -42.5t4 -53.5l-92 -6q2 32 -8 51t-41 19zM211 615
q-32 0 -51.5 -19t-19.5 -56q0 -38 15.5 -62.5t54.5 -24.5q21 0 34 7.5t21 19.5t11 27t3 30q0 78 -68 78z" />
    <glyph glyph-name="sevensuperior" unicode="&#x2077;" horiz-adv-x="334" 
d="M79 390q2 122 37 213t93 164h-189v78h291v-54q-39 -48 -63.5 -95t-39 -96t-20.5 -100.5t-8 -109.5h-101z" />
    <glyph glyph-name="eightsuperior" unicode="&#x2078;" horiz-adv-x="426" 
d="M208 383q-46 0 -78.5 10t-52.5 27t-29.5 41t-9.5 52q0 46 22.5 77.5t72.5 46.5q-38 12 -56.5 38t-18.5 61q0 53 41.5 85t118.5 32q78 0 113.5 -31.5t35.5 -79.5q0 -36 -20 -63t-59 -40q52 -13 76 -43.5t24 -75.5q0 -30 -10 -55t-32 -43t-56 -28.5t-82 -10.5zM211 453
q40 0 59.5 20.5t19.5 55.5q0 33 -18 55t-58 22q-38 0 -58 -21t-20 -59q0 -32 16.5 -52.5t58.5 -20.5zM211 670q34 0 45.5 19t11.5 42t-11.5 41t-43.5 18t-44 -18.5t-12 -41.5q0 -26 11.5 -43t42.5 -17z" />
    <glyph glyph-name="ninesuperior" unicode="&#x2079;" horiz-adv-x="414" 
d="M199 454q74 0 79 142q-17 -22 -45 -31.5t-54 -9.5q-25 0 -49.5 7.5t-43.5 24t-30.5 43t-11.5 63.5q0 78 45.5 119t122.5 41q86 0 125 -49t39 -158q0 -127 -42 -195t-137 -68q-41 0 -69.5 10t-46.5 27.5t-26 42t-9 53.5l93 7q2 -36 15 -52.5t45 -16.5zM209 621
q31 0 50.5 19.5t19.5 57.5q0 37 -15 61t-55 24q-20 0 -33.5 -7.5t-21 -19.5t-10.5 -27t-3 -30q0 -78 68 -78z" />
    <glyph glyph-name="zeroinferior" unicode="&#x2080;" horiz-adv-x="473" 
d="M234 -136q-97 0 -142.5 60.5t-45.5 172.5q0 114 52.5 175.5t145.5 61.5q95 0 139.5 -60t44.5 -169q0 -116 -48 -178.5t-146 -62.5zM237 -59q47 0 68 37t21 124q0 81 -19.5 117.5t-65.5 36.5q-45 0 -69.5 -36.5t-24.5 -119.5q0 -81 20.5 -120t69.5 -39z" />
    <glyph glyph-name="oneinferior" unicode="&#x2081;" horiz-adv-x="279" 
d="M16 257q12 4 29.5 11.5t36 17.5t36 20.5t29.5 20.5h64v-456h-99v346q-11 -7 -32.5 -16.5t-42.5 -17.5z" />
    <glyph glyph-name="twoinferior" unicode="&#x2082;" horiz-adv-x="398" 
d="M346 -52v-77h-295q-2 26 -1.5 44.5t4.5 38.5q5 28 22 51.5t39.5 44.5t47.5 40.5t46 39t34.5 39.5t13.5 43q0 26 -16.5 39t-41.5 13q-39 0 -48.5 -26t-2.5 -63l-92 -6q-8 34 -3.5 64t22.5 52.5t49.5 35.5t78.5 13q72 0 113 -32t41 -90q0 -34 -14 -60t-35.5 -48t-46.5 -41
t-47 -37t-37 -37t-17 -41h186z" />
    <glyph glyph-name="threeinferior" unicode="&#x2083;" horiz-adv-x="395" 
d="M137 137q56 2 83.5 17.5t27.5 55.5q0 29 -16.5 41.5t-42.5 12.5q-35 0 -47.5 -19.5t-4.5 -69.5l-92 -6q-8 34 -3 64t22.5 52.5t49 35.5t78.5 13q72 0 114 -28.5t42 -85.5q0 -48 -28 -73.5t-67 -36.5q52 -11 78 -40.5t26 -71.5q0 -66 -43.5 -100t-117.5 -34
q-87 0 -122.5 36.5t-38.5 104.5l95 5q4 -39 18 -57.5t50 -18.5q26 0 43 16t17 47q0 42 -29 56.5t-83 12.5z" />
    <glyph glyph-name="fourinferior" unicode="&#x2084;" horiz-adv-x="386" 
d="M212 24v200h-2l-111 -200h113zM309 24h54v-75h-54v-78h-97v78h-200v60l179 317h118v-302z" />
    <glyph glyph-name="fiveinferior" unicode="&#x2085;" horiz-adv-x="396" 
d="M197 100q-22 0 -38.5 -11t-26.5 -28l-81 8l18 257h267v-78h-188l-12 -113q14 17 38 27t53 10q57 0 94.5 -36.5t37.5 -111.5q0 -74 -40.5 -117t-126.5 -43q-44 0 -72.5 11t-45.5 30.5t-25 45t-11 54.5l96 5q4 -44 20.5 -60t45.5 -16q27 0 43.5 20t16.5 63q0 48 -18 65.5
t-45 17.5z" />
    <glyph glyph-name="sixinferior" unicode="&#x2086;" horiz-adv-x="414" 
d="M225 264q-37 0 -57 -32t-24 -112q17 23 45 32.5t54 9.5q25 0 49 -8t43 -25t30 -43t11 -63q0 -82 -45 -120.5t-122 -38.5q-89 0 -127 49.5t-38 160.5q0 125 45.5 192.5t139.5 67.5q41 0 68.5 -10t43 -28t21.5 -42.5t4 -53.5l-92 -6q2 32 -8 51t-41 19zM211 96
q-32 0 -51.5 -19t-19.5 -56q0 -38 15.5 -62.5t54.5 -24.5q21 0 34 7.5t21 19.5t11 27t3 30q0 78 -68 78z" />
    <glyph glyph-name="seveninferior" unicode="&#x2087;" horiz-adv-x="334" 
d="M79 -129q2 122 37 213t93 164h-189v78h291v-54q-39 -48 -63.5 -95t-39 -96t-20.5 -100.5t-8 -109.5h-101z" />
    <glyph glyph-name="eightinferior" unicode="&#x2088;" horiz-adv-x="426" 
d="M208 -136q-46 0 -78.5 10t-52.5 27t-29.5 41t-9.5 52q0 46 22.5 77.5t72.5 46.5q-38 12 -56.5 38t-18.5 61q0 53 41.5 85t118.5 32q78 0 113.5 -31.5t35.5 -79.5q0 -36 -20 -63t-59 -40q52 -13 76 -43.5t24 -75.5q0 -30 -10 -55t-32 -43t-56 -28.5t-82 -10.5zM211 -66
q40 0 59.5 20.5t19.5 55.5q0 33 -18 55t-58 22q-38 0 -58 -21t-20 -59q0 -32 16.5 -52.5t58.5 -20.5zM211 151q34 0 45.5 19t11.5 42t-11.5 41t-43.5 18t-44 -18.5t-12 -41.5q0 -26 11.5 -43t42.5 -17z" />
    <glyph glyph-name="nineinferior" unicode="&#x2089;" horiz-adv-x="414" 
d="M199 -65q74 0 79 142q-17 -22 -45 -31.5t-54 -9.5q-25 0 -49.5 7.5t-43.5 24t-30.5 43t-11.5 63.5q0 78 45.5 119t122.5 41q86 0 125 -49t39 -158q0 -127 -42 -195t-137 -68q-41 0 -69.5 10t-46.5 27.5t-26 42t-9 53.5l93 7q2 -36 15 -52.5t45 -16.5zM209 102
q31 0 50.5 19.5t19.5 57.5q0 37 -15 61t-55 24q-20 0 -33.5 -7.5t-21 -19.5t-10.5 -27t-3 -30q0 -78 68 -78z" />
    <glyph glyph-name="zero.num" horiz-adv-x="473" 
d="M234 272q-97 0 -142.5 60.5t-45.5 172.5q0 114 52.5 175.5t145.5 61.5q95 0 139.5 -60t44.5 -169q0 -116 -48 -178.5t-146 -62.5zM237 349q47 0 68 37t21 124q0 81 -19.5 117.5t-65.5 36.5q-45 0 -69.5 -36.5t-24.5 -119.5q0 -81 20.5 -120t69.5 -39z" />
    <glyph glyph-name="one.num" horiz-adv-x="279" 
d="M16 665q12 4 29.5 11.5t36 17.5t36 20.5t29.5 20.5h64v-456h-99v346q-11 -7 -32.5 -16.5t-42.5 -17.5z" />
    <glyph glyph-name="two.num" horiz-adv-x="398" 
d="M346 356v-77h-295q-2 26 -1.5 44.5t4.5 38.5q5 28 22 51.5t39.5 44.5t47.5 40.5t46 39t34.5 39.5t13.5 43q0 26 -16.5 39t-41.5 13q-39 0 -48.5 -26t-2.5 -63l-92 -6q-8 34 -3.5 64t22.5 52.5t49.5 35.5t78.5 13q72 0 113 -32t41 -90q0 -34 -14 -60t-35.5 -48t-46.5 -41
t-47 -37t-37 -37t-17 -41h186z" />
    <glyph glyph-name="three.num" horiz-adv-x="395" 
d="M137 545q56 2 83.5 17.5t27.5 55.5q0 29 -16.5 41.5t-42.5 12.5q-35 0 -47.5 -19.5t-4.5 -69.5l-92 -6q-8 34 -3 64t22.5 52.5t49 35.5t78.5 13q72 0 114 -28.5t42 -85.5q0 -48 -28 -73.5t-67 -36.5q52 -11 78 -40.5t26 -71.5q0 -66 -43.5 -100t-117.5 -34
q-87 0 -122.5 36.5t-38.5 104.5l95 5q4 -39 18 -57.5t50 -18.5q26 0 43 16t17 47q0 42 -29 56.5t-83 12.5z" />
    <glyph glyph-name="four.num" horiz-adv-x="386" 
d="M212 432v200h-2l-111 -200h113zM309 432h54v-75h-54v-78h-97v78h-200v60l179 317h118v-302z" />
    <glyph glyph-name="five.num" horiz-adv-x="396" 
d="M197 508q-22 0 -38.5 -11t-26.5 -28l-81 8l18 257h267v-78h-188l-12 -113q14 17 38 27t53 10q57 0 94.5 -36.5t37.5 -111.5q0 -74 -40.5 -117t-126.5 -43q-44 0 -72.5 11t-45.5 30.5t-25 45t-11 54.5l96 5q4 -44 20.5 -60t45.5 -16q27 0 43.5 20t16.5 63q0 48 -18 65.5
t-45 17.5z" />
    <glyph glyph-name="six.num" horiz-adv-x="414" 
d="M225 672q-37 0 -57 -32t-24 -112q17 23 45 32.5t54 9.5q25 0 49 -8t43 -25t30 -43t11 -63q0 -82 -45 -120.5t-122 -38.5q-89 0 -127 49.5t-38 160.5q0 125 45.5 192.5t139.5 67.5q41 0 68.5 -10t43 -28t21.5 -42.5t4 -53.5l-92 -6q2 32 -8 51t-41 19zM211 504
q-32 0 -51.5 -19t-19.5 -56q0 -38 15.5 -62.5t54.5 -24.5q21 0 34 7.5t21 19.5t11 27t3 30q0 78 -68 78z" />
    <glyph glyph-name="seven.num" horiz-adv-x="334" 
d="M79 279q2 122 37 213t93 164h-189v78h291v-54q-39 -48 -63.5 -95t-39 -96t-20.5 -100.5t-8 -109.5h-101z" />
    <glyph glyph-name="eight.num" horiz-adv-x="426" 
d="M208 272q-46 0 -78.5 10t-52.5 27t-29.5 41t-9.5 52q0 46 22.5 77.5t72.5 46.5q-38 12 -56.5 38t-18.5 61q0 53 41.5 85t118.5 32q78 0 113.5 -31.5t35.5 -79.5q0 -36 -20 -63t-59 -40q52 -13 76 -43.5t24 -75.5q0 -30 -10 -55t-32 -43t-56 -28.5t-82 -10.5zM211 342
q40 0 59.5 20.5t19.5 55.5q0 33 -18 55t-58 22q-38 0 -58 -21t-20 -59q0 -32 16.5 -52.5t58.5 -20.5zM211 559q34 0 45.5 19t11.5 42t-11.5 41t-43.5 18t-44 -18.5t-12 -41.5q0 -26 11.5 -43t42.5 -17z" />
    <glyph glyph-name="nine.num" horiz-adv-x="414" 
d="M199 343q74 0 79 142q-17 -22 -45 -31.5t-54 -9.5q-25 0 -49.5 7.5t-43.5 24t-30.5 43t-11.5 63.5q0 78 45.5 119t122.5 41q86 0 125 -49t39 -158q0 -127 -42 -195t-137 -68q-41 0 -69.5 10t-46.5 27.5t-26 42t-9 53.5l93 7q2 -36 15 -52.5t45 -16.5zM209 510
q31 0 50.5 19.5t19.5 57.5q0 37 -15 61t-55 24q-20 0 -33.5 -7.5t-21 -19.5t-10.5 -27t-3 -30q0 -78 68 -78z" />
    <glyph glyph-name="zero.denom" horiz-adv-x="473" 
d="M234 -6q-97 0 -142.5 60.5t-45.5 172.5q0 114 52.5 175.5t145.5 61.5q95 0 139.5 -60t44.5 -169q0 -116 -48 -178.5t-146 -62.5zM237 71q47 0 68 37t21 124q0 81 -19.5 117.5t-65.5 36.5q-45 0 -69.5 -36.5t-24.5 -119.5q0 -81 20.5 -120t69.5 -39z" />
    <glyph glyph-name="one.denom" horiz-adv-x="279" 
d="M16 387q12 4 29.5 11.5t36 17.5t36 20.5t29.5 20.5h64v-456h-99v346q-11 -7 -32.5 -16.5t-42.5 -17.5z" />
    <glyph glyph-name="two.denom" horiz-adv-x="398" 
d="M346 78v-77h-295q-2 26 -1.5 44.5t4.5 38.5q5 28 22 51.5t39.5 44.5t47.5 40.5t46 39t34.5 39.5t13.5 43q0 26 -16.5 39t-41.5 13q-39 0 -48.5 -26t-2.5 -63l-92 -6q-8 34 -3.5 64t22.5 52.5t49.5 35.5t78.5 13q72 0 113 -32t41 -90q0 -34 -14 -60t-35.5 -48t-46.5 -41
t-47 -37t-37 -37t-17 -41h186z" />
    <glyph glyph-name="three.denom" horiz-adv-x="395" 
d="M137 267q56 2 83.5 17.5t27.5 55.5q0 29 -16.5 41.5t-42.5 12.5q-35 0 -47.5 -19.5t-4.5 -69.5l-92 -6q-8 34 -3 64t22.5 52.5t49 35.5t78.5 13q72 0 114 -28.5t42 -85.5q0 -48 -28 -73.5t-67 -36.5q52 -11 78 -40.5t26 -71.5q0 -66 -43.5 -100t-117.5 -34
q-87 0 -122.5 36.5t-38.5 104.5l95 5q4 -39 18 -57.5t50 -18.5q26 0 43 16t17 47q0 42 -29 56.5t-83 12.5z" />
    <glyph glyph-name="four.denom" horiz-adv-x="386" 
d="M212 154v200h-2l-111 -200h113zM309 154h54v-75h-54v-78h-97v78h-200v60l179 317h118v-302z" />
    <glyph glyph-name="five.denom" horiz-adv-x="396" 
d="M197 230q-22 0 -38.5 -11t-26.5 -28l-81 8l18 257h267v-78h-188l-12 -113q14 17 38 27t53 10q57 0 94.5 -36.5t37.5 -111.5q0 -74 -40.5 -117t-126.5 -43q-44 0 -72.5 11t-45.5 30.5t-25 45t-11 54.5l96 5q4 -44 20.5 -60t45.5 -16q27 0 43.5 20t16.5 63q0 48 -18 65.5
t-45 17.5z" />
    <glyph glyph-name="six.denom" horiz-adv-x="414" 
d="M225 394q-37 0 -57 -32t-24 -112q17 23 45 32.5t54 9.5q25 0 49 -8t43 -25t30 -43t11 -63q0 -82 -45 -120.5t-122 -38.5q-89 0 -127 49.5t-38 160.5q0 125 45.5 192.5t139.5 67.5q41 0 68.5 -10t43 -28t21.5 -42.5t4 -53.5l-92 -6q2 32 -8 51t-41 19zM211 226
q-32 0 -51.5 -19t-19.5 -56q0 -38 15.5 -62.5t54.5 -24.5q21 0 34 7.5t21 19.5t11 27t3 30q0 78 -68 78z" />
    <glyph glyph-name="seven.denom" horiz-adv-x="334" 
d="M79 1q2 122 37 213t93 164h-189v78h291v-54q-39 -48 -63.5 -95t-39 -96t-20.5 -100.5t-8 -109.5h-101z" />
    <glyph glyph-name="eight.denom" horiz-adv-x="426" 
d="M208 -6q-46 0 -78.5 10t-52.5 27t-29.5 41t-9.5 52q0 46 22.5 77.5t72.5 46.5q-38 12 -56.5 38t-18.5 61q0 53 41.5 85t118.5 32q78 0 113.5 -31.5t35.5 -79.5q0 -36 -20 -63t-59 -40q52 -13 76 -43.5t24 -75.5q0 -30 -10 -55t-32 -43t-56 -28.5t-82 -10.5zM211 64
q40 0 59.5 20.5t19.5 55.5q0 33 -18 55t-58 22q-38 0 -58 -21t-20 -59q0 -32 16.5 -52.5t58.5 -20.5zM211 281q34 0 45.5 19t11.5 42t-11.5 41t-43.5 18t-44 -18.5t-12 -41.5q0 -26 11.5 -43t42.5 -17z" />
    <glyph glyph-name="nine.denom" horiz-adv-x="414" 
d="M199 65q74 0 79 142q-17 -22 -45 -31.5t-54 -9.5q-25 0 -49.5 7.5t-43.5 24t-30.5 43t-11.5 63.5q0 78 45.5 119t122.5 41q86 0 125 -49t39 -158q0 -127 -42 -195t-137 -68q-41 0 -69.5 10t-46.5 27.5t-26 42t-9 53.5l93 7q2 -36 15 -52.5t45 -16.5zM209 232
q31 0 50.5 19.5t19.5 57.5q0 37 -15 61t-55 24q-20 0 -33.5 -7.5t-21 -19.5t-10.5 -27t-3 -30q0 -78 68 -78z" />
    <glyph glyph-name="onehalf" unicode="&#xbd;" horiz-adv-x="960" 
d="M856 78v-77h-295q-2 26 -1.5 44.5t4.5 38.5q5 28 22 51.5t39.5 44.5t47.5 40.5t46 39t34.5 39.5t13.5 43q0 26 -16.5 39t-41.5 13q-39 0 -48.5 -26t-2.5 -63l-92 -6q-8 34 -3.5 64t22.5 52.5t49.5 35.5t78.5 13q72 0 113 -32t41 -90q0 -34 -14 -60t-35.5 -48t-46.5 -41
t-47 -37t-37 -37t-17 -41h186zM54 665q12 4 29.5 11.5t36 17.5t36 20.5t29.5 20.5h64v-456h-99v346q-11 -7 -32.5 -16.5t-42.5 -17.5zM611 755l80 -45l-441 -728l-79 48z" />
    <glyph glyph-name="onequarter" unicode="&#xbc;" horiz-adv-x="960" 
d="M699 154v200h-2l-111 -200h113zM796 154h54v-75h-54v-78h-97v78h-200v60l179 317h118v-302zM47 665q12 4 29.5 11.5t36 17.5t36 20.5t29.5 20.5h64v-456h-99v346q-11 -7 -32.5 -16.5t-42.5 -17.5zM608 755l80 -45l-441 -728l-79 48z" />
    <glyph glyph-name="threequarters" unicode="&#xbe;" horiz-adv-x="960" 
d="M751 154v200h-2l-111 -200h113zM848 154h54v-75h-54v-78h-97v78h-200v60l179 317h118v-302zM147 545q56 2 83.5 17.5t27.5 55.5q0 29 -16.5 41.5t-42.5 12.5q-35 0 -47.5 -19.5t-4.5 -69.5l-92 -6q-8 34 -3 64t22.5 52.5t49 35.5t78.5 13q72 0 114 -28.5t42 -85.5
q0 -48 -28 -73.5t-67 -36.5q52 -11 78 -40.5t26 -71.5q0 -66 -43.5 -100t-117.5 -34q-87 0 -122.5 36.5t-38.5 104.5l95 5q4 -39 18 -57.5t50 -18.5q26 0 43 16t17 47q0 42 -29 56.5t-83 12.5zM673 755l80 -45l-441 -728l-79 48z" />
    <glyph glyph-name="onethird" unicode="&#x2153;" horiz-adv-x="960" 
d="M663 267q56 2 83.5 17.5t27.5 55.5q0 29 -16.5 41.5t-42.5 12.5q-35 0 -47.5 -19.5t-4.5 -69.5l-92 -6q-8 34 -3 64t22.5 52.5t49 35.5t78.5 13q72 0 114 -28.5t42 -85.5q0 -48 -28 -73.5t-67 -36.5q52 -11 78 -40.5t26 -71.5q0 -66 -43.5 -100t-117.5 -34
q-87 0 -122.5 36.5t-38.5 104.5l95 5q4 -39 18 -57.5t50 -18.5q26 0 43 16t17 47q0 42 -29 56.5t-83 12.5zM38 665q12 4 29.5 11.5t36 17.5t36 20.5t29.5 20.5h64v-456h-99v346q-11 -7 -32.5 -16.5t-42.5 -17.5zM601 755l80 -45l-441 -728l-79 48z" />
    <glyph glyph-name="twothirds" unicode="&#x2154;" horiz-adv-x="960" 
d="M705 267q56 2 83.5 17.5t27.5 55.5q0 29 -16.5 41.5t-42.5 12.5q-35 0 -47.5 -19.5t-4.5 -69.5l-92 -6q-8 34 -3 64t22.5 52.5t49 35.5t78.5 13q72 0 114 -28.5t42 -85.5q0 -48 -28 -73.5t-67 -36.5q52 -11 78 -40.5t26 -71.5q0 -66 -43.5 -100t-117.5 -34
q-87 0 -122.5 36.5t-38.5 104.5l95 5q4 -39 18 -57.5t50 -18.5q26 0 43 16t17 47q0 42 -29 56.5t-83 12.5zM339 356v-77h-295q-2 26 -1.5 44.5t4.5 38.5q5 28 22 51.5t39.5 44.5t47.5 40.5t46 39t34.5 39.5t13.5 43q0 26 -16.5 39t-41.5 13q-39 0 -48.5 -26t-2.5 -63l-92 -6
q-8 34 -3.5 64t22.5 52.5t49.5 35.5t78.5 13q72 0 113 -32t41 -90q0 -34 -14 -60t-35.5 -48t-46.5 -41t-47 -37t-37 -37t-17 -41h186zM662 755l80 -45l-441 -728l-79 48z" />
    <glyph glyph-name="zero.slash" horiz-adv-x="580" 
d="M286 -12q-132 0 -194 98t-62 279q0 91 19 162t54 120t85 74.5t113 25.5q128 0 188.5 -97t60.5 -272q0 -187 -65.5 -288.5t-198.5 -101.5zM292 86q63 0 92.5 57t34.5 174h-258q5 -115 35 -173t96 -58zM296 646q-123 0 -135 -226h258q-5 114 -32.5 170t-90.5 56z" />
    <glyph glyph-name="zero.tf" horiz-adv-x="580" 
d="M286 -12q-132 0 -194 98t-62 279q0 91 19 162t54 120t85 74.5t113 25.5q128 0 188.5 -97t60.5 -272q0 -187 -65.5 -288.5t-198.5 -101.5zM292 86q70 0 99 70.5t29 216.5q0 138 -27.5 205.5t-96.5 67.5q-136 0 -136 -277q0 -140 29.5 -211.5t102.5 -71.5z" />
    <glyph glyph-name="one.tf" horiz-adv-x="580" 
d="M117 103h131v479q-9 -6 -23.5 -14.5t-31.5 -17t-36 -16.5t-37 -15l-26 101q21 8 48 21t54 28.5t52.5 32.5t43.5 33h82v-632h121v-103h-378v103z" />
    <glyph glyph-name="two.tf" horiz-adv-x="580" 
d="M499 106v-106h-431q0 8 -0.5 18.5t-0.5 22.5q0 21 1.5 42t4.5 35q7 48 33 87.5t60.5 74t73.5 66t71.5 63.5t53.5 66t21 74q0 54 -30 77t-72 23q-34 0 -54.5 -12.5t-30 -33.5t-10.5 -49.5t5 -60.5l-119 -9q-12 53 -5 101t33 84t72.5 57t114.5 21q106 0 165 -51.5
t59 -145.5q0 -55 -22.5 -98t-56 -79t-73 -67.5t-73.5 -63t-57.5 -64.5t-24.5 -72h292z" />
    <glyph glyph-name="three.tf" horiz-adv-x="580" 
d="M210 423q84 2 128 29.5t44 96.5q0 54 -29.5 77t-74.5 23q-61 0 -82 -37.5t-9 -118.5l-120 -9q-11 54 -4 101.5t33 83.5t72 57t114 21q52 0 94 -11.5t72 -35t46.5 -58t16.5 -80.5q0 -38 -11 -67t-30.5 -51t-45.5 -36t-56 -22q78 -17 117 -67t39 -115q0 -53 -17 -93
t-47.5 -67.5t-74 -41.5t-96.5 -14q-65 0 -109.5 16t-72 45.5t-40.5 71.5t-16 95l123 8q5 -69 30 -103.5t88 -34.5q21 0 39.5 6.5t33 21t23 36.5t8.5 53q0 73 -45 100t-130 23z" />
    <glyph glyph-name="four.tf" horiz-adv-x="580" 
d="M337 243v338h-3l-182 -338h185zM462 243h83v-107h-83v-136h-125v136h-304v86l280 512h149v-491z" />
    <glyph glyph-name="five.tf" horiz-adv-x="580" 
d="M285 386q-38 0 -66 -21t-44 -50l-103 11l26 408h391v-107h-287l-21 -205q22 27 58.5 45t82.5 18q44 0 81 -15t63.5 -45.5t41.5 -75.5t15 -105q0 -57 -15 -104.5t-45 -81t-76 -52t-107 -18.5q-64 0 -106 18t-67.5 49.5t-37.5 72.5t-16 88l122 8q8 -77 36 -107.5t77 -30.5
q51 0 79 38.5t28 110.5q0 42 -8.5 71t-23 47t-34.5 25.5t-44 7.5z" />
    <glyph glyph-name="six.tf" horiz-adv-x="580" 
d="M321 649q-33 0 -57.5 -14t-41.5 -44.5t-27 -79.5t-14 -119q30 40 74 56.5t84 16.5q39 0 75.5 -13t64 -40.5t44.5 -70t17 -101.5q0 -125 -64 -188.5t-179 -63.5q-65 0 -111.5 19t-76 60.5t-43 106t-13.5 154.5q0 202 67 310.5t206 108.5q60 0 100 -17t62.5 -46t30.5 -68
t5 -83l-118 -9q4 58 -15 91.5t-70 33.5zM298 374q-51 0 -85 -33t-34 -98q0 -33 6 -62t20 -50t37 -33t57 -12q33 0 55.5 12.5t35.5 33t18.5 47t5.5 54.5q0 68 -27 104.5t-89 36.5z" />
    <glyph glyph-name="seven.tf" horiz-adv-x="580" 
d="M174 0q2 99 17 186t41.5 164t63.5 145.5t83 131.5h-306v107h437v-76q-60 -80 -98 -157.5t-60.5 -157.5t-32.5 -165t-13 -178h-132z" />
    <glyph glyph-name="eight.tf" horiz-adv-x="580" 
d="M285 -12q-68 0 -115.5 16t-77.5 44t-43.5 66.5t-13.5 84.5q0 74 33.5 123.5t105.5 75.5q-55 20 -82.5 61.5t-27.5 99.5q0 42 16 77t46 59.5t73.5 38t98.5 13.5q56 0 97 -13.5t68 -37.5t40 -56.5t13 -71.5q0 -59 -29 -102.5t-86 -64.5q75 -21 110 -70t35 -121
q0 -48 -15 -88.5t-46.5 -70.5t-81 -46.5t-118.5 -16.5zM287 86q67 0 100.5 36.5t33.5 98.5q0 27 -7 51.5t-23 42.5t-40.5 28.5t-58.5 10.5q-65 0 -97.5 -37t-32.5 -102q0 -27 6.5 -51t21 -41t38.5 -27t59 -10zM289 444q28 0 47.5 9.5t31 24.5t16.5 34.5t5 40.5t-4.5 40
t-16 33t-30 22.5t-46.5 8.5q-29 0 -48 -8.5t-30.5 -23t-16.5 -34t-5 -40.5q0 -22 5 -41.5t16 -34t30 -23t46 -8.5z" />
    <glyph glyph-name="nine.tf" horiz-adv-x="580" 
d="M268 87q67 0 97.5 64t35.5 192q-28 -40 -71.5 -56.5t-83.5 -16.5q-39 0 -76 12.5t-65.5 39.5t-46 69t-17.5 101q0 121 65.5 188t179.5 67q124 0 182.5 -78t58.5 -253q0 -103 -15 -183t-47 -134.5t-81.5 -82.5t-119.5 -28q-60 0 -101.5 16.5t-67.5 45.5t-37.5 68t-12.5 84
l120 9q4 -66 26.5 -95t76.5 -29zM282 361q51 0 85.5 34t34.5 103q0 32 -6 59.5t-20.5 48t-37.5 32t-57 11.5q-33 0 -55.5 -12.5t-35.5 -33t-18.5 -47t-5.5 -54.5q0 -68 27.5 -104.5t88.5 -36.5z" />
    <glyph glyph-name="dollar.tf" horiz-adv-x="590" 
d="M267 9q-105 6 -162.5 56.5t-68.5 156.5l125 18q3 -27 9.5 -49t18.5 -38.5t31 -27.5t47 -15v213q-37 9 -74.5 21t-67.5 33.5t-48.5 56t-18.5 89.5q0 43 15 78.5t42.5 61.5t66 41.5t85.5 19.5v73h77v-74q87 -10 135.5 -61t59.5 -139l-121 -21q-11 93 -74 117v-196
q36 -9 72.5 -20.5t65.5 -32.5t47.5 -55t18.5 -87q0 -47 -15.5 -85t-42.5 -65.5t-64.5 -44t-81.5 -22.5v-76h-77v74zM421 208q0 38 -22 59.5t-55 34.5v-190q38 9 57.5 34t19.5 62zM189 536q0 -38 21.5 -59t56.5 -33v181q-78 -12 -78 -89z" />
    <glyph glyph-name="Euro.tf" horiz-adv-x="580" 
d="M334 92q57 0 84 36t35 99l112 -10q-16 -121 -78 -175t-158 -54q-50 0 -92.5 17.5t-74.5 50.5t-52.5 81t-27.5 110h-75l14 79h52v34v31h-46l12 79h41q12 72 36.5 124t60 86.5t79.5 51t94 16.5q53 0 93.5 -17.5t68.5 -50t42.5 -78t14.5 -101.5l-114 -10q-2 45 -10.5 74.5
t-22.5 47t-34 24.5t-44 7t-46 -9.5t-40.5 -30t-32 -53.5t-20.5 -81h184l-13 -79h-177v-27v-38h172l-15 -79h-148q10 -80 41 -117.5t85 -37.5z" />
    <glyph glyph-name="cent.tf" horiz-adv-x="562" 
d="M401 411q-4 45 -21 70.5t-43 35.5v-342q26 9 41 32t21 64l109 -8q-5 -45 -20.5 -77.5t-38 -54t-51.5 -34t-61 -17.5v-82h-77v80q-56 5 -95 27t-64 56.5t-36.5 80t-11.5 98.5q0 118 54.5 187.5t152.5 83.5v84h77v-83q44 -5 76.5 -22t53.5 -42.5t32 -58t13 -69.5zM182 345
q0 -146 78 -171v343q-36 -13 -57 -53.5t-21 -118.5z" />
    <glyph glyph-name="sterling.tf" horiz-adv-x="580" 
d="M52 413h71q-16 26 -27 57t-11 72q0 42 14.5 79.5t44 65.5t73.5 44t103 16q48 0 88 -12.5t68.5 -37.5t44.5 -63t16 -89q0 -12 -1 -25t-3 -27l-119 7q3 24 3 43q0 31 -7.5 52t-20.5 33t-31 17t-40 5q-48 0 -77.5 -27t-29.5 -77q0 -41 15.5 -72.5t35.5 -60.5h182v-92h-136
q2 -10 3.5 -19.5t1.5 -20.5q0 -45 -27 -86t-79 -89h319v-106h-442v106q57 48 82 87.5t25 75.5q0 14 -3.5 26.5t-8.5 25.5h-127v92z" />
    <glyph glyph-name="yen.tf" horiz-adv-x="580" 
d="M356 334v-76h114v-83h-114v-175h-128v175h-127v83h127v76h-127v83h85l-179 317h144l140 -290l148 290h134l-179 -317h76v-83h-114z" />
    <glyph glyph-name="florin.tf" horiz-adv-x="580" 
d="M127 456h95l18 103q16 94 61.5 140.5t135.5 46.5q35 0 61.5 -6t41.5 -12l-27 -86q-14 5 -30.5 7.5t-32.5 2.5q-39 0 -59.5 -24.5t-29.5 -77.5l-17 -94h120l-15 -89h-120l-56 -324q-16 -92 -62.5 -137.5t-139.5 -45.5q-33 0 -58 5.5t-38 10.5l25 88q15 -5 31 -7.5t33 -2.5
q38 0 58 24t29 76l55 313h-95z" />
    <glyph glyph-name="comma.tf" horiz-adv-x="285" 
d="M78 129h133v-109l-69 -158l-53 16l28 122h-39v129z" />
    <glyph glyph-name="period.tf" horiz-adv-x="290" 
d="M81 129h129v-129h-129v129z" />
    <glyph glyph-name="perthousand.tf" horiz-adv-x="580" 
d="M558 398v-68h-540v68h540zM147 -10q-66 0 -97.5 41t-31.5 110q0 71 37 113t99 42q63 0 94.5 -39t31.5 -110q0 -73 -33.5 -115t-99.5 -42zM430 -10q-66 0 -97.5 41t-31.5 110q0 71 36.5 113t99.5 42t94 -40t31 -109q0 -73 -33.5 -115t-98.5 -42zM432 50q54 0 54 95
q0 91 -51 91q-27 0 -42 -22.5t-15 -70.5q0 -44 12.5 -68.5t41.5 -24.5zM147 432q-66 0 -97.5 40.5t-31.5 111.5q0 70 36.5 112t99.5 42q64 0 95 -40t31 -109q0 -72 -33.5 -114.5t-99.5 -42.5zM150 50q53 0 53 95q0 46 -11.5 68.5t-39.5 22.5q-27 0 -41.5 -22.5t-14.5 -70.5
q0 -44 12.5 -68.5t41.5 -24.5zM149 492q54 0 54 96q0 90 -53 90q-25 0 -40 -21.5t-15 -70.5q0 -45 12.5 -69.5t41.5 -24.5z" />
    <glyph glyph-name="percent.tf" horiz-adv-x="580" 
d="M518 398v-68h-460v68h460zM284 -10q-66 0 -97.5 41t-31.5 110q0 71 36.5 113t99.5 42t94 -40t31 -109q0 -73 -33.5 -115t-98.5 -42zM286 50q54 0 54 95q0 91 -51 91q-27 0 -42 -22.5t-15 -70.5q0 -44 12.5 -68.5t41.5 -24.5zM285 432q-66 0 -97.5 40.5t-31.5 111.5
q0 70 36.5 112t99.5 42t94 -40t31 -109q0 -72 -33 -114.5t-99 -42.5zM287 492q53 0 53 96q0 46 -12 68t-40 22q-25 0 -40.5 -21.5t-15.5 -70.5q0 -45 13 -69.5t42 -24.5z" />
    <glyph glyph-name="minus" unicode="&#x2212;" horiz-adv-x="580" 
d="M97 295v83h385v-83h-385z" />
    <glyph glyph-name="approxequal" unicode="&#x2248;" horiz-adv-x="580" 
d="M87 167q13 53 44 83t74 30q22 0 46.5 -7.5t47.5 -16.5q19 -8 38.5 -14.5t35.5 -6.5q21 0 35.5 14.5t22.5 35.5l60 -27q-6 -22 -16.5 -42t-25 -35t-32 -24t-38.5 -9q-15 0 -37.5 4.5t-58.5 18.5q-30 11 -47 16.5t-28 5.5q-41 0 -60 -54zM88 345q13 53 44 83t74 30
q22 0 46.5 -7.5t47.5 -16.5q19 -8 38.5 -14.5t35.5 -6.5q21 0 35.5 14.5t22.5 35.5l60 -27q-6 -22 -16.5 -42t-25 -35t-32 -24t-38.5 -9q-15 0 -37.5 4.5t-58.5 18.5q-30 11 -47 16.5t-28 5.5q-41 0 -60 -54z" />
    <glyph glyph-name="notequal" unicode="&#x2260;" horiz-adv-x="580" 
d="M266 189l-45 -89h-77l46 89h-93v82h135l38 74h-173v83h216l39 76h74l-39 -76h95v-83h-137l-38 -74h175v-82h-216z" />
    <glyph glyph-name="lessequal" unicode="&#x2264;" horiz-adv-x="580" 
d="M98 0v83h385v-83h-385zM97 249v107l385 154v-100l-294 -105l294 -98v-99z" />
    <glyph glyph-name="greaterequal" unicode="&#x2265;" horiz-adv-x="580" 
d="M97 0v83h385v-83h-385zM482 369v-107l-385 -154v100l294 105l-294 98v99z" />
    <glyph glyph-name="less" unicode="&#x3c;" horiz-adv-x="580" 
d="M97 230v107l385 154v-99l-294 -106l294 -98v-99z" />
    <glyph glyph-name="equal" unicode="=" horiz-adv-x="580" 
d="M97 189v82h385v-82h-385zM97 345v83h385v-83h-385z" />
    <glyph glyph-name="greater" unicode="&#x3e;" horiz-adv-x="580" 
d="M482 350v-107l-385 -154v100l294 106l-294 98v98z" />
    <glyph glyph-name="logicalnot" unicode="&#xac;" horiz-adv-x="580" 
d="M393 168v127h-296v83h385v-210h-89z" />
    <glyph glyph-name="plus" unicode="+" horiz-adv-x="580" 
d="M331 295v-151h-83v151h-151v83h151v151h83v-151h151v-83h-151z" />
    <glyph glyph-name="plusminus" unicode="&#xb1;" horiz-adv-x="580" 
d="M331 295v-151h-83v151h-151v83h151v151h83v-151h151v-83h-151zM97 0v83h385v-83h-385z" />
    <glyph glyph-name="divide" unicode="&#xf7;" horiz-adv-x="580" 
d="M97 295v83h385v-83h-385zM230 532h114v-117h-114v117zM230 253h114v-116h-114v116z" />
    <glyph glyph-name="multiply" unicode="&#xd7;" 
d="M307 336l108 -107l-59 -58l-107 107l-107 -107l-58 58l107 107l-107 107l58 58l107 -107l107 107l59 -58z" />
    <glyph glyph-name="partialdiff" unicode="&#x2202;" horiz-adv-x="575" 
d="M408 396q1 46 -2 91t-16 79.5t-38 56t-67 21.5q-41 0 -78.5 -12.5t-65.5 -28.5l-33 75q18 11 41.5 21.5t48.5 18t50.5 12t47.5 4.5q66 0 109.5 -26.5t69 -69.5t36 -98t10.5 -112q0 -44 -3.5 -93.5t-13.5 -98.5t-28 -94t-47.5 -79t-71.5 -54.5t-100 -20.5q-62 0 -102 20.5
t-64 53.5t-33.5 74.5t-9.5 83.5q0 49 11 95t36.5 81.5t67 57t101.5 21.5q49 0 85 -21.5t59 -57.5zM391 257q0 60 -27.5 97t-82.5 37q-34 0 -57 -14t-36.5 -37t-19.5 -54t-6 -65q0 -29 5 -55t17 -45t32 -30t50 -11q31 0 54.5 14.5t39.5 39t23.5 56.5t7.5 67z" />
    <glyph glyph-name="Omega" unicode="&#x2126;" horiz-adv-x="834" 
d="M574 98h160v-98h-258v137q27 11 51.5 30t43.5 50.5t30 77t11 110.5q0 66 -14 111t-39.5 72.5t-60 40t-75.5 12.5q-38 0 -74 -12.5t-64 -41t-45 -76t-17 -117.5q0 -59 9.5 -102t26.5 -73t41 -49.5t54 -32.5v-137h-260v98h166v26q-95 35 -137.5 106t-42.5 174q0 73 23 136
t67.5 109t108.5 72t146 26q87 0 149 -26t102 -70.5t59 -104t19 -125.5q0 -106 -47 -180t-133 -116v-27z" />
    <glyph glyph-name="Delta" unicode="&#x2206;" horiz-adv-x="701" 
d="M20 0l250 734h157l254 -734h-661zM181 107h331l-165 512h-1z" />
    <glyph glyph-name="product" unicode="&#x220f;" horiz-adv-x="755" 
d="M647 -161h-130v793h-279v-793h-130v895h539v-895z" />
    <glyph glyph-name="summation" unicode="&#x2211;" horiz-adv-x="627" 
d="M170 -70h408v-106h-546v104l230 352l-208 351v103h522v-106h-381l207 -350z" />
    <glyph glyph-name="uni0394" unicode="&#x394;" horiz-adv-x="701" 
d="M20 0l250 734h157l254 -734h-661zM181 107h331l-165 512h-1z" />
    <glyph glyph-name="uni03A9" unicode="&#x3a9;" horiz-adv-x="834" 
d="M574 98h160v-98h-258v137q27 11 51.5 30t43.5 50.5t30 77t11 110.5q0 66 -14 111t-39.5 72.5t-60 40t-75.5 12.5q-38 0 -74 -12.5t-64 -41t-45 -76t-17 -117.5q0 -59 9.5 -102t26.5 -73t41 -49.5t54 -32.5v-137h-260v98h166v26q-95 35 -137.5 106t-42.5 174q0 73 23 136
t67.5 109t108.5 72t146 26q87 0 149 -26t102 -70.5t59 -104t19 -125.5q0 -106 -47 -180t-133 -116v-27z" />
    <glyph glyph-name="uni03BC" unicode="&#x3bc;" horiz-adv-x="630" 
d="M94 513h121v-308q0 -27 2.5 -49.5t10 -38.5t22.5 -25t41 -9q33 0 56.5 14.5t38.5 39t22 57t7 68.5v251h121v-513h-104l-16 91q-26 -42 -69 -66.5t-95 -24.5q-30 0 -48 9l-3 -3l18 -182h-125v689z" />
    <glyph glyph-name="pi" unicode="&#x3c0;" horiz-adv-x="656" 
d="M561 0h-123v421h-218v-421h-124v513h465v-513z" />
    <glyph glyph-name="mu" unicode="&#xb5;" horiz-adv-x="630" 
d="M94 513h121v-308q0 -27 2.5 -49.5t10 -38.5t22.5 -25t41 -9q33 0 56.5 14.5t38.5 39t22 57t7 68.5v251h121v-513h-104l-16 91q-26 -42 -69 -66.5t-95 -24.5q-30 0 -48 9l-3 -3l18 -182h-125v689z" />
    <glyph glyph-name="radical" unicode="&#x221a;" horiz-adv-x="593" 
d="M270 0l-136 255l-75 -32l-32 77l163 70l124 -252l165 632l91 -19l-195 -731h-105z" />
    <glyph glyph-name="infinity" unicode="&#x221e;" horiz-adv-x="676" 
d="M489 184q-28 0 -50.5 8t-40.5 20.5t-32.5 28t-26.5 29.5q-12 -13 -27.5 -28.5t-34.5 -28.5t-42.5 -21.5t-51.5 -8.5q-24 0 -48 8t-42.5 24.5t-30 41t-11.5 58.5q0 30 10 55t29 43t45.5 28.5t59.5 10.5q25 0 46.5 -7.5t39.5 -19.5t33.5 -27.5l30.5 -30.5q13 14 28.5 29
t34 27.5t40 20.5t47.5 8q25 0 48.5 -8t41.5 -25t29 -42.5t11 -61.5q0 -28 -10.5 -52t-29 -41.5t-43.5 -27.5t-53 -10zM189 247q18 0 34 8t30.5 19.5t26 24t20.5 22.5q-23 26 -48.5 46.5t-59.5 20.5q-29 0 -45.5 -20.5t-16.5 -46.5q0 -13 3 -26.5t10 -24t18.5 -17t27.5 -6.5z
M385 317q22 -26 45 -47.5t56 -21.5q28 0 44 21.5t16 49.5q0 12 -3 24.5t-9.5 22.5t-17.5 16.5t-27 6.5q-31 0 -55 -22.5t-49 -49.5z" />
    <glyph glyph-name="integral" unicode="&#x222b;" horiz-adv-x="411" 
d="M370 642q-17 5 -33.5 7.5t-33.5 2.5q-38 0 -49.5 -24.5t-4.5 -77.5l66 -540q5 -42 0 -77.5t-22.5 -61t-49 -40t-77.5 -14.5q-33 0 -60 5.5t-41 10.5l-1 89q16 -5 33 -7.5t34 -2.5q38 0 49 23.5t5 75.5l-66 537q-5 42 -0.5 78t22 63t48.5 42t78 15q33 0 62.5 -5t43.5 -10z
" />
    <glyph glyph-name="lozenge" unicode="&#x25ca;" horiz-adv-x="572" 
d="M236 46l-172 324l172 324h100l172 -324l-172 -324h-100zM410 370l-124 244l-123 -244l123 -245z" />
    <glyph glyph-name="commaaccent" 
d="M194 -44h110v-90l-46 -120l-52 13l22 88h-34v109z" />
    <glyph glyph-name="revcommaaccent" 
d="M305 577h-110v90l47 120l51 -13l-21 -88h33v-109z" />
    <glyph glyph-name="tilde.cap" 
d="M98 788q11 57 34.5 82.5t53.5 25.5q19 0 36.5 -4.5t33 -10.5t30 -10.5t27.5 -4.5q11 0 20.5 8.5t15.5 31.5l53 -8q-11 -60 -34.5 -85t-52.5 -25q-21 0 -39 4.5t-33.5 10.5t-29.5 10.5t-27 4.5q-25 0 -34 -38z" />
    <glyph glyph-name="ring.cap" 
d="M248 761q-57 0 -79.5 26t-22.5 67q0 42 30 68t76 26q52 0 79 -25t27 -66q0 -43 -27.5 -69.5t-82.5 -26.5zM250 810q16 0 25 10t9 35t-9.5 34t-23.5 9q-16 0 -26.5 -9.5t-10.5 -34.5t9.5 -34.5t26.5 -9.5z" />
    <glyph glyph-name="circumflex.cap" 
d="M284 920l120 -116l-35 -44l-120 75l-117 -75l-35 44l120 116h67z" />
    <glyph glyph-name="acute.cap" 
d="M369 846l-179 -84l-33 57l164 112z" />
    <glyph glyph-name="grave.cap" 
d="M178 931l165 -112l-36 -57l-179 84z" />
    <glyph glyph-name="dieresis.cap" 
d="M286 888h100v-107h-100v107zM114 888h100v-107h-100v107z" />
    <glyph glyph-name="caron.cap" 
d="M215 767l-120 113l36 46l119 -75l118 75l36 -46l-121 -113h-68z" />
    <glyph glyph-name="macron.cap" 
d="M112 878h276v-83h-276v83z" />
    <glyph glyph-name="dotaccent.cap" 
d="M188 903h124v-117h-124v117z" />
    <glyph glyph-name="cedilla.cap" 
d="M234 0h57l-23 -48q13 6 29 6q38 0 60 -23.5t22 -61.5q0 -42 -30.5 -69.5t-82.5 -27.5q-29 0 -57 10t-54 38l39 42q30 -28 61 -28q39 0 39 36q0 19 -9.5 27.5t-25.5 8.5q-9 0 -16 -3t-13 -7l-32 15z" />
    <glyph glyph-name="hungarumlaut.cap" 
d="M495 857l-166 -93l-33 46l149 115zM322 867l-154 -101l-35 44l133 125z" />
    <glyph glyph-name="apostrophe" unicode="&#x2bc;" 
d="M304 616h-33l21 -88l-51 -12l-47 119v91h110v-110z" />
    <glyph glyph-name="commaaccent.cap" 
d="M194 -44h110v-90l-46 -120l-52 13l22 88h-34v109z" />
    <glyph glyph-name="breve.cap" 
d="M165 919q13 -38 32.5 -55t52.5 -17q36 0 56.5 16t36.5 56l62 -13q-29 -140 -156 -140q-61 0 -99 33.5t-50 106.5z" />
    <glyph glyph-name="caron.alt" 
d="M306 734l-32 -197l-61 3l-3 194h96z" />
    <glyph glyph-name="thinspace" unicode="&#x2009;" horiz-adv-x="125" 
 />
    <glyph glyph-name="quotedbl" unicode="&#x22;" horiz-adv-x="364" 
d="M302 734l-13 -214h-76l-7 214h96zM159 734l-13 -214h-76l-7 214h96z" />
    <glyph glyph-name="quotesingle" unicode="'" horiz-adv-x="221" 
d="M159 734l-13 -214h-76l-7 214h96z" />
    </font>
</defs>
</svg>
