<?xml version="1.0" standalone="no"?>
<!DOCTYPE svg PUBLIC "-//W3C//DTD SVG 1.1//EN" "http://www.w3.org/Graphics/SVG/1.1/DTD/svg11.dtd" >
<svg>
<metadata>
Created by FontForge 20120731 at Thu Oct 17 19:42:26 2013

Copyright (c) 2012 by TypeTogether. All rights reserved.
</metadata>
<defs>
<font id="TabletGothic" horiz-adv-x="500" >
  <font-face 
    font-family="Tablet Gothic"
    font-weight="400"
    font-stretch="normal"
    units-per-em="1000"
    panose-1="2 0 5 3 0 0 0 2 0 4"
    ascent="755"
    descent="-245"
    x-height="512"
    cap-height="734"
    bbox="-158 -243 995 1056"
    underline-thickness="50"
    underline-position="-50"
    unicode-range="U+0020-FB04"
  />
<missing-glyph horiz-adv-x="196" 
 />
    <glyph glyph-name="ij" unicode="ij" horiz-adv-x="462" 
d="M69 734h93v-107h-93v107zM69 512h93v-512h-93v512zM303 734h92v-107h-92v107zM175 -117q16 -4 29.5 -6t29.5 -2q38 0 53.5 26.5t15.5 83.5v527h92v-516q0 -96 -35.5 -143.5t-119.5 -47.5q-20 0 -40.5 3t-34.5 8z" />
    <glyph glyph-name="ff" unicode="ff" horiz-adv-x="617" 
d="M24 512h62v38q0 45 7.5 80.5t26 60t49.5 38t77 13.5q24 0 46.5 -4t36.5 -8l-10 -70q-15 5 -30.5 8t-35.5 3q-43 0 -59 -28.5t-16 -82.5v-48h212v42q0 45 7.5 80.5t26 60t49.5 38t77 13.5q26 0 48.5 -4t35.5 -8l-9 -70q-15 5 -31.5 8t-36.5 3q-43 0 -59 -28t-16 -83v-52
h122v-70h-122v-442h-92v442h-212v-442h-92v442h-62v70z" />
    <glyph glyph-name="fi" unicode="fi" horiz-adv-x="552" 
d="M318 664q-14 5 -29.5 7.5t-35.5 2.5q-43 0 -59 -27t-16 -81v-54h305v-512h-92v442h-213v-442h-92v442h-62v70h62v42q0 45 7.5 80.5t26 60t49 38t76.5 13.5q23 0 41.5 -3.5t31.5 -7.5v-71zM391 734h92v-107h-92v107z" />
    <glyph glyph-name="fl" unicode="fl" horiz-adv-x="552" 
d="M318 664q-14 5 -29.5 7.5t-35.5 2.5q-43 0 -59 -27t-16 -81v-54h120v-70h-120v-442h-92v442h-62v70h62v42q0 45 7.5 80.5t26 60t49 38t76.5 13.5q23 0 41.5 -3.5t31.5 -7.5v-71zM483 0h-92v734h92v-734z" />
    <glyph glyph-name="ffi" unicode="ffi" horiz-adv-x="856" 
d="M622 664q-14 5 -29.5 7.5t-35.5 2.5q-43 0 -59 -27t-16 -81v-54h305v-512h-92v442h-213v-442h-92v442h-212v-442h-92v442h-62v70h62v37q0 45 7.5 80.5t26 60t49.5 38t77 13.5q24 0 46.5 -4t36.5 -8l-10 -70q-15 5 -30.5 8t-35.5 3q-43 0 -59 -28t-16 -83v-47h212v42
q0 45 7.5 80.5t26 60t49 38t76.5 13.5q23 0 41.5 -3.5t31.5 -7.5v-71zM695 734h92v-107h-92v107z" />
    <glyph glyph-name="ffl" unicode="ffl" horiz-adv-x="856" 
d="M622 664q-14 5 -29.5 7.5t-35.5 2.5q-43 0 -59 -27t-16 -81v-54h120v-70h-120v-442h-92v442h-212v-442h-92v442h-62v70h62v37q0 45 7.5 80.5t26 60t49.5 38t77 13.5q24 0 46.5 -4t36.5 -8l-10 -70q-15 5 -30.5 8t-35.5 3q-43 0 -59 -28t-16 -83v-47h212v42q0 45 7.5 80.5
t26 60t49 38t76.5 13.5q23 0 41.5 -3.5t31.5 -7.5v-71zM787 0h-92v734h92v-734z" />
    <glyph glyph-name="t_t" unicode="tt" horiz-adv-x="633" 
d="M178 167q0 -56 14 -82t57 -26q20 0 34 2.5t29 7.5l9 -67q-14 -6 -38.5 -10t-53.5 -4q-41 0 -68.5 11.5t-44 33.5t-23.5 53.5t-7 71.5v285h-62v69h62v111l92 29v-140h208v111l91 29v-140h122v-69h-122v-276q0 -56 15 -82t58 -26q20 0 34.5 2.5t29.5 7.5l9 -67
q-14 -5 -38.5 -9.5t-54.5 -4.5q-42 0 -70 11.5t-44.5 33.5t-23 53.5t-6.5 71.5v285h-208v-276z" />
    <glyph glyph-name=".notdef" horiz-adv-x="196" 
 />
    <glyph glyph-name=".null" horiz-adv-x="0" 
 />
    <glyph glyph-name="nonmarkingreturn" horiz-adv-x="196" 
 />
    <glyph glyph-name="space" unicode=" " horiz-adv-x="196" 
 />
    <glyph glyph-name="numbersign" unicode="#" horiz-adv-x="654" 
d="M355 0l21 138h-141l-21 -138h-79l20 138h-105l11 67h104l23 157h-109l11 68h108l19 125h79l-18 -125h141l18 125h81l-19 -125h105l-11 -68h-104l-23 -157h111l-11 -67h-110l-20 -138h-81zM409 362h-141l-23 -157h141z" />
    <glyph glyph-name="ampersand" unicode="&#x26;" horiz-adv-x="710" 
d="M259 361q-50 -32 -82 -72t-32 -97q0 -33 11.5 -56.5t31 -38.5t45 -22t53.5 -7q53 0 95 20.5t79 56.5zM403 545q4 10 5.5 23t1.5 23q0 38 -24 59t-68 21q-45 0 -66 -22t-21 -62q0 -62 72 -140l212 -231q25 45 37 95t14 112l86 -11q-3 -38 -8 -72t-14 -66t-22 -62.5
t-31 -61.5l97 -104l-67 -58l-92 97q-54 -49 -115 -73t-126 -24q-59 0 -102 14.5t-71 40t-41.5 59.5t-13.5 74q0 78 40 134.5t123 105.5q-39 44 -56 84.5t-17 79.5q0 34 12 64.5t35 53t58 35.5t82 13q82 0 129.5 -40t47.5 -108q0 -17 -2.5 -34t-7.5 -31z" />
    <glyph glyph-name="asterisk" unicode="*" horiz-adv-x="389" 
d="M230 734l-18 -131l121 57l22 -69l-131 -20l91 -99l-58 -42l-63 113l-64 -113l-58 42l90 98l-128 22l22 68l119 -57l-17 131h72z" />
    <glyph glyph-name="comma" unicode="," horiz-adv-x="202" 
d="M57 118h105v-102l-58 -147l-45 13l28 118h-30v118z" />
    <glyph glyph-name="hyphen" unicode="-" horiz-adv-x="342" 
d="M36 245v76h271v-76h-271z" />
    <glyph glyph-name="period" unicode="." horiz-adv-x="226" 
d="M64 118h98v-118h-98v118z" />
    <glyph glyph-name="colon" unicode=":" horiz-adv-x="226" 
d="M64 118h98v-118h-98v118zM64 516h98v-118h-98v118z" />
    <glyph glyph-name="semicolon" unicode=";" horiz-adv-x="202" 
d="M63 516h99v-118h-99v118zM57 118h105v-102l-58 -147l-45 13l28 118h-30v118z" />
    <glyph glyph-name="question" unicode="?" horiz-adv-x="515" 
d="M359 523q0 79 -32.5 112.5t-84.5 33.5q-31 0 -51.5 -10.5t-33.5 -30t-18.5 -46t-6.5 -59.5l-89 6q1 42 11 81.5t33.5 70t62 48.5t95.5 18q103 0 157.5 -59t54.5 -162q0 -57 -14.5 -99t-40 -71t-60 -46t-74.5 -24l-6 -94h-87l-5 157q54 1 90 13t58 33.5t31.5 53.5t9.5 74z
M166 118h99v-118h-99v118z" />
    <glyph glyph-name="exclam" unicode="!" horiz-adv-x="293" 
d="M102 205l-7 529h104l-8 -529h-89zM98 118h99v-118h-99v118z" />
    <glyph glyph-name="exclamdown" unicode="&#xa1;" horiz-adv-x="293" 
d="M102 318.013l-7 -528.968h104l-8 528.968h-89zM98 405.007h99v117.993h-99v-117.993z" />
    <glyph glyph-name="questiondown" unicode="&#xbf;" horiz-adv-x="515" 
d="M156.021 0.0322266q0 -78.9951 32.498 -112.493t84.4951 -33.498q30.998 0 51.4971 10.499t33.498 29.998t18.499 45.9971q5.49902 26.499 6.49902 59.4971l88.9951 -6q-1 -41.9971 -11 -81.4951q-9.99902 -39.4971 -33.498 -69.9951q-23.498 -30.499 -61.9961 -48.4971
q-38.4971 -17.999 -95.4941 -17.999q-102.993 0 -157.49 58.9961q-54.4961 58.9961 -54.4961 161.99q0 56.9961 14.499 98.9941q14.499 41.9971 39.9971 70.9951q25.499 28.998 59.9961 45.9971q34.498 16.999 74.4961 23.999l5.99902 93.9941h86.9951l5 -156.99
q-53.9971 -1 -89.9951 -12.999q-35.998 -12 -57.9961 -33.498q-21.999 -21.499 -31.498 -53.4971q-9.5 -31.998 -9.5 -73.9951zM349.01 405.007h-98.9932v117.993h98.9932v-117.993z" />
    <glyph glyph-name="at" unicode="@" horiz-adv-x="833" 
d="M673 -85q-45 -45 -112.5 -65t-142.5 -20q-81 0 -149 22t-117 66.5t-76.5 111.5t-27.5 157q0 85 28 155.5t79 120.5t122 77.5t157 27.5q74 0 138 -19.5t111.5 -59t74.5 -99.5t27 -140q0 -66 -13 -113.5t-36.5 -78t-56 -45.5t-70.5 -15q-43 0 -69.5 15.5t-40.5 41.5
q-20 -26 -52.5 -44.5t-79.5 -18.5q-72 0 -104.5 44.5t-32.5 113.5q0 44 11 88t34 79.5t59 57.5t86 22q36 0 59 -15t36 -36l12 45h66l-29 -245q-5 -43 5.5 -68t51.5 -25q40 0 66 43t26 139q0 72 -19.5 123.5t-56 84t-90 48t-120.5 15.5q-71 0 -127.5 -23.5t-95.5 -66
t-60 -101t-21 -127.5q0 -78 22.5 -133.5t63 -91.5t95.5 -52.5t121 -16.5q68 0 121 19t87 51zM504 260q5 44 -19 62.5t-57 18.5q-34 0 -57 -17t-37.5 -44t-20.5 -61t-6 -68q0 -46 17 -73t61 -27q36 0 67.5 23.5t37.5 73.5z" />
    <glyph glyph-name="at.case" horiz-adv-x="833" 
d="M673 74q-45 -45 -112.5 -65t-142.5 -20q-81 0 -149 22t-117 66.5t-76.5 111.5t-27.5 157q0 85 28 155.5t79 120.5t122 77.5t157 27.5q74 0 138 -19.5t111.5 -59t74.5 -99.5t27 -140q0 -66 -13 -113.5t-36.5 -78t-56 -45.5t-70.5 -15q-43 0 -69.5 15.5t-40.5 41.5
q-20 -26 -52.5 -44.5t-79.5 -18.5q-72 0 -104.5 44.5t-32.5 113.5q0 44 11 88t34 79.5t59 57.5t86 22q36 0 59 -15t36 -36l12 45h66l-29 -245q-5 -43 5.5 -68t51.5 -25q40 0 66 43t26 139q0 72 -19.5 123.5t-56 84t-90 48t-120.5 15.5q-71 0 -127.5 -23.5t-95.5 -66
t-60 -101t-21 -127.5q0 -78 22.5 -133.5t63 -91.5t95.5 -52.5t121 -16.5q68 0 121 19t87 51zM504 419q5 44 -19 62.5t-57 18.5q-34 0 -57 -17t-37.5 -44t-20.5 -61t-6 -68q0 -46 17 -73t61 -27q36 0 67.5 23.5t37.5 73.5z" />
    <glyph glyph-name="A" unicode="A" horiz-adv-x="640" 
d="M383 734l253 -734h-101l-69 201h-296l-68 -201h-98l250 734h129zM317 645h-1l-123 -367h248z" />
    <glyph glyph-name="B" unicode="B" horiz-adv-x="622" 
d="M91 0v734h239q64 0 107 -13t68.5 -36.5t36 -56.5t10.5 -72q0 -38 -12 -67.5t-32.5 -51t-47.5 -35t-56 -19.5v-2q91 -8 132 -55t41 -121q0 -56 -19 -94.5t-54.5 -63.5t-85 -36t-109.5 -11h-218zM296 78q39 0 72 5.5t57 19.5t37.5 39.5t13.5 66.5q0 69 -41.5 98.5
t-116.5 29.5h-129v-259h107zM274 413q30 0 61 6t57 21t42.5 41.5t16.5 68.5q0 58 -34 82t-110 24h-118v-243h85z" />
    <glyph glyph-name="C" unicode="C" horiz-adv-x="640" 
d="M340 69q73 0 113 48t46 131l93 -8q-5 -67 -25.5 -115t-54 -78.5t-78.5 -44.5t-99 -14q-140 0 -211 92t-71 280q0 98 22.5 170.5t63 120.5t96.5 71.5t123 23.5q57 0 102 -19t75.5 -53.5t46 -83.5t13.5 -109l-93 -8q0 54 -11.5 90.5t-32 59t-48.5 32.5t-61 10
q-39 0 -74 -16.5t-61 -52.5t-41 -93.5t-15 -139.5q0 -150 44 -222t138 -72z" />
    <glyph glyph-name="D" unicode="D" horiz-adv-x="655" 
d="M90 0v734h130q108 0 181 -21.5t117.5 -65.5t64 -113t19.5 -163q0 -98 -20 -168t-65.5 -115t-118.5 -66.5t-179 -21.5h-129zM233 79q72 0 123.5 15t83.5 49.5t47 90.5t15 137q0 73 -13 126.5t-44 88.5t-81 52t-125 17h-51v-576h45z" />
    <glyph glyph-name="E" unicode="E" horiz-adv-x="557" 
d="M454 338h-266v-259h323v-79h-421v734h398v-79h-300v-239h266v-78z" />
    <glyph glyph-name="F" unicode="F" horiz-adv-x="523" 
d="M448 327h-260v-327h-98v734h396v-79h-298v-250h260v-78z" />
    <glyph glyph-name="G" unicode="G" horiz-adv-x="678" 
d="M347 363h250v-375h-72l-8 100q-30 -51 -78.5 -75.5t-109.5 -24.5q-133 0 -204.5 90.5t-71.5 270.5q0 103 22.5 177.5t62.5 123.5t96 72.5t124 23.5q114 0 175.5 -70t59.5 -195l-93 -8q0 54 -12 91t-32.5 59.5t-48 32t-58.5 9.5q-39 0 -73.5 -16.5t-60 -53t-40.5 -94.5
t-15 -141q0 -149 45.5 -220.5t135.5 -71.5q35 0 65 12.5t52.5 36.5t35.5 58.5t15 79.5v30h-162v78z" />
    <glyph glyph-name="H" unicode="H" horiz-adv-x="697" 
d="M607 0h-99v326h-319v-326h-98v734h98v-326h319v326h99v-734z" />
    <glyph glyph-name="I" unicode="I" horiz-adv-x="364" 
d="M229 71h79v-71h-251v71h76v592h-76v71h251v-71h-79v-592z" />
    <glyph glyph-name="J" unicode="J" horiz-adv-x="532" 
d="M122 220q2 -27 6 -53.5t16 -47.5t34 -34.5t61 -13.5q60 0 85 35t25 110v518h98v-529q0 -49 -12.5 -89t-38 -68.5t-65.5 -44t-94 -15.5q-105 0 -155 56t-52 167z" />
    <glyph glyph-name="K" unicode="K" horiz-adv-x="624" 
d="M189 376l301 358h109l-262 -308l280 -426h-112l-232 349l-84 -99v-250h-98v734h98v-358z" />
    <glyph glyph-name="L" unicode="L" horiz-adv-x="514" 
d="M189 79h289v-79h-387v734h98v-655z" />
    <glyph glyph-name="M" unicode="M" horiz-adv-x="859" 
d="M383 0l-198 619h-3v-619h-91v734h147l193 -629h3l192 629h142v-734h-92v619h-2l-197 -619h-94z" />
    <glyph glyph-name="N" unicode="N" horiz-adv-x="702" 
d="M498 0l-317 608v-608h-90v734h125l306 -602v602h89v-734h-113z" />
    <glyph glyph-name="O" unicode="O" horiz-adv-x="685" 
d="M339 -12q-146 0 -216 98t-70 279q0 91 21 162t60.5 120t96 74.5t127.5 25.5q140 0 207 -97t67 -271q0 -188 -72.5 -289.5t-220.5 -101.5zM345 68q50 0 85.5 20.5t58 59.5t33 96t10.5 129q0 139 -41.5 215.5t-137.5 76.5q-99 0 -149 -78t-50 -218q0 -71 10.5 -127
t33.5 -94.5t59.5 -59t87.5 -20.5z" />
    <glyph glyph-name="P" unicode="P" horiz-adv-x="604" 
d="M189 0h-98v734h235q69 0 115 -16.5t73 -45t38 -67t11 -81.5q0 -39 -9.5 -82t-39 -79.5t-83 -60t-140.5 -23.5h-102v-279zM284 356q93 0 135 40.5t42 122.5q0 70 -35.5 103.5t-120.5 33.5h-116v-300h95z" />
    <glyph glyph-name="Q" unicode="Q" horiz-adv-x="685" 
d="M339 -12q-146 0 -216 98t-70 279q0 91 21 162t60.5 120t96 74.5t127.5 25.5q140 0 207 -97t67 -271q0 -134 -36 -223.5t-110 -132.5l77 -144l-71 -34l-99 147q-13 -2 -26.5 -3t-27.5 -1zM345 68q50 0 85.5 20.5t58 59.5t33 96t10.5 129q0 139 -41.5 215.5t-137.5 76.5
q-99 0 -149 -78t-50 -218q0 -71 10.5 -127t33.5 -94.5t59.5 -59t87.5 -20.5z" />
    <glyph glyph-name="R" unicode="R" horiz-adv-x="615" 
d="M310 317h-19h-102v-317h-98v734h235q68 0 113.5 -15.5t73 -42t39 -62.5t11.5 -76q0 -32 -6 -63.5t-23 -59.5t-47 -50.5t-79 -34.5l169 -330h-107zM285 394q91 0 133.5 29.5t42.5 109.5q0 66 -37.5 94.5t-118.5 28.5h-116v-262h96z" />
    <glyph glyph-name="S" unicode="S" horiz-adv-x="582" 
d="M438 512q-7 76 -42 115.5t-105 39.5q-65 0 -99 -30.5t-34 -87.5q0 -30 10.5 -50.5t28.5 -34.5t42.5 -22.5t51.5 -15.5q41 -11 85 -22.5t80 -33.5t59.5 -59.5t23.5 -100.5q0 -51 -18 -92t-50.5 -70t-78.5 -44.5t-101 -15.5q-120 0 -185 52.5t-76 174.5l98 15
q4 -38 13 -67.5t27.5 -50t48.5 -31.5t76 -11q75 0 110.5 36t35.5 93q0 33 -12 55.5t-32.5 37.5t-47.5 24t-56 16q-41 10 -82.5 21t-75.5 33t-55.5 58.5t-21.5 96.5q0 48 17.5 86.5t49 65.5t75.5 41t96 14q112 0 170.5 -59.5t67.5 -162.5z" />
    <glyph glyph-name="T" unicode="T" horiz-adv-x="546" 
d="M224 655h-209v79h516v-79h-209v-655h-98v655z" />
    <glyph glyph-name="U" unicode="U" horiz-adv-x="703" 
d="M521 734h97v-477q0 -130 -68.5 -199.5t-202.5 -69.5q-71 0 -120.5 18.5t-81 54t-46 85.5t-14.5 113v475h97v-455q0 -108 39.5 -159t130.5 -51q88 0 128.5 49.5t40.5 159.5v456z" />
    <glyph glyph-name="V" unicode="V" horiz-adv-x="618" 
d="M618 734l-245 -734h-125l-248 734h101l211 -648l208 648h98z" />
    <glyph glyph-name="W" unicode="W" horiz-adv-x="925" 
d="M611 0l-148 599h-5l-141 -599h-127l-179 734h102l139 -646h4l154 646h102l161 -646h3l140 646h98l-178 -734h-125z" />
    <glyph glyph-name="X" unicode="X" horiz-adv-x="601" 
d="M8 0l220 379l-212 355h110l168 -293h1l172 293h101l-213 -355l239 -379h-110l-194 306h-1l-175 -306h-106z" />
    <glyph glyph-name="Y" unicode="Y" horiz-adv-x="570" 
d="M334 0h-97v278l-240 456h110l178 -359l186 359h103l-240 -451v-283z" />
    <glyph glyph-name="Z" unicode="Z" horiz-adv-x="550" 
d="M43 734h469v-74l-370 -581h370v-79h-480v74l368 581h-357v79z" />
    <glyph glyph-name="a" unicode="a" horiz-adv-x="543" 
d="M511 1q-39 -8 -64 -6t-40.5 12t-23 26.5t-10.5 37.5q-22 -38 -63.5 -60.5t-100.5 -22.5q-42 0 -72.5 12t-50 31.5t-29 45t-9.5 52.5q0 52 24.5 83.5t67 48.5t100.5 23.5t124 9.5v25q0 41 -8.5 67.5t-23.5 42.5t-35 22t-44 6q-41 0 -62.5 -10t-30.5 -27.5t-8.5 -40.5
t3.5 -49l-82 -7q-9 43 -3.5 79.5t28 63.5t62.5 42.5t99 15.5q61 0 99.5 -18.5t59.5 -50.5t28.5 -76t7.5 -95v-186q0 -29 12 -38t44 -1zM364 231q-71 -2 -114.5 -9t-67.5 -19t-32 -29t-8 -38q0 -38 24 -60t72 -22q25 0 48 9.5t40.5 26.5t27.5 40.5t10 51.5v49z" />
    <glyph glyph-name="b" unicode="b" horiz-adv-x="561" 
d="M69 0v734h92v-292q9 13 23 27.5t34 26.5t46 20t58 8q36 0 71 -12t62.5 -42t44.5 -80t17 -125q0 -136 -55.5 -206.5t-158.5 -70.5q-50 0 -85.5 18t-60.5 53h-3l-19 -59h-66zM157 254q0 -107 34 -153t94 -46q67 0 102 52t35 159q0 54 -9 91t-25.5 59t-39.5 31.5t-51 9.5
q-32 0 -57.5 -11t-44 -35t-28.5 -63t-10 -94z" />
    <glyph glyph-name="c" unicode="c" horiz-adv-x="512" 
d="M398 331q-5 63 -37 93t-83 30q-64 0 -102 -48t-38 -153q0 -93 33 -143t104 -50q57 0 84.5 28.5t35.5 86.5l81 -7q-6 -50 -24 -84.5t-45.5 -55.5t-62.5 -30.5t-73 -9.5q-62 0 -105.5 20t-70.5 55.5t-39.5 83t-12.5 102.5q0 131 63.5 203t176.5 72q51 0 88 -15t60.5 -41
t35 -60t13.5 -71z" />
    <glyph glyph-name="d" unicode="d" horiz-adv-x="560" 
d="M492 734v-734h-74l-12 71h-2q-22 -39 -62.5 -61t-89.5 -22q-46 0 -84 14t-65.5 45t-43 80t-15.5 120q0 135 57 206t159 71q53 0 86 -19t55 -51v280h91zM405 260q0 56 -10 94t-27 61t-40.5 32.5t-51.5 9.5q-66 0 -101.5 -50.5t-35.5 -159.5q0 -53 9 -89.5t25.5 -59.5
t40.5 -33.5t54 -10.5q31 0 56 11t43 36t28 64t10 95z" />
    <glyph glyph-name="e" unicode="e" horiz-adv-x="525" 
d="M476 161q-7 -53 -28.5 -86.5t-50 -53t-61.5 -26.5t-63 -7q-64 0 -108 20t-71 55t-39 83.5t-12 104.5q0 62 15.5 112.5t46 86t75.5 55t103 19.5q109 0 159 -74.5t35 -211.5h-339q0 -37 7 -69.5t22.5 -57t42 -38.5t65.5 -14q50 0 83 25.5t41 85.5zM392 301q3 70 -25 113
t-94 43q-35 0 -59.5 -13t-41 -34.5t-25 -49.5t-9.5 -59h254z" />
    <glyph glyph-name="f" unicode="f" horiz-adv-x="313" 
d="M24 512h62v42q0 45 7.5 80.5t26 60t49.5 38t77 13.5q26 0 48.5 -4t35.5 -8l-9 -70q-15 5 -31.5 8t-36.5 3q-43 0 -59 -28t-16 -83v-52h122v-70h-122v-442h-92v442h-62v70z" />
    <glyph glyph-name="g" unicode="g" horiz-adv-x="560" 
d="M492 512v-483q0 -106 -55.5 -165t-173.5 -59q-73 0 -126.5 30.5t-70.5 99.5l81 20q6 -17 14 -31.5t21.5 -25t33 -16.5t48.5 -6q72 0 104.5 35.5t32.5 116.5v55h-2q-17 -32 -54 -56t-99 -24q-41 0 -78 13t-64.5 42t-43.5 76.5t-16 115.5q0 69 15.5 120t44 85.5t68.5 51.5
t88 17q58 0 91 -20t53 -51h3l18 59h67zM404 261q0 55 -9.5 92.5t-26.5 60.5t-40 33t-51 10q-29 0 -54 -10.5t-43.5 -34.5t-29.5 -63t-11 -97q0 -101 34 -142t93 -41q64 0 101 45t37 147z" />
    <glyph glyph-name="h" unicode="h" horiz-adv-x="563" 
d="M497 0h-92v299q0 26 -3.5 53t-15 49t-32.5 36t-57 14q-39 0 -65 -13t-41.5 -35.5t-22 -51.5t-6.5 -61v-290h-93v734h92v-296h1q11 16 24.5 31.5t32 27.5t43.5 19.5t59 7.5q85 0 130.5 -52.5t45.5 -164.5v-307z" />
    <glyph glyph-name="i" unicode="i" horiz-adv-x="231" 
d="M69 734h93v-107h-93v107zM69 512h93v-512h-93v512z" />
    <glyph glyph-name="j" unicode="j" horiz-adv-x="232" 
d="M72 734h92v-107h-92v107zM-56 -117q16 -4 29.5 -6t29.5 -2q38 0 53.5 26.5t15.5 83.5v527h92v-516q0 -96 -35.5 -143.5t-119.5 -47.5q-20 0 -40.5 3t-34.5 8z" />
    <glyph glyph-name="k" unicode="k" horiz-adv-x="506" 
d="M162 293l205 219h109l-176 -182l196 -330h-106l-153 266l-75 -75v-191h-93v734h93v-441z" />
    <glyph glyph-name="l" unicode="l" horiz-adv-x="231" 
d="M162 0h-93v734h93v-734z" />
    <glyph glyph-name="m" unicode="m" horiz-adv-x="863" 
d="M307 524q36 0 61.5 -8.5t44 -23t30 -33t18.5 -39.5q28 52 66.5 78t98.5 26q39 0 70.5 -12t54 -38.5t34.5 -68t12 -101.5v-304h-93v299q0 45 -7.5 74.5t-21 47t-32.5 24t-41 6.5q-54 0 -88.5 -39t-34.5 -122v-290h-92v299q0 45 -7 74.5t-20.5 47t-32 24t-41.5 6.5
q-58 0 -91 -40t-33 -121v-290h-93v512h86l4 -77h1q8 16 20.5 31.5t30 28.5t41.5 21t55 8z" />
    <glyph glyph-name="n" unicode="n" horiz-adv-x="563" 
d="M497 0h-92v299q0 82 -27 117t-82 35q-40 0 -66 -14t-41 -36.5t-21 -51.5t-6 -59v-290h-93v512h86l4 -77h1q8 15 21 31t32 28.5t45 21t60 8.5q86 0 132.5 -51.5t46.5 -163.5v-309z" />
    <glyph glyph-name="o" unicode="o" horiz-adv-x="553" 
d="M274 -12q-118 0 -174.5 69t-56.5 199q0 66 18.5 116t51.5 84t77 51t95 17q106 0 165.5 -65.5t59.5 -192.5q0 -138 -62 -208t-174 -70zM278 58q37 0 63.5 15.5t43 42.5t24 64t7.5 80q0 42 -7.5 77.5t-24 61t-42 39.5t-62.5 14t-63.5 -14.5t-44 -41t-26 -62t-8.5 -77.5
q0 -43 7.5 -79.5t24 -63t43 -41.5t65.5 -15z" />
    <glyph glyph-name="p" unicode="p" horiz-adv-x="561" 
d="M69 -183v695h77l10 -69h3q27 39 66.5 60t96.5 21q39 0 74.5 -14.5t62.5 -45.5t43 -78.5t16 -114.5q0 -79 -17.5 -133t-47.5 -87.5t-69 -48t-81 -14.5q-49 0 -85.5 19t-55.5 48h-2v-238h-91zM157 261q0 -59 10 -98.5t27 -63.5t41 -34t53 -10q69 0 101.5 55t32.5 160
q0 51 -9 86.5t-25.5 58t-39 32.5t-49.5 10q-66 0 -104 -45t-38 -151z" />
    <glyph glyph-name="q" unicode="q" horiz-adv-x="559" 
d="M491 512v-695h-90v251h-1q-20 -31 -57 -55.5t-97 -24.5q-41 0 -78 13t-64.5 43t-44 79.5t-16.5 123.5q0 76 17.5 128.5t47.5 85.5t70 48t85 15q50 0 84 -19t57 -52h3l18 59h66zM405 262q0 100 -33 147.5t-97 47.5q-30 0 -55 -11.5t-43 -36.5t-28 -65.5t-10 -98.5
q0 -103 33 -147t91 -44q32 0 58 10.5t45 35t29 64.5t10 98z" />
    <glyph glyph-name="r" unicode="r" horiz-adv-x="438" 
d="M329 341q7 64 -7.5 86.5t-48.5 22.5q-31 0 -52 -14t-34 -38t-19 -55.5t-6 -65.5v-277h-93v512h86l5 -74h1q18 37 51 61.5t87 24.5q64 0 97 -42t19 -137z" />
    <glyph glyph-name="s" unicode="s" horiz-adv-x="477" 
d="M351 357q-6 49 -30.5 73.5t-75.5 24.5q-48 0 -75 -17.5t-27 -55.5q0 -33 22 -48.5t54.5 -24t70.5 -15t70.5 -21.5t54.5 -43.5t22 -81.5q0 -37 -15.5 -66.5t-43 -50.5t-65 -32t-82.5 -11q-91 0 -138.5 38t-57.5 120l82 14q4 -24 10.5 -43.5t19.5 -32.5t33.5 -20t52.5 -7
q60 0 87 23.5t27 58.5t-21.5 51.5t-54 25.5t-70 15.5t-70 21t-54 41.5t-21.5 78q0 37 14.5 65.5t39.5 47.5t59.5 29t75.5 10q88 0 132.5 -39.5t53.5 -112.5z" />
    <glyph glyph-name="t" unicode="t" horiz-adv-x="341" 
d="M24 512h62v111l92 29v-140h122v-69h-122v-276q0 -56 14.5 -82t58.5 -26q19 0 33.5 2.5t29.5 7.5l9 -67q-14 -5 -38 -9.5t-54 -4.5q-42 0 -70 11.5t-44.5 33.5t-23.5 53.5t-7 71.5v285h-62v69z" />
    <glyph glyph-name="u" unicode="u" horiz-adv-x="549" 
d="M65 512h92v-302q0 -80 26 -114.5t77 -34.5q37 0 62 15t39.5 39t20.5 55.5t6 64.5v277h93v-512h-84l-6 77h-1q-8 -14 -20 -29.5t-30 -28.5t-43 -22t-59 -9q-85 0 -129 52t-44 164v308z" />
    <glyph glyph-name="v" unicode="v" horiz-adv-x="469" 
d="M187 0l-177 512h96l130 -412l129 412h95l-179 -512h-94z" />
    <glyph glyph-name="w" unicode="w" horiz-adv-x="780" 
d="M173 0l-159 512h94l114 -407h1l117 407h103l119 -407h1l111 407h92l-158 -512h-96l-121 417h-1l-123 -417h-94z" />
    <glyph glyph-name="x" unicode="x" horiz-adv-x="492" 
d="M14 0l173 263l-167 249h103l118 -185h1l120 185h96l-164 -246l184 -266h-104l-135 197l-128 -197h-97z" />
    <glyph glyph-name="y" unicode="y" horiz-adv-x="463" 
d="M273 -1q-19 -55 -36.5 -92.5t-38 -60t-47 -32t-62.5 -9.5q-20 0 -40.5 3t-32.5 8l11 65q15 -4 25 -6t26 -2q20 0 35 7t26.5 21.5t21.5 37.5t21 55l3 10l-174 508h97l124 -406h1l128 406h94z" />
    <glyph glyph-name="z" unicode="z" horiz-adv-x="437" 
d="M39 512h371v-70l-274 -366h275v-76h-384v71l272 366h-260v75z" />
    <glyph glyph-name="bracketleft" unicode="[" horiz-adv-x="302" 
d="M270 -132h-203v915h201v-63l-108 -2v-784l110 -3v-63z" />
    <glyph glyph-name="bracketright" unicode="]" horiz-adv-x="302" 
d="M32.0166 -132h202.987v915h-200.987v-63l107.993 -2v-784l-109.993 -3v-63z" />
    <glyph glyph-name="parenleft" unicode="(" horiz-adv-x="304" 
d="M266 771q-30 -54 -52.5 -106.5t-37.5 -106t-22.5 -108.5t-7.5 -115q0 -125 30.5 -235.5t87.5 -216.5l-54 -22q-80 109 -121.5 221t-41.5 247q0 68 11.5 128.5t33 116.5t51.5 109t67 106z" />
    <glyph glyph-name="parenright" unicode=")" horiz-adv-x="304" 
d="M38 -121q60 109 90 213t30 223q0 125 -30.5 236t-87.5 217l54 22q40 -54 70 -109t50.5 -112t31 -118.5t10.5 -128.5q0 -68 -11.5 -128.5t-32.5 -116.5t-51 -109.5t-67 -106.5z" />
    <glyph glyph-name="braceleft" unicode="{" horiz-adv-x="355" 
d="M125 628q0 43 9 72t30 46.5t54 25.5t81 10l7 -38q-27 -7 -44 -14t-27.5 -16.5t-14.5 -22t-4 -29.5v-201q0 -26 -3 -47.5t-12.5 -39t-27.5 -31t-48 -21.5v-2q29 -5 47 -15t28 -26t13.5 -37t3.5 -47v-204q0 -17 3.5 -29.5t13.5 -22t27.5 -16.5t45.5 -14l-7 -38
q-40 1 -72 7.5t-55 22.5t-35.5 42t-12.5 66v193q0 16 -5 32t-16.5 29t-29.5 21t-43 8v52q51 7 72.5 34t21.5 65v185z" />
    <glyph glyph-name="braceright" unicode="}" horiz-adv-x="355" 
d="M230.008 628q0 43 -9 72q-8.99902 29 -29.998 46.5q-20.998 17.5 -53.9961 25.5t-80.9951 10l-7 -38q26.998 -7 43.9971 -14t27.499 -16.5q10.499 -9.5 14.499 -22t4 -29.5v-201q0 -26 2.99902 -47.5q3 -21.5 12.5 -39q9.49902 -17.5 27.498 -31t47.9971 -21.5v-2
q-28.998 -5 -46.9971 -15t-27.999 -26q-9.99902 -16 -13.499 -37q-3.49902 -21 -3.49902 -47v-204q0 -17 -3.5 -29.5t-13.499 -22q-10 -9.5 -27.499 -16.5t-45.4971 -14l7 -38q39.9971 1 71.9951 7.5t54.9971 22.5q22.998 16 35.498 42q12.499 26 12.499 66v193q0 16 5 32
q4.99902 16 16.498 29q11.5 13 29.499 21t42.9971 8v52q-50.9971 7 -72.4961 34q-21.498 27 -21.498 65v185z" />
    <glyph glyph-name="backslash" unicode="\" horiz-adv-x="313" 
d="M356 -79l-73 -25l-305 860l73 23z" />
    <glyph glyph-name="slash" unicode="/" horiz-adv-x="369" 
d="M320 779l72 -27l-356 -849l-71 30z" />
    <glyph glyph-name="brokenbar" unicode="&#xa6;" horiz-adv-x="249" 
d="M84 205h81v-445h-81v445zM165 760v-445h-81v445h81z" />
    <glyph glyph-name="bar" unicode="|" horiz-adv-x="249" 
d="M165 760v-1000h-81v1000h81z" />
    <glyph glyph-name="asciicircum" unicode="^" horiz-adv-x="459" 
d="M272 755l155 -370l-71 -26l-119 291h-2l-133 -291l-71 25l173 371h68z" />
    <glyph glyph-name="underscore" unicode="_" horiz-adv-x="440" 
d="M440 -52v-72h-440v72h440z" />
    <glyph glyph-name="asciitilde" unicode="~" 
d="M49 248q15 41 43.5 69.5t70.5 28.5q23 0 48 -7.5t47 -16.5q18 -8 40 -16t39 -8q24 0 41 17t28 37l46 -29q-15 -36 -43 -65t-68 -29q-10 0 -32 4t-64 21q-33 13 -50 18t-29 5q-26 0 -42 -17t-29 -42z" />
    <glyph glyph-name="uni00A0" unicode="&#xa0;" horiz-adv-x="196" 
 />
    <glyph glyph-name="zero" unicode="0" horiz-adv-x="646" 
d="M319 -12q-139 0 -203 98t-64 279q0 91 19 162t55.5 120t89 74.5t119.5 25.5t116 -25t80.5 -72t46.5 -115.5t15 -155.5q0 -188 -66.5 -289.5t-207.5 -101.5zM325 65q47 0 79.5 20.5t53 60t30 96.5t9.5 131q0 70 -9 125t-29 93t-51.5 58t-77.5 20q-92 0 -136.5 -79
t-44.5 -221q0 -72 9.5 -128.5t30.5 -95.5t54.5 -59.5t81.5 -20.5z" />
    <glyph glyph-name="one" unicode="1" horiz-adv-x="341" 
d="M18 635q38 16 81.5 42t81.5 58h63v-735h-94v615q-15 -13 -47 -29t-66 -29z" />
    <glyph glyph-name="two" unicode="2" horiz-adv-x="537" 
d="M476 79v-79h-416q0 6 -0.5 14t-0.5 18q0 17 1 35t3 30q6 52 33 93t63.5 76.5t77.5 67.5t75.5 65t57 69.5t22.5 80.5q0 34 -10.5 57t-28 37.5t-40.5 20.5t-47 6q-41 0 -65.5 -14t-36.5 -38t-13 -55.5t4 -66.5l-89 -6q-11 51 -5 98t31 82t70 56t111 21q102 0 159 -52
t57 -145q0 -55 -24.5 -99t-61.5 -82t-79.5 -71t-79 -67t-60 -71t-22.5 -81h314z" />
    <glyph glyph-name="three" unicode="3" horiz-adv-x="557" 
d="M213 415q42 0 75.5 7.5t57.5 23.5t37 42.5t13 64.5q0 62 -37 89.5t-93 27.5q-77 0 -101 -46t-12 -127l-89 -7q-11 51 -4.5 97.5t31 82t69 56.5t110.5 21q49 0 90 -11.5t70.5 -34.5t46 -58t16.5 -82q0 -37 -11.5 -66t-31.5 -51t-46.5 -36.5t-57.5 -21.5q40 -8 70 -26
t50 -42.5t29.5 -54t9.5 -60.5q0 -52 -16.5 -92t-46.5 -67.5t-71.5 -41.5t-91.5 -14q-65 0 -109 17t-71 47t-39.5 72t-15.5 92l93 6q3 -38 11 -67.5t24.5 -49.5t42.5 -30t65 -10q23 0 46 7t41 23t29.5 42t11.5 64q0 41 -13 68.5t-37 44t-59 22.5t-79 5z" />
    <glyph glyph-name="four" unicode="4" horiz-adv-x="551" 
d="M337 238v373h-3l-215 -373h218zM430 238h92v-81h-92v-157h-93v157h-312v64l299 513h106v-496z" />
    <glyph glyph-name="five" unicode="5" horiz-adv-x="560" 
d="M277 408q-45 0 -79.5 -24.5t-52.5 -55.5l-73 8l23 398h381v-81h-302l-20 -234q23 27 61 47t87 20q46 0 84 -16t65 -47.5t42 -77t15 -105.5q0 -55 -15 -101.5t-44 -80t-73 -52t-102 -18.5q-62 0 -103 18t-66 49.5t-37 72.5t-16 88l91 6q8 -83 41 -120t96 -37q28 0 52 10
t41.5 31t27.5 53.5t10 76.5q0 46 -10 79t-28 53.5t-42.5 30t-53.5 9.5z" />
    <glyph glyph-name="six" unicode="6" horiz-adv-x="594" 
d="M330 670q-41 0 -70.5 -16t-49.5 -51.5t-31.5 -90.5t-15.5 -133q18 23 39 38.5t44 25t46 13.5t44 4q40 0 77 -14t65.5 -42t45 -70.5t16.5 -100.5q0 -114 -60.5 -179.5t-174.5 -65.5q-63 0 -108 19t-73.5 59.5t-42 105t-13.5 156.5q0 203 65 311t201 108q59 0 97 -17.5
t59.5 -47t28.5 -67.5t4 -79l-89 -8q5 67 -19 104.5t-85 37.5zM306 388q-29 0 -54.5 -9t-45 -27t-31 -45t-11.5 -63q0 -37 7 -69.5t24 -57t45 -38.5t69 -14q38 0 64 13.5t42 36t23 52.5t7 62q0 75 -32.5 117t-106.5 42z" />
    <glyph glyph-name="seven" unicode="7" horiz-adv-x="472" 
d="M137 0q4 100 20 189t44 169.5t67 153.5t89 141h-318v81h418v-62q-62 -81 -102.5 -161t-65.5 -162.5t-36.5 -169t-15.5 -179.5h-100z" />
    <glyph glyph-name="eight" unicode="8" horiz-adv-x="601" 
d="M295 -12q-65 0 -111 16t-75 44t-42.5 66.5t-13.5 84.5q0 74 33 122.5t102 75.5q-51 21 -78.5 62.5t-27.5 99.5q0 42 15.5 77t45 59.5t71 38t93.5 13.5q54 0 93.5 -13.5t65.5 -37.5t39 -57t13 -72q0 -58 -28.5 -101.5t-82.5 -64.5q72 -23 106.5 -71t34.5 -120
q0 -48 -15 -88.5t-45.5 -70.5t-78.5 -46.5t-114 -16.5zM295 65q78 0 118.5 41t40.5 109q0 30 -8.5 57t-26.5 47.5t-47 32.5t-70 12q-78 0 -116 -42.5t-38 -111.5q0 -30 8 -56.5t25 -46t45 -31t69 -11.5zM299 434q34 0 58 10t38.5 27t21 39.5t6.5 47.5q0 24 -6 44.5t-20 36.5
t-37.5 25t-57.5 9q-35 0 -58.5 -9t-38 -25t-21 -37.5t-6.5 -46.5t6.5 -47t20.5 -38.5t37.5 -26t56.5 -9.5z" />
    <glyph glyph-name="nine" unicode="9" horiz-adv-x="594" 
d="M278 65q82 0 116.5 73.5t41.5 217.5q-16 -23 -36.5 -38t-42.5 -25t-45 -14t-44 -4q-41 0 -78.5 13t-66.5 40t-46.5 69t-17.5 100q0 56 15.5 102t45.5 79t73.5 51t100.5 18q60 0 104.5 -18t73.5 -57.5t43.5 -101.5t14.5 -149q0 -105 -14.5 -186t-45 -136t-79 -83
t-116.5 -28q-59 0 -99 17t-64.5 46t-35.5 67t-11 81l89 8q4 -77 33 -109.5t91 -32.5zM293 347q28 0 54 9t45.5 28t31 48t11.5 68q0 35 -7.5 66t-24.5 54t-44.5 36.5t-68.5 13.5q-38 0 -64 -13.5t-42 -36t-23 -52.5t-7 -62q0 -75 32.5 -117t106.5 -42z" />
    <glyph glyph-name="dollar" unicode="$" horiz-adv-x="585" 
d="M341 797v-74q89 -11 134.5 -68t53.5 -148l-87 -14q-6 63 -29.5 100.5t-71.5 49.5v-233q36 -9 72 -20t64 -31.5t45.5 -53.5t17.5 -85q0 -45 -14.5 -81t-40.5 -62t-62.5 -42.5t-81.5 -22.5v-76h-82v74q-101 7 -154 59.5t-63 163.5l91 14q3 -35 10.5 -62t22 -47t37 -32.5
t56.5 -16.5v251q-36 8 -70.5 19t-62 31.5t-44 53.5t-16.5 86q0 43 14.5 77t40.5 58t61 38.5t77 19.5v74h82zM445 209q0 26 -8 44.5t-22 31t-33 21.5t-41 15v-231q53 9 78.5 40t25.5 79zM162 537q0 -47 27.5 -70.5t69.5 -36.5v215q-47 -7 -72 -33.5t-25 -74.5z" />
    <glyph glyph-name="Euro" unicode="&#x20ac;" horiz-adv-x="595" 
d="M327 67q35 0 61 12t44 33t28.5 50.5t15.5 64.5l86 -9q-16 -120 -78.5 -175t-163.5 -55q-214 0 -248 264h-74l12 70h56q-1 10 -1 20v21v18.5t1 18.5h-48l12 70h43q10 70 35 122.5t60.5 87t80.5 51.5t96 17q52 0 93 -18t69 -51t42.5 -79t14.5 -101l-85 -8q-2 51 -13 85
t-29 54.5t-43 29t-55 8.5q-31 0 -58.5 -11t-49.5 -35t-38 -61.5t-24 -90.5h222l-12 -70h-217v-34v-22.5t1 -21.5h208l-12 -70h-190q27 -185 158 -185z" />
    <glyph glyph-name="cent" unicode="&#xa2;" horiz-adv-x="514" 
d="M318 696v-82q42 -5 72 -21.5t49.5 -41.5t29.5 -56.5t12 -65.5l-80 -6q-5 51 -26.5 80t-56.5 38v-386q35 8 54 35.5t26 75.5l79 -5q-5 -43 -19 -74.5t-35 -53t-48 -33.5t-57 -17v-83h-82v82q-52 6 -88 28t-58.5 56.5t-33 79t-10.5 95.5q0 115 49.5 185t140.5 86v84h82z
M141 346q0 -78 22.5 -126.5t72.5 -62.5v382q-45 -14 -70 -61t-25 -132z" />
    <glyph glyph-name="sterling" unicode="&#xa3;" horiz-adv-x="514" 
d="M29 401h72q-20 29 -34.5 64t-14.5 81q0 42 15 79t44.5 64t72 42.5t97.5 15.5q54 0 96 -17t68.5 -49t36.5 -79t0 -108l-88 7q6 49 0 82t-22 52.5t-40.5 27.5t-55.5 8q-58 0 -94 -31t-36 -90q0 -46 18 -81.5t40 -67.5h193v-71h-152q14 -31 14 -63q0 -46 -26 -88t-82 -100
h329v-79h-425v79q60 58 87 99.5t27 79.5q0 20 -6 37.5t-15 34.5h-119v71z" />
    <glyph glyph-name="yen" unicode="&#xa5;" horiz-adv-x="533" 
d="M316 334v-70h113v-71h-113v-193h-98v193h-126v71h126v70h-126v71h91l-183 329h110l156 -312l164 312h103l-186 -329h82v-71h-113z" />
    <glyph glyph-name="florin" unicode="&#x192;" horiz-adv-x="418" 
d="M59 454h99l20 114q7 43 19.5 76t33.5 55.5t53 34.5t77 12q28 0 50.5 -5t36.5 -10l-20 -67q-15 5 -31 8t-35 3q-44 0 -65 -28t-30 -83l-20 -110h125l-13 -69h-124l-61 -351q-7 -42 -20 -74t-34.5 -54.5t-53.5 -34t-77 -11.5q-28 0 -50 5t-34 9l19 68q15 -5 31 -8t35 -3
q42 0 63 27t31 81l61 346h-99z" />
    <glyph glyph-name="section" unicode="&#xa7;" horiz-adv-x="628" 
d="M58 271q0 44 25 79.5t82 68.5q-29 21 -48.5 52.5t-19.5 79.5q0 45 18.5 79t50.5 57.5t75 35t92 11.5q98 0 159 -46t67 -137l-90 -11q-7 57 -39 88.5t-100 31.5q-66 0 -100 -27.5t-34 -70.5t27.5 -66.5t69.5 -37.5t90 -24.5t90 -28.5t69.5 -48t27.5 -83q0 -47 -27 -85.5
t-75 -67.5q29 -20 46.5 -51t17.5 -79q0 -45 -18.5 -79.5t-50.5 -57t-74 -34t-90 -11.5q-103 0 -165.5 46t-71.5 134l91 12q6 -57 40.5 -86.5t106.5 -29.5q65 0 99.5 26t34.5 73q0 33 -16 53.5t-42.5 33.5t-60.5 21t-69 16t-69 18.5t-60.5 28.5t-42.5 45.5t-16 70.5zM154 285
q0 -36 22.5 -55t58 -31t78 -20.5t82.5 -22.5q35 20 57 45t22 60q0 33 -23 51.5t-58.5 29.5t-78.5 20t-83 23q-35 -21 -56 -45.5t-21 -54.5z" />
    <glyph glyph-name="copyright" unicode="&#xa9;" horiz-adv-x="807" 
d="M755 333q0 -80 -25.5 -145t-72 -112t-111 -72.5t-143.5 -25.5q-88 0 -154 26t-109.5 72t-65.5 108t-22 134q0 83 27.5 149t75 111.5t112 69.5t138.5 24q82 0 147 -24t110 -68.5t69 -107t24 -139.5zM405 41q66 0 118 20t88 57.5t55 91t19 120.5q0 68 -20.5 120t-57.5 87.5
t-88.5 53.5t-113.5 18q-61 0 -112.5 -19.5t-89 -56.5t-58.5 -91t-21 -123q0 -65 19 -116.5t55 -87.5t88.5 -55t118.5 -19zM563 265q-6 -41 -21.5 -67.5t-37.5 -42t-47 -22t-49 -6.5q-47 0 -80 15t-54.5 41.5t-31.5 63t-10 78.5q0 44 12 81.5t34.5 64.5t56 42t76.5 15
q28 0 53.5 -7t45.5 -23.5t33 -42.5t15 -63l-58 -9q-5 45 -26 67.5t-63 22.5q-48 0 -80 -34.5t-32 -113.5q0 -28 6 -54t18.5 -45.5t33 -31t49.5 -11.5q49 0 71.5 25t30.5 66z" />
    <glyph glyph-name="registered" unicode="&#xae;" horiz-adv-x="446" 
d="M411 553q0 -42 -14 -76t-38.5 -59t-59 -38.5t-76.5 -13.5q-47 0 -82 14t-58 38t-35 57t-12 71q0 43 14.5 78t40 59.5t60 37.5t73.5 13q43 0 77.5 -13t59 -36.5t37.5 -57t13 -74.5zM367 550q0 71 -40 107.5t-103 36.5q-30 0 -56.5 -10t-46 -28.5t-30.5 -46t-11 -62.5
q0 -66 38.5 -103.5t105.5 -37.5t105 38.5t38 105.5zM311 457h-41l-43 76h-27v-76h-39v191h71q39 0 51.5 -16.5t12.5 -37.5q0 -38 -34 -51zM213 562q19 0 31 5t12 25q0 17 -9.5 22t-26.5 5h-20v-57h13z" />
    <glyph glyph-name="trademark" unicode="&#x2122;" horiz-adv-x="815" 
d="M130 680h-113v54h294v-54h-113v-330h-68v330zM532 350l-110 314v-314h-59v384h91l108 -317l108 317h88v-384h-61v314l-108 -314h-57z" />
    <glyph glyph-name="ordfeminine" unicode="&#xaa;" horiz-adv-x="371" 
d="M346 419q-53 -11 -75.5 1t-29.5 41q-14 -23 -41 -36.5t-66 -13.5q-28 0 -47.5 7.5t-32 20t-18 29t-5.5 33.5q0 32 15.5 51.5t43 31t64.5 16.5t80 8v12q0 43 -17.5 58t-46.5 15q-22 0 -34 -4.5t-17 -13t-5 -20t2 -25.5l-69 -7q-12 54 18 89t110 35q42 0 68 -10.5
t40.5 -29.5t20 -45.5t5.5 -57.5v-115q0 -16 7.5 -21.5t28.5 -1.5zM234 563q-40 -2 -64.5 -6.5t-38 -11.5t-18 -16.5t-4.5 -21.5q0 -21 13 -33.5t38 -12.5q30 0 52 19t22 51v32z" />
    <glyph glyph-name="ordmasculine" unicode="&#xba;" horiz-adv-x="390" 
d="M192 411q-79 0 -117.5 43t-38.5 125q0 42 12.5 73.5t35 52.5t52.5 31.5t65 10.5q72 0 112 -41t40 -121q0 -88 -42.5 -131t-118.5 -43zM195 467q43 0 61.5 30.5t18.5 83.5q0 51 -18 80.5t-60 29.5t-62 -30.5t-20 -81.5q0 -52 17 -82t63 -30z" />
    <glyph glyph-name="guillemotleft" unicode="&#xab;" horiz-adv-x="421" 
d="M322 49l-129 202l128 195l55 -25l-97 -167l98 -178zM166 49l-129 202l128 195l54 -25l-97 -167l98 -178z" />
    <glyph glyph-name="guillemotright" unicode="&#xbb;" horiz-adv-x="421" 
d="M99.0195 49l128.992 202l-127.992 195l-54.9961 -25l96.9932 -167l-97.9932 -178zM255.01 49l128.992 202l-127.992 195l-53.9961 -25l96.9941 -167l-97.9941 -178z" />
    <glyph glyph-name="guilsinglleft" unicode="&#x2039;" horiz-adv-x="264" 
d="M166 49l-129 202l128 195l54 -25l-97 -167l98 -178z" />
    <glyph glyph-name="guilsinglright" unicode="&#x203a;" horiz-adv-x="263" 
d="M89.0098 49l128.992 202l-127.992 195l-53.9961 -25l96.9941 -167l-97.9941 -178z" />
    <glyph glyph-name="quoteleft" unicode="&#x2018;" horiz-adv-x="200" 
d="M147 484h-101v98l53 164l40 -11l-33 -130h41v-121z" />
    <glyph glyph-name="quoteright" unicode="&#x2019;" horiz-adv-x="200" 
d="M46 734h101v-99l-54 -163l-40 11l33 130h-40v121z" />
    <glyph glyph-name="quotesinglbase" unicode="&#x201a;" horiz-adv-x="200" 
d="M53 121h101v-99l-53 -163l-40 11l33 130h-41v121z" />
    <glyph glyph-name="quotedblleft" unicode="&#x201c;" horiz-adv-x="352" 
d="M307 484h-101v98l53 164l40 -11l-33 -130h41v-121zM147 484h-101v98l53 164l40 -11l-33 -130h41v-121z" />
    <glyph glyph-name="quotedblright" unicode="&#x201d;" horiz-adv-x="360" 
d="M206 734h101v-99l-54 -163l-40 11l33 130h-40v121zM46 734h101v-99l-54 -163l-40 11l33 130h-40v121z" />
    <glyph glyph-name="quotedblbase" unicode="&#x201e;" horiz-adv-x="360" 
d="M206 122h101v-99l-54 -163l-40 11l33 130h-40v121zM47 122h101v-99l-54 -163l-40 11l33 130h-40v121z" />
    <glyph glyph-name="dagger" unicode="&#x2020;" horiz-adv-x="423" 
d="M252 532l-13 -252h-55l-15 252l-143 10v53l147 10l9 129h59l9 -129l147 -10v-53z" />
    <glyph glyph-name="daggerdbl" unicode="&#x2021;" horiz-adv-x="423" 
d="M250 347l-13 -91h-51l-13 91l-147 10v54l147 9l13 64l-13 78l-147 10v54l147 10l9 98h59l9 -98l147 -10v-54l-147 -10l-13 -79l13 -63l147 -9v-54z" />
    <glyph glyph-name="bullet" unicode="&#x2022;" horiz-adv-x="479" 
d="M141 340q0 53 29 76t69 23q19 0 37 -5.5t32 -17.5t22 -30.5t8 -45.5q0 -26 -8 -44.5t-22 -30.5t-32 -17.5t-37 -5.5q-20 0 -37.5 5.5t-31 17.5t-21.5 30.5t-8 44.5z" />
    <glyph glyph-name="ellipsis" unicode="&#x2026;" horiz-adv-x="678" 
d="M64 118h98v-118h-98v118zM290 118h98v-118h-98v118zM516 118h98v-118h-98v118z" />
    <glyph glyph-name="paragraph" unicode="&#xb6;" horiz-adv-x="640" 
d="M304 239h-9q-66 0 -112.5 20.5t-76 55.5t-42.5 81t-13 96q0 47 13 90.5t43.5 77.5t80.5 54t123 20h75v-875h-82v380zM469 734h82v-874h-82v874z" />
    <glyph glyph-name="periodcentered" unicode="&#xb7;" horiz-adv-x="226" 
d="M64 390h98v-118h-98v118z" />
    <glyph glyph-name="uni00AD" unicode="&#xad;" horiz-adv-x="401" 
d="M343 345v-72h-286v72h286z" />
    <glyph glyph-name="endash" unicode="&#x2013;" horiz-adv-x="440" 
d="M440 345v-72h-440v72h440z" />
    <glyph glyph-name="emdash" unicode="&#x2014;" horiz-adv-x="880" 
d="M880 345v-72h-880v72h880z" />
    <glyph glyph-name="hyphen.case" horiz-adv-x="342" 
d="M36 305v76h271v-76h-271z" />
    <glyph glyph-name="Agrave" unicode="&#xc0;" horiz-adv-x="640" 
d="M383 734l253 -734h-101l-69 201h-296l-68 -201h-98l250 734h129zM317 645h-1l-123 -367h248zM239 920l162 -110l-27 -47l-178 88z" />
    <glyph glyph-name="Aacute" unicode="&#xc1;" horiz-adv-x="640" 
d="M383 734l253 -734h-101l-69 201h-296l-68 -201h-98l250 734h129zM317 645h-1l-123 -367h248zM434 851l-178 -88l-26 47l163 110z" />
    <glyph glyph-name="Acircumflex" unicode="&#xc2;" horiz-adv-x="640" 
d="M383 734l253 -734h-101l-69 201h-296l-68 -201h-98l250 734h129zM317 645h-1l-123 -367h248zM343 916l122 -117l-29 -36l-120 79l-120 -79l-28 36l122 117h53z" />
    <glyph glyph-name="Atilde" unicode="&#xc3;" horiz-adv-x="640" 
d="M383 734l253 -734h-101l-69 201h-296l-68 -201h-98l250 734h129zM317 645h-1l-123 -367h248zM175 789q11 55 34 75.5t46 20.5q18 0 35 -5t32.5 -10.5t30 -10.5t27.5 -5q12 0 20.5 9t16.5 33l46 -8q-11 -56 -33 -77t-46 -21q-20 0 -37 5t-33 10.5t-30 10.5t-26 5
q-25 0 -35 -39z" />
    <glyph glyph-name="Adieresis" unicode="&#xc4;" horiz-adv-x="640" 
d="M383 734l253 -734h-101l-69 201h-296l-68 -201h-98l250 734h129zM317 645h-1l-123 -367h248zM353 881h84v-97h-84v97zM189 881h84v-97h-84v97z" />
    <glyph glyph-name="Aring" unicode="&#xc5;" horiz-adv-x="640" 
d="M383 734l253 -734h-101l-69 201h-296l-68 -201h-98l250 734h129zM317 645h-1l-123 -367h248zM314 761q-51 0 -74 24.5t-23 64.5q0 42 30 65.5t71 23.5q45 0 71.5 -23t26.5 -63q0 -42 -26.5 -67t-75.5 -25zM316 805q39 0 39 46q0 25 -10.5 35t-27.5 10q-18 0 -30 -10.5
t-12 -35.5q0 -24 10.5 -34.5t30.5 -10.5z" />
    <glyph glyph-name="Aringacute" unicode="&#x1fa;" horiz-adv-x="640" 
d="M4 0l249 732q-32 23 -32 73q0 42 30 65.5t71 23.5q45 0 71.5 -23t26.5 -63q0 -50 -37 -75l253 -733h-101l-69 201h-296l-68 -201h-98zM317 645h-1l-123 -367h248zM425 987l-178 -88l-26 47l163 110zM320 760q39 0 39 46q0 25 -10.5 35t-27.5 10q-18 0 -30 -10.5
t-12 -35.5q0 -24 10.5 -34.5t30.5 -10.5z" />
    <glyph glyph-name="AE" unicode="&#xc6;" horiz-adv-x="909" 
d="M806 328h-266v-249h323v-79h-421v328h-224l-116 -328h-98l268 734h567v-79h-299v-249h266v-78zM243 406h199v249h-110z" />
    <glyph glyph-name="AEacute" unicode="&#x1fc;" horiz-adv-x="909" 
d="M683 851l-178 -88l-26 47l163 110zM806 328h-266v-249h323v-79h-421v328h-224l-116 -328h-98l268 734h567v-79h-299v-249h266v-78zM243 406h199v249h-110z" />
    <glyph glyph-name="Ccedilla" unicode="&#xc7;" horiz-adv-x="640" 
d="M309 -11q-127 8 -191.5 100t-64.5 271q0 98 22.5 170.5t63 120.5t96.5 71.5t123 23.5q57 0 102 -19t75.5 -53.5t46 -83.5t13.5 -109l-93 -8q0 54 -11.5 90.5t-32 59t-48.5 32.5t-61 10q-39 0 -74 -16.5t-61 -52.5t-41 -93.5t-15 -139.5q0 -150 44 -222t138 -72
q73 0 113 48t46 131l93 -8q-5 -63 -23.5 -109t-49 -76.5t-71 -46.5t-89.5 -19l-18 -40q13 6 29 6q35 0 57 -21t22 -59q0 -44 -31.5 -68t-78.5 -24q-25 0 -52.5 10t-48.5 39l34 34q14 -15 28.5 -23t32.5 -8q45 0 45 39q0 20 -11.5 29.5t-29.5 9.5q-9 0 -16.5 -3t-13.5 -7
l-28 13z" />
    <glyph glyph-name="Egrave" unicode="&#xc8;" horiz-adv-x="557" 
d="M214 920l162 -110l-27 -47l-178 88zM454 338h-266v-259h323v-79h-421v734h398v-79h-300v-239h266v-78z" />
    <glyph glyph-name="Eacute" unicode="&#xc9;" horiz-adv-x="557" 
d="M408 851l-178 -88l-26 47l163 110zM454 338h-266v-259h323v-79h-421v734h398v-79h-300v-239h266v-78z" />
    <glyph glyph-name="Ecircumflex" unicode="&#xca;" horiz-adv-x="557" 
d="M454 338h-266v-259h323v-79h-421v734h398v-79h-300v-239h266v-78zM315 916l122 -117l-29 -36l-120 79l-120 -79l-28 36l122 117h53z" />
    <glyph glyph-name="Edieresis" unicode="&#xcb;" horiz-adv-x="557" 
d="M330 881h84v-97h-84v97zM166 881h84v-97h-84v97zM454 338h-266v-259h323v-79h-421v734h398v-79h-300v-239h266v-78z" />
    <glyph glyph-name="Igrave" unicode="&#xcc;" horiz-adv-x="364" 
d="M229 71h79v-71h-251v71h76v592h-76v71h251v-71h-79v-592zM108 920l162 -110l-27 -47l-178 88z" />
    <glyph glyph-name="Iacute" unicode="&#xcd;" horiz-adv-x="364" 
d="M229 71h79v-71h-251v71h76v592h-76v71h251v-71h-79v-592zM298 851l-178 -88l-26 47l163 110z" />
    <glyph glyph-name="Icircumflex" unicode="&#xce;" horiz-adv-x="364" 
d="M229 71h79v-71h-251v71h76v592h-76v71h251v-71h-79v-592zM210 916l122 -117l-29 -36l-120 79l-120 -79l-28 36l122 117h53z" />
    <glyph glyph-name="Idieresis" unicode="&#xcf;" horiz-adv-x="364" 
d="M229 71h79v-71h-251v71h76v592h-76v71h251v-71h-79v-592zM224 881h84v-97h-84v97zM60 881h84v-97h-84v97z" />
    <glyph glyph-name="Eth" unicode="&#xd0;" horiz-adv-x="658" 
d="M93 0v331h-69v76h69v327h130q108 0 181 -21.5t117.5 -65.5t64 -113t19.5 -163q0 -98 -20 -168t-65.5 -115t-118.5 -66.5t-179 -21.5h-129zM236 79q72 0 123.5 15t83.5 49.5t47 90.5t15 137q0 73 -13 126.5t-44 88.5t-81 52t-125 17h-51v-248h194v-76h-194v-252h45z" />
    <glyph glyph-name="Ntilde" unicode="&#xd1;" horiz-adv-x="702" 
d="M206 789q11 55 34 75.5t46 20.5q18 0 35 -5t32.5 -10.5t30 -10.5t27.5 -5q12 0 20.5 9t16.5 33l46 -8q-11 -56 -33 -77t-46 -21q-20 0 -37 5t-33 10.5t-30 10.5t-26 5q-25 0 -35 -39zM498 0l-317 608v-608h-90v734h125l306 -602v602h89v-734h-113z" />
    <glyph glyph-name="Ograve" unicode="&#xd2;" horiz-adv-x="685" 
d="M279 920l162 -110l-27 -47l-178 88zM339 -12q-146 0 -216 98t-70 279q0 91 21 162t60.5 120t96 74.5t127.5 25.5q140 0 207 -97t67 -271q0 -188 -72.5 -289.5t-220.5 -101.5zM345 68q50 0 85.5 20.5t58 59.5t33 96t10.5 129q0 139 -41.5 215.5t-137.5 76.5
q-99 0 -149 -78t-50 -218q0 -71 10.5 -127t33.5 -94.5t59.5 -59t87.5 -20.5z" />
    <glyph glyph-name="Oacute" unicode="&#xd3;" horiz-adv-x="685" 
d="M473 851l-178 -88l-26 47l163 110zM339 -12q-146 0 -216 98t-70 279q0 91 21 162t60.5 120t96 74.5t127.5 25.5q140 0 207 -97t67 -271q0 -188 -72.5 -289.5t-220.5 -101.5zM345 68q50 0 85.5 20.5t58 59.5t33 96t10.5 129q0 139 -41.5 215.5t-137.5 76.5q-99 0 -149 -78
t-50 -218q0 -71 10.5 -127t33.5 -94.5t59.5 -59t87.5 -20.5z" />
    <glyph glyph-name="Ocircumflex" unicode="&#xd4;" horiz-adv-x="685" 
d="M339 -12q-146 0 -216 98t-70 279q0 91 21 162t60.5 120t96 74.5t127.5 25.5q140 0 207 -97t67 -271q0 -188 -72.5 -289.5t-220.5 -101.5zM345 68q50 0 85.5 20.5t58 59.5t33 96t10.5 129q0 139 -41.5 215.5t-137.5 76.5q-99 0 -149 -78t-50 -218q0 -71 10.5 -127
t33.5 -94.5t59.5 -59t87.5 -20.5zM382 916l122 -117l-29 -36l-120 79l-120 -79l-28 36l122 117h53z" />
    <glyph glyph-name="Otilde" unicode="&#xd5;" horiz-adv-x="685" 
d="M211 789q11 55 34 75.5t46 20.5q18 0 35 -5t32.5 -10.5t30 -10.5t27.5 -5q12 0 20.5 9t16.5 33l46 -8q-11 -56 -33 -77t-46 -21q-20 0 -37 5t-33 10.5t-30 10.5t-26 5q-25 0 -35 -39zM339 -12q-146 0 -216 98t-70 279q0 91 21 162t60.5 120t96 74.5t127.5 25.5
q140 0 207 -97t67 -271q0 -188 -72.5 -289.5t-220.5 -101.5zM345 68q50 0 85.5 20.5t58 59.5t33 96t10.5 129q0 139 -41.5 215.5t-137.5 76.5q-99 0 -149 -78t-50 -218q0 -71 10.5 -127t33.5 -94.5t59.5 -59t87.5 -20.5z" />
    <glyph glyph-name="Odieresis" unicode="&#xd6;" horiz-adv-x="685" 
d="M395 881h84v-97h-84v97zM231 881h84v-97h-84v97zM339 -12q-146 0 -216 98t-70 279q0 91 21 162t60.5 120t96 74.5t127.5 25.5q140 0 207 -97t67 -271q0 -188 -72.5 -289.5t-220.5 -101.5zM345 68q50 0 85.5 20.5t58 59.5t33 96t10.5 129q0 139 -41.5 215.5t-137.5 76.5
q-99 0 -149 -78t-50 -218q0 -71 10.5 -127t33.5 -94.5t59.5 -59t87.5 -20.5z" />
    <glyph glyph-name="Oslash" unicode="&#xd8;" horiz-adv-x="677" 
d="M335 -12q-72 0 -124 24l-38 -74l-72 37l44 85q-47 48 -69.5 124.5t-22.5 180.5q0 91 21 162t60 120t94.5 74.5t125.5 25.5q74 0 131 -31l37 72l73 -34l-47 -91q38 -48 57 -119t19 -165q0 -188 -72 -289.5t-217 -101.5zM154 369q0 -68 9.5 -122t30.5 -92l249 480
q-38 30 -94 30q-96 0 -145.5 -78t-49.5 -218zM341 68q97 0 140 80t43 225q0 58 -7 105.5t-22 83.5l-243 -471q37 -23 89 -23z" />
    <glyph glyph-name="Oslashacute" unicode="&#x1fe;" horiz-adv-x="677" 
d="M469 855l-178 -88l-26 47l163 110zM335 -12q-72 0 -124 24l-38 -74l-72 37l44 85q-47 48 -69.5 124.5t-22.5 180.5q0 91 21 162t60 120t94.5 74.5t125.5 25.5q74 0 131 -31l37 72l73 -34l-47 -91q38 -48 57 -119t19 -165q0 -188 -72 -289.5t-217 -101.5zM154 369
q0 -68 9.5 -122t30.5 -92l249 480q-38 30 -94 30q-96 0 -145.5 -78t-49.5 -218zM341 68q97 0 140 80t43 225q0 58 -7 105.5t-22 83.5l-243 -471q37 -23 89 -23z" />
    <glyph glyph-name="Ugrave" unicode="&#xd9;" horiz-adv-x="703" 
d="M270 920l162 -110l-27 -47l-178 88zM521 734h97v-477q0 -130 -68.5 -199.5t-202.5 -69.5q-71 0 -120.5 18.5t-81 54t-46 85.5t-14.5 113v475h97v-455q0 -108 39.5 -159t130.5 -51q88 0 128.5 49.5t40.5 159.5v456z" />
    <glyph glyph-name="Uacute" unicode="&#xda;" horiz-adv-x="703" 
d="M464 851l-178 -88l-26 47l163 110zM521 734h97v-477q0 -130 -68.5 -199.5t-202.5 -69.5q-71 0 -120.5 18.5t-81 54t-46 85.5t-14.5 113v475h97v-455q0 -108 39.5 -159t130.5 -51q88 0 128.5 49.5t40.5 159.5v456z" />
    <glyph glyph-name="Ucircumflex" unicode="&#xdb;" horiz-adv-x="703" 
d="M521 734h97v-477q0 -130 -68.5 -199.5t-202.5 -69.5q-71 0 -120.5 18.5t-81 54t-46 85.5t-14.5 113v475h97v-455q0 -108 39.5 -159t130.5 -51q88 0 128.5 49.5t40.5 159.5v456zM373 916l122 -117l-29 -36l-120 79l-120 -79l-28 36l122 117h53z" />
    <glyph glyph-name="Udieresis" unicode="&#xdc;" horiz-adv-x="703" 
d="M386 881h84v-97h-84v97zM222 881h84v-97h-84v97zM521 734h97v-477q0 -130 -68.5 -199.5t-202.5 -69.5q-71 0 -120.5 18.5t-81 54t-46 85.5t-14.5 113v475h97v-455q0 -108 39.5 -159t130.5 -51q88 0 128.5 49.5t40.5 159.5v456z" />
    <glyph glyph-name="Yacute" unicode="&#xdd;" horiz-adv-x="570" 
d="M334 0h-97v278l-240 456h110l178 -359l186 359h103l-240 -451v-283zM403 851l-178 -88l-26 47l163 110z" />
    <glyph glyph-name="Thorn" unicode="&#xde;" horiz-adv-x="604" 
d="M189 0h-98v734h98v-132h137q69 0 115 -16.5t73 -45t38 -67t11 -82.5q0 -26 -4 -54t-15 -55t-30 -51.5t-49 -43t-73 -29.5t-101 -11h-102v-147zM284 224q93 0 135 40.5t42 121.5q0 71 -35.5 104.5t-120.5 33.5h-116v-300h95z" />
    <glyph glyph-name="germandbls" unicode="&#xdf;" horiz-adv-x="654" 
d="M165 0h-92v502q0 63 18 109.5t51 76.5t79.5 44.5t102.5 14.5q105 0 157 -47.5t52 -129.5q0 -14 -2 -30.5t-5.5 -33t-7.5 -30.5t-7 -23q-21 3 -37 3t-31 -3t-27 -10t-19.5 -19t-7.5 -30q0 -27 19.5 -44t53.5 -28q27 -9 54 -19.5t48.5 -28.5t35.5 -45.5t14 -69.5
q0 -41 -14 -73t-38.5 -54t-59 -33t-75.5 -11t-74.5 8t-58.5 27t-40.5 49t-19.5 75l80 13q8 -57 33.5 -80.5t78.5 -23.5q48 0 73.5 24t25.5 70q0 22 -7.5 37.5t-20.5 26t-30 18t-36 14.5q-24 8 -47 17.5t-42 24t-30.5 37.5t-11.5 58q0 31 12 54.5t31.5 39.5t44.5 24.5t51 8.5
q2 8 4.5 26.5t2.5 31.5q0 56 -33.5 81.5t-88.5 25.5q-82 0 -120.5 -45t-38.5 -143v-487z" />
    <glyph glyph-name="agrave" unicode="&#xe0;" horiz-adv-x="543" 
d="M511 1q-39 -8 -64 -6t-40.5 12t-23 26.5t-10.5 37.5q-22 -38 -63.5 -60.5t-100.5 -22.5q-42 0 -72.5 12t-50 31.5t-29 45t-9.5 52.5q0 52 24.5 83.5t67 48.5t100.5 23.5t124 9.5v25q0 41 -8.5 67.5t-23.5 42.5t-35 22t-44 6q-41 0 -62.5 -10t-30.5 -27.5t-8.5 -40.5
t3.5 -49l-82 -7q-9 43 -3.5 79.5t28 63.5t62.5 42.5t99 15.5q61 0 99.5 -18.5t59.5 -50.5t28.5 -76t7.5 -95v-186q0 -29 12 -38t44 -1zM364 231q-71 -2 -114.5 -9t-67.5 -19t-32 -29t-8 -38q0 -38 24 -60t72 -22q25 0 48 9.5t40.5 26.5t27.5 40.5t10 51.5v49zM202 755
l124 -152l-38 -35l-146 134z" />
    <glyph glyph-name="aacute" unicode="&#xe1;" horiz-adv-x="543" 
d="M511 1q-39 -8 -64 -6t-40.5 12t-23 26.5t-10.5 37.5q-22 -38 -63.5 -60.5t-100.5 -22.5q-42 0 -72.5 12t-50 31.5t-29 45t-9.5 52.5q0 52 24.5 83.5t67 48.5t100.5 23.5t124 9.5v25q0 41 -8.5 67.5t-23.5 42.5t-35 22t-44 6q-41 0 -62.5 -10t-30.5 -27.5t-8.5 -40.5
t3.5 -49l-82 -7q-9 43 -3.5 79.5t28 63.5t62.5 42.5t99 15.5q61 0 99.5 -18.5t59.5 -50.5t28.5 -76t7.5 -95v-186q0 -29 12 -38t44 -1zM364 231q-71 -2 -114.5 -9t-67.5 -19t-32 -29t-8 -38q0 -38 24 -60t72 -22q25 0 48 9.5t40.5 26.5t27.5 40.5t10 51.5v49zM371 702
l-146 -134l-38 35l124 153z" />
    <glyph glyph-name="acircumflex" unicode="&#xe2;" horiz-adv-x="543" 
d="M511 1q-39 -8 -64 -6t-40.5 12t-23 26.5t-10.5 37.5q-22 -38 -63.5 -60.5t-100.5 -22.5q-42 0 -72.5 12t-50 31.5t-29 45t-9.5 52.5q0 52 24.5 83.5t67 48.5t100.5 23.5t124 9.5v25q0 41 -8.5 67.5t-23.5 42.5t-35 22t-44 6q-41 0 -62.5 -10t-30.5 -27.5t-8.5 -40.5
t3.5 -49l-82 -7q-9 43 -3.5 79.5t28 63.5t62.5 42.5t99 15.5q61 0 99.5 -18.5t59.5 -50.5t28.5 -76t7.5 -95v-186q0 -29 12 -38t44 -1zM364 231q-71 -2 -114.5 -9t-67.5 -19t-32 -29t-8 -38q0 -38 24 -60t72 -22q25 0 48 9.5t40.5 26.5t27.5 40.5t10 51.5v49zM283 743
l119 -142l-36 -33l-111 102l-108 -102l-37 33l120 142h53z" />
    <glyph glyph-name="atilde" unicode="&#xe3;" horiz-adv-x="543" 
d="M511 1q-39 -8 -64 -6t-40.5 12t-23 26.5t-10.5 37.5q-22 -38 -63.5 -60.5t-100.5 -22.5q-42 0 -72.5 12t-50 31.5t-29 45t-9.5 52.5q0 52 24.5 83.5t67 48.5t100.5 23.5t124 9.5v25q0 41 -8.5 67.5t-23.5 42.5t-35 22t-44 6q-41 0 -62.5 -10t-30.5 -27.5t-8.5 -40.5
t3.5 -49l-82 -7q-9 43 -3.5 79.5t28 63.5t62.5 42.5t99 15.5q61 0 99.5 -18.5t59.5 -50.5t28.5 -76t7.5 -95v-186q0 -29 12 -38t44 -1zM364 231q-71 -2 -114.5 -9t-67.5 -19t-32 -29t-8 -38q0 -38 24 -60t72 -22q25 0 48 9.5t40.5 26.5t27.5 40.5t10 51.5v49zM111 614
q11 55 34 75.5t46 20.5q18 0 35 -5t32.5 -10.5t30 -10.5t27.5 -5q12 0 20.5 9t16.5 33l47 -8q-12 -56 -34 -77t-46 -21q-19 0 -36.5 5t-33.5 10.5t-30 10.5t-26 5q-25 0 -35 -39z" />
    <glyph glyph-name="adieresis" unicode="&#xe4;" horiz-adv-x="543" 
d="M511 1q-39 -8 -64 -6t-40.5 12t-23 26.5t-10.5 37.5q-22 -38 -63.5 -60.5t-100.5 -22.5q-42 0 -72.5 12t-50 31.5t-29 45t-9.5 52.5q0 52 24.5 83.5t67 48.5t100.5 23.5t124 9.5v25q0 41 -8.5 67.5t-23.5 42.5t-35 22t-44 6q-41 0 -62.5 -10t-30.5 -27.5t-8.5 -40.5
t3.5 -49l-82 -7q-9 43 -3.5 79.5t28 63.5t62.5 42.5t99 15.5q61 0 99.5 -18.5t59.5 -50.5t28.5 -76t7.5 -95v-186q0 -29 12 -38t44 -1zM364 231q-71 -2 -114.5 -9t-67.5 -19t-32 -29t-8 -38q0 -38 24 -60t72 -22q25 0 48 9.5t40.5 26.5t27.5 40.5t10 51.5v49zM296 710h84
v-98h-84v98zM132 710h84v-98h-84v98z" />
    <glyph glyph-name="aring" unicode="&#xe5;" horiz-adv-x="543" 
d="M511 1q-39 -8 -64 -6t-40.5 12t-23 26.5t-10.5 37.5q-22 -38 -63.5 -60.5t-100.5 -22.5q-42 0 -72.5 12t-50 31.5t-29 45t-9.5 52.5q0 52 24.5 83.5t67 48.5t100.5 23.5t124 9.5v25q0 41 -8.5 67.5t-23.5 42.5t-35 22t-44 6q-41 0 -62.5 -10t-30.5 -27.5t-8.5 -40.5
t3.5 -49l-82 -7q-9 43 -3.5 79.5t28 63.5t62.5 42.5t99 15.5q61 0 99.5 -18.5t59.5 -50.5t28.5 -76t7.5 -95v-186q0 -29 12 -38t44 -1zM364 231q-71 -2 -114.5 -9t-67.5 -19t-32 -29t-8 -38q0 -38 24 -60t72 -22q25 0 48 9.5t40.5 26.5t27.5 40.5t10 51.5v49zM254 576
q-51 0 -74 24.5t-23 64.5q0 42 30 65.5t71 23.5q45 0 71.5 -23t26.5 -63q0 -42 -26.5 -67t-75.5 -25zM256 619q39 0 39 47q0 25 -10.5 35t-27.5 10q-18 0 -30 -10.5t-12 -35.5q0 -46 41 -46z" />
    <glyph glyph-name="aringacute" unicode="&#x1fb;" horiz-adv-x="543" 
d="M511 1q-39 -8 -64 -6t-40.5 12t-23 26.5t-10.5 37.5q-22 -38 -63.5 -60.5t-100.5 -22.5q-42 0 -72.5 12t-50 31.5t-29 45t-9.5 52.5q0 52 24.5 83.5t67 48.5t100.5 23.5t124 9.5v25q0 41 -8.5 67.5t-23.5 42.5t-35 22t-44 6q-41 0 -62.5 -10t-30.5 -27.5t-8.5 -40.5
t3.5 -49l-82 -7q-9 43 -3.5 79.5t28 63.5t62.5 42.5t99 15.5q61 0 99.5 -18.5t59.5 -50.5t28.5 -76t7.5 -95v-186q0 -29 12 -38t44 -1zM364 231q-71 -2 -114.5 -9t-67.5 -19t-32 -29t-8 -38q0 -38 24 -60t72 -22q25 0 48 9.5t40.5 26.5t27.5 40.5t10 51.5v49zM254 569
q-51 0 -74 24.5t-23 64.5q0 42 30 65.5t71 23.5q45 0 71.5 -23t26.5 -63q0 -42 -26.5 -67t-75.5 -25zM256 612q39 0 39 47q0 25 -10.5 35t-27.5 10q-18 0 -30 -10.5t-12 -35.5q0 -46 41 -46zM361 851l-178 -88l-26 47l163 110z" />
    <glyph glyph-name="ae" unicode="&#xe6;" horiz-adv-x="839" 
d="M790 168q-6 -54 -27 -89t-50 -55.5t-62 -28t-63 -7.5q-73 0 -117 29t-67 81q-30 -59 -77.5 -84.5t-117.5 -25.5q-42 0 -72.5 12t-50 31.5t-29 45t-9.5 52.5q0 52 24.5 83.5t67 48.5t100.5 23.5t124 9.5v25q0 41 -8.5 67.5t-23.5 42.5t-35 22t-44 6q-41 0 -63 -10
t-31 -27.5t-8.5 -40.5t3.5 -49l-81 -7q-9 43 -3.5 79.5t28 63.5t62.5 42.5t99 15.5q65 0 102 -25t55 -67q60 92 181 92q109 0 159 -74.5t36 -211.5h-339q0 -37 7 -69.5t23 -57t43 -38.5t67 -14q46 0 80 27t42 89zM707 301q2 70 -25.5 113t-93.5 43q-35 0 -60 -13
t-41.5 -34.5t-24.5 -49.5t-9 -59h254zM364 231q-71 -3 -114 -10t-66 -19t-30.5 -28.5t-7.5 -37.5q0 -45 27.5 -63.5t66.5 -18.5q27 0 49.5 10t39 27.5t26 40.5t9.5 50v49z" />
    <glyph glyph-name="aeacute" unicode="&#x1fd;" horiz-adv-x="839" 
d="M533 702l-146 -134l-38 35l124 153zM790 168q-6 -54 -27 -89t-50 -55.5t-62 -28t-63 -7.5q-73 0 -117 29t-67 81q-30 -59 -77.5 -84.5t-117.5 -25.5q-42 0 -72.5 12t-50 31.5t-29 45t-9.5 52.5q0 52 24.5 83.5t67 48.5t100.5 23.5t124 9.5v25q0 41 -8.5 67.5t-23.5 42.5
t-35 22t-44 6q-41 0 -63 -10t-31 -27.5t-8.5 -40.5t3.5 -49l-81 -7q-9 43 -3.5 79.5t28 63.5t62.5 42.5t99 15.5q65 0 102 -25t55 -67q60 92 181 92q109 0 159 -74.5t36 -211.5h-339q0 -37 7 -69.5t23 -57t43 -38.5t67 -14q46 0 80 27t42 89zM707 301q2 70 -25.5 113
t-93.5 43q-35 0 -60 -13t-41.5 -34.5t-24.5 -49.5t-9 -59h254zM364 231q-71 -3 -114 -10t-66 -19t-30.5 -28.5t-7.5 -37.5q0 -45 27.5 -63.5t66.5 -18.5q27 0 49.5 10t39 27.5t26 40.5t9.5 50v49z" />
    <glyph glyph-name="ccedilla" unicode="&#xe7;" horiz-adv-x="512" 
d="M238 -10q-53 5 -90 26.5t-60.5 56t-34 80t-10.5 96.5q0 131 63.5 203t176.5 72q51 0 88 -15t60.5 -41t35 -60t13.5 -71l-82 -6q-5 63 -37 93t-83 30q-64 0 -102 -48t-38 -153q0 -93 33 -143t104 -50q57 0 84.5 28.5t35.5 86.5l81 -7q-5 -48 -22 -81t-42 -54t-57 -31.5
t-67 -12.5l-18 -40q13 6 29 6q35 0 57 -21t22 -59q0 -44 -31.5 -68t-78.5 -24q-25 0 -52.5 10t-48.5 39l34 34q14 -15 28.5 -23t32.5 -8q45 0 45 39q0 20 -11.5 29.5t-29.5 9.5q-9 0 -16.5 -3t-13.5 -7l-28 13z" />
    <glyph glyph-name="egrave" unicode="&#xe8;" horiz-adv-x="525" 
d="M476 161q-7 -53 -28.5 -86.5t-50 -53t-61.5 -26.5t-63 -7q-64 0 -108 20t-71 55t-39 83.5t-12 104.5q0 62 15.5 112.5t46 86t75.5 55t103 19.5q109 0 159 -74.5t35 -211.5h-339q0 -37 7 -69.5t22.5 -57t42 -38.5t65.5 -14q50 0 83 25.5t41 85.5zM392 301q3 70 -25 113
t-94 43q-35 0 -59.5 -13t-41 -34.5t-25 -49.5t-9.5 -59h254zM223 755l124 -152l-38 -35l-146 134z" />
    <glyph glyph-name="eacute" unicode="&#xe9;" horiz-adv-x="525" 
d="M392 702l-146 -134l-38 35l124 153zM476 161q-7 -53 -28.5 -86.5t-50 -53t-61.5 -26.5t-63 -7q-64 0 -108 20t-71 55t-39 83.5t-12 104.5q0 62 15.5 112.5t46 86t75.5 55t103 19.5q109 0 159 -74.5t35 -211.5h-339q0 -37 7 -69.5t22.5 -57t42 -38.5t65.5 -14
q50 0 83 25.5t41 85.5zM392 301q3 70 -25 113t-94 43q-35 0 -59.5 -13t-41 -34.5t-25 -49.5t-9.5 -59h254z" />
    <glyph glyph-name="ecircumflex" unicode="&#xea;" horiz-adv-x="525" 
d="M304 743l119 -142l-36 -33l-111 102l-108 -102l-37 33l120 142h53zM476 161q-7 -53 -28.5 -86.5t-50 -53t-61.5 -26.5t-63 -7q-64 0 -108 20t-71 55t-39 83.5t-12 104.5q0 62 15.5 112.5t46 86t75.5 55t103 19.5q109 0 159 -74.5t35 -211.5h-339q0 -37 7 -69.5t22.5 -57
t42 -38.5t65.5 -14q50 0 83 25.5t41 85.5zM392 301q3 70 -25 113t-94 43q-35 0 -59.5 -13t-41 -34.5t-25 -49.5t-9.5 -59h254z" />
    <glyph glyph-name="edieresis" unicode="&#xeb;" horiz-adv-x="525" 
d="M317 710h84v-98h-84v98zM153 710h84v-98h-84v98zM476 161q-7 -53 -28.5 -86.5t-50 -53t-61.5 -26.5t-63 -7q-64 0 -108 20t-71 55t-39 83.5t-12 104.5q0 62 15.5 112.5t46 86t75.5 55t103 19.5q109 0 159 -74.5t35 -211.5h-339q0 -37 7 -69.5t22.5 -57t42 -38.5t65.5 -14
q50 0 83 25.5t41 85.5zM392 301q3 70 -25 113t-94 43q-35 0 -59.5 -13t-41 -34.5t-25 -49.5t-9.5 -59h254z" />
    <glyph glyph-name="igrave" unicode="&#xec;" horiz-adv-x="231" 
d="M69 512h93v-512h-93v512zM62 755l124 -152l-38 -35l-146 134z" />
    <glyph glyph-name="iacute" unicode="&#xed;" horiz-adv-x="231" 
d="M231 702l-146 -134l-38 35l124 153zM69 512h93v-512h-93v512z" />
    <glyph glyph-name="icircumflex" unicode="&#xee;" horiz-adv-x="231" 
d="M143 743l119 -142l-36 -33l-111 102l-108 -102l-37 33l120 142h53zM69 512h93v-512h-93v512z" />
    <glyph glyph-name="idieresis" unicode="&#xef;" horiz-adv-x="231" 
d="M156 710h84v-98h-84v98zM-8 710h84v-98h-84v98zM69 512h93v-512h-93v512z" />
    <glyph glyph-name="eth" unicode="&#xf0;" horiz-adv-x="554" 
d="M373 648q66 -71 101.5 -166.5t35.5 -204.5q0 -146 -62 -217.5t-174 -71.5q-118 0 -174.5 69t-56.5 199q0 63 17 113t47 84t70.5 52t87.5 18q38 0 66.5 -11.5t51.5 -34.5l2 3q-16 39 -37 71.5t-47 59.5l-112 -56l-24 50l93 46q-20 17 -41 31.5t-41 27.5l88 24
q17 -10 33.5 -21.5t31.5 -23.5l110 55l24 -51zM278 58q37 0 63.5 15.5t43 42.5t24 64t7.5 80q0 42 -7.5 77.5t-24 61t-42 39.5t-62.5 14t-63.5 -14.5t-44 -41t-26 -62t-8.5 -77.5q0 -43 7.5 -79.5t24 -63t43 -41.5t65.5 -15z" />
    <glyph glyph-name="ntilde" unicode="&#xf1;" horiz-adv-x="563" 
d="M497 0h-92v299q0 82 -27 117t-82 35q-40 0 -66 -14t-41 -36.5t-21 -51.5t-6 -59v-290h-93v512h86l4 -77h1q8 15 21 31t32 28.5t45 21t60 8.5q86 0 132.5 -51.5t46.5 -163.5v-309zM142 614q11 55 34 75.5t46 20.5q18 0 35 -5t32.5 -10.5t30 -10.5t27.5 -5q12 0 20.5 9
t16.5 33l47 -8q-12 -56 -34 -77t-46 -21q-19 0 -36.5 5t-33.5 10.5t-30 10.5t-26 5q-25 0 -35 -39z" />
    <glyph glyph-name="ograve" unicode="&#xf2;" horiz-adv-x="553" 
d="M274 -12q-118 0 -174.5 69t-56.5 199q0 66 18.5 116t51.5 84t77 51t95 17q106 0 165.5 -65.5t59.5 -192.5q0 -138 -62 -208t-174 -70zM278 58q37 0 63.5 15.5t43 42.5t24 64t7.5 80q0 42 -7.5 77.5t-24 61t-42 39.5t-62.5 14t-63.5 -14.5t-44 -41t-26 -62t-8.5 -77.5
q0 -43 7.5 -79.5t24 -63t43 -41.5t65.5 -15zM225 755l124 -152l-38 -35l-146 134z" />
    <glyph glyph-name="oacute" unicode="&#xf3;" horiz-adv-x="553" 
d="M394 702l-146 -134l-38 35l124 153zM274 -12q-118 0 -174.5 69t-56.5 199q0 66 18.5 116t51.5 84t77 51t95 17q106 0 165.5 -65.5t59.5 -192.5q0 -138 -62 -208t-174 -70zM278 58q37 0 63.5 15.5t43 42.5t24 64t7.5 80q0 42 -7.5 77.5t-24 61t-42 39.5t-62.5 14
t-63.5 -14.5t-44 -41t-26 -62t-8.5 -77.5q0 -43 7.5 -79.5t24 -63t43 -41.5t65.5 -15z" />
    <glyph glyph-name="ocircumflex" unicode="&#xf4;" horiz-adv-x="553" 
d="M306 743l119 -142l-36 -33l-111 102l-108 -102l-37 33l120 142h53zM274 -12q-118 0 -174.5 69t-56.5 199q0 66 18.5 116t51.5 84t77 51t95 17q106 0 165.5 -65.5t59.5 -192.5q0 -138 -62 -208t-174 -70zM278 58q37 0 63.5 15.5t43 42.5t24 64t7.5 80q0 42 -7.5 77.5
t-24 61t-42 39.5t-62.5 14t-63.5 -14.5t-44 -41t-26 -62t-8.5 -77.5q0 -43 7.5 -79.5t24 -63t43 -41.5t65.5 -15z" />
    <glyph glyph-name="otilde" unicode="&#xf5;" horiz-adv-x="553" 
d="M274 -12q-118 0 -174.5 69t-56.5 199q0 66 18.5 116t51.5 84t77 51t95 17q106 0 165.5 -65.5t59.5 -192.5q0 -138 -62 -208t-174 -70zM278 58q37 0 63.5 15.5t43 42.5t24 64t7.5 80q0 42 -7.5 77.5t-24 61t-42 39.5t-62.5 14t-63.5 -14.5t-44 -41t-26 -62t-8.5 -77.5
q0 -43 7.5 -79.5t24 -63t43 -41.5t65.5 -15zM134 614q11 55 34 75.5t46 20.5q18 0 35 -5t32.5 -10.5t30 -10.5t27.5 -5q12 0 20.5 9t16.5 33l47 -8q-12 -56 -34 -77t-46 -21q-19 0 -36.5 5t-33.5 10.5t-30 10.5t-26 5q-25 0 -35 -39z" />
    <glyph glyph-name="odieresis" unicode="&#xf6;" horiz-adv-x="553" 
d="M319 710h84v-98h-84v98zM155 710h84v-98h-84v98zM274 -12q-118 0 -174.5 69t-56.5 199q0 66 18.5 116t51.5 84t77 51t95 17q106 0 165.5 -65.5t59.5 -192.5q0 -138 -62 -208t-174 -70zM278 58q37 0 63.5 15.5t43 42.5t24 64t7.5 80q0 42 -7.5 77.5t-24 61t-42 39.5
t-62.5 14t-63.5 -14.5t-44 -41t-26 -62t-8.5 -77.5q0 -43 7.5 -79.5t24 -63t43 -41.5t65.5 -15z" />
    <glyph glyph-name="oslash" unicode="&#xf8;" horiz-adv-x="553" 
d="M274 -12q-60 0 -103 18l-44 -73l-63 37l46 76q-67 68 -67 210q0 66 18.5 116t51.5 84t77 51t95 17q58 0 100 -19l38 64l64 -35l-42 -70q32 -33 48.5 -82.5t16.5 -115.5q0 -138 -62 -208t-174 -70zM138 257q0 -37 5 -69t17 -57l184 306q-14 7 -29.5 11t-34.5 4
q-37 0 -63.5 -14.5t-44 -41t-26 -62t-8.5 -77.5zM278 58q37 0 63.5 15.5t43 42.5t24 64t7.5 80q0 72 -21 120l-184 -307q27 -15 67 -15z" />
    <glyph glyph-name="oslashacute" unicode="&#x1ff;" horiz-adv-x="553" 
d="M394 702l-146 -134l-38 35l124 153zM274 -12q-60 0 -103 18l-44 -73l-63 37l46 76q-67 68 -67 210q0 66 18.5 116t51.5 84t77 51t95 17q58 0 100 -19l38 64l64 -35l-42 -70q32 -33 48.5 -82.5t16.5 -115.5q0 -138 -62 -208t-174 -70zM138 257q0 -37 5 -69t17 -57l184 306
q-14 7 -29.5 11t-34.5 4q-37 0 -63.5 -14.5t-44 -41t-26 -62t-8.5 -77.5zM278 58q37 0 63.5 15.5t43 42.5t24 64t7.5 80q0 72 -21 120l-184 -307q27 -15 67 -15z" />
    <glyph glyph-name="ugrave" unicode="&#xf9;" horiz-adv-x="549" 
d="M65 512h92v-302q0 -80 26 -114.5t77 -34.5q37 0 62 15t39.5 39t20.5 55.5t6 64.5v277h93v-512h-84l-6 77h-1q-8 -14 -20 -29.5t-30 -28.5t-43 -22t-59 -9q-85 0 -129 52t-44 164v308zM217 755l124 -152l-38 -35l-146 134z" />
    <glyph glyph-name="uacute" unicode="&#xfa;" horiz-adv-x="549" 
d="M386 702l-146 -134l-38 35l124 153zM65 512h92v-302q0 -80 26 -114.5t77 -34.5q37 0 62 15t39.5 39t20.5 55.5t6 64.5v277h93v-512h-84l-6 77h-1q-8 -14 -20 -29.5t-30 -28.5t-43 -22t-59 -9q-85 0 -129 52t-44 164v308z" />
    <glyph glyph-name="ucircumflex" unicode="&#xfb;" horiz-adv-x="549" 
d="M298 743l119 -142l-36 -33l-111 102l-108 -102l-37 33l120 142h53zM65 512h92v-302q0 -80 26 -114.5t77 -34.5q37 0 62 15t39.5 39t20.5 55.5t6 64.5v277h93v-512h-84l-6 77h-1q-8 -14 -20 -29.5t-30 -28.5t-43 -22t-59 -9q-85 0 -129 52t-44 164v308z" />
    <glyph glyph-name="udieresis" unicode="&#xfc;" horiz-adv-x="549" 
d="M311 710h84v-98h-84v98zM147 710h84v-98h-84v98zM65 512h92v-302q0 -80 26 -114.5t77 -34.5q37 0 62 15t39.5 39t20.5 55.5t6 64.5v277h93v-512h-84l-6 77h-1q-8 -14 -20 -29.5t-30 -28.5t-43 -22t-59 -9q-85 0 -129 52t-44 164v308z" />
    <glyph glyph-name="yacute" unicode="&#xfd;" horiz-adv-x="463" 
d="M273 -1q-19 -55 -36.5 -92.5t-38 -60t-47 -32t-62.5 -9.5q-20 0 -40.5 3t-32.5 8l11 65q15 -4 25 -6t26 -2q20 0 35 7t26.5 21.5t21.5 37.5t21 55l3 10l-174 508h97l124 -406h1l128 406h94zM350 702l-146 -134l-38 35l124 153z" />
    <glyph glyph-name="thorn" unicode="&#xfe;" horiz-adv-x="561" 
d="M321 524q39 0 75 -14.5t63 -45.5t43 -78.5t16 -114.5q0 -79 -18 -133t-49 -87.5t-71.5 -48t-86.5 -14.5q-43 0 -76.5 19t-54.5 48h-2v-238h-91v917h92v-292q10 15 24.5 29.5t34 26.5t44.5 19t57 7zM296 457q-64 0 -101 -46t-37 -155q0 -57 9 -95.5t26 -62t40.5 -33.5
t53.5 -10q69 0 102 55t33 160q0 102 -34.5 144.5t-91.5 42.5z" />
    <glyph glyph-name="ydieresis" unicode="&#xff;" horiz-adv-x="463" 
d="M273 -1q-19 -55 -36.5 -92.5t-38 -60t-47 -32t-62.5 -9.5q-20 0 -40.5 3t-32.5 8l11 65q15 -4 25 -6t26 -2q20 0 35 7t26.5 21.5t21.5 37.5t21 55l3 10l-174 508h97l124 -406h1l128 406h94zM275 710h84v-98h-84v98zM111 710h84v-98h-84v98z" />
    <glyph glyph-name="Amacron" unicode="&#x100;" horiz-adv-x="640" 
d="M383 734l253 -734h-101l-69 201h-296l-68 -201h-98l250 734h129zM317 645h-1l-123 -367h248zM180 868h271v-69h-271v69z" />
    <glyph glyph-name="amacron" unicode="&#x101;" horiz-adv-x="543" 
d="M511 1q-39 -8 -64 -6t-40.5 12t-23 26.5t-10.5 37.5q-22 -38 -63.5 -60.5t-100.5 -22.5q-42 0 -72.5 12t-50 31.5t-29 45t-9.5 52.5q0 52 24.5 83.5t67 48.5t100.5 23.5t124 9.5v25q0 41 -8.5 67.5t-23.5 42.5t-35 22t-44 6q-41 0 -62.5 -10t-30.5 -27.5t-8.5 -40.5
t3.5 -49l-82 -7q-9 43 -3.5 79.5t28 63.5t62.5 42.5t99 15.5q61 0 99.5 -18.5t59.5 -50.5t28.5 -76t7.5 -95v-186q0 -29 12 -38t44 -1zM364 231q-71 -2 -114.5 -9t-67.5 -19t-32 -29t-8 -38q0 -38 24 -60t72 -22q25 0 48 9.5t40.5 26.5t27.5 40.5t10 51.5v49zM120 688h271
v-66h-271v66z" />
    <glyph glyph-name="Abreve" unicode="&#x102;" horiz-adv-x="640" 
d="M383 734l253 -734h-101l-69 201h-296l-68 -201h-98l250 734h129zM317 645h-1l-123 -367h248zM229 911q12 -40 32 -57t55 -17q37 0 57 17t36 57l52 -11q-14 -66 -51 -98.5t-96 -32.5t-94.5 32.5t-46.5 98.5z" />
    <glyph glyph-name="abreve" unicode="&#x103;" horiz-adv-x="543" 
d="M511 1q-39 -8 -64 -6t-40.5 12t-23 26.5t-10.5 37.5q-22 -38 -63.5 -60.5t-100.5 -22.5q-42 0 -72.5 12t-50 31.5t-29 45t-9.5 52.5q0 52 24.5 83.5t67 48.5t100.5 23.5t124 9.5v25q0 41 -8.5 67.5t-23.5 42.5t-35 22t-44 6q-41 0 -62.5 -10t-30.5 -27.5t-8.5 -40.5
t3.5 -49l-82 -7q-9 43 -3.5 79.5t28 63.5t62.5 42.5t99 15.5q61 0 99.5 -18.5t59.5 -50.5t28.5 -76t7.5 -95v-186q0 -29 12 -38t44 -1zM364 231q-71 -2 -114.5 -9t-67.5 -19t-32 -29t-8 -38q0 -38 24 -60t72 -22q25 0 48 9.5t40.5 26.5t27.5 40.5t10 51.5v49zM171 732
q15 -85 85 -85q38 0 59 21.5t32 63.5l52 -7q-11 -72 -48 -108t-97 -36q-124 0 -139 144z" />
    <glyph glyph-name="Aogonek" unicode="&#x104;" horiz-adv-x="640" 
d="M383 734l253 -734q-20 -7 -37.5 -19.5t-30.5 -27.5t-21 -29.5t-8 -26.5q0 -17 8 -23t20 -6q16 0 26 11t19 27l44 -23q-38 -78 -112 -78q-34 0 -57.5 16t-23.5 53q0 33 19 64t53 62l-69 201h-296l-68 -201h-98l250 734h129zM317 645h-1l-123 -367h248z" />
    <glyph glyph-name="aogonek" unicode="&#x105;" horiz-adv-x="543" 
d="M511 1q-14 -2 -26.5 -6t-21.5 -9q-33 -17 -49 -42t-16 -47q0 -17 8 -23t20 -6q16 0 26 11t19 27l44 -23q-38 -78 -112 -78q-34 0 -57.5 15.5t-23.5 49.5q0 37 22.5 69t67.5 64q-18 10 -26.5 27.5t-12.5 40.5q-22 -38 -63.5 -60.5t-100.5 -22.5q-42 0 -72.5 12t-50 31.5
t-29 45t-9.5 52.5q0 52 24.5 83.5t67 48.5t100.5 23.5t124 9.5v25q0 41 -8.5 67.5t-23.5 42.5t-35 22t-44 6q-41 0 -62.5 -10t-30.5 -27.5t-8.5 -40.5t3.5 -49l-82 -7q-9 43 -3.5 79.5t28 63.5t62.5 42.5t99 15.5q61 0 99.5 -18.5t59.5 -50.5t28.5 -76t7.5 -95v-186
q0 -29 12 -38t44 -1zM364 231q-71 -2 -114.5 -9t-67.5 -19t-32 -29t-8 -38q0 -38 24 -60t72 -22q25 0 48 9.5t40.5 26.5t27.5 40.5t10 51.5v49z" />
    <glyph glyph-name="Cacute" unicode="&#x106;" horiz-adv-x="640" 
d="M340 69q73 0 113 48t46 131l93 -8q-5 -67 -25.5 -115t-54 -78.5t-78.5 -44.5t-99 -14q-140 0 -211 92t-71 280q0 98 22.5 170.5t63 120.5t96.5 71.5t123 23.5q57 0 102 -19t75.5 -53.5t46 -83.5t13.5 -109l-93 -8q0 54 -11.5 90.5t-32 59t-48.5 32.5t-61 10
q-39 0 -74 -16.5t-61 -52.5t-41 -93.5t-15 -139.5q0 -150 44 -222t138 -72zM474 851l-178 -88l-26 47l163 110z" />
    <glyph glyph-name="cacute" unicode="&#x107;" horiz-adv-x="512" 
d="M389 702l-146 -134l-38 35l124 153zM398 331q-5 63 -37 93t-83 30q-64 0 -102 -48t-38 -153q0 -93 33 -143t104 -50q57 0 84.5 28.5t35.5 86.5l81 -7q-6 -50 -24 -84.5t-45.5 -55.5t-62.5 -30.5t-73 -9.5q-62 0 -105.5 20t-70.5 55.5t-39.5 83t-12.5 102.5
q0 131 63.5 203t176.5 72q51 0 88 -15t60.5 -41t35 -60t13.5 -71z" />
    <glyph glyph-name="Ccircumflex" unicode="&#x108;" horiz-adv-x="640" 
d="M340 69q73 0 113 48t46 131l93 -8q-5 -67 -25.5 -115t-54 -78.5t-78.5 -44.5t-99 -14q-140 0 -211 92t-71 280q0 98 22.5 170.5t63 120.5t96.5 71.5t123 23.5q57 0 102 -19t75.5 -53.5t46 -83.5t13.5 -109l-93 -8q0 54 -11.5 90.5t-32 59t-48.5 32.5t-61 10
q-39 0 -74 -16.5t-61 -52.5t-41 -93.5t-15 -139.5q0 -150 44 -222t138 -72zM383 916l122 -117l-29 -36l-120 79l-120 -79l-28 36l122 117h53z" />
    <glyph glyph-name="ccircumflex" unicode="&#x109;" horiz-adv-x="512" 
d="M301 743l119 -142l-36 -33l-111 102l-108 -102l-37 33l120 142h53zM398 331q-5 63 -37 93t-83 30q-64 0 -102 -48t-38 -153q0 -93 33 -143t104 -50q57 0 84.5 28.5t35.5 86.5l81 -7q-6 -50 -24 -84.5t-45.5 -55.5t-62.5 -30.5t-73 -9.5q-62 0 -105.5 20t-70.5 55.5
t-39.5 83t-12.5 102.5q0 131 63.5 203t176.5 72q51 0 88 -15t60.5 -41t35 -60t13.5 -71z" />
    <glyph glyph-name="Cdotaccent" unicode="&#x10a;" horiz-adv-x="640" 
d="M310 897h92v-107h-92v107zM340 69q73 0 113 48t46 131l93 -8q-5 -67 -25.5 -115t-54 -78.5t-78.5 -44.5t-99 -14q-140 0 -211 92t-71 280q0 98 22.5 170.5t63 120.5t96.5 71.5t123 23.5q57 0 102 -19t75.5 -53.5t46 -83.5t13.5 -109l-93 -8q0 54 -11.5 90.5t-32 59
t-48.5 32.5t-61 10q-39 0 -74 -16.5t-61 -52.5t-41 -93.5t-15 -139.5q0 -150 44 -222t138 -72z" />
    <glyph glyph-name="cdotaccent" unicode="&#x10b;" horiz-adv-x="512" 
d="M398 331q-5 63 -37 93t-83 30q-64 0 -102 -48t-38 -153q0 -93 33 -143t104 -50q57 0 84.5 28.5t35.5 86.5l81 -7q-6 -50 -24 -84.5t-45.5 -55.5t-62.5 -30.5t-73 -9.5q-62 0 -105.5 20t-70.5 55.5t-39.5 83t-12.5 102.5q0 131 63.5 203t176.5 72q51 0 88 -15t60.5 -41
t35 -60t13.5 -71zM230 734h92v-107h-92v107z" />
    <glyph glyph-name="Ccaron" unicode="&#x10c;" horiz-adv-x="640" 
d="M340 69q73 0 113 48t46 131l93 -8q-5 -67 -25.5 -115t-54 -78.5t-78.5 -44.5t-99 -14q-140 0 -211 92t-71 280q0 98 22.5 170.5t63 120.5t96.5 71.5t123 23.5q57 0 102 -19t75.5 -53.5t46 -83.5t13.5 -109l-93 -8q0 54 -11.5 90.5t-32 59t-48.5 32.5t-61 10
q-39 0 -74 -16.5t-61 -52.5t-41 -93.5t-15 -139.5q0 -150 44 -222t138 -72zM326 774l-122 113l29 37l120 -79l120 79l29 -37l-122 -113h-54z" />
    <glyph glyph-name="ccaron" unicode="&#x10d;" horiz-adv-x="512" 
d="M248 579l-119 142l36 33l110 -103l109 103l37 -33l-120 -142h-53zM398 331q-5 63 -37 93t-83 30q-64 0 -102 -48t-38 -153q0 -93 33 -143t104 -50q57 0 84.5 28.5t35.5 86.5l81 -7q-6 -50 -24 -84.5t-45.5 -55.5t-62.5 -30.5t-73 -9.5q-62 0 -105.5 20t-70.5 55.5
t-39.5 83t-12.5 102.5q0 131 63.5 203t176.5 72q51 0 88 -15t60.5 -41t35 -60t13.5 -71z" />
    <glyph glyph-name="Dcaron" unicode="&#x10e;" horiz-adv-x="655" 
d="M278 766l-122 113l29 37l120 -79l120 79l29 -37l-122 -113h-54zM90 0v734h130q108 0 181 -21.5t117.5 -65.5t64 -113t19.5 -163q0 -98 -20 -168t-65.5 -115t-118.5 -66.5t-179 -21.5h-129zM233 79q72 0 123.5 15t83.5 49.5t47 90.5t15 137q0 73 -13 126.5t-44 88.5
t-81 52t-125 17h-51v-576h45z" />
    <glyph glyph-name="dcaron" unicode="&#x10f;" horiz-adv-x="596" 
d="M626 734l-28 -196l-49 2l-1 194h78zM492 734v-734h-74l-12 71h-2q-22 -39 -62.5 -61t-89.5 -22q-46 0 -84 14t-65.5 45t-43 80t-15.5 120q0 135 57 206t159 71q53 0 86 -19t55 -51v280h91zM405 260q0 56 -10 94t-27 61t-40.5 32.5t-51.5 9.5q-66 0 -101.5 -50.5
t-35.5 -159.5q0 -53 9 -89.5t25.5 -59.5t40.5 -33.5t54 -10.5q31 0 56 11t43 36t28 64t10 95z" />
    <glyph glyph-name="Dcroat" unicode="&#x110;" horiz-adv-x="658" 
d="M93 0v331h-69v76h69v327h130q108 0 181 -21.5t117.5 -65.5t64 -113t19.5 -163q0 -98 -20 -168t-65.5 -115t-118.5 -66.5t-179 -21.5h-129zM236 79q72 0 123.5 15t83.5 49.5t47 90.5t15 137q0 73 -13 126.5t-44 88.5t-81 52t-125 17h-51v-248h194v-76h-194v-252h45z" />
    <glyph glyph-name="dcroat" unicode="&#x111;" horiz-adv-x="560" 
d="M492 734v-76h61v-66h-61v-592h-74l-12 71h-2q-22 -39 -62.5 -61t-89.5 -22q-46 0 -84 14t-65.5 45t-43 80t-15.5 120q0 135 57 206t159 71q53 0 86 -19t55 -51v138h-200v66h200v76h91zM405 260q0 56 -10 94t-27 61t-40.5 32.5t-51.5 9.5q-66 0 -101.5 -50.5t-35.5 -159.5
q0 -53 9 -89.5t25.5 -59.5t40.5 -33.5t54 -10.5q31 0 56 11t43 36t28 64t10 95z" />
    <glyph glyph-name="Emacron" unicode="&#x112;" horiz-adv-x="557" 
d="M152 868h271v-69h-271v69zM454 338h-266v-259h323v-79h-421v734h398v-79h-300v-239h266v-78z" />
    <glyph glyph-name="emacron" unicode="&#x113;" horiz-adv-x="525" 
d="M476 161q-7 -53 -28.5 -86.5t-50 -53t-61.5 -26.5t-63 -7q-64 0 -108 20t-71 55t-39 83.5t-12 104.5q0 62 15.5 112.5t46 86t75.5 55t103 19.5q109 0 159 -74.5t35 -211.5h-339q0 -37 7 -69.5t22.5 -57t42 -38.5t65.5 -14q50 0 83 25.5t41 85.5zM392 301q3 70 -25 113
t-94 43q-35 0 -59.5 -13t-41 -34.5t-25 -49.5t-9.5 -59h254zM135 688h271v-66h-271v66z" />
    <glyph glyph-name="Ebreve" unicode="&#x114;" horiz-adv-x="557" 
d="M203 911q12 -40 32 -57t55 -17q37 0 57 17t36 57l52 -11q-14 -66 -51 -98.5t-96 -32.5t-94.5 32.5t-46.5 98.5zM454 338h-266v-259h323v-79h-421v734h398v-79h-300v-239h266v-78z" />
    <glyph glyph-name="ebreve" unicode="&#x115;" horiz-adv-x="525" 
d="M476 161q-7 -53 -28.5 -86.5t-50 -53t-61.5 -26.5t-63 -7q-64 0 -108 20t-71 55t-39 83.5t-12 104.5q0 62 15.5 112.5t46 86t75.5 55t103 19.5q109 0 159 -74.5t35 -211.5h-339q0 -37 7 -69.5t22.5 -57t42 -38.5t65.5 -14q50 0 83 25.5t41 85.5zM392 301q3 70 -25 113
t-94 43q-35 0 -59.5 -13t-41 -34.5t-25 -49.5t-9.5 -59h254zM184 732q15 -85 85 -85q38 0 59 21.5t32 63.5l52 -7q-11 -72 -48 -108t-97 -36q-124 0 -139 144z" />
    <glyph glyph-name="Edotaccent" unicode="&#x116;" horiz-adv-x="557" 
d="M246 897h92v-107h-92v107zM454 338h-266v-259h323v-79h-421v734h398v-79h-300v-239h266v-78z" />
    <glyph glyph-name="edotaccent" unicode="&#x117;" horiz-adv-x="525" 
d="M476 161q-7 -53 -28.5 -86.5t-50 -53t-61.5 -26.5t-63 -7q-64 0 -108 20t-71 55t-39 83.5t-12 104.5q0 62 15.5 112.5t46 86t75.5 55t103 19.5q109 0 159 -74.5t35 -211.5h-339q0 -37 7 -69.5t22.5 -57t42 -38.5t65.5 -14q50 0 83 25.5t41 85.5zM392 301q3 70 -25 113
t-94 43q-35 0 -59.5 -13t-41 -34.5t-25 -49.5t-9.5 -59h254zM227 734h92v-107h-92v107z" />
    <glyph glyph-name="Eogonek" unicode="&#x118;" horiz-adv-x="557" 
d="M454 338h-266v-259h323v-79h-60q-29 -29 -50.5 -54.5t-21.5 -48.5q0 -17 8 -23t20 -6q16 0 26 11t19 27l44 -23q-38 -78 -112 -78q-34 0 -57.5 15.5t-23.5 49.5q0 36 23.5 67.5t62.5 62.5h-299v734h398v-79h-300v-239h266v-78z" />
    <glyph glyph-name="eogonek" unicode="&#x119;" horiz-adv-x="525" 
d="M476 161q-8 -53 -29 -84.5t-44 -55.5q-35 -36 -56 -68.5t-21 -55.5q0 -17 8.5 -23t20.5 -6q17 0 29.5 11t21.5 27l43 -23q-18 -39 -50.5 -58.5t-69.5 -19.5q-35 0 -56.5 15.5t-21.5 49.5q0 30 17 60t51 62q-12 -2 -23.5 -3t-22.5 -1q-64 0 -108 20t-71 55t-39 83.5
t-12 104.5q0 62 15.5 112.5t46 86t75.5 55t103 19.5q109 0 159 -74.5t35 -211.5h-339q0 -37 7 -69.5t22.5 -57t42 -38.5t65.5 -14q50 0 83 25.5t41 85.5zM392 301q3 70 -25 113t-94 43q-35 0 -59.5 -13t-41 -34.5t-25 -49.5t-9.5 -59h254z" />
    <glyph glyph-name="Ecaron" unicode="&#x11a;" horiz-adv-x="557" 
d="M261 766l-122 113l29 37l120 -79l120 79l29 -37l-122 -113h-54zM454 338h-266v-259h323v-79h-421v734h398v-79h-300v-239h266v-78z" />
    <glyph glyph-name="ecaron" unicode="&#x11b;" horiz-adv-x="525" 
d="M247 579l-119 142l36 33l110 -103l109 103l37 -33l-120 -142h-53zM476 161q-7 -53 -28.5 -86.5t-50 -53t-61.5 -26.5t-63 -7q-64 0 -108 20t-71 55t-39 83.5t-12 104.5q0 62 15.5 112.5t46 86t75.5 55t103 19.5q109 0 159 -74.5t35 -211.5h-339q0 -37 7 -69.5t22.5 -57
t42 -38.5t65.5 -14q50 0 83 25.5t41 85.5zM392 301q3 70 -25 113t-94 43q-35 0 -59.5 -13t-41 -34.5t-25 -49.5t-9.5 -59h254z" />
    <glyph glyph-name="Gcircumflex" unicode="&#x11c;" horiz-adv-x="678" 
d="M347 363h250v-375h-72l-8 100q-30 -51 -78.5 -75.5t-109.5 -24.5q-133 0 -204.5 90.5t-71.5 270.5q0 103 22.5 177.5t62.5 123.5t96 72.5t124 23.5q114 0 175.5 -70t59.5 -195l-93 -8q0 54 -12 91t-32.5 59.5t-48 32t-58.5 9.5q-39 0 -73.5 -16.5t-60 -53t-40.5 -94.5
t-15 -141q0 -149 45.5 -220.5t135.5 -71.5q35 0 65 12.5t52.5 36.5t35.5 58.5t15 79.5v30h-162v78zM381 916l122 -117l-29 -36l-120 79l-120 -79l-28 36l122 117h53z" />
    <glyph glyph-name="gcircumflex" unicode="&#x11d;" horiz-adv-x="560" 
d="M303 743l119 -142l-36 -33l-111 102l-108 -102l-37 33l120 142h53zM492 512v-483q0 -106 -55.5 -165t-173.5 -59q-73 0 -126.5 30.5t-70.5 99.5l81 20q6 -17 14 -31.5t21.5 -25t33 -16.5t48.5 -6q72 0 104.5 35.5t32.5 116.5v55h-2q-17 -32 -54 -56t-99 -24q-41 0 -78 13
t-64.5 42t-43.5 76.5t-16 115.5q0 69 15.5 120t44 85.5t68.5 51.5t88 17q58 0 91 -20t53 -51h3l18 59h67zM404 261q0 55 -9.5 92.5t-26.5 60.5t-40 33t-51 10q-29 0 -54 -10.5t-43.5 -34.5t-29.5 -63t-11 -97q0 -101 34 -142t93 -41q64 0 101 45t37 147z" />
    <glyph glyph-name="Gbreve" unicode="&#x11e;" horiz-adv-x="678" 
d="M267 916q12 -40 32 -57t55 -17q37 0 57 17t36 57l52 -11q-14 -66 -51 -98.5t-96 -32.5t-94.5 32.5t-46.5 98.5zM347 363h250v-375h-72l-8 100q-30 -51 -78.5 -75.5t-109.5 -24.5q-133 0 -204.5 90.5t-71.5 270.5q0 103 22.5 177.5t62.5 123.5t96 72.5t124 23.5
q114 0 175.5 -70t59.5 -195l-93 -8q0 54 -12 91t-32.5 59.5t-48 32t-58.5 9.5q-39 0 -73.5 -16.5t-60 -53t-40.5 -94.5t-15 -141q0 -149 45.5 -220.5t135.5 -71.5q35 0 65 12.5t52.5 36.5t35.5 58.5t15 79.5v30h-162v78z" />
    <glyph glyph-name="gbreve" unicode="&#x11f;" horiz-adv-x="560" 
d="M492 512v-483q0 -106 -55.5 -165t-173.5 -59q-73 0 -126.5 30.5t-70.5 99.5l81 20q6 -17 14 -31.5t21.5 -25t33 -16.5t48.5 -6q72 0 104.5 35.5t32.5 116.5v55h-2q-17 -32 -54 -56t-99 -24q-41 0 -78 13t-64.5 42t-43.5 76.5t-16 115.5q0 69 15.5 120t44 85.5t68.5 51.5
t88 17q58 0 91 -20t53 -51h3l18 59h67zM404 261q0 55 -9.5 92.5t-26.5 60.5t-40 33t-51 10q-29 0 -54 -10.5t-43.5 -34.5t-29.5 -63t-11 -97q0 -101 34 -142t93 -41q64 0 101 45t37 147zM190 732q15 -85 85 -85q38 0 59 21.5t32 63.5l52 -7q-11 -72 -48 -108t-97 -36
q-124 0 -139 144z" />
    <glyph glyph-name="Gdotaccent" unicode="&#x120;" horiz-adv-x="678" 
d="M306 897h92v-107h-92v107zM347 363h250v-375h-72l-8 100q-30 -51 -78.5 -75.5t-109.5 -24.5q-133 0 -204.5 90.5t-71.5 270.5q0 103 22.5 177.5t62.5 123.5t96 72.5t124 23.5q114 0 175.5 -70t59.5 -195l-93 -8q0 54 -12 91t-32.5 59.5t-48 32t-58.5 9.5
q-39 0 -73.5 -16.5t-60 -53t-40.5 -94.5t-15 -141q0 -149 45.5 -220.5t135.5 -71.5q35 0 65 12.5t52.5 36.5t35.5 58.5t15 79.5v30h-162v78z" />
    <glyph glyph-name="gdotaccent" unicode="&#x121;" horiz-adv-x="560" 
d="M492 512v-483q0 -106 -55.5 -165t-173.5 -59q-73 0 -126.5 30.5t-70.5 99.5l81 20q6 -17 14 -31.5t21.5 -25t33 -16.5t48.5 -6q72 0 104.5 35.5t32.5 116.5v55h-2q-17 -32 -54 -56t-99 -24q-41 0 -78 13t-64.5 42t-43.5 76.5t-16 115.5q0 69 15.5 120t44 85.5t68.5 51.5
t88 17q58 0 91 -20t53 -51h3l18 59h67zM404 261q0 55 -9.5 92.5t-26.5 60.5t-40 33t-51 10q-29 0 -54 -10.5t-43.5 -34.5t-29.5 -63t-11 -97q0 -101 34 -142t93 -41q64 0 101 45t37 147zM228 734h92v-107h-92v107z" />
    <glyph glyph-name="Gcommaaccent" unicode="&#x122;" horiz-adv-x="678" 
d="M347 363h250v-375h-72l-8 100q-30 -51 -78.5 -75.5t-109.5 -24.5q-133 0 -204.5 90.5t-71.5 270.5q0 103 22.5 177.5t62.5 123.5t96 72.5t124 23.5q114 0 175.5 -70t59.5 -195l-93 -8q0 54 -12 91t-32.5 59.5t-48 32t-58.5 9.5q-39 0 -73.5 -16.5t-60 -53t-40.5 -94.5
t-15 -141q0 -149 45.5 -220.5t135.5 -71.5q35 0 65 12.5t52.5 36.5t35.5 58.5t15 79.5v30h-162v78zM290 -46h93v-85l-42 -112l-44 11l22 86h-29v100z" />
    <glyph glyph-name="gcommaaccent" unicode="&#x123;" horiz-adv-x="560" 
d="M323 580h-94v85l43 112l43 -11l-21 -86h29v-100zM492 512v-483q0 -106 -55.5 -165t-173.5 -59q-73 0 -126.5 30.5t-70.5 99.5l81 20q6 -17 14 -31.5t21.5 -25t33 -16.5t48.5 -6q72 0 104.5 35.5t32.5 116.5v55h-2q-17 -32 -54 -56t-99 -24q-41 0 -78 13t-64.5 42
t-43.5 76.5t-16 115.5q0 69 15.5 120t44 85.5t68.5 51.5t88 17q58 0 91 -20t53 -51h3l18 59h67zM404 261q0 55 -9.5 92.5t-26.5 60.5t-40 33t-51 10q-29 0 -54 -10.5t-43.5 -34.5t-29.5 -63t-11 -97q0 -101 34 -142t93 -41q64 0 101 45t37 147z" />
    <glyph glyph-name="Hcircumflex" unicode="&#x124;" horiz-adv-x="697" 
d="M607 0h-99v326h-319v-326h-98v734h98v-326h319v326h99v-734zM372 916l122 -117l-29 -36l-120 79l-120 -79l-28 36l122 117h53z" />
    <glyph glyph-name="hcircumflex" unicode="&#x125;" horiz-adv-x="563" 
d="M497 0h-92v299q0 26 -3.5 53t-15 49t-32.5 36t-57 14q-39 0 -65 -13t-41.5 -35.5t-22 -51.5t-6.5 -61v-290h-93v734h92v-296h1q11 16 24.5 31.5t32 27.5t43.5 19.5t59 7.5q85 0 130.5 -52.5t45.5 -164.5v-307zM149 909l122 -117l-29 -36l-120 79l-120 -79l-28 36l122 117
h53z" />
    <glyph glyph-name="Hbar" unicode="&#x126;" horiz-adv-x="717" 
d="M617 603h65v-73h-65v-530h-99v326h-319v-326h-98v530h-66v73h66v131h98v-131h319v131h99v-131zM518 408v122h-319v-122h319z" />
    <glyph glyph-name="hbar" unicode="&#x127;" horiz-adv-x="563" 
d="M497 0h-92v299q0 26 -3.5 53t-15 49t-32.5 36t-57 14q-39 0 -65 -13t-41.5 -35.5t-22 -51.5t-6.5 -61v-290h-93v592h-62v66h62v76h92v-76h202v-66h-202v-154h1q11 16 24.5 31.5t32 27.5t43.5 19.5t59 7.5q85 0 130.5 -52.5t45.5 -164.5v-307z" />
    <glyph glyph-name="Itilde" unicode="&#x128;" horiz-adv-x="364" 
d="M229 71h79v-71h-251v71h76v592h-76v71h251v-71h-79v-592zM40 789q11 55 34 75.5t46 20.5q18 0 35 -5t32.5 -10.5t30 -10.5t27.5 -5q12 0 20.5 9t16.5 33l46 -8q-11 -56 -33 -77t-46 -21q-20 0 -37 5t-33 10.5t-30 10.5t-26 5q-25 0 -35 -39z" />
    <glyph glyph-name="itilde" unicode="&#x129;" horiz-adv-x="231" 
d="M69 512h93v-512h-93v512zM-29 614q11 55 34 75.5t46 20.5q18 0 35 -5t32.5 -10.5t30 -10.5t27.5 -5q12 0 20.5 9t16.5 33l47 -8q-12 -56 -34 -77t-46 -21q-19 0 -36.5 5t-33.5 10.5t-30 10.5t-26 5q-25 0 -35 -39z" />
    <glyph glyph-name="Imacron" unicode="&#x12a;" horiz-adv-x="364" 
d="M229 71h79v-71h-251v71h76v592h-76v71h251v-71h-79v-592zM48 868h271v-69h-271v69z" />
    <glyph glyph-name="imacron" unicode="&#x12b;" horiz-adv-x="231" 
d="M69 512h93v-512h-93v512zM-20 688h271v-66h-271v66z" />
    <glyph glyph-name="Ibreve" unicode="&#x12c;" horiz-adv-x="364" 
d="M229 71h79v-71h-251v71h76v592h-76v71h251v-71h-79v-592zM97 911q12 -40 32 -57t55 -17q37 0 57 17t36 57l52 -11q-14 -66 -51 -98.5t-96 -32.5t-94.5 32.5t-46.5 98.5z" />
    <glyph glyph-name="ibreve" unicode="&#x12d;" horiz-adv-x="231" 
d="M69 512h93v-512h-93v512zM31 732q15 -85 85 -85q38 0 59 21.5t32 63.5l52 -7q-11 -72 -48 -108t-97 -36q-124 0 -139 144z" />
    <glyph glyph-name="Iogonek" unicode="&#x12e;" horiz-adv-x="364" 
d="M229 71h79v-71h-97q-29 -29 -50.5 -54.5t-21.5 -48.5q0 -17 8 -23t20 -6q16 0 26 11t19 27l44 -23q-38 -78 -112 -78q-34 0 -57.5 15.5t-23.5 49.5q0 36 23.5 67.5t62.5 62.5h-92v71h76v592h-76v71h251v-71h-79v-592z" />
    <glyph glyph-name="iogonek" unicode="&#x12f;" horiz-adv-x="231" 
d="M69 512h93v-512q-17 -8 -33 -21t-28.5 -27t-20 -28.5t-7.5 -26.5q0 -17 8 -23t20 -6q16 0 26 11t19 27l44 -23q-38 -78 -112 -78q-34 0 -57.5 15.5t-23.5 49.5q0 36 19.5 67t52.5 63v512zM69 734h93v-107h-93v107z" />
    <glyph glyph-name="Idotaccent" unicode="&#x130;" horiz-adv-x="364" 
d="M229 71h79v-71h-251v71h76v592h-76v71h251v-71h-79v-592zM138 897h92v-107h-92v107z" />
    <glyph glyph-name="idotaccent" horiz-adv-x="231" 
d="M69 734h93v-107h-93v107zM69 512h93v-512h-93v512z" />
    <glyph glyph-name="dotlessi" unicode="&#x131;" horiz-adv-x="231" 
d="M69 512h93v-512h-93v512z" />
    <glyph glyph-name="IJ" unicode="&#x132;" horiz-adv-x="896" 
d="M229 71h79v-71h-251v71h76v592h-76v71h251v-71h-79v-592zM486 220q2 -27 6 -53.5t16 -47.5t34 -34.5t61 -13.5q60 0 85 35t25 110v518h98v-529q0 -49 -12.5 -89t-38 -68.5t-65.5 -44t-94 -15.5q-105 0 -155 56t-52 167z" />
    <glyph glyph-name="Jcircumflex" unicode="&#x134;" horiz-adv-x="532" 
d="M122 220q2 -27 6 -53.5t16 -47.5t34 -34.5t61 -13.5q60 0 85 35t25 110v518h98v-529q0 -49 -12.5 -89t-38 -68.5t-65.5 -44t-94 -15.5q-105 0 -155 56t-52 167zM425 916l122 -117l-29 -36l-120 79l-120 -79l-28 36l122 117h53z" />
    <glyph glyph-name="jcircumflex" unicode="&#x135;" horiz-adv-x="232" 
d="M-56 -117q16 -4 29.5 -6t29.5 -2q38 0 53.5 26.5t15.5 83.5v527h92v-516q0 -96 -35.5 -143.5t-119.5 -47.5q-20 0 -40.5 3t-34.5 8zM146 743l119 -142l-36 -33l-111 102l-108 -102l-37 33l120 142h53z" />
    <glyph glyph-name="Kcommaaccent" unicode="&#x136;" horiz-adv-x="624" 
d="M285 -46h93v-85l-42 -112l-44 11l22 86h-29v100zM189 376l301 358h109l-262 -308l280 -426h-112l-232 349l-84 -99v-250h-98v734h98v-358z" />
    <glyph glyph-name="kcommaaccent" unicode="&#x137;" horiz-adv-x="506" 
d="M210 -46h93v-85l-42 -112l-44 11l22 86h-29v100zM162 293l205 219h109l-176 -182l196 -330h-106l-153 266l-75 -75v-191h-93v734h93v-441z" />
    <glyph glyph-name="kgreenlandic" unicode="&#x138;" horiz-adv-x="506" 
d="M162 301l205 211h109l-175 -180l195 -332h-106l-153 266l-75 -77v-189h-93v512h93v-211z" />
    <glyph glyph-name="Lacute" unicode="&#x139;" horiz-adv-x="514" 
d="M263 851l-178 -88l-26 47l163 110zM189 79h289v-79h-387v734h98v-655z" />
    <glyph glyph-name="lacute" unicode="&#x13a;" horiz-adv-x="231" 
d="M235 851l-178 -88l-26 47l163 110zM162 0h-93v734h93v-734z" />
    <glyph glyph-name="Lcommaaccent" unicode="&#x13b;" horiz-adv-x="514" 
d="M238 -46h93v-85l-42 -112l-44 11l22 86h-29v100zM189 79h289v-79h-387v734h98v-655z" />
    <glyph glyph-name="lcommaaccent" unicode="&#x13c;" horiz-adv-x="231" 
d="M71 -46h93v-85l-42 -112l-44 11l22 86h-29v100zM162 0h-93v734h93v-734z" />
    <glyph glyph-name="Lcaron" unicode="&#x13d;" horiz-adv-x="514" 
d="M363 734l-28 -196l-49 2l-1 194h78zM189 79h289v-79h-387v734h98v-655z" />
    <glyph glyph-name="lcaron" unicode="&#x13e;" horiz-adv-x="265" 
d="M296 734l-28 -196l-49 2l-1 194h78zM162 0h-93v734h93v-734z" />
    <glyph glyph-name="Ldot" unicode="&#x13f;" horiz-adv-x="514" 
d="M325 467h92v-107h-92v107zM189 79h289v-79h-387v734h98v-655z" />
    <glyph glyph-name="ldot" unicode="&#x140;" horiz-adv-x="292" 
d="M162 0h-93v734h93v-734zM217 442h92v-107h-92v107z" />
    <glyph glyph-name="Lslash" unicode="&#x141;" horiz-adv-x="514" 
d="M189 425l160 76l18 -70l-178 -84v-268h289v-79h-387v308l-80 -37l-15 70l95 46v347h98v-309z" />
    <glyph glyph-name="lslash" unicode="&#x142;" horiz-adv-x="281" 
d="M188 450l74 34l19 -71l-93 -42v-371h-93v335l-73 -33l-17 70l90 42v320h93v-284z" />
    <glyph glyph-name="Nacute" unicode="&#x143;" horiz-adv-x="702" 
d="M481 851l-178 -88l-26 47l163 110zM498 0l-317 608v-608h-90v734h125l306 -602v602h89v-734h-113z" />
    <glyph glyph-name="nacute" unicode="&#x144;" horiz-adv-x="563" 
d="M402 702l-146 -134l-38 35l124 153zM497 0h-92v299q0 82 -27 117t-82 35q-40 0 -66 -14t-41 -36.5t-21 -51.5t-6 -59v-290h-93v512h86l4 -77h1q8 15 21 31t32 28.5t45 21t60 8.5q86 0 132.5 -51.5t46.5 -163.5v-309z" />
    <glyph glyph-name="Ncommaaccent" unicode="&#x145;" horiz-adv-x="702" 
d="M312 -46h93v-85l-42 -112l-44 11l22 86h-29v100zM499 0l-317 608v-608h-90v734h125l306 -602v602h89v-734h-113z" />
    <glyph glyph-name="ncommaaccent" unicode="&#x146;" horiz-adv-x="563" 
d="M236 -46h93v-85l-42 -112l-44 11l22 86h-29v100zM497 0h-92v299q0 82 -27 117t-82 35q-40 0 -66 -14t-41 -36.5t-21 -51.5t-6 -59v-290h-93v512h86l4 -77h1q8 15 21 31t32 28.5t45 21t60 8.5q86 0 132.5 -51.5t46.5 -163.5v-309z" />
    <glyph glyph-name="Ncaron" unicode="&#x147;" horiz-adv-x="702" 
d="M336 766l-122 113l29 37l120 -79l120 79l29 -37l-122 -113h-54zM498 0l-317 608v-608h-90v734h125l306 -602v602h89v-734h-113z" />
    <glyph glyph-name="ncaron" unicode="&#x148;" horiz-adv-x="563" 
d="M260 579l-119 142l36 33l110 -103l109 103l37 -33l-120 -142h-53zM497 0h-92v299q0 82 -27 117t-82 35q-40 0 -66 -14t-41 -36.5t-21 -51.5t-6 -59v-290h-93v512h86l4 -77h1q8 15 21 31t32 28.5t45 21t60 8.5q86 0 132.5 -51.5t46.5 -163.5v-309z" />
    <glyph glyph-name="napostrophe" unicode="&#x149;" horiz-adv-x="619" 
d="M84 610h-29l22 -86l-43 -11l-43 112v85h93v-100zM552 0h-92v299q0 82 -27 117t-82 35q-40 0 -66 -14t-41 -36.5t-21 -51.5t-6 -59v-290h-93v512h86l4 -77h1q8 15 21 31t32 28.5t45 21t60 8.5q86 0 132.5 -51.5t46.5 -163.5v-309z" />
    <glyph glyph-name="Eng" unicode="&#x14a;" horiz-adv-x="702" 
d="M304 -97q15 -5 40 -12.5t63 -7.5q62 0 84.5 32t23.5 92l-334 601v-608h-90v734h120l311 -563v563h89v-739q0 -42 -11.5 -77t-35 -60t-60 -39t-87.5 -14q-20 0 -39.5 2.5t-37.5 6t-32 8t-21 8.5z" />
    <glyph glyph-name="eng" unicode="&#x14b;" horiz-adv-x="563" 
d="M278 -117q15 -4 29 -6t29 -2q38 0 53.5 26.5t15.5 83.5v314q0 82 -27 117t-82 35q-40 0 -66 -14t-41 -36.5t-21 -51.5t-6 -59v-290h-93v512h86l4 -77h1q8 15 21 31t32 28.5t45 21t60 8.5q86 0 132.5 -51.5t46.5 -163.5v-313q0 -96 -35 -143.5t-119 -47.5q-21 0 -41 3
t-34 8z" />
    <glyph glyph-name="Omacron" unicode="&#x14c;" horiz-adv-x="685" 
d="M219 868h271v-69h-271v69zM339 -12q-146 0 -216 98t-70 279q0 91 21 162t60.5 120t96 74.5t127.5 25.5q140 0 207 -97t67 -271q0 -188 -72.5 -289.5t-220.5 -101.5zM345 68q50 0 85.5 20.5t58 59.5t33 96t10.5 129q0 139 -41.5 215.5t-137.5 76.5q-99 0 -149 -78
t-50 -218q0 -71 10.5 -127t33.5 -94.5t59.5 -59t87.5 -20.5z" />
    <glyph glyph-name="omacron" unicode="&#x14d;" horiz-adv-x="553" 
d="M143 688h271v-66h-271v66zM274 -12q-118 0 -174.5 69t-56.5 199q0 66 18.5 116t51.5 84t77 51t95 17q106 0 165.5 -65.5t59.5 -192.5q0 -138 -62 -208t-174 -70zM278 58q37 0 63.5 15.5t43 42.5t24 64t7.5 80q0 42 -7.5 77.5t-24 61t-42 39.5t-62.5 14t-63.5 -14.5
t-44 -41t-26 -62t-8.5 -77.5q0 -43 7.5 -79.5t24 -63t43 -41.5t65.5 -15z" />
    <glyph glyph-name="Obreve" unicode="&#x14e;" horiz-adv-x="685" 
d="M268 916q12 -40 32 -57t55 -17q37 0 57 17t36 57l52 -11q-14 -66 -51 -98.5t-96 -32.5t-94.5 32.5t-46.5 98.5zM339 -12q-146 0 -216 98t-70 279q0 91 21 162t60.5 120t96 74.5t127.5 25.5q140 0 207 -97t67 -271q0 -188 -72.5 -289.5t-220.5 -101.5zM345 68
q50 0 85.5 20.5t58 59.5t33 96t10.5 129q0 139 -41.5 215.5t-137.5 76.5q-99 0 -149 -78t-50 -218q0 -71 10.5 -127t33.5 -94.5t59.5 -59t87.5 -20.5z" />
    <glyph glyph-name="obreve" unicode="&#x14f;" horiz-adv-x="553" 
d="M274 -12q-118 0 -174.5 69t-56.5 199q0 66 18.5 116t51.5 84t77 51t95 17q106 0 165.5 -65.5t59.5 -192.5q0 -138 -62 -208t-174 -70zM278 58q37 0 63.5 15.5t43 42.5t24 64t7.5 80q0 42 -7.5 77.5t-24 61t-42 39.5t-62.5 14t-63.5 -14.5t-44 -41t-26 -62t-8.5 -77.5
q0 -43 7.5 -79.5t24 -63t43 -41.5t65.5 -15zM194 732q15 -85 85 -85q38 0 59 21.5t32 63.5l52 -7q-11 -72 -48 -108t-97 -36q-124 0 -139 144z" />
    <glyph glyph-name="Ohungarumlaut" unicode="&#x150;" horiz-adv-x="685" 
d="M339 -12q-146 0 -216 98t-70 279q0 91 21 162t60.5 120t96 74.5t127.5 25.5q140 0 207 -97t67 -271q0 -188 -72.5 -289.5t-220.5 -101.5zM345 68q50 0 85.5 20.5t58 59.5t33 96t10.5 129q0 139 -41.5 215.5t-137.5 76.5q-99 0 -149 -78t-50 -218q0 -71 10.5 -127
t33.5 -94.5t59.5 -59t87.5 -20.5zM556 860l-160 -93l-26 39l145 113zM399 868l-150 -100l-28 36l132 122z" />
    <glyph glyph-name="ohungarumlaut" unicode="&#x151;" horiz-adv-x="553" 
d="M487 705l-144 -135l-33 31l122 151zM349 711l-132 -140l-36 28l109 157zM274 -12q-118 0 -174.5 69t-56.5 199q0 66 18.5 116t51.5 84t77 51t95 17q106 0 165.5 -65.5t59.5 -192.5q0 -138 -62 -208t-174 -70zM278 58q37 0 63.5 15.5t43 42.5t24 64t7.5 80q0 42 -7.5 77.5
t-24 61t-42 39.5t-62.5 14t-63.5 -14.5t-44 -41t-26 -62t-8.5 -77.5q0 -43 7.5 -79.5t24 -63t43 -41.5t65.5 -15z" />
    <glyph glyph-name="OE" unicode="&#x152;" horiz-adv-x="920" 
d="M818 338h-267v-259h323v-79h-454q-22 -5 -44 -8.5t-44 -3.5q-139 0 -209 98t-70 278q0 91 21 162.5t60 120.5t94 74.5t123 25.5q24 0 46.5 -3.5t43.5 -9.5h410v-79h-300v-239h267v-78zM342 68q28 0 58 5.5t53 16.5v552q-20 11 -47.5 17t-55.5 6q-97 0 -146.5 -78
t-49.5 -220q0 -70 11 -125.5t33.5 -94t58 -59t85.5 -20.5z" />
    <glyph glyph-name="oe" unicode="&#x153;" horiz-adv-x="893" 
d="M844 168q-6 -55 -27 -90t-50 -55t-63 -27.5t-65 -7.5q-65 0 -110 26.5t-71 74.5q-59 -101 -187 -101q-57 0 -100 18t-71.5 52t-42.5 82t-14 107q0 70 18.5 122.5t51 86.5t76 51t93.5 17q65 0 110 -27t73 -75q30 48 76.5 75t111.5 27q106 0 156.5 -74.5t36.5 -211.5h-339
q0 -37 7 -69.5t23 -57t42.5 -38.5t65.5 -14q50 0 83 26.5t41 89.5zM276 58q38 0 64.5 15.5t43.5 42.5t24.5 63.5t7.5 78.5q0 43 -7.5 79t-24 61.5t-42 39.5t-62.5 14t-64 -14.5t-44 -41t-25.5 -63t-8.5 -80.5q0 -41 7.5 -76.5t24 -61.5t42.5 -41.5t64 -15.5zM761 301
q3 69 -25 112.5t-93 43.5q-36 0 -61 -13t-41.5 -34.5t-24.5 -49.5t-9 -59h254z" />
    <glyph glyph-name="Racute" unicode="&#x154;" horiz-adv-x="615" 
d="M310 317h-19h-102v-317h-98v734h235q68 0 113.5 -15.5t73 -42t39 -62.5t11.5 -76q0 -32 -6 -63.5t-23 -59.5t-47 -50.5t-79 -34.5l169 -330h-107zM285 394q91 0 133.5 29.5t42.5 109.5q0 66 -37.5 94.5t-118.5 28.5h-116v-262h96zM418 851l-178 -88l-26 47l163 110z" />
    <glyph glyph-name="racute" unicode="&#x155;" horiz-adv-x="438" 
d="M358 702l-146 -134l-38 35l124 153zM329 341q7 64 -7.5 86.5t-48.5 22.5q-31 0 -52 -14t-34 -38t-19 -55.5t-6 -65.5v-277h-93v512h86l5 -74h1q18 37 51 61.5t87 24.5q64 0 97 -42t19 -137z" />
    <glyph glyph-name="Rcommaaccent" unicode="&#x156;" horiz-adv-x="615" 
d="M310 317h-19h-102v-317h-98v734h235q68 0 113.5 -15.5t73 -42t39 -62.5t11.5 -76q0 -32 -6 -63.5t-23 -59.5t-47 -50.5t-79 -34.5l169 -330h-107zM285 394q91 0 133.5 29.5t42.5 109.5q0 66 -37.5 94.5t-118.5 28.5h-116v-262h96zM273 -46h93v-85l-42 -112l-44 11l22 86
h-29v100z" />
    <glyph glyph-name="rcommaaccent" unicode="&#x157;" horiz-adv-x="438" 
d="M70 -46h93v-85l-42 -112l-44 11l22 86h-29v100zM329 341q7 64 -7.5 86.5t-48.5 22.5q-31 0 -52 -14t-34 -38t-19 -55.5t-6 -65.5v-277h-93v512h86l5 -74h1q18 37 51 61.5t87 24.5q64 0 97 -42t19 -137z" />
    <glyph glyph-name="Rcaron" unicode="&#x158;" horiz-adv-x="615" 
d="M273 766l-122 113l29 37l120 -79l120 79l29 -37l-122 -113h-54zM310 317h-19h-102v-317h-98v734h235q68 0 113.5 -15.5t73 -42t39 -62.5t11.5 -76q0 -32 -6 -63.5t-23 -59.5t-47 -50.5t-79 -34.5l169 -330h-107zM285 394q91 0 133.5 29.5t42.5 109.5q0 66 -37.5 94.5
t-118.5 28.5h-116v-262h96z" />
    <glyph glyph-name="rcaron" unicode="&#x159;" horiz-adv-x="438" 
d="M216 579l-119 142l36 33l110 -103l109 103l37 -33l-120 -142h-53zM329 341q7 64 -7.5 86.5t-48.5 22.5q-31 0 -52 -14t-34 -38t-19 -55.5t-6 -65.5v-277h-93v512h86l5 -74h1q18 37 51 61.5t87 24.5q64 0 97 -42t19 -137z" />
    <glyph glyph-name="Sacute" unicode="&#x15a;" horiz-adv-x="582" 
d="M438 512q-7 76 -42 115.5t-105 39.5q-65 0 -99 -30.5t-34 -87.5q0 -30 10.5 -50.5t28.5 -34.5t42.5 -22.5t51.5 -15.5q41 -11 85 -22.5t80 -33.5t59.5 -59.5t23.5 -100.5q0 -51 -18 -92t-50.5 -70t-78.5 -44.5t-101 -15.5q-120 0 -185 52.5t-76 174.5l98 15
q4 -38 13 -67.5t27.5 -50t48.5 -31.5t76 -11q75 0 110.5 36t35.5 93q0 33 -12 55.5t-32.5 37.5t-47.5 24t-56 16q-41 10 -82.5 21t-75.5 33t-55.5 58.5t-21.5 96.5q0 48 17.5 86.5t49 65.5t75.5 41t96 14q112 0 170.5 -59.5t67.5 -162.5zM425 851l-178 -88l-26 47l163 110z
" />
    <glyph glyph-name="sacute" unicode="&#x15b;" horiz-adv-x="477" 
d="M361 702l-146 -134l-38 35l124 153zM351 357q-6 49 -30.5 73.5t-75.5 24.5q-48 0 -75 -17.5t-27 -55.5q0 -33 22 -48.5t54.5 -24t70.5 -15t70.5 -21.5t54.5 -43.5t22 -81.5q0 -37 -15.5 -66.5t-43 -50.5t-65 -32t-82.5 -11q-91 0 -138.5 38t-57.5 120l82 14
q4 -24 10.5 -43.5t19.5 -32.5t33.5 -20t52.5 -7q60 0 87 23.5t27 58.5t-21.5 51.5t-54 25.5t-70 15.5t-70 21t-54 41.5t-21.5 78q0 37 14.5 65.5t39.5 47.5t59.5 29t75.5 10q88 0 132.5 -39.5t53.5 -112.5z" />
    <glyph glyph-name="Scircumflex" unicode="&#x15c;" horiz-adv-x="582" 
d="M438 512q-7 76 -42 115.5t-105 39.5q-65 0 -99 -30.5t-34 -87.5q0 -30 10.5 -50.5t28.5 -34.5t42.5 -22.5t51.5 -15.5q41 -11 85 -22.5t80 -33.5t59.5 -59.5t23.5 -100.5q0 -51 -18 -92t-50.5 -70t-78.5 -44.5t-101 -15.5q-120 0 -185 52.5t-76 174.5l98 15
q4 -38 13 -67.5t27.5 -50t48.5 -31.5t76 -11q75 0 110.5 36t35.5 93q0 33 -12 55.5t-32.5 37.5t-47.5 24t-56 16q-41 10 -82.5 21t-75.5 33t-55.5 58.5t-21.5 96.5q0 48 17.5 86.5t49 65.5t75.5 41t96 14q112 0 170.5 -59.5t67.5 -162.5zM334 916l122 -117l-29 -36l-120 79
l-120 -79l-28 36l122 117h53z" />
    <glyph glyph-name="scircumflex" unicode="&#x15d;" horiz-adv-x="477" 
d="M272 743l119 -142l-36 -33l-111 102l-108 -102l-37 33l120 142h53zM351 357q-6 49 -30.5 73.5t-75.5 24.5q-48 0 -75 -17.5t-27 -55.5q0 -33 22 -48.5t54.5 -24t70.5 -15t70.5 -21.5t54.5 -43.5t22 -81.5q0 -37 -15.5 -66.5t-43 -50.5t-65 -32t-82.5 -11q-91 0 -138.5 38
t-57.5 120l82 14q4 -24 10.5 -43.5t19.5 -32.5t33.5 -20t52.5 -7q60 0 87 23.5t27 58.5t-21.5 51.5t-54 25.5t-70 15.5t-70 21t-54 41.5t-21.5 78q0 37 14.5 65.5t39.5 47.5t59.5 29t75.5 10q88 0 132.5 -39.5t53.5 -112.5z" />
    <glyph glyph-name="Scedilla" unicode="&#x15e;" horiz-adv-x="582" 
d="M268 -11q-110 5 -168.5 57.5t-69.5 168.5l98 15q4 -38 13 -67.5t27.5 -50t48.5 -31.5t76 -11q75 0 110.5 36t35.5 93q0 33 -12 55.5t-32.5 37.5t-47.5 24t-56 16q-41 10 -82.5 21t-75.5 33t-55.5 58.5t-21.5 96.5q0 48 17.5 86.5t49 65.5t75.5 41t96 14
q112 0 170.5 -59.5t67.5 -162.5l-94 -14q-7 76 -42 115.5t-105 39.5q-65 0 -99 -30.5t-34 -87.5q0 -30 10.5 -50.5t28.5 -34.5t42.5 -22.5t51.5 -15.5q41 -11 85 -22.5t80 -33.5t59.5 -59.5t23.5 -100.5q0 -48 -16 -87t-45 -67.5t-69.5 -45.5t-90.5 -21l-18 -40q13 6 29 6
q35 0 57 -21t22 -59q0 -44 -31.5 -68t-78.5 -24q-25 0 -52.5 10t-48.5 39l34 34q14 -15 28.5 -23t32.5 -8q45 0 45 39q0 20 -11.5 29.5t-29.5 9.5q-9 0 -16.5 -3t-13.5 -7l-28 13z" />
    <glyph glyph-name="scedilla" unicode="&#x15f;" horiz-adv-x="477" 
d="M206 -11q-78 5 -120 42.5t-51 114.5l82 14q4 -24 10.5 -43.5t19.5 -32.5t33.5 -20t52.5 -7q60 0 87 23.5t27 58.5t-21.5 51.5t-54 25.5t-70 15.5t-70 21t-54 41.5t-21.5 78q0 37 14.5 65.5t39.5 47.5t59.5 29t75.5 10q88 0 132.5 -39.5t53.5 -112.5l-80 -15
q-6 49 -30.5 73.5t-75.5 24.5q-48 0 -75 -17.5t-27 -55.5q0 -33 22 -48.5t54.5 -24t70.5 -15t70.5 -21.5t54.5 -43.5t22 -81.5q0 -35 -13.5 -63t-37.5 -48t-57 -32.5t-73 -15.5l-18 -40q13 6 29 6q35 0 57 -21t22 -59q0 -44 -31.5 -68t-78.5 -24q-25 0 -52.5 10t-48.5 39
l34 34q14 -15 28.5 -23t32.5 -8q45 0 45 39q0 20 -11.5 29.5t-29.5 9.5q-9 0 -16.5 -3t-13.5 -7l-28 13z" />
    <glyph glyph-name="Scaron" unicode="&#x160;" horiz-adv-x="582" 
d="M438 512q-7 76 -42 115.5t-105 39.5q-65 0 -99 -30.5t-34 -87.5q0 -30 10.5 -50.5t28.5 -34.5t42.5 -22.5t51.5 -15.5q41 -11 85 -22.5t80 -33.5t59.5 -59.5t23.5 -100.5q0 -51 -18 -92t-50.5 -70t-78.5 -44.5t-101 -15.5q-120 0 -185 52.5t-76 174.5l98 15
q4 -38 13 -67.5t27.5 -50t48.5 -31.5t76 -11q75 0 110.5 36t35.5 93q0 33 -12 55.5t-32.5 37.5t-47.5 24t-56 16q-41 10 -82.5 21t-75.5 33t-55.5 58.5t-21.5 96.5q0 48 17.5 86.5t49 65.5t75.5 41t96 14q112 0 170.5 -59.5t67.5 -162.5zM279 774l-122 113l29 37l120 -79
l120 79l29 -37l-122 -113h-54z" />
    <glyph glyph-name="scaron" unicode="&#x161;" horiz-adv-x="477" 
d="M218 579l-119 142l36 33l110 -103l109 103l37 -33l-120 -142h-53zM351 357q-6 49 -30.5 73.5t-75.5 24.5q-48 0 -75 -17.5t-27 -55.5q0 -33 22 -48.5t54.5 -24t70.5 -15t70.5 -21.5t54.5 -43.5t22 -81.5q0 -37 -15.5 -66.5t-43 -50.5t-65 -32t-82.5 -11q-91 0 -138.5 38
t-57.5 120l82 14q4 -24 10.5 -43.5t19.5 -32.5t33.5 -20t52.5 -7q60 0 87 23.5t27 58.5t-21.5 51.5t-54 25.5t-70 15.5t-70 21t-54 41.5t-21.5 78q0 37 14.5 65.5t39.5 47.5t59.5 29t75.5 10q88 0 132.5 -39.5t53.5 -112.5z" />
    <glyph glyph-name="Scommaaccent" unicode="&#x218;" horiz-adv-x="582" 
d="M438 512q-7 76 -42 115.5t-105 39.5q-65 0 -99 -30.5t-34 -87.5q0 -30 10.5 -50.5t28.5 -34.5t42.5 -22.5t51.5 -15.5q41 -11 85 -22.5t80 -33.5t59.5 -59.5t23.5 -100.5q0 -51 -18 -92t-50.5 -70t-78.5 -44.5t-101 -15.5q-120 0 -185 52.5t-76 174.5l98 15
q4 -38 13 -67.5t27.5 -50t48.5 -31.5t76 -11q75 0 110.5 36t35.5 93q0 33 -12 55.5t-32.5 37.5t-47.5 24t-56 16q-41 10 -82.5 21t-75.5 33t-55.5 58.5t-21.5 96.5q0 48 17.5 86.5t49 65.5t75.5 41t96 14q112 0 170.5 -59.5t67.5 -162.5zM252 -46h93v-85l-42 -112l-44 11
l22 86h-29v100z" />
    <glyph glyph-name="scommaaccent" unicode="&#x219;" horiz-adv-x="477" 
d="M194 -46h93v-85l-42 -112l-44 11l22 86h-29v100zM351 357q-6 49 -30.5 73.5t-75.5 24.5q-48 0 -75 -17.5t-27 -55.5q0 -33 22 -48.5t54.5 -24t70.5 -15t70.5 -21.5t54.5 -43.5t22 -81.5q0 -37 -15.5 -66.5t-43 -50.5t-65 -32t-82.5 -11q-91 0 -138.5 38t-57.5 120l82 14
q4 -24 10.5 -43.5t19.5 -32.5t33.5 -20t52.5 -7q60 0 87 23.5t27 58.5t-21.5 51.5t-54 25.5t-70 15.5t-70 21t-54 41.5t-21.5 78q0 37 14.5 65.5t39.5 47.5t59.5 29t75.5 10q88 0 132.5 -39.5t53.5 -112.5z" />
    <glyph glyph-name="uni0162" unicode="&#x162;" horiz-adv-x="546" 
d="M224 655h-209v79h516v-79h-209v-655h-27l-23 -51q13 6 29 6q35 0 57 -21t22 -59q0 -44 -31.5 -68t-78.5 -24q-25 0 -52.5 10t-48.5 39l34 34q14 -15 28.5 -23t32.5 -8q45 0 45 39q0 20 -11.5 29.5t-29.5 9.5q-9 0 -16.5 -3t-13.5 -7l-28 13l35 84h-21v655z" />
    <glyph glyph-name="uni0163" unicode="&#x163;" horiz-adv-x="341" 
d="M174 -5q-50 14 -69 56t-19 107v285h-62v69h62v111l92 29v-140h122v-69h-122v-276q0 -56 14.5 -82t58.5 -26q19 0 33.5 2.5t29.5 7.5l9 -67q-14 -5 -38 -9.5t-54 -4.5h-11l-17 -39q13 6 29 6q35 0 57 -21t22 -59q0 -44 -31.5 -68t-78.5 -24q-25 0 -52.5 10t-48.5 39l34 34
q14 -15 28.5 -23t32.5 -8q45 0 45 39q0 20 -11.5 29.5t-29.5 9.5q-9 0 -16.5 -3t-13.5 -7l-28 13z" />
    <glyph glyph-name="Tcaron" unicode="&#x164;" horiz-adv-x="546" 
d="M246 766l-122 113l29 37l120 -79l120 79l29 -37l-122 -113h-54zM224 655h-209v79h516v-79h-209v-655h-98v655z" />
    <glyph glyph-name="tcaron" unicode="&#x165;" horiz-adv-x="341" 
d="M305 757l-28 -196l-49 2l-1 194h78zM24 512h62v111l92 29v-140h122v-69h-122v-276q0 -56 14.5 -82t58.5 -26q19 0 33.5 2.5t29.5 7.5l9 -67q-14 -5 -38 -9.5t-54 -4.5q-42 0 -70 11.5t-44.5 33.5t-23.5 53.5t-7 71.5v285h-62v69z" />
    <glyph glyph-name="Tbar" unicode="&#x166;" horiz-adv-x="546" 
d="M224 351h-159v74h159v230h-209v79h516v-79h-209v-230h159v-74h-159v-351h-98v351z" />
    <glyph glyph-name="tbar" unicode="&#x167;" horiz-adv-x="341" 
d="M24 512h62v111l92 29v-140h122v-69h-122v-93h122v-65h-122v-118q0 -56 14.5 -82t58.5 -26q19 0 33.5 2.5t29.5 7.5l9 -67q-14 -5 -38 -9.5t-54 -4.5q-42 0 -70 11.5t-44.5 33.5t-23.5 53.5t-7 71.5v127h-62v65h62v93h-62v69z" />
    <glyph glyph-name="uni021A" unicode="&#x21a;" horiz-adv-x="546" 
d="M224 655h-209v79h516v-79h-209v-655h-98v655zM224 -46h93v-85l-42 -112l-44 11l22 86h-29v100z" />
    <glyph glyph-name="uni021B" unicode="&#x21b;" horiz-adv-x="341" 
d="M161 -46h93v-85l-42 -112l-44 11l22 86h-29v100zM24 512h62v111l92 29v-140h122v-69h-122v-276q0 -56 14.5 -82t58.5 -26q19 0 33.5 2.5t29.5 7.5l9 -67q-14 -5 -38 -9.5t-54 -4.5q-42 0 -70 11.5t-44.5 33.5t-23.5 53.5t-7 71.5v285h-62v69z" />
    <glyph glyph-name="Utilde" unicode="&#x168;" horiz-adv-x="703" 
d="M202 789q11 55 34 75.5t46 20.5q18 0 35 -5t32.5 -10.5t30 -10.5t27.5 -5q12 0 20.5 9t16.5 33l46 -8q-11 -56 -33 -77t-46 -21q-20 0 -37 5t-33 10.5t-30 10.5t-26 5q-25 0 -35 -39zM521 734h97v-477q0 -130 -68.5 -199.5t-202.5 -69.5q-71 0 -120.5 18.5t-81 54
t-46 85.5t-14.5 113v475h97v-455q0 -108 39.5 -159t130.5 -51q88 0 128.5 49.5t40.5 159.5v456z" />
    <glyph glyph-name="utilde" unicode="&#x169;" horiz-adv-x="549" 
d="M65 512h92v-302q0 -80 26 -114.5t77 -34.5q37 0 62 15t39.5 39t20.5 55.5t6 64.5v277h93v-512h-84l-6 77h-1q-8 -14 -20 -29.5t-30 -28.5t-43 -22t-59 -9q-85 0 -129 52t-44 164v308zM126 614q11 55 34 75.5t46 20.5q18 0 35 -5t32.5 -10.5t30 -10.5t27.5 -5q12 0 20.5 9
t16.5 33l47 -8q-12 -56 -34 -77t-46 -21q-19 0 -36.5 5t-33.5 10.5t-30 10.5t-26 5q-25 0 -35 -39z" />
    <glyph glyph-name="Umacron" unicode="&#x16a;" horiz-adv-x="703" 
d="M210 868h271v-69h-271v69zM521 734h97v-477q0 -130 -68.5 -199.5t-202.5 -69.5q-71 0 -120.5 18.5t-81 54t-46 85.5t-14.5 113v475h97v-455q0 -108 39.5 -159t130.5 -51q88 0 128.5 49.5t40.5 159.5v456z" />
    <glyph glyph-name="umacron" unicode="&#x16b;" horiz-adv-x="549" 
d="M65 512h92v-302q0 -80 26 -114.5t77 -34.5q37 0 62 15t39.5 39t20.5 55.5t6 64.5v277h93v-512h-84l-6 77h-1q-8 -14 -20 -29.5t-30 -28.5t-43 -22t-59 -9q-85 0 -129 52t-44 164v308zM135 688h271v-66h-271v66z" />
    <glyph glyph-name="Ubreve" unicode="&#x16c;" horiz-adv-x="703" 
d="M259 911q12 -40 32 -57t55 -17q37 0 57 17t36 57l52 -11q-14 -66 -51 -98.5t-96 -32.5t-94.5 32.5t-46.5 98.5zM521 734h97v-477q0 -130 -68.5 -199.5t-202.5 -69.5q-71 0 -120.5 18.5t-81 54t-46 85.5t-14.5 113v475h97v-455q0 -108 39.5 -159t130.5 -51
q88 0 128.5 49.5t40.5 159.5v456z" />
    <glyph glyph-name="ubreve" unicode="&#x16d;" horiz-adv-x="549" 
d="M65 512h92v-302q0 -80 26 -114.5t77 -34.5q37 0 62 15t39.5 39t20.5 55.5t6 64.5v277h93v-512h-84l-6 77h-1q-8 -14 -20 -29.5t-30 -28.5t-43 -22t-59 -9q-85 0 -129 52t-44 164v308zM186 732q15 -85 85 -85q38 0 59 21.5t32 63.5l52 -7q-11 -72 -48 -108t-97 -36
q-124 0 -139 144z" />
    <glyph glyph-name="Uring" unicode="&#x16e;" horiz-adv-x="703" 
d="M521 734h97v-477q0 -130 -68.5 -199.5t-202.5 -69.5q-71 0 -120.5 18.5t-81 54t-46 85.5t-14.5 113v475h97v-455q0 -108 39.5 -159t130.5 -51q88 0 128.5 49.5t40.5 159.5v456zM344 761q-51 0 -74 24.5t-23 64.5q0 42 30 65.5t71 23.5q45 0 71.5 -23t26.5 -63
q0 -42 -26.5 -67t-75.5 -25zM346 805q39 0 39 46q0 25 -10.5 35t-27.5 10q-18 0 -30 -10.5t-12 -35.5q0 -24 10.5 -34.5t30.5 -10.5z" />
    <glyph glyph-name="uring" unicode="&#x16f;" horiz-adv-x="549" 
d="M269 576q-51 0 -74 24.5t-23 64.5q0 42 30 65.5t71 23.5q45 0 71.5 -23t26.5 -63q0 -42 -26.5 -67t-75.5 -25zM271 619q39 0 39 47q0 25 -10.5 35t-27.5 10q-18 0 -30 -10.5t-12 -35.5q0 -46 41 -46zM65 512h92v-302q0 -80 26 -114.5t77 -34.5q37 0 62 15t39.5 39
t20.5 55.5t6 64.5v277h93v-512h-84l-6 77h-1q-8 -14 -20 -29.5t-30 -28.5t-43 -22t-59 -9q-85 0 -129 52t-44 164v308z" />
    <glyph glyph-name="Uhungarumlaut" unicode="&#x170;" horiz-adv-x="703" 
d="M521 734h97v-477q0 -130 -68.5 -199.5t-202.5 -69.5q-71 0 -120.5 18.5t-81 54t-46 85.5t-14.5 113v475h97v-455q0 -108 39.5 -159t130.5 -51q88 0 128.5 49.5t40.5 159.5v456zM557 860l-160 -93l-26 39l145 113zM400 868l-150 -100l-28 36l132 122z" />
    <glyph glyph-name="uhungarumlaut" unicode="&#x171;" horiz-adv-x="549" 
d="M65 512h92v-302q0 -80 26 -114.5t77 -34.5q37 0 62 15t39.5 39t20.5 55.5t6 64.5v277h93v-512h-84l-6 77h-1q-8 -14 -20 -29.5t-30 -28.5t-43 -22t-59 -9q-85 0 -129 52t-44 164v308zM469 705l-144 -135l-33 31l122 151zM331 711l-132 -140l-36 28l109 157z" />
    <glyph glyph-name="Uogonek" unicode="&#x172;" horiz-adv-x="703" 
d="M521 734h97v-477q0 -89 -33.5 -146t-89.5 -96q-18 -12 -35 -27.5t-30 -31.5t-21 -31.5t-8 -27.5q0 -17 8 -23t20 -6q16 0 26 11t19 27l44 -23q-38 -78 -112 -78q-34 0 -57.5 15.5t-23.5 49.5q0 33 20 63t55 59q-13 -2 -26 -3t-27 -1q-71 0 -120.5 18.5t-81 54t-46 85.5
t-14.5 113v475h97v-455q0 -108 39.5 -159t130.5 -51q88 0 128.5 49.5t40.5 159.5v456z" />
    <glyph glyph-name="uogonek" unicode="&#x173;" horiz-adv-x="549" 
d="M65 512h92v-302q0 -80 26 -114.5t77 -34.5q37 0 62 15t39.5 39t20.5 55.5t6 64.5v277h93v-512q-43 -23 -68 -51.5t-25 -51.5q0 -17 8 -23t20 -6q16 0 26 11t19 27l44 -23q-38 -78 -112 -78q-34 0 -57.5 15.5t-23.5 49.5q0 36 23.5 67.5t61.5 62.5l-6 77h-1
q-8 -14 -20 -29.5t-30 -28.5t-43 -22t-59 -9q-85 0 -129 52t-44 164v308z" />
    <glyph glyph-name="Wcircumflex" unicode="&#x174;" horiz-adv-x="925" 
d="M611 0l-148 599h-5l-141 -599h-127l-179 734h102l139 -646h4l154 646h102l161 -646h3l140 646h98l-178 -734h-125zM491 916l122 -117l-29 -36l-120 79l-120 -79l-28 36l122 117h53z" />
    <glyph glyph-name="wcircumflex" unicode="&#x175;" horiz-adv-x="780" 
d="M418 743l119 -142l-36 -33l-111 102l-108 -102l-37 33l120 142h53zM173 0l-159 512h94l114 -407h1l117 407h103l119 -407h1l111 407h92l-158 -512h-96l-121 417h-1l-123 -417h-94z" />
    <glyph glyph-name="Wgrave" unicode="&#x1e80;" horiz-adv-x="925" 
d="M388 920l162 -110l-27 -47l-178 88zM611 0l-148 599h-5l-141 -599h-127l-179 734h102l139 -646h4l154 646h102l161 -646h3l140 646h98l-178 -734h-125z" />
    <glyph glyph-name="wgrave" unicode="&#x1e81;" horiz-adv-x="780" 
d="M173 0l-159 512h94l114 -407h1l117 407h103l119 -407h1l111 407h92l-158 -512h-96l-121 417h-1l-123 -417h-94zM339 755l124 -152l-38 -35l-146 134z" />
    <glyph glyph-name="Wacute" unicode="&#x1e82;" horiz-adv-x="925" 
d="M582 851l-178 -88l-26 47l163 110zM611 0l-148 599h-5l-141 -599h-127l-179 734h102l139 -646h4l154 646h102l161 -646h3l140 646h98l-178 -734h-125z" />
    <glyph glyph-name="wacute" unicode="&#x1e83;" horiz-adv-x="780" 
d="M498 702l-146 -134l-38 35l124 153zM173 0l-159 512h94l114 -407h1l117 407h103l119 -407h1l111 407h92l-158 -512h-96l-121 417h-1l-123 -417h-94z" />
    <glyph glyph-name="Wdieresis" unicode="&#x1e84;" horiz-adv-x="925" 
d="M504 881h84v-97h-84v97zM340 881h84v-97h-84v97zM611 0l-148 599h-5l-141 -599h-127l-179 734h102l139 -646h4l154 646h102l161 -646h3l140 646h98l-178 -734h-125z" />
    <glyph glyph-name="wdieresis" unicode="&#x1e85;" horiz-adv-x="780" 
d="M431 710h84v-98h-84v98zM267 710h84v-98h-84v98zM173 0l-159 512h94l114 -407h1l117 407h103l119 -407h1l111 407h92l-158 -512h-96l-121 417h-1l-123 -417h-94z" />
    <glyph glyph-name="Ygrave" unicode="&#x1ef2;" horiz-adv-x="570" 
d="M334 0h-97v278l-240 456h110l178 -359l186 359h103l-240 -451v-283zM207 920l162 -110l-27 -47l-178 88z" />
    <glyph glyph-name="ygrave" unicode="&#x1ef3;" horiz-adv-x="463" 
d="M273 -1q-19 -55 -36.5 -92.5t-38 -60t-47 -32t-62.5 -9.5q-20 0 -40.5 3t-32.5 8l11 65q15 -4 25 -6t26 -2q20 0 35 7t26.5 21.5t21.5 37.5t21 55l3 10l-174 508h97l124 -406h1l128 406h94zM181 755l124 -152l-38 -35l-146 134z" />
    <glyph glyph-name="Ycircumflex" unicode="&#x176;" horiz-adv-x="570" 
d="M334 0h-97v278l-240 456h110l178 -359l186 359h103l-240 -451v-283zM312 916l122 -117l-29 -36l-120 79l-120 -79l-28 36l122 117h53z" />
    <glyph glyph-name="ycircumflex" unicode="&#x177;" horiz-adv-x="463" 
d="M273 -1q-19 -55 -36.5 -92.5t-38 -60t-47 -32t-62.5 -9.5q-20 0 -40.5 3t-32.5 8l11 65q15 -4 25 -6t26 -2q20 0 35 7t26.5 21.5t21.5 37.5t21 55l3 10l-174 508h97l124 -406h1l128 406h94zM262 743l119 -142l-36 -33l-111 102l-108 -102l-37 33l120 142h53z" />
    <glyph glyph-name="Ydieresis" unicode="&#x178;" horiz-adv-x="570" 
d="M334 0h-97v278l-240 456h110l178 -359l186 359h103l-240 -451v-283zM325 881h84v-97h-84v97zM161 881h84v-97h-84v97z" />
    <glyph glyph-name="Zacute" unicode="&#x179;" horiz-adv-x="550" 
d="M43 734h469v-74l-370 -581h370v-79h-480v74l368 581h-357v79zM394 851l-178 -88l-26 47l163 110z" />
    <glyph glyph-name="zacute" unicode="&#x17a;" horiz-adv-x="437" 
d="M336 702l-146 -134l-38 35l124 153zM39 512h371v-70l-274 -366h275v-76h-384v71l272 366h-260v75z" />
    <glyph glyph-name="Zdotaccent" unicode="&#x17b;" horiz-adv-x="550" 
d="M230 897h92v-107h-92v107zM43 734h469v-74l-370 -581h370v-79h-480v74l368 581h-357v79z" />
    <glyph glyph-name="zdotaccent" unicode="&#x17c;" horiz-adv-x="437" 
d="M39 512h371v-70l-274 -366h275v-76h-384v71l272 366h-260v75zM177 734h92v-107h-92v107z" />
    <glyph glyph-name="Zcaron" unicode="&#x17d;" horiz-adv-x="550" 
d="M249 766l-122 113l29 37l120 -79l120 79l29 -37l-122 -113h-54zM43 734h469v-74l-370 -581h370v-79h-480v74l368 581h-357v79z" />
    <glyph glyph-name="zcaron" unicode="&#x17e;" horiz-adv-x="437" 
d="M195 579l-119 142l36 33l110 -103l109 103l37 -33l-120 -142h-53zM39 512h371v-70l-274 -366h275v-76h-384v71l272 366h-260v75z" />
    <glyph glyph-name="longs" unicode="&#x17f;" horiz-adv-x="281" 
d="M312 664q-15 5 -31.5 8t-35.5 3q-44 0 -59.5 -28t-15.5 -83v-564h-92v554q0 45 7.5 80.5t26 60t49 38t76.5 13.5q26 0 48.5 -4t36.5 -8z" />
    <glyph glyph-name="dotlessj" unicode="&#x237;" horiz-adv-x="232" 
d="M-56 -117q16 -4 29.5 -6t29.5 -2q38 0 53.5 26.5t15.5 83.5v527h92v-516q0 -96 -35.5 -143.5t-119.5 -47.5q-20 0 -40.5 3t-34.5 8z" />
    <glyph glyph-name="circumflex" unicode="&#x2c6;" 
d="M277 743l119 -142l-36 -33l-111 102l-108 -102l-37 33l120 142h53z" />
    <glyph glyph-name="caron" unicode="&#x2c7;" 
d="M223 579l-119 142l36 33l110 -103l109 103l37 -33l-120 -142h-53z" />
    <glyph glyph-name="uni02C9" unicode="&#x2c9;" 
d="M114 688h271v-66h-271v66z" />
    <glyph glyph-name="breve" unicode="&#x2d8;" 
d="M165 732q15 -85 85 -85q38 0 59 21.5t32 63.5l52 -7q-11 -72 -48 -108t-97 -36q-124 0 -139 144z" />
    <glyph glyph-name="dieresis" unicode="&#xa8;" 
d="M290 710h84v-98h-84v98zM126 710h84v-98h-84v98z" />
    <glyph glyph-name="macron" unicode="&#xaf;" 
d="M114 688h271v-66h-271v66z" />
    <glyph glyph-name="degree" unicode="&#xb0;" horiz-adv-x="304" 
d="M150 527q-52 0 -81 28.5t-29 77.5q0 27 9.5 47.5t25 34.5t36.5 21t44 7q50 0 79.5 -27t29.5 -77q0 -54 -31.5 -83t-82.5 -29zM152 572q24 0 41 14.5t17 49.5q0 34 -17 48t-40 14t-42 -14.5t-19 -48.5t17 -48.5t43 -14.5z" />
    <glyph glyph-name="acute" unicode="&#xb4;" 
d="M365 702l-146 -134l-38 35l124 153z" />
    <glyph glyph-name="grave" unicode="`" 
d="M196 755l124 -152l-38 -35l-146 134z" />
    <glyph glyph-name="cedilla" unicode="&#xb8;" 
d="M237 0h50l-23 -51q13 6 29 6q35 0 57 -21t22 -59q0 -44 -31.5 -68t-78.5 -24q-25 0 -52.5 10t-48.5 39l34 34q14 -15 28.5 -23t32.5 -8q45 0 45 39q0 20 -11.5 29.5t-29.5 9.5q-9 0 -16.5 -3t-13.5 -7l-28 13z" />
    <glyph glyph-name="dotaccent" unicode="&#x2d9;" 
d="M204 734h92v-107h-92v107z" />
    <glyph glyph-name="ring" unicode="&#x2da;" 
d="M248 576q-51 0 -74 24.5t-23 64.5q0 42 30 65.5t71 23.5q45 0 71.5 -23t26.5 -63q0 -42 -26.5 -67t-75.5 -25zM250 619q39 0 39 47q0 25 -10.5 35t-27.5 10q-18 0 -30 -10.5t-12 -35.5q0 -46 41 -46z" />
    <glyph glyph-name="ogonek" unicode="&#x2db;" 
d="M284 5q-32 -31 -55 -57.5t-23 -50.5q0 -17 8 -23t20 -6q16 0 26 11t19 27l44 -23q-38 -78 -112 -78q-34 0 -57.5 15.5t-23.5 49.5q0 38 26 71t69 66z" />
    <glyph glyph-name="tilde" unicode="&#x2dc;" 
d="M105 614q11 55 34 75.5t46 20.5q18 0 35 -5t32.5 -10.5t30 -10.5t27.5 -5q12 0 20.5 9t16.5 33l47 -8q-12 -56 -34 -77t-46 -21q-19 0 -36.5 5t-33.5 10.5t-30 10.5t-26 5q-25 0 -35 -39z" />
    <glyph glyph-name="hungarumlaut" unicode="&#x2dd;" 
d="M458 705l-144 -135l-33 31l122 151zM320 711l-132 -140l-36 28l109 157z" />
    <glyph glyph-name="perthousand" unicode="&#x2030;" horiz-adv-x="1016" 
d="M22 560q0 78 44 126t123 48q80 0 116.5 -46t36.5 -122q0 -81 -39.5 -129t-122.5 -48q-82 0 -120 46.5t-38 124.5zM832 -11q-82 0 -120 46.5t-38 124.5t44 126t123 48q80 0 117 -46t37 -122q0 -81 -40 -129t-123 -48zM835 47q46 0 66.5 29t20.5 88q0 55 -19 84t-65 29
q-45 0 -68.5 -29.5t-23.5 -85.5q0 -54 21.5 -84.5t67.5 -30.5zM183 447q46 0 66.5 29t20.5 88q0 55 -19.5 83.5t-64.5 28.5t-68.5 -29t-23.5 -85q0 -55 21.5 -85t67.5 -30zM479 -11q-82 0 -120 46.5t-38 124.5t44 126t122 48q80 0 117 -46t37 -122q0 -81 -39.5 -129
t-122.5 -48zM482 47q46 0 66.5 29t20.5 88q0 55 -19.5 84t-64.5 29t-68.5 -29.5t-23.5 -85.5q0 -54 21 -84.5t68 -30.5zM61 218l564 389l45 -54l-567 -392z" />
    <glyph glyph-name="percent" unicode="%" horiz-adv-x="838" 
d="M617 754l62 -34l-453 -739l-60 37zM640 -11q-89 0 -131 53t-42 142q0 45 12.5 81.5t36 62.5t57 40.5t76.5 14.5q87 0 128 -52.5t41 -139.5q0 -92 -44 -147t-134 -55zM643 47q52 0 75 35.5t23 106.5q0 66 -21.5 100.5t-73.5 34.5q-51 0 -77 -35.5t-26 -101.5
q0 -67 23.5 -103.5t76.5 -36.5zM193 340q-89 0 -131 53t-42 142q0 45 12.5 81.5t36 62.5t57.5 40.5t77 14.5q86 0 127 -52.5t41 -139.5q0 -92 -44 -147t-134 -55zM197 398q51 0 74.5 35.5t23.5 105.5q0 67 -22 101t-74 34q-51 0 -77 -35t-26 -102q0 -66 24 -102.5t77 -36.5z
" />
    <glyph glyph-name="fraction" unicode="&#x2044;" horiz-adv-x="198" 
d="M293 754l62 -34l-452 -739l-61 37z" />
    <glyph glyph-name="zerosuperior" unicode="&#x2070;" horiz-adv-x="465" 
d="M230 383q-94 0 -137.5 60.5t-43.5 172.5q0 114 50 175.5t141 61.5q92 0 134.5 -60t42.5 -169q0 -116 -46 -178.5t-141 -62.5zM233 446q56 0 80 42.5t24 132.5q0 85 -23 127t-77 42q-108 0 -108 -171q0 -85 23.5 -129t80.5 -44z" />
    <glyph glyph-name="onesuperior" unicode="&#xb9;" horiz-adv-x="260" 
d="M16 778q12 4 27.5 11.5t32.5 17t33.5 19.5t28.5 20h51v-456h-78v363q-10 -6 -33.5 -17t-44.5 -19z" />
    <glyph glyph-name="twosuperior" unicode="&#xb2;" horiz-adv-x="384" 
d="M335 453v-63h-284q0 30 0.5 45t2.5 26q5 30 22.5 55t41 46.5t49.5 41t47.5 39.5t36 41t14.5 46q0 35 -21.5 50t-50.5 15q-24 0 -38.5 -8t-21 -21.5t-7 -31.5t2.5 -39l-73 -4q-8 33 -3.5 62t21.5 51.5t47.5 35.5t75.5 13q69 0 108 -32t39 -90q0 -34 -15.5 -60.5t-38 -49.5
t-49.5 -42.5t-50 -39.5t-38.5 -40.5t-15.5 -45.5h198z" />
    <glyph glyph-name="threesuperior" unicode="&#xb3;" horiz-adv-x="389" 
d="M143 652q56 1 86.5 18t30.5 61q0 35 -21 49.5t-53 14.5q-45 0 -59 -24t-6 -75l-73 -5q-8 33 -3.5 62.5t21.5 51.5t47.5 35t75.5 13q68 0 109.5 -28.5t41.5 -85.5q0 -48 -28 -74t-69 -36q54 -11 79.5 -42t25.5 -71q0 -65 -42.5 -99t-112.5 -34q-43 0 -72 10t-47.5 28
t-27.5 44t-10 59l76 5q4 -44 21 -66t62 -22q29 0 51.5 17.5t22.5 57.5q0 46 -31 63t-88 15z" />
    <glyph glyph-name="foursuperior" unicode="&#x2074;" horiz-adv-x="376" 
d="M215 540v216h-2l-128 -216h130zM293 540h57v-62h-57v-88h-78v88h-203v49l190 318h91v-305z" />
    <glyph glyph-name="fivesuperior" unicode="&#x2075;" horiz-adv-x="390" 
d="M194 632q-27 0 -47 -13.5t-31 -31.5l-63 6l17 252h258v-64h-194l-13 -129q15 17 39.5 28t55.5 11q60 0 97 -37.5t37 -112.5q0 -71 -39.5 -114.5t-119.5 -43.5q-43 0 -70.5 11t-44.5 30.5t-25 45t-11 54.5l76 5q5 -48 24 -68t56 -20q32 0 53.5 23t21.5 72q0 54 -21.5 75
t-55.5 21z" />
    <glyph glyph-name="sixsuperior" unicode="&#x2076;" horiz-adv-x="411" 
d="M224 795q-47 0 -69.5 -37t-27.5 -126q20 26 50 36t57 10q26 0 50.5 -8t43 -25.5t29.5 -44t11 -62.5q0 -76 -42 -115.5t-118 -39.5q-86 0 -123 49t-37 161q0 126 43.5 193t136.5 67q40 0 66 -10.5t41 -28.5t20 -42t3 -51l-74 -6q3 38 -10 59t-50 21zM209 623
q-35 0 -59.5 -20.5t-24.5 -62.5t18.5 -70.5t66.5 -28.5q23 0 38.5 8t25 21t13.5 29.5t4 34.5q0 43 -19.5 66t-62.5 23z" />
    <glyph glyph-name="sevensuperior" unicode="&#x2077;" horiz-adv-x="331" 
d="M84 390q4 123 40 217.5t98 173.5h-200v64h282v-46q-40 -49 -66 -97.5t-41 -98t-22 -102.5t-10 -111h-81z" />
    <glyph glyph-name="eightsuperior" unicode="&#x2078;" horiz-adv-x="423" 
d="M207 383q-44 0 -75.5 10t-51 27t-28.5 41t-9 52q0 46 22 76.5t70 46.5q-36 13 -54.5 39t-18.5 62q0 53 40.5 84.5t113.5 31.5q74 0 108.5 -31.5t34.5 -79.5q0 -36 -19 -63t-56 -41q49 -13 72.5 -43t23.5 -75q0 -30 -10 -55t-31 -43t-54 -28.5t-78 -10.5zM208 441
q47 0 70.5 23.5t23.5 61.5q0 35 -20.5 60t-69.5 25q-45 0 -68 -23.5t-23 -64.5q0 -35 19.5 -58.5t67.5 -23.5zM210 664q40 0 55.5 21.5t15.5 48.5q0 26 -14.5 45.5t-54.5 19.5q-41 0 -56 -20t-15 -47q0 -28 15 -48t54 -20z" />
    <glyph glyph-name="ninesuperior" unicode="&#x2079;" horiz-adv-x="411" 
d="M197 442q48 0 69 40.5t25 121.5q-20 -26 -49.5 -36t-56.5 -10q-26 0 -51 8t-44 24.5t-30.5 42.5t-11.5 63q0 74 42.5 115.5t118.5 41.5q82 0 120.5 -47.5t38.5 -156.5q0 -129 -40.5 -197.5t-132.5 -68.5q-40 0 -67 10t-44 28t-25 42t-8 52l74 5q2 -42 18 -60t54 -18z
M207 613q35 0 59.5 21t24.5 65q0 41 -18.5 68.5t-66.5 27.5q-23 0 -38.5 -8t-24.5 -21t-13 -29.5t-4 -34.5q0 -43 19 -66t62 -23z" />
    <glyph glyph-name="zeroinferior" unicode="&#x2080;" horiz-adv-x="465" 
d="M230 -136q-94 0 -137.5 60.5t-43.5 172.5q0 114 50 175.5t141 61.5q92 0 134.5 -60t42.5 -169q0 -116 -46 -178.5t-141 -62.5zM233 -73q56 0 80 42.5t24 132.5q0 85 -23 127t-77 42q-108 0 -108 -171q0 -85 23.5 -129t80.5 -44z" />
    <glyph glyph-name="oneinferior" unicode="&#x2081;" horiz-adv-x="260" 
d="M16 259q12 4 27.5 11.5t32.5 17t33.5 19.5t28.5 20h51v-456h-78v363q-10 -6 -33.5 -17t-44.5 -19z" />
    <glyph glyph-name="twoinferior" unicode="&#x2082;" horiz-adv-x="384" 
d="M335 -66v-63h-284q0 30 0.5 45t2.5 26q5 30 22.5 55t41 46.5t49.5 41t47.5 39.5t36 41t14.5 46q0 35 -21.5 50t-50.5 15q-24 0 -38.5 -8t-21 -21.5t-7 -31.5t2.5 -39l-73 -4q-8 33 -3.5 62t21.5 51.5t47.5 35.5t75.5 13q69 0 108 -32t39 -90q0 -34 -15.5 -60.5t-38 -49.5
t-49.5 -42.5t-50 -39.5t-38.5 -40.5t-15.5 -45.5h198z" />
    <glyph glyph-name="threeinferior" unicode="&#x2083;" horiz-adv-x="389" 
d="M143 133q56 1 86.5 18t30.5 61q0 35 -21 49.5t-53 14.5q-45 0 -59 -24t-6 -75l-73 -5q-8 33 -3.5 62.5t21.5 51.5t47.5 35t75.5 13q68 0 109.5 -28.5t41.5 -85.5q0 -48 -28 -74t-69 -36q54 -11 79.5 -42t25.5 -71q0 -65 -42.5 -99t-112.5 -34q-43 0 -72 10t-47.5 28
t-27.5 44t-10 59l76 5q4 -44 21 -66t62 -22q29 0 51.5 17.5t22.5 57.5q0 46 -31 63t-88 15z" />
    <glyph glyph-name="fourinferior" unicode="&#x2084;" horiz-adv-x="376" 
d="M215 21v216h-2l-128 -216h130zM293 21h57v-62h-57v-88h-78v88h-203v49l190 318h91v-305z" />
    <glyph glyph-name="fiveinferior" unicode="&#x2085;" horiz-adv-x="390" 
d="M194 113q-27 0 -47 -13.5t-31 -31.5l-63 6l17 252h258v-64h-194l-13 -129q15 17 39.5 28t55.5 11q60 0 97 -37.5t37 -112.5q0 -71 -39.5 -114.5t-119.5 -43.5q-43 0 -70.5 11t-44.5 30.5t-25 45t-11 54.5l76 5q5 -48 24 -68t56 -20q32 0 53.5 23t21.5 72q0 54 -21.5 75
t-55.5 21z" />
    <glyph glyph-name="sixinferior" unicode="&#x2086;" horiz-adv-x="411" 
d="M224 276q-47 0 -69.5 -37t-27.5 -126q20 26 50 36t57 10q26 0 50.5 -8t43 -25.5t29.5 -44t11 -62.5q0 -76 -42 -115.5t-118 -39.5q-86 0 -123 49t-37 161q0 126 43.5 193t136.5 67q40 0 66 -10.5t41 -28.5t20 -42t3 -51l-74 -6q3 38 -10 59t-50 21zM209 104
q-35 0 -59.5 -20.5t-24.5 -62.5t18.5 -70.5t66.5 -28.5q23 0 38.5 8t25 21t13.5 29.5t4 34.5q0 43 -19.5 66t-62.5 23z" />
    <glyph glyph-name="seveninferior" unicode="&#x2087;" horiz-adv-x="331" 
d="M84 -129q4 123 40 217.5t98 173.5h-200v64h282v-46q-40 -49 -66 -97.5t-41 -98t-22 -102.5t-10 -111h-81z" />
    <glyph glyph-name="eightinferior" unicode="&#x2088;" horiz-adv-x="423" 
d="M207 -136q-44 0 -75.5 10t-51 27t-28.5 41t-9 52q0 46 22 76.5t70 46.5q-36 13 -54.5 39t-18.5 62q0 53 40.5 84.5t113.5 31.5q74 0 108.5 -31.5t34.5 -79.5q0 -36 -19 -63t-56 -41q49 -13 72.5 -43t23.5 -75q0 -30 -10 -55t-31 -43t-54 -28.5t-78 -10.5zM208 -78
q47 0 70.5 23.5t23.5 61.5q0 35 -20.5 60t-69.5 25q-45 0 -68 -23.5t-23 -64.5q0 -35 19.5 -58.5t67.5 -23.5zM210 145q40 0 55.5 21.5t15.5 48.5q0 26 -14.5 45.5t-54.5 19.5q-41 0 -56 -20t-15 -47q0 -28 15 -48t54 -20z" />
    <glyph glyph-name="nineinferior" unicode="&#x2089;" horiz-adv-x="411" 
d="M197 -77q48 0 69 40.5t25 121.5q-20 -26 -49.5 -36t-56.5 -10q-26 0 -51 8t-44 24.5t-30.5 42.5t-11.5 63q0 74 42.5 115.5t118.5 41.5q82 0 120.5 -47.5t38.5 -156.5q0 -129 -40.5 -197.5t-132.5 -68.5q-40 0 -67 10t-44 28t-25 42t-8 52l74 5q2 -42 18 -60t54 -18z
M207 94q35 0 59.5 21t24.5 65q0 41 -18.5 68.5t-66.5 27.5q-23 0 -38.5 -8t-24.5 -21t-13 -29.5t-4 -34.5q0 -43 19 -66t62 -23z" />
    <glyph glyph-name="zero.num" horiz-adv-x="465" 
d="M230 272q-94 0 -137.5 60.5t-43.5 172.5q0 114 50 175.5t141 61.5q92 0 134.5 -60t42.5 -169q0 -116 -46 -178.5t-141 -62.5zM233 335q56 0 80 42.5t24 132.5q0 85 -23 127t-77 42q-108 0 -108 -171q0 -85 23.5 -129t80.5 -44z" />
    <glyph glyph-name="one.num" horiz-adv-x="260" 
d="M16 667q12 4 27.5 11.5t32.5 17t33.5 19.5t28.5 20h51v-456h-78v363q-10 -6 -33.5 -17t-44.5 -19z" />
    <glyph glyph-name="two.num" horiz-adv-x="384" 
d="M335 342v-63h-284q0 30 0.5 45t2.5 26q5 30 22.5 55t41 46.5t49.5 41t47.5 39.5t36 41t14.5 46q0 35 -21.5 50t-50.5 15q-24 0 -38.5 -8t-21 -21.5t-7 -31.5t2.5 -39l-73 -4q-8 33 -3.5 62t21.5 51.5t47.5 35.5t75.5 13q69 0 108 -32t39 -90q0 -34 -15.5 -60.5t-38 -49.5
t-49.5 -42.5t-50 -39.5t-38.5 -40.5t-15.5 -45.5h198z" />
    <glyph glyph-name="three.num" horiz-adv-x="389" 
d="M143 541q56 1 86.5 18t30.5 61q0 35 -21 49.5t-53 14.5q-45 0 -59 -24t-6 -75l-73 -5q-8 33 -3.5 62.5t21.5 51.5t47.5 35t75.5 13q68 0 109.5 -28.5t41.5 -85.5q0 -48 -28 -74t-69 -36q54 -11 79.5 -42t25.5 -71q0 -65 -42.5 -99t-112.5 -34q-43 0 -72 10t-47.5 28
t-27.5 44t-10 59l76 5q4 -44 21 -66t62 -22q29 0 51.5 17.5t22.5 57.5q0 46 -31 63t-88 15z" />
    <glyph glyph-name="four.num" horiz-adv-x="376" 
d="M215 429v216h-2l-128 -216h130zM293 429h57v-62h-57v-88h-78v88h-203v49l190 318h91v-305z" />
    <glyph glyph-name="five.num" horiz-adv-x="390" 
d="M194 521q-27 0 -47 -13.5t-31 -31.5l-63 6l17 252h258v-64h-194l-13 -129q15 17 39.5 28t55.5 11q60 0 97 -37.5t37 -112.5q0 -71 -39.5 -114.5t-119.5 -43.5q-43 0 -70.5 11t-44.5 30.5t-25 45t-11 54.5l76 5q5 -48 24 -68t56 -20q32 0 53.5 23t21.5 72q0 54 -21.5 75
t-55.5 21z" />
    <glyph glyph-name="six.num" horiz-adv-x="411" 
d="M224 684q-47 0 -69.5 -37t-27.5 -126q20 26 50 36t57 10q26 0 50.5 -8t43 -25.5t29.5 -44t11 -62.5q0 -76 -42 -115.5t-118 -39.5q-86 0 -123 49t-37 161q0 126 43.5 193t136.5 67q40 0 66 -10.5t41 -28.5t20 -42t3 -51l-74 -6q3 38 -10 59t-50 21zM209 512
q-35 0 -59.5 -20.5t-24.5 -62.5t18.5 -70.5t66.5 -28.5q23 0 38.5 8t25 21t13.5 29.5t4 34.5q0 43 -19.5 66t-62.5 23z" />
    <glyph glyph-name="seven.num" horiz-adv-x="331" 
d="M84 279q4 123 40 217.5t98 173.5h-200v64h282v-46q-40 -49 -66 -97.5t-41 -98t-22 -102.5t-10 -111h-81z" />
    <glyph glyph-name="eight.num" horiz-adv-x="423" 
d="M207 272q-44 0 -75.5 10t-51 27t-28.5 41t-9 52q0 46 22 76.5t70 46.5q-36 13 -54.5 39t-18.5 62q0 53 40.5 84.5t113.5 31.5q74 0 108.5 -31.5t34.5 -79.5q0 -36 -19 -63t-56 -41q49 -13 72.5 -43t23.5 -75q0 -30 -10 -55t-31 -43t-54 -28.5t-78 -10.5zM208 330
q47 0 70.5 23.5t23.5 61.5q0 35 -20.5 60t-69.5 25q-45 0 -68 -23.5t-23 -64.5q0 -35 19.5 -58.5t67.5 -23.5zM210 553q40 0 55.5 21.5t15.5 48.5q0 26 -14.5 45.5t-54.5 19.5q-41 0 -56 -20t-15 -47q0 -28 15 -48t54 -20z" />
    <glyph glyph-name="nine.num" horiz-adv-x="411" 
d="M197 331q48 0 69 40.5t25 121.5q-20 -26 -49.5 -36t-56.5 -10q-26 0 -51 8t-44 24.5t-30.5 42.5t-11.5 63q0 74 42.5 115.5t118.5 41.5q82 0 120.5 -47.5t38.5 -156.5q0 -129 -40.5 -197.5t-132.5 -68.5q-40 0 -67 10t-44 28t-25 42t-8 52l74 5q2 -42 18 -60t54 -18z
M207 502q35 0 59.5 21t24.5 65q0 41 -18.5 68.5t-66.5 27.5q-23 0 -38.5 -8t-24.5 -21t-13 -29.5t-4 -34.5q0 -43 19 -66t62 -23z" />
    <glyph glyph-name="zero.denom" horiz-adv-x="465" 
d="M230 -6q-94 0 -137.5 60.5t-43.5 172.5q0 114 50 175.5t141 61.5q92 0 134.5 -60t42.5 -169q0 -116 -46 -178.5t-141 -62.5zM233 57q56 0 80 42.5t24 132.5q0 85 -23 127t-77 42q-108 0 -108 -171q0 -85 23.5 -129t80.5 -44z" />
    <glyph glyph-name="one.denom" horiz-adv-x="260" 
d="M16 389q12 4 27.5 11.5t32.5 17t33.5 19.5t28.5 20h51v-456h-78v363q-10 -6 -33.5 -17t-44.5 -19z" />
    <glyph glyph-name="two.denom" horiz-adv-x="384" 
d="M335 64v-63h-284q0 30 0.5 45t2.5 26q5 30 22.5 55t41 46.5t49.5 41t47.5 39.5t36 41t14.5 46q0 35 -21.5 50t-50.5 15q-24 0 -38.5 -8t-21 -21.5t-7 -31.5t2.5 -39l-73 -4q-8 33 -3.5 62t21.5 51.5t47.5 35.5t75.5 13q69 0 108 -32t39 -90q0 -34 -15.5 -60.5t-38 -49.5
t-49.5 -42.5t-50 -39.5t-38.5 -40.5t-15.5 -45.5h198z" />
    <glyph glyph-name="three.denom" horiz-adv-x="389" 
d="M143 263q56 1 86.5 18t30.5 61q0 35 -21 49.5t-53 14.5q-45 0 -59 -24t-6 -75l-73 -5q-8 33 -3.5 62.5t21.5 51.5t47.5 35t75.5 13q68 0 109.5 -28.5t41.5 -85.5q0 -48 -28 -74t-69 -36q54 -11 79.5 -42t25.5 -71q0 -65 -42.5 -99t-112.5 -34q-43 0 -72 10t-47.5 28
t-27.5 44t-10 59l76 5q4 -44 21 -66t62 -22q29 0 51.5 17.5t22.5 57.5q0 46 -31 63t-88 15z" />
    <glyph glyph-name="four.denom" horiz-adv-x="376" 
d="M215 151v216h-2l-128 -216h130zM293 151h57v-62h-57v-88h-78v88h-203v49l190 318h91v-305z" />
    <glyph glyph-name="five.denom" horiz-adv-x="390" 
d="M194 243q-27 0 -47 -13.5t-31 -31.5l-63 6l17 252h258v-64h-194l-13 -129q15 17 39.5 28t55.5 11q60 0 97 -37.5t37 -112.5q0 -71 -39.5 -114.5t-119.5 -43.5q-43 0 -70.5 11t-44.5 30.5t-25 45t-11 54.5l76 5q5 -48 24 -68t56 -20q32 0 53.5 23t21.5 72q0 54 -21.5 75
t-55.5 21z" />
    <glyph glyph-name="six.denom" horiz-adv-x="411" 
d="M224 406q-47 0 -69.5 -37t-27.5 -126q20 26 50 36t57 10q26 0 50.5 -8t43 -25.5t29.5 -44t11 -62.5q0 -76 -42 -115.5t-118 -39.5q-86 0 -123 49t-37 161q0 126 43.5 193t136.5 67q40 0 66 -10.5t41 -28.5t20 -42t3 -51l-74 -6q3 38 -10 59t-50 21zM209 234
q-35 0 -59.5 -20.5t-24.5 -62.5t18.5 -70.5t66.5 -28.5q23 0 38.5 8t25 21t13.5 29.5t4 34.5q0 43 -19.5 66t-62.5 23z" />
    <glyph glyph-name="seven.denom" horiz-adv-x="331" 
d="M84 1q4 123 40 217.5t98 173.5h-200v64h282v-46q-40 -49 -66 -97.5t-41 -98t-22 -102.5t-10 -111h-81z" />
    <glyph glyph-name="eight.denom" horiz-adv-x="423" 
d="M207 -6q-44 0 -75.5 10t-51 27t-28.5 41t-9 52q0 46 22 76.5t70 46.5q-36 13 -54.5 39t-18.5 62q0 53 40.5 84.5t113.5 31.5q74 0 108.5 -31.5t34.5 -79.5q0 -36 -19 -63t-56 -41q49 -13 72.5 -43t23.5 -75q0 -30 -10 -55t-31 -43t-54 -28.5t-78 -10.5zM208 52
q47 0 70.5 23.5t23.5 61.5q0 35 -20.5 60t-69.5 25q-45 0 -68 -23.5t-23 -64.5q0 -35 19.5 -58.5t67.5 -23.5zM210 275q40 0 55.5 21.5t15.5 48.5q0 26 -14.5 45.5t-54.5 19.5q-41 0 -56 -20t-15 -47q0 -28 15 -48t54 -20z" />
    <glyph glyph-name="nine.denom" horiz-adv-x="411" 
d="M197 53q48 0 69 40.5t25 121.5q-20 -26 -49.5 -36t-56.5 -10q-26 0 -51 8t-44 24.5t-30.5 42.5t-11.5 63q0 74 42.5 115.5t118.5 41.5q82 0 120.5 -47.5t38.5 -156.5q0 -129 -40.5 -197.5t-132.5 -68.5q-40 0 -67 10t-44 28t-25 42t-8 52l74 5q2 -42 18 -60t54 -18z
M207 224q35 0 59.5 21t24.5 65q0 41 -18.5 68.5t-66.5 27.5q-23 0 -38.5 -8t-24.5 -21t-13 -29.5t-4 -34.5q0 -43 19 -66t62 -23z" />
    <glyph glyph-name="onehalf" unicode="&#xbd;" horiz-adv-x="960" 
d="M842 64v-63h-284q0 30 0.5 45t2.5 26q5 30 22.5 55t41 46.5t49.5 41t47.5 39.5t36 41t14.5 46q0 35 -21.5 50t-50.5 15q-24 0 -38.5 -8t-21 -21.5t-7 -31.5t2.5 -39l-73 -4q-8 33 -3.5 62t21.5 51.5t47.5 35.5t75.5 13q69 0 108 -32t39 -90q0 -34 -15.5 -60.5t-38 -49.5
t-49.5 -42.5t-50 -39.5t-38.5 -40.5t-15.5 -45.5h198zM67 667q12 4 27.5 11.5t32.5 17t33.5 19.5t28.5 20h51v-456h-78v363q-10 -6 -33.5 -17t-44.5 -19zM620 754l62 -34l-452 -739l-61 37z" />
    <glyph glyph-name="onequarter" unicode="&#xbc;" horiz-adv-x="960" 
d="M694 151v216h-2l-128 -216h130zM772 151h57v-62h-57v-88h-78v88h-203v49l190 318h91v-305zM62 667q12 4 27.5 11.5t32.5 17t33.5 19.5t28.5 20h51v-456h-78v363q-10 -6 -33.5 -17t-44.5 -19zM617 754l62 -34l-452 -739l-61 37z" />
    <glyph glyph-name="threequarters" unicode="&#xbe;" horiz-adv-x="960" 
d="M753 151v216h-2l-128 -216h130zM831 151h57v-62h-57v-88h-78v88h-203v49l190 318h91v-305zM158 541q56 1 86.5 18t30.5 61q0 35 -21 49.5t-53 14.5q-45 0 -59 -24t-6 -75l-73 -5q-8 33 -3.5 62.5t21.5 51.5t47.5 35t75.5 13q68 0 109.5 -28.5t41.5 -85.5q0 -48 -28 -74
t-69 -36q54 -11 79.5 -42t25.5 -71q0 -65 -42.5 -99t-112.5 -34q-43 0 -72 10t-47.5 28t-27.5 44t-10 59l76 5q4 -44 21 -66t62 -22q29 0 51.5 17.5t22.5 57.5q0 46 -31 63t-88 15zM687 754l62 -34l-452 -739l-61 37z" />
    <glyph glyph-name="onethird" unicode="&#x2153;" horiz-adv-x="960" 
d="M663 263q56 1 86.5 18t30.5 61q0 35 -21 49.5t-53 14.5q-45 0 -59 -24t-6 -75l-73 -5q-8 33 -3.5 62.5t21.5 51.5t47.5 35t75.5 13q68 0 109.5 -28.5t41.5 -85.5q0 -48 -28 -74t-69 -36q54 -11 79.5 -42t25.5 -71q0 -65 -42.5 -99t-112.5 -34q-43 0 -72 10t-47.5 28
t-27.5 44t-10 59l76 5q4 -44 21 -66t62 -22q29 0 51.5 17.5t22.5 57.5q0 46 -31 63t-88 15zM51 667q12 4 27.5 11.5t32.5 17t33.5 19.5t28.5 20h51v-456h-78v363q-10 -6 -33.5 -17t-44.5 -19zM604 754l62 -34l-452 -739l-61 37z" />
    <glyph glyph-name="twothirds" unicode="&#x2154;" horiz-adv-x="960" 
d="M706 263q56 1 86.5 18t30.5 61q0 35 -21 49.5t-53 14.5q-45 0 -59 -24t-6 -75l-73 -5q-8 33 -3.5 62.5t21.5 51.5t47.5 35t75.5 13q68 0 109.5 -28.5t41.5 -85.5q0 -48 -28 -74t-69 -36q54 -11 79.5 -42t25.5 -71q0 -65 -42.5 -99t-112.5 -34q-43 0 -72 10t-47.5 28
t-27.5 44t-10 59l76 5q4 -44 21 -66t62 -22q29 0 51.5 17.5t22.5 57.5q0 46 -31 63t-88 15zM337 342v-63h-284q0 30 0.5 45t2.5 26q5 30 22.5 55t41 46.5t49.5 41t47.5 39.5t36 41t14.5 46q0 35 -21.5 50t-50.5 15q-24 0 -38.5 -8t-21 -21.5t-7 -31.5t2.5 -39l-73 -4
q-8 33 -3.5 62t21.5 51.5t47.5 35.5t75.5 13q69 0 108 -32t39 -90q0 -34 -15.5 -60.5t-38 -49.5t-49.5 -42.5t-50 -39.5t-38.5 -40.5t-15.5 -45.5h198zM672 754l62 -34l-452 -739l-61 37z" />
    <glyph glyph-name="zero.slash" horiz-adv-x="580" 
d="M286 -12q-130 0 -190 98t-60 279q0 91 18 162t52.5 120t84 74.5t111.5 25.5q63 0 108.5 -25t75 -72t43.5 -115.5t14 -155.5q0 -188 -62.5 -289.5t-194.5 -101.5zM292 65q79 0 114 69t40 197h-313q5 -127 41.5 -196.5t117.5 -69.5zM297 669q-78 0 -118 -67.5t-45 -191.5
h312q-4 123 -38.5 191t-110.5 68z" />
    <glyph glyph-name="zero.tf" horiz-adv-x="580" 
d="M286 -12q-130 0 -190 98t-60 279q0 91 18 162t52.5 120t84 74.5t111.5 25.5q63 0 108.5 -25t75 -72t43.5 -115.5t14 -155.5q0 -188 -62.5 -289.5t-194.5 -101.5zM292 65q43 0 72.5 20.5t48 60t26.5 96.5t8 131q0 70 -8 125t-26 93t-46.5 58t-69.5 20q-83 0 -123.5 -79
t-40.5 -221q0 -72 8.5 -128.5t27.5 -95.5t49 -59.5t74 -20.5z" />
    <glyph glyph-name="one.tf" horiz-adv-x="580" 
d="M121 80h142v535q-9 -7 -25 -16t-35.5 -19t-40 -19t-39.5 -16l-19 77q23 9 49 22t51.5 28t49 31t41.5 32h63v-655h129v-80h-366v80z" />
    <glyph glyph-name="two.tf" horiz-adv-x="580" 
d="M493 79v-79h-416q0 6 -0.5 14t-0.5 18q0 17 1 35t3 30q6 52 33 93t63.5 76.5t77.5 67.5t75.5 65t57 69.5t22.5 80.5q0 34 -10.5 57t-28 37.5t-40.5 20.5t-47 6q-41 0 -65.5 -14t-36.5 -38t-13 -55.5t4 -66.5l-89 -6q-11 51 -5 98t31 82t70 56t111 21q102 0 159 -52
t57 -145q0 -55 -24.5 -99t-61.5 -82t-79.5 -71t-79 -67t-60 -71t-22.5 -81h314z" />
    <glyph glyph-name="three.tf" horiz-adv-x="580" 
d="M227 415q42 0 75.5 7.5t57.5 23.5t37 42.5t13 64.5q0 62 -37 89.5t-93 27.5q-77 0 -101 -46t-12 -127l-89 -7q-11 51 -4.5 97.5t31 82t69 56.5t110.5 21q49 0 90 -11.5t70.5 -34.5t46 -58t16.5 -82q0 -37 -11.5 -66t-31.5 -51t-46.5 -36.5t-57.5 -21.5q40 -8 70 -26
t50 -42.5t29.5 -54t9.5 -60.5q0 -52 -16.5 -92t-46.5 -67.5t-71.5 -41.5t-91.5 -14q-65 0 -109 17t-71 47t-39.5 72t-15.5 92l93 6q3 -38 11 -67.5t24.5 -49.5t42.5 -30t65 -10q23 0 46 7t41 23t29.5 42t11.5 64q0 41 -13 68.5t-37 44t-59 22.5t-79 5z" />
    <glyph glyph-name="four.tf" horiz-adv-x="580" 
d="M353 238v373h-3l-215 -373h218zM446 238h92v-81h-92v-157h-93v157h-312v64l299 513h106v-496z" />
    <glyph glyph-name="five.tf" horiz-adv-x="580" 
d="M286 408q-45 0 -79.5 -24.5t-52.5 -55.5l-73 8l23 398h381v-81h-302l-20 -234q23 27 61 47t87 20q46 0 84 -16t65 -47.5t42 -77t15 -105.5q0 -55 -15 -101.5t-44 -80t-73 -52t-102 -18.5q-62 0 -103 18t-66 49.5t-37 72.5t-16 88l91 6q8 -83 41 -120t96 -37q28 0 52 10
t41.5 31t27.5 53.5t10 76.5q0 46 -10 79t-28 53.5t-42.5 30t-53.5 9.5z" />
    <glyph glyph-name="six.tf" horiz-adv-x="580" 
d="M324 670q-41 0 -70.5 -16t-49.5 -51.5t-31.5 -90.5t-15.5 -133q18 23 39 38.5t44 25t46 13.5t44 4q40 0 77 -14t65.5 -42t45 -70.5t16.5 -100.5q0 -114 -60.5 -179.5t-174.5 -65.5q-63 0 -108 19t-73.5 59.5t-42 105t-13.5 156.5q0 203 65 311t201 108q59 0 97 -17.5
t59.5 -47t28.5 -67.5t4 -79l-89 -8q5 67 -19 104.5t-85 37.5zM300 388q-29 0 -54.5 -9t-45 -27t-31 -45t-11.5 -63q0 -37 7 -69.5t24 -57t45 -38.5t69 -14q38 0 64 13.5t42 36t23 52.5t7 62q0 75 -32.5 117t-106.5 42z" />
    <glyph glyph-name="seven.tf" horiz-adv-x="580" 
d="M181 0q4 100 19.5 189t43.5 169.5t67 153.5t89 141h-322v81h422v-62q-62 -81 -102.5 -161t-65 -162.5t-36.5 -169t-15 -179.5h-100z" />
    <glyph glyph-name="eight.tf" horiz-adv-x="580" 
d="M285 -12q-65 0 -111 16t-75 44t-42.5 66.5t-13.5 84.5q0 74 33 122.5t102 75.5q-51 21 -78.5 62.5t-27.5 99.5q0 42 15.5 77t45 59.5t71 38t93.5 13.5q54 0 93.5 -13.5t65.5 -37.5t39 -57t13 -72q0 -58 -28.5 -101.5t-82.5 -64.5q72 -23 106.5 -71t34.5 -120
q0 -48 -15 -88.5t-45.5 -70.5t-78.5 -46.5t-114 -16.5zM285 65q78 0 118.5 41t40.5 109q0 30 -8.5 57t-26.5 47.5t-47 32.5t-70 12q-78 0 -116 -42.5t-38 -111.5q0 -30 8 -56.5t25 -46t45 -31t69 -11.5zM289 434q34 0 58 10t38.5 27t21 39.5t6.5 47.5q0 24 -6 44.5t-20 36.5
t-37.5 25t-57.5 9q-35 0 -58.5 -9t-38 -25t-21 -37.5t-6.5 -46.5t6.5 -47t20.5 -38.5t37.5 -26t56.5 -9.5z" />
    <glyph glyph-name="nine.tf" horiz-adv-x="580" 
d="M267 65q82 0 116.5 73.5t41.5 217.5q-16 -23 -36.5 -38t-42.5 -25t-45 -14t-44 -4q-41 0 -78.5 13t-66.5 40t-46.5 69t-17.5 100q0 56 15.5 102t45.5 79t73.5 51t100.5 18q60 0 104.5 -18t73.5 -57.5t43.5 -101.5t14.5 -149q0 -105 -14.5 -186t-45 -136t-79 -83
t-116.5 -28q-59 0 -99 17t-64.5 46t-35.5 67t-11 81l89 8q4 -77 33 -109.5t91 -32.5zM282 347q28 0 54 9t45.5 28t31 48t11.5 68q0 35 -7.5 66t-24.5 54t-44.5 36.5t-68.5 13.5q-38 0 -64 -13.5t-42 -36t-23 -52.5t-7 -62q0 -75 32.5 -117t106.5 -42z" />
    <glyph glyph-name="dollar.tf" horiz-adv-x="585" 
d="M341 797v-74q89 -11 134.5 -68t53.5 -148l-87 -14q-6 63 -29.5 100.5t-71.5 49.5v-233q36 -9 72 -20t64 -31.5t45.5 -53.5t17.5 -85q0 -45 -14.5 -81t-40.5 -62t-62.5 -42.5t-81.5 -22.5v-76h-82v74q-101 7 -154 59.5t-63 163.5l91 14q3 -35 10.5 -62t22 -47t37 -32.5
t56.5 -16.5v251q-36 8 -70.5 19t-62 31.5t-44 53.5t-16.5 86q0 43 14.5 77t40.5 58t61 38.5t77 19.5v74h82zM445 209q0 26 -8 44.5t-22 31t-33 21.5t-41 15v-231q53 9 78.5 40t25.5 79zM162 537q0 -47 27.5 -70.5t69.5 -36.5v215q-47 -7 -72 -33.5t-25 -74.5z" />
    <glyph glyph-name="Euro.tf" horiz-adv-x="580" 
d="M331 67q67 0 101.5 43.5t43.5 113.5l86 -9q-17 -119 -78.5 -173t-157.5 -54q-211 0 -245 264h-74l12 70h56q-1 10 -1 20v21v18.5t1 18.5h-48l12 70h42q11 70 35.5 122.5t59.5 87t79 51.5t95 17t91 -18t67.5 -50t41.5 -78t14 -101l-85 -7q-2 51 -12.5 84.5t-28 53.5
t-41.5 28t-53 8q-30 0 -57 -11t-48.5 -35t-37.5 -61.5t-24 -90.5h218l-12 -70h-212v-34v-22.5t1 -21.5h203l-12 -70h-185q26 -185 153 -185z" />
    <glyph glyph-name="cent.tf" horiz-adv-x="572" 
d="M338 693v-82q42 -5 72 -21.5t49.5 -41.5t29.5 -56.5t12 -65.5l-80 -6q-5 51 -26.5 80t-56.5 38v-386q35 8 54 35.5t26 75.5l79 -5q-5 -43 -19 -74.5t-35 -53t-48 -33.5t-57 -17v-83h-82v82q-52 6 -88 28t-58.5 56.5t-33 79t-10.5 95.5q0 115 49.5 185t140.5 86v84h82z
M161 343q0 -78 22.5 -126.5t72.5 -62.5v382q-45 -14 -70 -61t-25 -132z" />
    <glyph glyph-name="sterling.tf" horiz-adv-x="580" 
d="M64 401h72q-20 29 -34.5 64t-14.5 81q0 42 15 79t44.5 64t72 42.5t97.5 15.5q54 0 96 -17t68.5 -49t36.5 -79t0 -108l-88 7q6 49 0 82t-22 52.5t-40.5 27.5t-55.5 8q-58 0 -94 -31t-36 -90q0 -46 18 -81.5t40 -67.5h193v-71h-152q14 -31 14 -63q0 -46 -26 -88t-82 -100
h329v-79h-425v79q60 58 87 99.5t27 79.5q0 20 -6 37.5t-15 34.5h-119v71z" />
    <glyph glyph-name="yen.tf" horiz-adv-x="580" 
d="M339 334v-70h113v-71h-113v-193h-97v193h-127v71h127v70h-127v71h92l-184 329h110l157 -312l164 312h102l-186 -329h82v-71h-113z" />
    <glyph glyph-name="florin.tf" horiz-adv-x="580" 
d="M139 454h99l20 114q7 43 19.5 76t33.5 55.5t53 34.5t77 12q28 0 50.5 -5t36.5 -10l-20 -67q-15 5 -31 8t-35 3q-44 0 -65 -28t-30 -83l-20 -110h125l-13 -69h-124l-61 -351q-7 -42 -20 -74t-34.5 -54.5t-53.5 -34t-77 -11.5q-28 0 -50 5t-34 9l19 68q15 -5 31 -8t35 -3
q42 0 63 27t31 81l61 346h-99z" />
    <glyph glyph-name="comma.tf" horiz-adv-x="282" 
d="M92 118h104v-102l-58 -147l-45 13l29 118h-30v118z" />
    <glyph glyph-name="period.tf" horiz-adv-x="290" 
d="M96 118h99v-118h-99v118z" />
    <glyph glyph-name="perthousand.tf" horiz-adv-x="580" 
d="M554 393v-57h-532v57h532zM149 -10q-63 0 -95 41t-32 110q0 70 37 112.5t97 42.5t92.5 -39t32.5 -110q0 -72 -34 -114.5t-98 -42.5zM429 -10q-64 0 -95 41.5t-31 109.5q0 70 36.5 112.5t96.5 42.5q61 0 92.5 -40.5t31.5 -108.5q0 -72 -34 -114.5t-97 -42.5zM432 42
q32 0 48 27t16 76q0 99 -61 99q-68 0 -68 -101q0 -46 15.5 -73.5t49.5 -27.5zM149 432q-63 0 -95 41t-32 111q0 69 37 111.5t97 42.5q62 0 93 -40.5t31 -108.5q0 -69 -33.5 -113t-97.5 -44zM153 42q32 0 47.5 26.5t15.5 76.5q0 49 -14.5 74t-46.5 25q-67 0 -67 -101
q0 -47 15.5 -74t49.5 -27zM152 484q31 0 47.5 27t16.5 77q0 48 -14.5 73t-49.5 25q-30 0 -47.5 -25t-17.5 -75q0 -49 16 -75.5t49 -26.5z" />
    <glyph glyph-name="percent.tf" horiz-adv-x="580" 
d="M514 393v-57h-452v57h452zM285 -10q-64 0 -95.5 41.5t-31.5 109.5q0 70 37 112.5t97 42.5q61 0 92.5 -40.5t31.5 -108.5q0 -72 -34 -114.5t-97 -42.5zM288 42q32 0 48 27t16 76q0 99 -62 99q-67 0 -67 -101q0 -46 15 -73.5t50 -27.5zM285 432q-63 0 -94.5 41t-31.5 111
q0 69 36.5 111.5t96.5 42.5q63 0 93.5 -40.5t30.5 -108.5q0 -69 -33.5 -113t-97.5 -44zM288 484q31 0 47.5 27t16.5 77q0 48 -14.5 73t-49.5 25q-30 0 -47.5 -25t-17.5 -75q0 -49 16 -75.5t49 -26.5z" />
    <glyph glyph-name="minus" unicode="&#x2212;" horiz-adv-x="580" 
d="M97 295v66h385v-66h-385z" />
    <glyph glyph-name="approxequal" unicode="&#x2248;" horiz-adv-x="580" 
d="M88 172q15 41 43.5 69.5t70.5 28.5q23 0 48 -7.5t47 -16.5q18 -8 40 -16t39 -8q24 0 41 17t28 37l46 -29q-15 -36 -43 -65t-68 -29q-10 0 -32 4t-64 21q-33 13 -50 18t-29 5q-26 0 -42 -17t-29 -42zM89 350q15 41 43.5 69.5t70.5 28.5q23 0 48 -7.5t47 -16.5
q18 -8 40 -16t39 -8q24 0 41 17t28 37l46 -29q-15 -36 -43 -65t-68 -29q-10 0 -32 4t-64 21q-33 13 -50 18t-29 5q-26 0 -42 -17t-29 -42z" />
    <glyph glyph-name="notequal" unicode="&#x2260;" horiz-adv-x="580" 
d="M267 202l-52 -102h-64l53 102h-107v66h141l43 83h-184v65h217l45 88h61l-45 -88h107v-65h-140l-42 -83h182v-66h-215z" />
    <glyph glyph-name="lessequal" unicode="&#x2264;" horiz-adv-x="580" 
d="M98 0v66h385v-66h-385zM97 237v90l385 154v-77l-316 -120l316 -111v-77z" />
    <glyph glyph-name="greaterequal" unicode="&#x2265;" horiz-adv-x="580" 
d="M97 0v66h385v-66h-385zM482 340v-90l-385 -154v78l316 119l-316 112v76z" />
    <glyph glyph-name="less" unicode="&#x3c;" horiz-adv-x="580" 
d="M97 238v91l385 154v-78l-316 -120l316 -111v-77z" />
    <glyph glyph-name="equal" unicode="=" horiz-adv-x="580" 
d="M97 202v66h385v-66h-385zM97 351v65h385v-65h-385z" />
    <glyph glyph-name="greater" unicode="&#x3e;" horiz-adv-x="580" 
d="M482 342v-91l-385 -154v78l316 120l-316 111v77z" />
    <glyph glyph-name="logicalnot" unicode="&#xac;" horiz-adv-x="580" 
d="M410 168v127h-313v66h385v-193h-72z" />
    <glyph glyph-name="plus" unicode="+" horiz-adv-x="580" 
d="M322 295v-160h-66v160h-159v66h159v159h66v-159h160v-66h-160z" />
    <glyph glyph-name="plusminus" unicode="&#xb1;" horiz-adv-x="580" 
d="M322 295v-160h-66v160h-159v66h159v159h66v-159h160v-66h-160zM97 0v66h385v-66h-385z" />
    <glyph glyph-name="divide" unicode="&#xf7;" horiz-adv-x="580" 
d="M97 295v66h385v-66h-385zM240 512h92v-113h-92v113zM240 252h92v-112h-92v112z" />
    <glyph glyph-name="multiply" unicode="&#xd7;" 
d="M295 327l114 -113l-47 -46l-113 113l-113 -113l-46 47l112 112l-112 113l46 47l113 -113l113 113l47 -46z" />
    <glyph glyph-name="partialdiff" unicode="&#x2202;" horiz-adv-x="555" 
d="M412 388q1 56 -3 106t-17.5 87.5t-39 59.5t-68.5 22q-42 0 -79 -13.5t-66 -30.5l-28 59q16 11 38 21.5t45.5 18t48 12t46.5 4.5q63 0 104 -26.5t64.5 -69.5t33 -97.5t9.5 -111.5q0 -39 -3 -87t-11.5 -97t-25.5 -95.5t-45 -82t-69.5 -57.5t-98.5 -22q-59 0 -97.5 20.5
t-61 53.5t-31.5 74t-9 82q0 49 11 95t36 82t66 57.5t101 21.5q47 0 85 -22t65 -64zM395 257q0 32 -8 59.5t-23.5 47t-39 30.5t-54.5 11q-41 0 -66.5 -16.5t-40 -43t-20 -60t-5.5 -66.5q0 -32 5 -60t18.5 -49.5t36 -34t57.5 -12.5q36 0 62.5 17t43.5 45t25.5 62.5t8.5 69.5z
" />
    <glyph glyph-name="Omega" unicode="&#x2126;" horiz-adv-x="841" 
d="M569 74h168v-74h-243v137q27 11 55.5 31.5t51 53.5t37 79.5t14.5 111.5q0 67 -16.5 114.5t-45.5 78t-70.5 45t-90.5 14.5q-48 0 -91 -15t-76 -47t-52.5 -83t-19.5 -123q0 -61 12 -104.5t33 -73.5t50 -49.5t63 -32.5v-137h-252v74h177v37q-51 20 -87 49t-58 65.5t-32 80.5
t-10 94q0 75 23.5 138.5t68 110t108.5 72.5t145 26q84 0 145.5 -26t101.5 -70.5t59 -104t19 -125.5q0 -106 -48 -185t-139 -125v-37z" />
    <glyph glyph-name="Delta" unicode="&#x2206;" horiz-adv-x="682" 
d="M26 0l251 734h125l255 -734h-631zM151 84h374l-186 565h-1z" />
    <glyph glyph-name="product" unicode="&#x220f;" horiz-adv-x="758" 
d="M641 -161h-98v814h-327v-814h-99v895h524v-895z" />
    <glyph glyph-name="summation" unicode="&#x2211;" horiz-adv-x="627" 
d="M135 -96h437v-80h-540v78l236 378l-214 377v77h516v-80h-410l214 -376z" />
    <glyph glyph-name="uni0394" unicode="&#x394;" horiz-adv-x="682" 
d="M26 0l251 734h125l255 -734h-631zM151 84h374l-186 565h-1z" />
    <glyph glyph-name="uni03A9" unicode="&#x3a9;" horiz-adv-x="841" 
d="M569 74h168v-74h-243v137q27 11 55.5 31.5t51 53.5t37 79.5t14.5 111.5q0 67 -16.5 114.5t-45.5 78t-70.5 45t-90.5 14.5q-48 0 -91 -15t-76 -47t-52.5 -83t-19.5 -123q0 -61 12 -104.5t33 -73.5t50 -49.5t63 -32.5v-137h-252v74h177v37q-51 20 -87 49t-58 65.5t-32 80.5
t-10 94q0 75 23.5 138.5t68 110t108.5 72.5t145 26q84 0 145.5 -26t101.5 -70.5t59 -104t19 -125.5q0 -106 -48 -185t-139 -125v-37z" />
    <glyph glyph-name="uni03BC" unicode="&#x3bc;" horiz-adv-x="631" 
d="M108 511h89v-315q0 -32 3.5 -57.5t13 -42.5t26.5 -26t44 -9q69 0 109.5 51.5t40.5 138.5v260h88v-511h-77l-14 87q-32 -47 -71 -69t-97 -22q-48 0 -74 20l-3 -3l12 -189h-90v687z" />
    <glyph glyph-name="pi" unicode="&#x3c0;" horiz-adv-x="651" 
d="M542 0h-91v441h-250v-441h-92v512h433v-512z" />
    <glyph glyph-name="mu" unicode="&#xb5;" horiz-adv-x="631" 
d="M108 511h89v-315q0 -32 3.5 -57.5t13 -42.5t26.5 -26t44 -9q69 0 109.5 51.5t40.5 138.5v260h88v-511h-77l-14 87q-32 -47 -71 -69t-97 -22q-48 0 -74 20l-3 -3l12 -189h-90v687z" />
    <glyph glyph-name="radical" unicode="&#x221a;" horiz-adv-x="580" 
d="M272 0l-141 258l-75 -32l-25 62l144 62l131 -258l173 654l71 -15l-195 -731h-83z" />
    <glyph glyph-name="infinity" unicode="&#x221e;" horiz-adv-x="673" 
d="M489 188q-29 0 -51.5 8.5t-40.5 22t-32.5 29.5t-27.5 30q-12 -13 -27.5 -29t-35 -29.5t-43 -23t-51.5 -9.5q-24 0 -47 8t-41 23.5t-29 40t-11 57.5q0 29 10 54t28 43t43.5 28t57.5 10q26 0 47.5 -8t40 -21t34.5 -29t31 -32q13 15 28.5 30.5t34 29t40.5 22t49 8.5
q25 0 47.5 -8t40 -24.5t28 -42t10.5 -60.5q0 -27 -10.5 -50.5t-28.5 -40.5t-42 -27t-52 -10zM185 240q19 0 37 9t33 22t27.5 27t21.5 24q-24 29 -51.5 52t-64.5 23q-32 0 -50.5 -23t-18.5 -52q0 -14 3.5 -28.5t11.5 -26.5t20.5 -19.5t30.5 -7.5zM378 318q12 -14 24 -27.5
t24.5 -24t27.5 -17.5t33 -7q15 0 27.5 6.5t21.5 17.5t13.5 25t4.5 29q0 13 -3 27t-10.5 25t-19.5 18.5t-30 7.5q-17 0 -32 -7t-28.5 -18.5t-26.5 -25.5t-26 -29z" />
    <glyph glyph-name="integral" unicode="&#x222b;" horiz-adv-x="411" 
d="M358 664q-16 5 -32.5 8t-36.5 3q-43 0 -55 -28t-5 -83l69 -568q4 -36 1 -68.5t-17.5 -57t-43 -39t-73.5 -14.5q-27 0 -50.5 4.5t-37.5 8.5l-1 69q16 -5 32.5 -7.5t36.5 -2.5q42 0 55 27t6 80l-70 567q-4 34 -1.5 67t17 58.5t42.5 41.5t74 16q28 0 53 -4.5t39 -8.5z" />
    <glyph glyph-name="lozenge" unicode="&#x25ca;" horiz-adv-x="571" 
d="M244 46l-169 324l169 324h83l169 -324l-169 -324h-83zM416 370l-131 260l-130 -260l130 -260z" />
    <glyph glyph-name="commaaccent" 
d="M203 -46h93v-85l-42 -112l-44 11l22 86h-29v100z" />
    <glyph glyph-name="revcommaaccent" 
d="M297 580h-94v85l43 112l43 -11l-21 -86h29v-100z" />
    <glyph glyph-name="tilde.cap" 
d="M106 789q11 55 34 75.5t46 20.5q18 0 35 -5t32.5 -10.5t30 -10.5t27.5 -5q12 0 20.5 9t16.5 33l46 -8q-11 -56 -33 -77t-46 -21q-20 0 -37 5t-33 10.5t-30 10.5t-26 5q-25 0 -35 -39z" />
    <glyph glyph-name="ring.cap" 
d="M248 761q-51 0 -74 24.5t-23 64.5q0 42 30 65.5t71 23.5q45 0 71.5 -23t26.5 -63q0 -42 -26.5 -67t-75.5 -25zM250 805q39 0 39 46q0 25 -10.5 35t-27.5 10q-18 0 -30 -10.5t-12 -35.5q0 -24 10.5 -34.5t30.5 -10.5z" />
    <glyph glyph-name="circumflex.cap" 
d="M277 916l122 -117l-29 -36l-120 79l-120 -79l-28 36l122 117h53z" />
    <glyph glyph-name="acute.cap" 
d="M368 851l-178 -88l-26 47l163 110z" />
    <glyph glyph-name="grave.cap" 
d="M174 920l162 -110l-27 -47l-178 88z" />
    <glyph glyph-name="dieresis.cap" 
d="M290 881h84v-97h-84v97zM126 881h84v-97h-84v97z" />
    <glyph glyph-name="caron.cap" 
d="M223 766l-122 113l29 37l120 -79l120 79l29 -37l-122 -113h-54z" />
    <glyph glyph-name="macron.cap" 
d="M114 868h271v-69h-271v69z" />
    <glyph glyph-name="dotaccent.cap" 
d="M204 897h92v-107h-92v107z" />
    <glyph glyph-name="cedilla.cap" 
d="M237 0h50l-23 -51q13 6 29 6q35 0 57 -21t22 -59q0 -44 -31.5 -68t-78.5 -24q-25 0 -52.5 10t-48.5 39l34 34q14 -15 28.5 -23t32.5 -8q45 0 45 39q0 20 -11.5 29.5t-29.5 9.5q-9 0 -16.5 -3t-13.5 -7l-28 13z" />
    <glyph glyph-name="hungarumlaut.cap" 
d="M483 860l-160 -93l-26 39l145 113zM326 868l-150 -100l-28 36l132 122z" />
    <glyph glyph-name="apostrophe" unicode="&#x2bc;" 
d="M296 613h-29l22 -86l-43 -11l-43 112v85h93v-100z" />
    <glyph glyph-name="commaaccent.cap" 
d="M203 -46h93v-85l-42 -112l-44 11l22 86h-29v100z" />
    <glyph glyph-name="breve.cap" 
d="M163 911q12 -40 32 -57t55 -17q37 0 57 17t36 57l52 -11q-14 -66 -51 -98.5t-96 -32.5t-94.5 32.5t-46.5 98.5z" />
    <glyph glyph-name="caron.alt" 
d="M296 734l-28 -196l-49 2l-1 194h78z" />
    <glyph glyph-name="thinspace" unicode="&#x2009;" horiz-adv-x="125" 
 />
    <glyph glyph-name="quotedbl" unicode="&#x22;" horiz-adv-x="350" 
d="M280 734l-9 -214h-62l-7 214h78zM148 734l-9 -214h-62l-7 214h78z" />
    <glyph glyph-name="quotesingle" unicode="'" horiz-adv-x="218" 
d="M148 734l-9 -214h-62l-7 214h78z" />
    </font>
</defs>
</svg>
